<?xml version="1.0" encoding="utf-8"?>
<!-- Generator: Adobe Illustrator 22.0.1, SVG Export Plug-In . SVG Version: 6.00 Build 0)  -->
<svg version="1.1" id="Calque_1" xmlns="http://www.w3.org/2000/svg" xmlns:xlink="http://www.w3.org/1999/xlink" x="0px" y="0px"
	 viewBox="0 0 122.1 122" style="enable-background:new 0 0 122.1 122;" xml:space="preserve">
<style type="text/css">
	.st0{fill:#3B7C9B;}
	.st1{opacity:0.17;}
	.st2{opacity:0.52;fill:#D9FBFF;enable-background:new    ;}
	.st3{opacity:0.36;fill:#B0FBF7;enable-background:new    ;}
	.st4{opacity:0.57;fill:#FFFBCA;enable-background:new    ;}
	.st5{opacity:0.57;fill:#FEEFDE;enable-background:new    ;}
	.st6{opacity:0.57;fill:#AEDEFF;enable-background:new    ;}
	.st7{fill:#E3FDD0;}
	.st8{fill:#C5EFCB;}
	.st9{opacity:0.85;fill:#C3EFDE;enable-background:new    ;}
	.st10{fill:#C1EEF5;}
	.st11{fill:#D6B87C;}
	.st12{fill:#F9F0E5;}
	.st13{fill:#EADDD0;}
	.st14{fill:#0A0A0A;}
	.st15{fill:#04142D;}
	.st16{fill:#FFFFFF;}
	.st17{fill:#AD8097;}
	.st18{fill:#E5E5E5;}
</style>
<rect class="st0" width="121.8" height="122"/>
<g class="st1">
	<path class="st2" d="M73.7,99.3c13.2,2.4,12.6-13.1,3.1-18S61.9,80.7,61,84.7c-0.9,4.1-6,11.6-15.5,11.7c-2.9,0-9.5,1.7-8.4,7
		c3,14.9-23.4,9.8-22.6,18.2H6.1c0.3-12.9,31.3-3.5,29.3-18.1c-1-7.5,6.3-7.9,10.7-8.3c5.5-0.5,9.9-3.7,11.9-11.1
		c3.2-11.7,19.5-10.9,25.3-8.1c9.7,4.7,14.1-2.7,7.4-6.7c-5.9-3.5,9.8-8.6,13.1-1.7c3.2,6.7,18.6,1.3,18.6,1.3v52.7H56.5
		C42.9,111.1,56.5,96.1,73.7,99.3z"/>
	<path class="st2" d="M72.8,22.7c13.2-2.4,12.6,13.1,3.1,18S61,41.3,60.1,37.3c-0.9-4.1-6-11.6-15.5-11.7c-2.9,0-9.5-1.7-8.4-7
		c3-14.9-23.4-9.8-22.6-18.2H5.2c0.3,12.9,31.3,3.5,29.3,18.1c-1,7.5,6.3,7.9,10.7,8.3c5.5,0.5,9.9,3.7,11.9,11.1
		c3.2,11.7,19.5,10.9,25.3,8.1c9.7-4.7,14.1,2.7,7.4,6.7c-5.9,3.5,9.8,8.6,13.1,1.7c3.2-6.7,18.6-1.3,18.6-1.3V0.3H55.6
		C42,10.8,55.6,25.8,72.8,22.7z"/>
	<path class="st3" d="M72.2,121.7c-13.5-10.5,0-25.4,17.2-22.3c13.2,2.4,12.6-13.1,3.1-18c-3.1-1.6-5.8-2.2-8-2.2
		c19-1.2,25.2,24.7,4.8,22.5c-15.9-1.7-23.5,11.1-8.3,19.9C81,121.7,72.2,121.7,72.2,121.7z"/>
	<path class="st4" d="M121.4,38.8c-6-0.2-11,2.5-13.6,7.7c-0.7,1.3-1.8,2.8-3.3,4.1c1.6-0.8,3-1.9,4.2-3.6c4.2-5.7,10.1-5.2,12.7-4
		C121.4,42.9,121.4,38.8,121.4,38.8z"/>
	<path class="st5" d="M121.4,28c-14.3-0.8-18.4,5.4-19.5,8.7c-0.7,2,0.2,5.6-1,8.5c-1.7,4.1-8.8,6-12.8,2.2c3.8,4.6,15.7,3.9,15.3-7
		c-0.3-8,9.9-10.9,18-9.8V28z"/>
	<path class="st5" d="M15.8,53.1c-1.4,7.7,7,19.3,35.3,13.9c11.8-2.3,13.8,3.4,7.9,8.2c-5.6,4.6-14.3,6.8-11.1,12.2
		c-3.4-5,2.9-7,9.7-12.1c6-4.4,3.5-9.1-6.1-7.4C24.8,72.7,12.9,62.7,15.8,53.1z"/>
	<path class="st6" d="M53.3,3.5c6.2,0.7,9.6,0,14.1-1.2c9.9-2.8,17.3,0,26.7,2.9c7.8,2.4,20.1,2.7,28.1,1.6
		c-6.9,1.5-21.5,1.7-29.2-0.7c-10.7-3.4-18-4.6-24.2-3C63.5,4.5,57.8,4.6,53.3,3.5z"/>
	<path class="st7" d="M121.4,99.6c-10.5-10-8.2-17.5,0-18.6V99.6z"/>
	<path class="st8" d="M105.2,110.8c0-1.7-0.8-5.6-4.3-6.6c3.8,0.7,4.9,4.1,5.1,6.2c0.7,5.5,6,10,15.4,7.3v1.6
		C116.7,120.8,105.4,120.3,105.2,110.8z"/>
	<path class="st9" d="M34.3,0.4C6.5,19.2,21.1,67.6,121.1,62.9C49.2,70.5-9,37.6,24.7,0.4H34.3z"/>
	<path class="st5" d="M27.3,99.1c0.3,4.1-2,6.3-8.7,7.5c-9.3,1.6-18.9,4.9-17.3,14.7H0.9c-2.3-11.3,11-14.3,16.7-15.1
		c6.3-0.9,9.1-2.9,9.1-7.2c0-4,2.6-7.4,8.8-6C28.8,92,27.1,96,27.3,99.1z"/>
	<path class="st10" d="M83.8,92.5c-0.1,4.4-3.3,8-10.1,6.7C56.5,96.1,43,111,56.5,121.5h-3.9c-4.6-3.7-8.1-11.5-0.2-19
		c5.4-5.1,17.3-5.9,22-4.6C77.6,98.9,83,96.8,83.8,92.5z"/>
</g>
<g>
	<g>
		<path class="st11" d="M44.6,57.4C41,63.3,41.3,68,42.2,74.5c0.2,1.3,2.2,1.4,2.7,0.4c0.9-1.7,0.7-3.7,0.7-5.5
			c0-3.2-0.2-6.6,0.4-9.8c-1-0.1-2-0.3-2.9-0.4c0.2,4.3-1,10.1,0.4,14.2c0.4,1.2,2.1,1.5,2.7,0.4c2.1-3.8,2.5-9.3,2.7-13.6
			c-1,0-2,0-3,0c0.1,2.9,0.1,5.8,0.2,8.6c0,0.8,0.4,2.4,0.1,3.1c-0.3,0.7,1.2-0.5-0.6,0.1c-1.4,0.4-1.5,2.5,0,2.9
			c7.2,2,6.1-5.1,6.4-10.4c-1,0-2,0-3,0c0,3-0.6,6-0.3,9c0.2,1.9,2.8,1.9,3,0c0.5-4.3,0.7-9.2-2.2-12.8c-0.8-1-2.7-0.2-2.6,1.1
			c0.4,4,0.7,8.1,2.5,11.8c0.5,1.1,2,0.8,2.6,0c1.4-1.9,1.2-5.4,1.4-7.6c-1,0.1-2,0.3-2.9,0.4c0.5,2.5-0.2,5.8,1.9,7.8
			c0.7,0.7,2.3,0.5,2.5-0.7c0.4-2.1,0.4-4.2,0.4-6.3c-1,0-2,0-3,0c0.2,2,0.3,4.3,1.3,6.2c0.7,1.5,2.7,0.6,2.8-0.8
			c0.1-1.7,0.1-3.3,0.1-5c-0.9,0.3-1.9,0.5-2.8,0.8c0.9,2.1,0.5,4.3,2.2,5.9c1,1,2.5,0.2,2.6-1.1c0.1-1.3,0-2.9,0.2-4.3
			c-1,0-1.9,0-2.9,0c0.6,1.5,1,3,1.7,4.4c0.6,1.1,2.5,0.9,2.7-0.4c0.3-1.4,0.4-2.2,0.6-3.6c-1,0.1-2,0.3-2.9,0.4
			c0.1,0.9,0.2,1.8,0.5,2.7c0.5,1.2,2.6,1.6,2.9,0c0.3-1.5,0.4-2.3,0.5-3.8c-0.9,0.3-1.9,0.5-2.8,0.8c0.6,1,0.8,2.3,1.2,3.5
			s2.1,1.5,2.7,0.4c0.6-1.1,0.3-1.4,0.6-2.7c-1,0-1.9,0-2.9,0c0.4,1.1,0.7,2,1.4,2.8s2.3,0.4,2.5-0.7c0.2-0.7,0.3-1.4,0.5-2.1
			c-0.8-0.1-1.6-0.2-2.4-0.3c0.6,1.3,0.8,2.4,1.7,3.5c0.7,0.9,2.2,0.3,2.5-0.7c0.2-0.5,0.3-0.9,0.5-1.4c-0.9,0-1.7,0-2.6,0
			c0.2,0.5,0.5,1,0.7,1.5c0.6,1.3,2.4,1.5,2.9,0s0.3-3.2,0.4-4.8c-1,0.1-2,0.3-2.9,0.4c0.4,1.2,0.5,2.4,1.1,3.5s2.5,0.9,2.7-0.4
			c0.3-1.5,0.4-3,0.6-4.5c-1,0.1-2,0.3-2.9,0.4c0.2,1.7,0.3,4.3,1.3,6c0.7,1.1,2.4,0.9,2.7-0.4c0.7-2.5,0.8-5.1,1.3-7.7
			c-1-0.1-2-0.3-2.9-0.4c0.4,2.8,0,5.4,0.8,8.2c0.4,1.4,2.5,1.4,2.9,0c0.8-3,0.5-6.5,0.8-9.6c-1,0-2,0-3,0c0,3.4,0.6,6.8,1.2,10.1
			c0.3,1.4,2.6,1.4,2.9,0c0.9-4.4,0.7-9,1.3-13.4c-1-0.1-2-0.3-2.9-0.4c-0.1,4.4-0.2,8.8,0.1,13.3c0.2,1.9,3,2,3,0
			c-0.1-5.1,0.4-10.8,1.5-15.8c-1,0-1.9,0-2.9,0c0.8,5,0.1,10.4,0.8,15.5c1-0.3,1.9-0.5,2.9-0.8c-1.3-4.1,0.5-8.7,1.8-12.6
			c1.3-4,0.9-8.6,0.6-12.7c-0.5-6.9-2.6-12.9-7.9-17.6c-1.4-1.3-3.6,0.8-2.1,2.1c6.7,6,7.6,14.4,7.2,22.9
			c-0.3,6.2-4.4,12.3-2.4,18.7c0.6,1.9,3.2,1.1,2.9-0.8c-0.7-5.1,0-10.4-0.8-15.5c-0.2-1.5-2.6-1.4-2.9,0
			c-1.1,5.3-1.6,11.2-1.6,16.6c1,0,2,0,3,0c-0.4-4.4-0.2-8.8-0.1-13.3c0-1.6-2.7-2.1-2.9-0.4c-0.7,4.4-0.4,9-1.3,13.4
			c1,0,1.9,0,2.9,0c-0.6-3.1-1.2-6.2-1.1-9.3c0-2-2.8-1.9-3,0c-0.3,2.8-0.1,6.1-0.7,8.8c1,0,1.9,0,2.9,0c-0.7-2.5-0.4-4.9-0.7-7.4
			c-0.2-1.5-2.6-2.2-2.9-0.4c-0.4,2.6-0.6,5.2-1.3,7.7c0.9-0.1,1.8-0.2,2.7-0.4c-0.7-1.1-0.8-3.9-1-5.3c-0.2-1.8-2.8-1.1-2.9,0.4
			c-0.1,1.3-0.3,2.5-0.5,3.7c0.9-0.1,1.8-0.2,2.7-0.4c-0.4-0.8-0.6-2-0.8-2.8c-0.5-1.7-2.8-1.3-2.9,0.4c-0.1,1.3,0.1,2.7-0.3,4
			c1,0,1.9,0,2.9,0c-0.3-0.8-0.6-1.4-1-2.2c-0.5-1-2.1-1-2.6,0c-0.4,0.8-0.6,1.2-0.8,2.1c0.8-0.2,1.7-0.4,2.5-0.7
			c-0.6-0.7-0.9-2.1-1.2-2.9c-0.4-0.8-1.8-1-2.4-0.3c-0.9,1.1-0.9,2-1.2,3.4c0.8-0.2,1.7-0.4,2.5-0.7c-0.3-0.5-0.5-1-0.6-1.5
			c-0.5-1.3-2.5-1.5-2.9,0c-0.1,0.2-0.2,1.8-0.3,2c0.9,0.1,1.8,0.2,2.7,0.4c-0.5-1.4-0.7-2.9-1.5-4.2c-0.8-1.3-2.7-0.7-2.8,0.8
			c-0.1,1-0.3,2-0.4,3c1,0,1.9,0,2.9,0c-0.3-0.9-0.4-1.7-0.5-2.7c-0.3-1.8-2.8-1.1-2.9,0.4c-0.2,0.9-0.3,1.9-0.5,2.8
			c0.9-0.1,1.8-0.2,2.7-0.4c-0.4-1.3-0.9-2.5-1.4-3.7s-2.6-1.6-2.9,0c-0.3,1.7-0.2,3.4-0.3,5.1c0.9-0.4,1.7-0.7,2.6-1.1
			c-1.1-1.2-1.1-3.8-1.7-5.3c-0.6-1.5-2.7-0.6-2.8,0.8c-0.1,1.7,0,3.3-0.1,5c0.9-0.3,1.9-0.5,2.8-0.8c-0.3-0.5-0.8-4.7-0.8-4.7
			c-0.2-1.9-3-2-3,0c0,1.9,0,3.6-0.3,5.5c0.8-0.2,1.7-0.4,2.5-0.7c-1.3-1.3-0.7-4.7-1.1-6.5c-0.4-1.8-2.8-1.2-2.9,0.4
			c-0.2,1.7-0.1,4.8-1,6.1c0.9,0,1.7,0,2.6,0c-1.5-3.2-1.7-6.9-2.1-10.3c-0.9,0.4-1.7,0.7-2.6,1.1c2.3,2.8,1.7,7.4,1.4,10.7
			c1,0,2,0,3,0c-0.3-3,0.3-6,0.3-9c0-1.9-2.9-1.9-3,0c-0.1,1.4-0.2,2.9-0.3,4.4c-0.2,2.1,0.8,4-2.3,3.2c0,1,0,1.9,0,2.9
			c1.7-0.5,2.5-0.6,2.9-2.5c0.3-1.5-0.3-3.6-0.3-5.1c-0.1-2.4-0.1-4.7-0.2-7.1c-0.1-1.9-2.9-1.9-3,0c-0.2,3.7-0.4,8.8-2.3,12.1
			c0.9,0.1,1.8,0.2,2.7,0.4c-1.3-3.7-0.2-9.4-0.3-13.4c-0.1-1.6-2.7-2.1-2.9-0.4c-0.4,2.3-0.5,4.7-0.5,7.1c-0.1,2.2,0.8,5.6-0.3,7.5
			c0.9,0.1,1.8,0.2,2.7,0.4c-0.8-5.8-1-9.7,2.1-14.8C48.2,57.3,45.6,55.8,44.6,57.4L44.6,57.4z"/>
	</g>
</g>
<path class="st11" d="M69.9,64.5c-0.8,0-1.5,0.7-1.5,1.5c0,0.2,0,0.4,0,0.6c-0.1,0.8,0.8,1.5,1.5,1.5c0.9,0,1.4-0.7,1.5-1.5
	c0-0.2,0-0.4,0-0.6C71.4,65.2,70.8,64.5,69.9,64.5z"/>
<path class="st11" d="M69.3,71.3c-0.7-0.4-1.7-0.2-2,0.5c-0.1,0.2-0.2,0.5-0.4,0.7c-0.4,0.7-0.2,1.6,0.5,2.1c0.7,0.4,1.7,0.2,2-0.5
	c0.1-0.2,0.2-0.5,0.4-0.7C70.2,72.6,70.1,71.7,69.3,71.3z"/>
<path class="st11" d="M52.4,71.9L52.4,71.9c-0.5-0.2-1.1-0.1-1.6,0.3c-0.5,0.6-0.6,1.6,0,2.1c0.2,0.2,0.5,0.4,0.8,0.4
	c0.8,0.2,1.7-0.2,1.8-1C53.6,73,53.2,72,52.4,71.9z"/>
<path class="st11" d="M79.1,52.9c-1.9,0-1.9,3,0,3S81,52.9,79.1,52.9z"/>
<path class="st12" d="M55.9,66.3c0.9,4.4,0.6,12.1,0,18.2c3.6,7.7,7.3,7.4,11.1,0c-0.5-6.1-0.7-12.1,0-18.2"/>
<path class="st13" d="M56,64c1.6,2.7,3.4,3.9,5.4,4l-0.1,22.2c-1.9-0.2-3.7-2.2-5.4-6.7C56.3,77.4,56,67.2,56,64z"/>
<ellipse class="st12" cx="61.4" cy="46" rx="18.6" ry="22.1"/>
<path class="st13" d="M61.4,68.3C51.2,68.3,43,58.4,43,46.2S51.2,24,61.4,24"/>
<g>
	<path class="st14" d="M65.6,46.6c0.5-0.8,1.2-1.5,2-2.1s1.8-0.9,2.8-0.9s2,0.4,2.8,0.9c0.8,0.6,1.5,1.3,2,2.1
		c-0.8-0.5-1.6-1-2.4-1.4s-1.6-0.6-2.5-0.6c-0.8,0-1.7,0.2-2.5,0.6C67.1,45.6,66.4,46.1,65.6,46.6z"/>
</g>
<g>
	<path class="st14" d="M47.6,46.6c0.5-0.8,1.2-1.5,2-2.1s1.8-0.9,2.8-0.9s2,0.4,2.8,0.9c0.8,0.6,1.5,1.3,2,2.1
		c-0.8-0.5-1.6-1-2.4-1.4c-0.8-0.4-1.6-0.6-2.5-0.6c-0.8,0-1.7,0.2-2.5,0.6C49.2,45.6,48.4,46.1,47.6,46.6z"/>
</g>
<path class="st15" d="M56.2,73.3c3.5,21.8,6,23.2,10.3,0c0.2,0,0.6,0,0.8,0l14.8,1.5c3.5,0.4,6.2,3.3,6.2,6.9V115
	c0,3.8-3.1,6.9-6.9,6.9H38.6c-3.8,0-6.9-3.1-6.9-6.9V81.9c0-3.6,2.7-6.6,6.3-6.9l17.6-1.6C55.8,73.3,56,73.3,56.2,73.3z"/>
<g>
	<path class="st16" d="M54.7,59.5c4.4,3.2,8.7,3.3,12.9,0"/>
	<path class="st17" d="M54.7,59.5c1.2,0.3,2.3,0.7,3.3,1c1.1,0.3,2.1,0.4,3.1,0.4s2.1-0.1,3.1-0.4c1.1-0.3,2.1-0.7,3.3-1
		c-0.7,1-1.6,1.9-2.7,2.5s-2.4,1-3.7,0.9c-1.3,0-2.6-0.4-3.7-1C56.4,61.3,55.4,60.5,54.7,59.5z"/>
</g>
<g>
	<path class="st16" d="M54.7,59.5c4.2-1.5,8.5-1.6,12.9,0"/>
	<path class="st17" d="M54.7,59.5c1.9-1.1,4.2-1.7,6.5-1.7s4.5,0.6,6.5,1.7c-2.2-0.4-4.3-0.7-6.5-0.7C59.1,58.8,56.9,59.1,54.7,59.5
		z"/>
</g>
<g>
	<path class="st11" d="M47.3,32.1c0,1.4-0.6,2.8-1.2,4.1c-0.6,1.3-1.2,2.5-1.7,3.7s-0.9,2.4-1,3.5c0,0.6,0,1,0.1,1.6
		c0.1,0.5,0.3,1.1,0.5,1.6c0.4,1.1,1,2.3,1.6,3.6s1.2,2.7,1.5,4.4s0.1,3.7-0.4,5.2c-0.5,1.6-1.3,2.9-1.9,4.1
		c-0.7,1.2-1.3,2.3-1.7,3.4s-0.5,1.8-0.4,2.9s0.5,2.2,0.9,3.5s0.9,2.6,1.3,4.1c0.2,0.7,0.3,1.5,0.4,2.4c0.1,0.8-0.1,1.8-0.2,2.6
		c-0.4,1.6-1.2,3-2,4.2c-0.9,1.2-1.8,2.3-2.7,3.3s-1.8,2.1-2.3,3.4c0-0.7,0.2-1.4,0.4-2.1s0.5-1.3,0.8-2c0.6-1.3,1.2-2.5,1.7-3.7
		s0.9-2.4,0.9-3.5c0-0.6,0-1-0.1-1.6c-0.1-0.5-0.3-1.1-0.5-1.6c-0.9-2.3-2.5-4.7-3.2-8c-0.3-1.7-0.1-3.7,0.4-5.3
		c0.6-1.6,1.3-2.9,1.9-4.1c0.7-1.2,1.3-2.3,1.7-3.4c0.4-1.1,0.5-1.8,0.4-2.9c-0.1-1.1-0.5-2.2-0.9-3.5s-0.9-2.6-1.3-4.1
		c-0.2-0.7-0.3-1.5-0.4-2.4c-0.1-0.8,0.1-1.8,0.3-2.5c0.4-1.6,1.2-2.9,2.1-4.1c0.9-1.2,1.8-2.2,2.7-3.3
		C45.9,34.4,46.7,33.4,47.3,32.1z"/>
</g>
<g>
	<path class="st11" d="M78.5,105.5c-0.3-1.5-0.3-3.1,0-4.6c0.3-1.6,1.1-3,1.5-4.3c0.5-1.3,0.6-2.7,0.5-4c-0.1-1.4-0.3-2.8-0.8-3.9
		c-0.5-1.2-1.3-2.2-2.2-3.5c-0.5-0.7-0.9-1.4-1.3-2.3c-0.3-0.8-0.6-1.7-0.8-2.5c-0.3-1.7-0.4-3.4-0.2-5.1c0.1-0.9,0.4-1.8,0.7-2.6
		c0.3-0.8,0.7-1.6,1.1-2.3c0.7-1.3,1.2-2.4,1.4-3.6c0.2-1.2,0.2-2.6,0-3.9c-0.2-1.3-0.6-2.4-1.3-3.6c-0.3-0.6-0.8-1.3-1.2-2
		c-0.4-0.7-0.8-1.5-1-2.4c-0.5-1.7-0.6-3.4-0.5-5s0.5-3.3,1.3-4.8c0.8-1.4,1.7-2.6,2.3-3.9c0.6-1.3,0.9-2.8,1.1-4.3
		c0.3,1.5,0.3,3.1,0,4.6c-0.3,1.6-1.1,3-1.5,4.3c-0.5,1.3-0.6,2.7-0.5,4c0.1,1.4,0.3,2.8,0.8,3.9c0.5,1.2,1.3,2.2,2.2,3.5
		c0.5,0.7,0.9,1.4,1.3,2.3c0.3,0.8,0.6,1.7,0.8,2.5c0.3,1.7,0.4,3.4,0.2,5.1c-0.1,0.9-0.4,1.8-0.7,2.6c-0.3,0.8-0.7,1.6-1.1,2.3
		c-0.7,1.3-1.2,2.4-1.4,3.6c-0.2,1.2-0.2,2.6,0,3.9s0.6,2.4,1.3,3.6c0.7,1.2,1.7,2.7,2.2,4.4c0.5,1.7,0.6,3.4,0.5,5
		s-0.5,3.3-1.3,4.8c-0.8,1.4-1.7,2.6-2.3,3.9C78.9,102.5,78.6,104,78.5,105.5z"/>
</g>
<g>
	<path class="st18" d="M43.4,72.8c-0.2-0.4,0.1-0.9,0.2-1.3c0.2-0.4,0.4-0.8,0.5-1.3c0.4-0.8,0.7-1.6,1-2.5c0.3-0.8,0.4-1.7,0.5-2.5
		c0-0.4,0-0.9-0.1-1.1c-0.1-0.3-0.3-0.6-0.6-1c-1-1.3-2.5-2.6-3.3-4.6c-0.2-0.5-0.3-1.1-0.3-1.7c0-0.7,0.3-1.2,0.6-1.7
		c0.6-0.9,1.2-1.6,1.8-2.3s1.2-1.3,1.5-2c0.2-0.3,0.3-0.7,0.4-1c0.1-0.3,0-0.5,0-0.9c-0.2-0.6-0.7-1.4-1.2-2.1
		c-0.5-0.7-1.1-1.5-1.5-2.4s-0.8-2-0.5-3.1c0.4-1.1,1.1-1.8,1.7-2.4c0.7-0.6,1.3-1.2,1.9-1.9c0.6-0.6,1.2-1.3,1.3-2.2
		c0,0.9-0.4,1.8-0.9,2.6s-1.1,1.5-1.6,2.2s-1.1,1.4-1.2,2.1c-0.1,0.6,0.1,1.4,0.6,2.1c0.4,0.7,1,1.4,1.5,2.1
		c0.5,0.7,1.2,1.5,1.6,2.5c0.2,0.5,0.3,1.3,0.1,1.8c-0.1,0.6-0.3,1.1-0.6,1.6c-0.5,0.9-1.1,1.6-1.7,2.3c-0.6,0.7-1.2,1.3-1.6,2
		c-0.2,0.3-0.3,0.6-0.3,0.8c0,0.3,0,0.6,0.1,1c0.2,0.7,0.6,1.4,1.2,2.1c0.5,0.7,1.1,1.4,1.6,2.2c0.3,0.4,0.5,0.9,0.7,1.4
		c0.2,0.7,0.1,1.1,0,1.6c-0.1,1-0.5,1.9-0.8,2.7c-0.4,0.8-0.9,1.6-1.4,2.4l-0.8,1.1C43.7,72,43.3,72.3,43.4,72.8z"/>
</g>
<path class="st11" d="M42,39.3l19,0.5l1.9-8.7l0.7,8.7h16.6C77.2,27.7,70,20.4,61,20.4C50,20.4,44.4,28.5,42,39.3z"/>
</svg>
