<?xml version="1.0" encoding="utf-8"?>
<!-- Generator: Adobe Illustrator 22.0.1, SVG Export Plug-In . SVG Version: 6.00 Build 0)  -->
<!DOCTYPE svg PUBLIC "-//W3C//DTD SVG 1.1//EN" "http://www.w3.org/Graphics/SVG/1.1/DTD/svg11.dtd" [
	<!ENTITY st0 "fill:none;stroke:#606060;stroke-width:2;stroke-miterlimit:10;">
	<!ENTITY st1 "fill:#433459;">
	<!ENTITY st2 "fill:#DBDBDB;">
	<!ENTITY st3 "fill:#ABC6DB;">
	<!ENTITY st4 "opacity:0.43;fill:#FFFFFF;">
	<!ENTITY st5 "fill:#7B95BA;">
]>
<svg version="1.1" xmlns="http://www.w3.org/2000/svg" xmlns:xlink="http://www.w3.org/1999/xlink" x="0px" y="0px"
	 viewBox="0 0 566.929 566.929" style="enable-background:new 0 0 566.929 566.929;" xml:space="preserve">
<g id="Calque_2">
	<line style="&st0;" x1="242.5" y1="298.25" x2="276.535" y2="385.052"/>
	<line style="&st0;" x1="329.092" y1="285.772" x2="311.649" y2="381.494"/>
	<line style="&st0;" x1="277.486" y1="330.76" x2="265.53" y2="358.199"/>
	<line style="&st0;" x1="299.791" y1="329.17" x2="316.568" y2="353.026"/>
</g>
<g id="Calque_3">
	<path style="&st1;" d="M313.281,403.21l-33.988,3.444c-2.04,0.207-3.878-1.293-4.085-3.333l-2.172-21.434
		c-0.207-2.04,1.293-3.878,3.333-4.085l33.988-3.444c2.04-0.207,3.878,1.293,4.085,3.333l2.172,21.434
		C316.821,401.165,315.321,403.003,313.281,403.21z"/>
</g>
<g id="Calque_4">
	<path style="&st2;" d="M285.133,383.506c0,3.383-2.184,6.125-4.879,6.125c-2.695,0-4.879-2.742-4.879-6.125
		c0-3.383,4.879-6.125,4.879-6.125S285.133,380.123,285.133,383.506z"/>
	<path style="&st2;" d="M298.5,382.125c0,3.383-2.183,6.125-4.875,6.125s-4.875-2.742-4.875-6.125s4.875-6.125,4.875-6.125
		S298.5,378.742,298.5,382.125z"/>
	<path style="&st2;" d="M311.759,380.207c0.38,3.361-1.462,6.329-4.114,6.629c-2.652,0.3-5.11-2.182-5.489-5.544
		s4.114-6.629,4.114-6.629S311.379,376.846,311.759,380.207z"/>
</g>
<g id="Calque_1">
	<path style="&st3;" d="M390.63,176.296c7.131,72.938-102.508,144.222-102.508,144.222s-121.201-46.972-128.333-119.91
		S198.552,63.099,262.297,56.386S383.498,103.358,390.63,176.296z"/>
	<path style="&st4;" d="M361.368,179.378c7.131,72.938-73.246,141.14-73.246,141.14s-91.94-50.054-99.071-122.992
		s25.662-136.129,73.246-141.14S354.237,106.44,361.368,179.378z"/>
	<path style="&st3;" d="M336.821,181.963c7.131,72.938-48.862,138.572-48.862,138.572s-67.555-52.622-74.687-125.56
		s14.745-134.979,48.862-138.572S329.689,109.025,336.821,181.963z"/>
	<path style="&st4;" d="M292.603,186.62c7.131,72.938-4.644,133.915-4.644,133.915s-23.338-57.279-30.469-130.217
		c-7.131-72.938-5.052-132.894,4.644-133.915C271.83,55.382,285.472,113.682,292.603,186.62z"/>
	<path style="&st5;" d="M285.205,291.507l46.707-4.899l-20.742,29.28l-9.021,12.734c-5.299,7.48-19.761,8.996-26.393,2.768
		l-11.292-10.603l-25.965-24.381L285.205,291.507z"/>
</g>
</svg>
