<?xml version="1.0" encoding="utf-8"?>
<!-- Generator: Adobe Illustrator 22.0.1, SVG Export Plug-In . SVG Version: 6.00 Build 0)  -->
<svg version="1.1" id="Calque_1" xmlns="http://www.w3.org/2000/svg" xmlns:xlink="http://www.w3.org/1999/xlink" x="0px" y="0px"
	 viewBox="0 0 1921 258.6" style="enable-background:new 0 0 1921 258.6;" xml:space="preserve">
<style type="text/css">
	.st0{fill:#FFF;}
	.st1{fill:#FFF;stroke:#f0f0f0;stroke-miterlimit:10;}
	.st2{fill:none;stroke:#f0f0f0;stroke-miterlimit:10;}
	.st3{fill:#f0f0f0;}
	.st4{fill:#f0f0f0;stroke:#f0f0f0;stroke-miterlimit:10;}
	.st5{fill:none;stroke:#FFF;stroke-width:0.25;stroke-miterlimit:10;}
	.st6{fill:none;stroke:#FFF;stroke-width:0.25;stroke-miterlimit:10;stroke-dasharray:1.0693,1.0693,2.1387,1.0693;}
	.st7{fill:none;stroke:#FFF;stroke-width:0.25;stroke-miterlimit:10;stroke-dasharray:0.5933,0.5933,1.1866,0.5933;}

		.st8{fill:none;stroke:#FFF;stroke-width:0.25;stroke-miterlimit:10;stroke-dasharray:0.5933,1.1866,0.5933,0.5933,1.1866,0.5933;}
	.st9{fill:none;stroke:#FFF;stroke-width:0.25;stroke-miterlimit:10;stroke-dasharray:0.9704,0.9704,1.9408,0.9704;}
	
		.st10{fill:none;stroke:#FFF;stroke-width:0.25;stroke-miterlimit:10;stroke-dasharray:0.9704,1.9408,0.9704,0.9704,1.9408,0.9704;}
	.st11{fill:none;stroke:#FFF;stroke-width:0.25;stroke-miterlimit:10;stroke-dasharray:0.6876,0.6876,1.3752,0.6876;}
	
		.st12{fill:none;stroke:#FFF;stroke-width:0.25;stroke-miterlimit:10;stroke-dasharray:0.6876,1.3752,0.6876,0.6876,1.3752,0.6876;}
	.st13{fill:none;stroke:#f0f0f0;stroke-width:2;stroke-miterlimit:10;}
	.st14{fill:none;stroke:#f0f0f0;stroke-width:6;stroke-miterlimit:10;}
	.st15{fill:none;stroke:#f0f0f0;stroke-width:1.5;stroke-miterlimit:10;}
	.st16{fill:#CD212A;}
</style>
<g id="Calque_2_1_">
	<rect class="st0" width="1920" height="246.5"/>
</g>
<g id="Calque_5">
	<path class="st1" d="M335.4,244.2c1.2,1.9,4,1.7,4.9-0.4c2.6-6,1.3-13.2-3.9-17.8c-5.2-4.7-12.7-5.1-18.4-1.7
		c-1.8,1.1-1.7,3.8,0.2,4.8l0.8,0.4c0.5,0.2,0.9,0.6,1.1,1.1l1.4,2.5c0.2,0.4,0.6,0.8,1,1l4.9,2.9c0.4,0.2,0.8,0.6,1,1l1.4,2.5
		c0.3,0.5,0.7,0.9,1.2,1.1l3.1,1.5C334.8,243.4,335.2,243.7,335.4,244.2L335.4,244.2z"/>
	<path class="st1" d="M260.9,235.2c1.7,0.8,3.5-0.6,3.2-2.5c-0.8-5.3-5-9.7-10.6-10.5c-5.7-0.9-11,2.1-13.4,7
		c-0.8,1.6,0.5,3.4,2.3,3.2l0.7-0.1c0.4,0,0.9,0,1.3,0.2l2.1,1.1c0.4,0.2,0.7,0.3,1.1,0.3l4.7-0.2c0.4,0,0.8,0.1,1.1,0.3l2.1,1.1
		c0.4,0.2,0.9,0.3,1.3,0.2l2.8-0.3C260.1,234.9,260.5,235,260.9,235.2L260.9,235.2z"/>
	<path class="st1" d="M319.7,229.8l16-3.8c0.3-0.1,0.5,0.3,0.4,0.5l-8.1,10.9"/>
	<line class="st2" x1="334.9" y1="243.7" x2="336.3" y2="226.1"/>
	<line class="st2" x1="321.5" y1="246.5" x2="327.9" y2="237.3"/>
	<line class="st2" x1="250.2" y1="248" x2="251.8" y2="233.5"/>
	<circle class="st3" cx="286.5" cy="243.5" r="3"/>
	<path class="st4" d="M504.5,247l-42.8-21.9c-4.5-2.3-9.7-1.9-13.9,1L418.5,247H504.5z"/>
	<g>
		<g>
			<line class="st5" x1="58.5" y1="246.5" x2="58.1" y2="246.9"/>
			<line class="st6" x1="56.6" y1="248.4" x2="53.2" y2="251.8"/>
			<line class="st5" x1="52.9" y1="252.1" x2="52.5" y2="252.5"/>
		</g>
	</g>
	<g>
		<g>
			<line class="st5" x1="68.5" y1="246.5" x2="68.1" y2="246.9"/>
			<line class="st7" x1="67.3" y1="247.7" x2="65.4" y2="249.6"/>
			<line class="st8" x1="65.2" y1="249.8" x2="62.1" y2="252.9"/>
			<line class="st5" x1="61.9" y1="253.1" x2="61.5" y2="253.5"/>
		</g>
	</g>
	<g>
		<g>
			<line class="st5" x1="76.5" y1="246.5" x2="76.1" y2="246.9"/>
			<line class="st9" x1="74.8" y1="248.2" x2="71.7" y2="251.3"/>
			<line class="st10" x1="71.3" y1="251.7" x2="66.2" y2="256.8"/>
			<line class="st5" x1="65.9" y1="257.1" x2="65.5" y2="257.5"/>
		</g>
	</g>
	<g>
		<g>
			<line class="st5" x1="85.5" y1="246.5" x2="85.1" y2="246.9"/>
			<line class="st11" x1="84.2" y1="247.8" x2="82" y2="250"/>
			<line class="st12" x1="81.7" y1="250.3" x2="78.1" y2="253.9"/>
			<line class="st5" x1="77.9" y1="254.1" x2="77.5" y2="254.5"/>
		</g>
	</g>
	<g>
		<g>
			<line class="st5" x1="94.5" y1="247.5" x2="94.1" y2="247.9"/>
			<line class="st6" x1="92.6" y1="249.4" x2="89.2" y2="252.8"/>
			<line class="st5" x1="88.9" y1="253.1" x2="88.5" y2="253.5"/>
		</g>
	</g>
	<g>
		<g>
			<line class="st5" x1="104.5" y1="247.5" x2="104.1" y2="247.9"/>
			<line class="st7" x1="103.3" y1="248.7" x2="101.4" y2="250.6"/>
			<line class="st8" x1="101.2" y1="250.8" x2="98.1" y2="253.9"/>
			<line class="st5" x1="97.9" y1="254.1" x2="97.5" y2="254.5"/>
		</g>
	</g>
	<g>
		<g>
			<line class="st5" x1="112.5" y1="247.5" x2="112.1" y2="247.9"/>
			<line class="st9" x1="110.8" y1="249.2" x2="107.7" y2="252.3"/>
			<line class="st10" x1="107.3" y1="252.7" x2="102.2" y2="257.8"/>
			<line class="st5" x1="101.9" y1="258.1" x2="101.5" y2="258.5"/>
		</g>
	</g>
	<g>
		<g>
			<line class="st5" x1="122.5" y1="246.5" x2="122.1" y2="246.9"/>
			<line class="st11" x1="121.2" y1="247.8" x2="119" y2="250"/>
			<line class="st12" x1="118.7" y1="250.3" x2="115.1" y2="253.9"/>
			<line class="st5" x1="114.9" y1="254.1" x2="114.5" y2="254.5"/>
		</g>
	</g>
	<g>
		<g>
			<line class="st5" x1="14.5" y1="246.5" x2="14.1" y2="246.9"/>
			<line class="st6" x1="12.6" y1="248.4" x2="9.2" y2="251.8"/>
			<line class="st5" x1="8.9" y1="252.1" x2="8.5" y2="252.5"/>
		</g>
	</g>
	<g>
		<g>
			<line class="st5" x1="24.5" y1="246.5" x2="24.1" y2="246.9"/>
			<line class="st7" x1="23.3" y1="247.7" x2="21.4" y2="249.6"/>
			<line class="st8" x1="21.2" y1="249.8" x2="18.1" y2="252.9"/>
			<line class="st5" x1="17.9" y1="253.1" x2="17.5" y2="253.5"/>
		</g>
	</g>
	<g>
		<g>
			<line class="st5" x1="32.5" y1="246.5" x2="32.1" y2="246.9"/>
			<line class="st9" x1="30.8" y1="248.2" x2="27.7" y2="251.3"/>
			<line class="st10" x1="27.3" y1="251.7" x2="22.2" y2="256.8"/>
			<line class="st5" x1="21.9" y1="257.1" x2="21.5" y2="257.5"/>
		</g>
	</g>
	<g>
		<g>
			<line class="st5" x1="42.5" y1="246.5" x2="42.1" y2="246.9"/>
			<line class="st11" x1="41.2" y1="247.8" x2="39" y2="250"/>
			<line class="st12" x1="38.7" y1="250.3" x2="35.1" y2="253.9"/>
			<line class="st5" x1="34.9" y1="254.1" x2="34.5" y2="254.5"/>
		</g>
	</g>
</g>
<g id="Calque_6">
	<g>
		<polyline class="st2" points="372,247 374,246.4 372,245.9 374,245.3 372,244.7 374,244.2 372,243.6 374,243 372,242.5 374,241.9 
			372,241.3 374,240.8 372,240.2 374,239.6 372,239.1 374,238.5 372,237.9 374,237.4 372,236.8 374,236.2 372,235.7 374,235.1 
			372,234.5 374,234 372,233.4 374,232.8 372,232.3 374,231.7 372,231.2 374,230.6 372,230 374,229.5 372,228.9 374,228.3 
			372,227.8 374,227.2 372,226.6 374,226 372,225.5 374,224.9 372,224.3 374,223.8 372,223.2 374,222.6 372,222.1 374,221.5 
			372,220.9 		"/>
	</g>
	<g>
		<polyline class="st2" points="401,247 403,246.4 401,245.9 403,245.3 401,244.7 403,244.2 401,243.6 403,243 401,242.5 403,241.9 
			401,241.3 403,240.8 401,240.2 403,239.6 401,239.1 403,238.5 401,237.9 403,237.4 401,236.8 403,236.2 401,235.7 403,235.1 
			401,234.5 403,234 401,233.4 403,232.8 401,232.3 403,231.7 401,231.2 403,230.6 401,230 403,229.5 401,228.9 403,228.3 
			401,227.8 403,227.2 401,226.6 403,226 401,225.5 403,224.9 401,224.3 403,223.8 401,223.2 403,222.6 401,222.1 403,221.5 
			401,220.9 		"/>
	</g>
</g>
<g id="Calque_7">
	<g>
		<path class="st3" d="M372.5,223.2c-1-1.7-2-3.3-3.3-4.7s-2.7-2.8-4.3-3.8c-1.6-1.1-3.3-1.9-5.1-2.5c-1.8-0.6-3.7-1-5.6-1.2
			c1.9,0,3.9,0.3,5.8,0.8s3.7,1.4,5.3,2.5c1.6,1.1,3.1,2.4,4.3,4C370.7,219.8,371.7,221.5,372.5,223.2z"/>
	</g>
	<g>
		<path class="st3" d="M372,223.3c0-2.1-0.2-4.2-0.7-6.3c-0.4-2-1.1-4-2.1-5.9c-0.9-1.9-2.2-3.6-3.6-5.1s-3-2.9-4.8-4.1
			c1.8,1,3.6,2.3,5.1,3.8s2.8,3.2,3.8,5.1c1,1.9,1.7,3.9,2,6C372.1,219,372.2,221.2,372,223.3z"/>
	</g>
	<g>
		<path class="st3" d="M373.4,223.3c-0.2-2.1-0.1-4.2,0.3-6.3s1.1-4.1,2-6c1-1.9,2.3-3.6,3.8-5.1s3.2-2.8,5.1-3.8
			c-1.7,1.2-3.4,2.6-4.8,4.1s-2.7,3.2-3.6,5.1c-1,1.8-1.6,3.8-2.1,5.9C373.6,219.1,373.4,221.2,373.4,223.3z"/>
	</g>
	<g>
		<path class="st3" d="M373.4,223.3c-0.2-2.1-0.1-4.2,0.3-6.3s1.1-4.1,2-6c1-1.9,2.3-3.6,3.8-5.1s3.2-2.8,5.1-3.8
			c-1.7,1.2-3.4,2.6-4.8,4.1s-2.7,3.2-3.6,5.1c-1,1.8-1.6,3.8-2.1,5.9C373.6,219.1,373.4,221.2,373.4,223.3z"/>
	</g>
	<g>
		<path class="st3" d="M372.7,223.2c0.9-1.6,2.1-3.2,3.4-4.5c1.3-1.4,2.9-2.5,4.5-3.4c1.7-0.9,3.5-1.5,5.4-1.9
			c1.9-0.3,3.8-0.4,5.6-0.2c-1.9,0-3.7,0.2-5.6,0.6c-1.8,0.4-3.6,1-5.2,1.9s-3.1,2-4.5,3.3C375,220.3,373.8,221.7,372.7,223.2z"/>
	</g>
	<g>
		<path class="st3" d="M401.5,223.2c-1-1.7-2-3.3-3.3-4.7s-2.7-2.8-4.3-3.8c-1.6-1.1-3.3-1.9-5.1-2.5c-1.8-0.6-3.7-1-5.6-1.2
			c1.9,0,3.9,0.3,5.8,0.8s3.7,1.4,5.3,2.5c1.6,1.1,3.1,2.4,4.3,4C399.7,219.8,400.7,221.5,401.5,223.2z"/>
	</g>
	<g>
		<path class="st3" d="M401,223.3c0-2.1-0.2-4.2-0.7-6.3c-0.4-2-1.1-4-2.1-5.9c-0.9-1.9-2.2-3.6-3.6-5.1s-3-2.9-4.8-4.1
			c1.8,1,3.6,2.3,5.1,3.8s2.8,3.2,3.8,5.1c1,1.9,1.7,3.9,2,6C401.1,219,401.2,221.2,401,223.3z"/>
	</g>
	<g>
		<path class="st3" d="M402.4,223.3c-0.2-2.1-0.1-4.2,0.3-6.3s1.1-4.1,2-6c1-1.9,2.3-3.6,3.8-5.1s3.2-2.8,5.1-3.8
			c-1.7,1.2-3.4,2.6-4.8,4.1s-2.7,3.2-3.6,5.1c-1,1.8-1.6,3.8-2.1,5.9C402.6,219.1,402.4,221.2,402.4,223.3z"/>
	</g>
	<g>
		<path class="st3" d="M402.4,223.3c-0.2-2.1-0.1-4.2,0.3-6.3s1.1-4.1,2-6c1-1.9,2.3-3.6,3.8-5.1s3.2-2.8,5.1-3.8
			c-1.7,1.2-3.4,2.6-4.8,4.1s-2.7,3.2-3.6,5.1c-1,1.8-1.6,3.8-2.1,5.9C402.6,219.1,402.4,221.2,402.4,223.3z"/>
	</g>
	<g>
		<path class="st3" d="M401.7,223.2c0.9-1.6,2.1-3.2,3.4-4.5c1.3-1.4,2.9-2.5,4.5-3.4c1.7-0.9,3.5-1.5,5.4-1.9
			c1.9-0.3,3.8-0.4,5.6-0.2c-1.9,0-3.7,0.2-5.6,0.6c-1.8,0.4-3.6,1-5.2,1.9s-3.1,2-4.5,3.3C404,220.3,402.8,221.7,401.7,223.2z"/>
	</g>
</g>
<g id="Calque_8">
	<g>
		<path class="st3" d="M353.3,208.4c0.5,0.3,0.8,0.7,1.1,1.2c0.3,0.4,0.6,0.9,0.7,1.5c-0.5-0.3-0.8-0.7-1.1-1.2
			C353.7,209.4,353.4,208.9,353.3,208.4z"/>
	</g>
	<g>
		<path class="st3" d="M354.1,208.4c0.5,0.3,0.8,0.7,1.1,1.2c0.3,0.4,0.6,0.9,0.7,1.5c-0.5-0.3-0.8-0.7-1.1-1.2
			C354.6,209.4,354.3,208.9,354.1,208.4z"/>
	</g>
	<g>
		<path class="st3" d="M355.6,208.1c0.3,0.5,0.5,1,0.6,1.5s0.2,1.1,0.1,1.6c-0.3-0.5-0.5-1-0.6-1.5
			C355.6,209.2,355.5,208.7,355.6,208.1z"/>
	</g>
	<g>
		<path class="st3" d="M356.3,207.1c0.3,0.7,0.5,1.4,0.7,2c0.1,0.7,0.2,1.4,0.2,2.1c-0.3-0.7-0.5-1.4-0.7-2
			C356.4,208.5,356.3,207.8,356.3,207.1z"/>
	</g>
	<g>
		<path class="st3" d="M357.2,207.1c0.3,0.7,0.5,1.4,0.7,2c0.1,0.7,0.2,1.4,0.2,2.1c-0.3-0.7-0.5-1.4-0.7-2
			C357.2,208.5,357.1,207.8,357.2,207.1z"/>
	</g>
	<g>
		<path class="st3" d="M358.1,207.1c0.3,0.7,0.5,1.4,0.7,2c0.1,0.7,0.2,1.4,0.2,2.1c-0.3-0.7-0.5-1.4-0.7-2
			C358.1,208.5,358,207.8,358.1,207.1z"/>
	</g>
	<g>
		<path class="st3" d="M358.9,207.9c0.3,0.7,0.5,1.4,0.7,2c0.1,0.7,0.2,1.4,0.2,2.1c-0.3-0.7-0.5-1.4-0.7-2
			C359,209.4,358.9,208.7,358.9,207.9z"/>
	</g>
	<g>
		<path class="st3" d="M359.8,212.3c0.3,0.7,0.5,1.4,0.7,2c0.1,0.7,0.2,1.4,0.2,2.1c-0.3-0.7-0.5-1.4-0.7-2
			C359.9,213.7,359.8,213,359.8,212.3z"/>
	</g>
	<g>
		<path class="st3" d="M360.7,212.3c0.3,0.7,0.5,1.4,0.7,2c0.1,0.7,0.2,1.4,0.2,2.1c-0.3-0.7-0.5-1.4-0.7-2
			C360.7,213.7,360.6,213,360.7,212.3z"/>
	</g>
	<g>
		<path class="st3" d="M361.6,213.2c0.3,0.7,0.5,1.4,0.7,2c0.1,0.7,0.2,1.4,0.2,2.1c-0.3-0.7-0.5-1.4-0.7-2
			C361.6,214.6,361.5,213.9,361.6,213.2z"/>
	</g>
	<g>
		<path class="st3" d="M363.7,214c0.2,0.9,0.2,1.7,0.2,2.6c0,0.9-0.1,1.7-0.2,2.6c-0.2-0.9-0.2-1.7-0.2-2.6
			C363.5,215.8,363.6,214.9,363.7,214z"/>
	</g>
	<g>
		<path class="st3" d="M364.6,214c0.2,0.9,0.2,1.7,0.2,2.6c0,0.9-0.1,1.7-0.2,2.6c-0.2-0.9-0.2-1.7-0.2-2.6
			C364.4,215.8,364.4,214.9,364.6,214z"/>
	</g>
	<g>
		<path class="st3" d="M365.5,214.9c0.2,0.9,0.2,1.7,0.2,2.6c0,0.9-0.1,1.7-0.2,2.6c-0.2-0.9-0.2-1.7-0.2-2.6
			C365.3,216.7,365.3,215.8,365.5,214.9z"/>
	</g>
	<g>
		<path class="st3" d="M366.4,215.8c0.2,0.9,0.2,1.7,0.2,2.6c0,0.9-0.1,1.7-0.2,2.6c-0.2-0.9-0.2-1.7-0.2-2.6
			C366.1,217.5,366.2,216.7,366.4,215.8z"/>
	</g>
	<g>
		<path class="st3" d="M364.6,208.8c0.2,0.9,0.2,1.7,0.2,2.6c0,0.9-0.1,1.7-0.2,2.6c-0.2-0.9-0.2-1.7-0.2-2.6
			S364.4,209.7,364.6,208.8z"/>
	</g>
	<g>
		<path class="st3" d="M365.5,209.7c0.2,0.9,0.2,1.7,0.2,2.6c0,0.9-0.1,1.7-0.2,2.6c-0.2-0.9-0.2-1.7-0.2-2.6
			S365.3,210.5,365.5,209.7z"/>
	</g>
	<g>
		<path class="st3" d="M365.9,208.8c0.3,1,0.4,2,0.5,3s0.1,2,0,3.1c-0.3-1-0.4-2-0.5-3C365.8,210.9,365.8,209.8,365.9,208.8z"/>
	</g>
	<g>
		<path class="st3" d="M366.8,209.7c0.3,1,0.4,2,0.5,3s0.1,2,0,3.1c-0.3-1-0.4-2-0.5-3C366.7,211.7,366.7,210.7,366.8,209.7z"/>
	</g>
	<g>
		<path class="st3" d="M367.7,216.7c0.3,1,0.4,2,0.5,3s0.1,2,0,3.1c-0.3-1-0.4-2-0.5-3C367.6,218.7,367.6,217.7,367.7,216.7z"/>
	</g>
	<g>
		<path class="st3" d="M366.8,215.8c0.3,1,0.4,2,0.5,3s0.1,2,0,3.1c-0.3-1-0.4-2-0.5-3C366.7,217.8,366.7,216.8,366.8,215.8z"/>
	</g>
	<g>
		<path class="st3" d="M362.9,213.2c0.2,0.9,0.2,1.7,0.2,2.6c0,0.9-0.1,1.7-0.2,2.6c-0.2-0.9-0.2-1.7-0.2-2.6
			C362.6,214.9,362.7,214,362.9,213.2z"/>
	</g>
	<g>
		<path class="st3" d="M359.8,207.9c0.3,0.7,0.5,1.4,0.7,2c0.1,0.7,0.2,1.4,0.2,2.1c-0.3-0.7-0.5-1.4-0.7-2
			C359.9,209.4,359.8,208.7,359.8,207.9z"/>
	</g>
	<g>
		<path class="st3" d="M360.7,207.9c0.3,0.7,0.5,1.4,0.7,2c0.1,0.7,0.2,1.4,0.2,2.1c-0.3-0.7-0.5-1.4-0.7-2S360.6,208.7,360.7,207.9
			z"/>
	</g>
	<g>
		<path class="st3" d="M361.6,208.8c0.3,0.7,0.5,1.4,0.7,2c0.1,0.7,0.2,1.4,0.2,2.1c-0.3-0.7-0.5-1.4-0.7-2
			C361.6,210.2,361.5,209.5,361.6,208.8z"/>
	</g>
	<g>
		<path class="st3" d="M362.4,207.9c0.3,1,0.5,1.9,0.7,2.9c0.1,1,0.2,2,0.2,3c-0.3-1-0.5-1.9-0.7-2.9
			C362.5,209.9,362.4,208.9,362.4,207.9z"/>
	</g>
	<g>
		<path class="st3" d="M363.3,207.1c0.3,1.1,0.5,2.2,0.7,3.4c0.1,1.1,0.2,2.3,0.2,3.4c-0.3-1.1-0.5-2.2-0.7-3.4
			C363.3,209.4,363.3,208.2,363.3,207.1z"/>
	</g>
	<g>
		<path class="st3" d="M358.2,211.6c-0.3,0.6-0.7,1-1.2,1.4s-0.9,0.8-1.5,1c0.3-0.6,0.7-1,1.2-1.4
			C357.1,212.2,357.6,211.9,358.2,211.6z"/>
	</g>
	<g>
		<path class="st3" d="M357.3,211.6c-0.2,0.5-0.6,0.9-0.9,1.3c-0.4,0.4-0.8,0.7-1.3,1c0.2-0.5,0.6-0.9,0.9-1.3
			C356.4,212.2,356.8,211.9,357.3,211.6z"/>
	</g>
	<g>
		<path class="st3" d="M356.4,211.6c-0.2,0.5-0.6,0.9-0.9,1.3c-0.4,0.4-0.8,0.7-1.3,1c0.2-0.5,0.6-0.9,0.9-1.3
			C355.5,212.2,355.9,211.9,356.4,211.6z"/>
	</g>
	<g>
		<path class="st3" d="M355.5,211.5c-0.2,0.5-0.6,0.9-0.9,1.3c-0.4,0.4-0.8,0.7-1.3,1c0.2-0.5,0.6-0.9,0.9-1.3
			C354.6,212.1,355,211.7,355.5,211.5z"/>
	</g>
	<g>
		<path class="st3" d="M358.5,211.9c0,0.6-0.2,1.1-0.3,1.6c-0.2,0.5-0.4,1-0.8,1.4c0-0.6,0.2-1.1,0.3-1.6
			C357.9,212.8,358.1,212.3,358.5,211.9z"/>
	</g>
	<g>
		<path class="st3" d="M359.4,211.9c0,0.6-0.2,1.1-0.3,1.6c-0.2,0.5-0.4,1-0.8,1.4c0-0.6,0.2-1.1,0.3-1.6
			C358.8,212.8,359,212.3,359.4,211.9z"/>
	</g>
	<g>
		<path class="st3" d="M359.7,212.5c-0.1,0.7-0.3,1.4-0.5,2.1c-0.2,0.7-0.5,1.3-1,1.9c0.1-0.7,0.3-1.4,0.5-2.1
			C359,213.7,359.3,213.1,359.7,212.5z"/>
	</g>
	<g>
		<path class="st3" d="M361.4,199c0.3,0.6,0.4,1.1,0.5,1.7c0.1,0.6,0.1,1.2,0,1.8c-0.3-0.6-0.4-1.1-0.5-1.7
			C361.3,200.2,361.3,199.6,361.4,199z"/>
	</g>
	<g>
		<path class="st3" d="M362.3,199.5c0.3,0.6,0.4,1.1,0.5,1.7c0.1,0.6,0.1,1.2,0,1.8c-0.3-0.6-0.4-1.1-0.5-1.7
			C362.2,200.6,362.1,200.1,362.3,199.5z"/>
	</g>
	<g>
		<path class="st3" d="M363.8,200c0,0.6-0.1,1.2-0.3,1.8c-0.2,0.6-0.4,1.1-0.7,1.6c0-0.6,0.1-1.2,0.3-1.8
			C363.2,201,363.5,200.5,363.8,200z"/>
	</g>
	<g>
		<path class="st3" d="M365,199.3c0,0.8-0.2,1.6-0.5,2.3c-0.2,0.7-0.5,1.5-0.9,2.1c0-0.8,0.2-1.6,0.5-2.3
			C364.3,200.8,364.6,200,365,199.3z"/>
	</g>
	<g>
		<path class="st3" d="M365.9,199.8c0,0.8-0.2,1.6-0.5,2.3c-0.2,0.7-0.5,1.5-0.9,2.1c0-0.8,0.2-1.6,0.5-2.3
			C365.2,201.2,365.5,200.5,365.9,199.8z"/>
	</g>
	<g>
		<path class="st3" d="M366.7,200.3c0,0.8-0.2,1.6-0.5,2.3c-0.2,0.7-0.5,1.5-0.9,2.1c0-0.8,0.2-1.6,0.5-2.3
			C366,201.7,366.3,200.9,366.7,200.3z"/>
	</g>
	<g>
		<path class="st3" d="M367.1,201.6c0,0.8-0.2,1.6-0.5,2.3c-0.2,0.7-0.5,1.5-0.9,2.1c0-0.8,0.2-1.6,0.5-2.3
			C366.4,203,366.7,202.2,367.1,201.6z"/>
	</g>
	<g>
		<path class="st3" d="M365.6,206.2c0,0.8-0.2,1.6-0.5,2.3c-0.2,0.7-0.5,1.5-0.9,2.1c0-0.8,0.2-1.6,0.5-2.3
			C364.9,207.6,365.2,206.9,365.6,206.2z"/>
	</g>
	<g>
		<path class="st3" d="M366.5,206.6c0,0.8-0.2,1.6-0.5,2.3c-0.2,0.7-0.5,1.5-0.9,2.1c0-0.8,0.2-1.6,0.5-2.3
			C365.8,208.1,366.1,207.3,366.5,206.6z"/>
	</g>
	<g>
		<path class="st3" d="M366.9,207.9c0,0.8-0.2,1.6-0.5,2.3c-0.2,0.7-0.5,1.5-0.9,2.1c0-0.8,0.2-1.6,0.5-2.3
			C366.2,209.4,366.4,208.6,366.9,207.9z"/>
	</g>
	<g>
		<path class="st3" d="M368.5,209.9c-0.3,0.9-0.7,1.8-1.2,2.6s-1,1.6-1.6,2.4c0.3-0.9,0.7-1.8,1.2-2.6
			C367.4,211.5,367.9,210.7,368.5,209.9z"/>
	</g>
	<g>
		<path class="st3" d="M369.3,210.4c-0.3,0.9-0.7,1.8-1.2,2.6s-1,1.6-1.6,2.4c0.3-0.9,0.7-1.8,1.2-2.6
			C368.2,211.9,368.7,211.1,369.3,210.4z"/>
	</g>
	<g>
		<path class="st3" d="M369.7,211.7c-0.3,0.9-0.7,1.8-1.2,2.6s-1,1.6-1.6,2.4c0.3-0.9,0.7-1.8,1.2-2.6
			C368.6,213.2,369.1,212.4,369.7,211.7z"/>
	</g>
	<g>
		<path class="st3" d="M370.1,213c-0.3,0.9-0.7,1.8-1.2,2.6s-1,1.6-1.6,2.4c0.3-0.9,0.7-1.8,1.2-2.6
			C369,214.5,369.5,213.7,370.1,213z"/>
	</g>
	<g>
		<path class="st3" d="M372.1,205.4c-0.3,0.9-0.7,1.8-1.2,2.6s-1,1.6-1.6,2.4c0.3-0.9,0.7-1.8,1.2-2.6
			C370.9,206.9,371.4,206.1,372.1,205.4z"/>
	</g>
	<g>
		<path class="st3" d="M372.4,206.7c-0.3,0.9-0.7,1.8-1.2,2.6s-1,1.6-1.6,2.4c0.3-0.9,0.7-1.8,1.2-2.6
			C371.3,208.2,371.8,207.4,372.4,206.7z"/>
	</g>
	<g>
		<path class="st3" d="M373.3,206c-0.3,1.1-0.7,2.1-1.2,3.1s-1,2-1.6,2.9c0.3-1.1,0.7-2.1,1.2-3.1C372.2,208,372.7,207,373.3,206z"
			/>
	</g>
	<g>
		<path class="st3" d="M373.7,207.3c-0.3,1.1-0.7,2.1-1.2,3.1s-1,2-1.6,2.9c0.3-1.1,0.7-2.1,1.2-3.1
			C372.6,209.3,373.1,208.3,373.7,207.3z"/>
	</g>
	<g>
		<path class="st3" d="M370.9,214.5c-0.3,1.1-0.7,2.1-1.2,3.1s-1,2-1.6,2.9c0.3-1.1,0.7-2.1,1.2-3.1
			C369.7,216.4,370.2,215.4,370.9,214.5z"/>
	</g>
	<g>
		<path class="st3" d="M370.5,213.2c-0.3,1.1-0.7,2.1-1.2,3.1s-1,2-1.6,2.9c0.3-1.1,0.7-2.1,1.2-3.1
			C369.4,215.1,369.9,214.1,370.5,213.2z"/>
	</g>
	<g>
		<path class="st3" d="M368.1,208.6c-0.3,0.9-0.7,1.8-1.2,2.6s-1,1.6-1.6,2.4c0.3-0.9,0.7-1.8,1.2-2.6S367.5,209.4,368.1,208.6z"/>
	</g>
	<g>
		<path class="st3" d="M367.9,202c0,0.8-0.2,1.6-0.5,2.3c-0.2,0.7-0.5,1.5-0.9,2.1c0-0.8,0.2-1.6,0.5-2.3
			C367.2,203.4,367.5,202.7,367.9,202z"/>
	</g>
	<g>
		<path class="st3" d="M368.8,202.5c0,0.8-0.2,1.6-0.5,2.3c-0.2,0.7-0.5,1.5-0.9,2.1c0-0.8,0.2-1.6,0.5-2.3
			C368.1,203.9,368.3,203.2,368.8,202.5z"/>
	</g>
	<g>
		<path class="st3" d="M369.1,203.8c0,0.8-0.2,1.6-0.5,2.3c-0.2,0.7-0.5,1.5-0.9,2.1c0-0.8,0.2-1.6,0.5-2.3
			C368.4,205.2,368.7,204.4,369.1,203.8z"/>
	</g>
	<g>
		<path class="st3" d="M370.4,203.4c-0.2,1.1-0.5,2.1-0.9,3.1s-0.8,2-1.4,3c0.2-1.1,0.5-2.1,0.9-3.1
			C369.4,205.3,369.9,204.3,370.4,203.4z"/>
	</g>
	<g>
		<path class="st3" d="M371.7,203c-0.3,1.2-0.7,2.4-1.2,3.6c-0.5,1.2-1,2.3-1.6,3.4c0.3-1.2,0.7-2.4,1.2-3.6
			C370.6,205.2,371.1,204.1,371.7,203z"/>
	</g>
	<g>
		<path class="st3" d="M364.4,204.7c-0.6,0.3-1.2,0.5-1.9,0.7c-0.6,0.1-1.3,0.2-2,0.2c0.6-0.3,1.2-0.5,1.9-0.7
			C363.1,204.7,363.7,204.6,364.4,204.7z"/>
	</g>
	<g>
		<path class="st3" d="M363.6,204.2c-0.5,0.4-1,0.6-1.6,0.8s-1.1,0.3-1.7,0.3c0.5-0.4,1-0.6,1.6-0.8
			C362.4,204.3,363,204.2,363.6,204.2z"/>
	</g>
	<g>
		<path class="st3" d="M362.7,203.8c-0.5,0.4-1,0.6-1.6,0.8s-1.1,0.3-1.7,0.3c0.5-0.4,1-0.6,1.6-0.8
			C361.6,203.9,362.1,203.7,362.7,203.8z"/>
	</g>
	<g>
		<path class="st3" d="M362,203.2c-0.5,0.4-1,0.6-1.6,0.8s-1.1,0.3-1.7,0.3c0.5-0.4,1-0.6,1.6-0.8
			C360.8,203.3,361.4,203.2,362,203.2z"/>
	</g>
	<g>
		<path class="st3" d="M364.6,205.1c-0.3,0.5-0.7,0.9-1.2,1.3c-0.4,0.4-0.9,0.7-1.5,1c0.3-0.5,0.7-0.9,1.2-1.3
			S364,205.3,364.6,205.1z"/>
	</g>
	<g>
		<path class="st3" d="M365.4,205.6c-0.3,0.5-0.7,0.9-1.2,1.3c-0.4,0.4-0.9,0.7-1.5,1c0.3-0.5,0.7-0.9,1.2-1.3
			C364.4,206.1,364.9,205.8,365.4,205.6z"/>
	</g>
	<g>
		<path class="st3" d="M365.4,206.3c-0.5,0.7-1,1.2-1.6,1.7s-1.2,1-1.9,1.4c0.5-0.7,1-1.2,1.6-1.7S364.7,206.7,365.4,206.3z"/>
	</g>
	<g>
		<path class="st3" d="M384,199c0.1,0.6,0.1,1.2,0,1.8s-0.2,1.2-0.5,1.7c-0.1-0.6-0.1-1.2,0-1.8C383.6,200.1,383.7,199.6,384,199z"
			/>
	</g>
	<g>
		<path class="st3" d="M383.1,199.5c0.1,0.6,0.1,1.2,0,1.8s-0.2,1.2-0.5,1.7c-0.1-0.6-0.1-1.2,0-1.8
			C382.8,200.6,382.9,200,383.1,199.5z"/>
	</g>
	<g>
		<path class="st3" d="M381.6,200c0.4,0.5,0.6,1.1,0.7,1.6c0.2,0.6,0.3,1.1,0.3,1.8c-0.4-0.5-0.6-1.1-0.7-1.6
			C381.7,201.2,381.6,200.6,381.6,200z"/>
	</g>
	<g>
		<path class="st3" d="M380.4,199.3c0.4,0.7,0.7,1.4,0.9,2.1c0.2,0.7,0.4,1.5,0.5,2.3c-0.4-0.7-0.7-1.4-0.9-2.1
			C380.6,200.9,380.4,200.1,380.4,199.3z"/>
	</g>
	<g>
		<path class="st3" d="M379.5,199.8c0.4,0.7,0.7,1.4,0.9,2.1c0.2,0.7,0.4,1.5,0.5,2.3c-0.4-0.7-0.7-1.4-0.9-2.1
			C379.8,201.4,379.6,200.6,379.5,199.8z"/>
	</g>
	<g>
		<path class="st3" d="M378.7,200.3c0.4,0.7,0.7,1.4,0.9,2.1c0.2,0.7,0.4,1.5,0.5,2.3c-0.4-0.7-0.7-1.4-0.9-2.1
			C378.9,201.8,378.7,201.1,378.7,200.3z"/>
	</g>
	<g>
		<path class="st3" d="M378.3,201.6c0.4,0.7,0.7,1.4,0.9,2.1c0.2,0.7,0.4,1.5,0.5,2.3c-0.4-0.7-0.7-1.4-0.9-2.1
			C378.6,203.1,378.4,202.4,378.3,201.6z"/>
	</g>
	<g>
		<path class="st3" d="M379.8,206.2c0.4,0.7,0.7,1.4,0.9,2.1c0.2,0.7,0.4,1.5,0.5,2.3c-0.4-0.7-0.7-1.4-0.9-2.1
			C380,207.7,379.8,207,379.8,206.2z"/>
	</g>
	<g>
		<path class="st3" d="M378.9,206.6c0.4,0.7,0.7,1.4,0.9,2.1c0.2,0.7,0.4,1.5,0.5,2.3c-0.4-0.7-0.7-1.4-0.9-2.1
			S379,207.4,378.9,206.6z"/>
	</g>
	<g>
		<path class="st3" d="M378.6,207.9c0.4,0.7,0.7,1.4,0.9,2.1c0.2,0.7,0.4,1.5,0.5,2.3c-0.4-0.7-0.7-1.4-0.9-2.1
			C378.8,209.5,378.6,208.7,378.6,207.9z"/>
	</g>
	<g>
		<path class="st3" d="M376.9,209.9c0.6,0.7,1.1,1.6,1.6,2.4c0.5,0.8,0.9,1.7,1.2,2.6c-0.6-0.7-1.1-1.6-1.6-2.4
			C377.6,211.7,377.2,210.9,376.9,209.9z"/>
	</g>
	<g>
		<path class="st3" d="M376.1,210.4c0.6,0.7,1.1,1.6,1.6,2.4c0.4,0.8,0.9,1.7,1.2,2.6c-0.6-0.7-1.1-1.6-1.6-2.4
			C376.8,212.2,376.4,211.3,376.1,210.4z"/>
	</g>
	<g>
		<path class="st3" d="M375.7,211.7c0.6,0.7,1.1,1.6,1.6,2.4c0.4,0.8,0.9,1.7,1.2,2.6c-0.6-0.7-1.1-1.6-1.6-2.4
			C376.4,213.5,376,212.6,375.7,211.7z"/>
	</g>
	<g>
		<path class="st3" d="M375.3,213c0.6,0.7,1.1,1.6,1.6,2.4c0.4,0.8,0.9,1.7,1.2,2.6c-0.6-0.7-1.1-1.6-1.6-2.4
			C376,214.8,375.6,213.9,375.3,213z"/>
	</g>
	<g>
		<path class="st3" d="M373.3,205.4c0.6,0.7,1.1,1.6,1.6,2.4c0.4,0.8,0.9,1.7,1.2,2.6c-0.6-0.7-1.1-1.6-1.6-2.4
			C374,207.2,373.6,206.3,373.3,205.4z"/>
	</g>
	<g>
		<path class="st3" d="M373,206.7c0.6,0.7,1.1,1.6,1.6,2.4c0.4,0.8,0.9,1.7,1.2,2.6c-0.6-0.7-1.1-1.6-1.6-2.4
			C373.7,208.4,373.2,207.6,373,206.7z"/>
	</g>
	<g>
		<path class="st3" d="M372.1,206c0.6,0.9,1.1,1.9,1.6,2.9s0.9,2.1,1.2,3.1c-0.6-0.9-1.1-1.9-1.6-2.9
			C372.8,208.2,372.4,207.1,372.1,206z"/>
	</g>
	<g>
		<path class="st3" d="M371.7,207.3c0.6,0.9,1.1,1.9,1.6,2.9s0.9,2.1,1.2,3.1c-0.6-0.9-1.1-1.9-1.6-2.9
			C372.4,209.5,372,208.4,371.7,207.3z"/>
	</g>
	<g>
		<path class="st3" d="M374.5,214.5c0.6,0.9,1.1,1.9,1.6,2.9s0.9,2.1,1.2,3.1c-0.6-0.9-1.1-1.9-1.6-2.9S374.8,215.6,374.5,214.5z"/>
	</g>
	<g>
		<path class="st3" d="M374.9,213.2c0.6,0.9,1.1,1.9,1.6,2.9s0.9,2.1,1.2,3.1c-0.6-0.9-1.1-1.9-1.6-2.9S375.2,214.3,374.9,213.2z"/>
	</g>
	<g>
		<path class="st3" d="M377.3,208.6c0.6,0.7,1.1,1.6,1.6,2.4c0.4,0.8,0.9,1.7,1.2,2.6c-0.6-0.7-1.1-1.6-1.6-2.4
			C378,210.4,377.6,209.6,377.3,208.6z"/>
	</g>
	<g>
		<path class="st3" d="M377.5,202c0.4,0.7,0.7,1.4,0.9,2.1c0.2,0.7,0.4,1.5,0.5,2.3c-0.4-0.7-0.7-1.4-0.9-2.1
			C377.7,203.6,377.5,202.8,377.5,202z"/>
	</g>
	<g>
		<path class="st3" d="M376.6,202.5c0.4,0.7,0.7,1.4,0.9,2.1c0.2,0.7,0.4,1.5,0.5,2.3c-0.4-0.7-0.7-1.4-0.9-2.1
			C376.9,204,376.7,203.3,376.6,202.5z"/>
	</g>
	<g>
		<path class="st3" d="M376.3,203.8c0.4,0.7,0.7,1.4,0.9,2.1c0.2,0.7,0.4,1.5,0.5,2.3c-0.4-0.7-0.7-1.4-0.9-2.1
			C376.5,205.3,376.3,204.6,376.3,203.8z"/>
	</g>
	<g>
		<path class="st3" d="M375,203.4c0.6,1,1,2,1.4,3s0.7,2.1,0.9,3.1c-0.6-1-1-2-1.4-3S375.2,204.5,375,203.4z"/>
	</g>
	<g>
		<path class="st3" d="M373.7,203c0.6,1.1,1.1,2.2,1.6,3.4s0.9,2.3,1.2,3.6c-0.6-1.1-1.1-2.2-1.6-3.4
			C374.4,205.4,374,204.2,373.7,203z"/>
	</g>
	<g>
		<path class="st3" d="M381,204.7c0.7,0,1.3,0.1,2,0.2c0.6,0.2,1.3,0.4,1.9,0.7c-0.7,0-1.3-0.1-2-0.2
			C382.2,205.2,381.6,205,381,204.7z"/>
	</g>
	<g>
		<path class="st3" d="M381.8,204.2c0.6,0,1.2,0.1,1.7,0.3c0.6,0.2,1.1,0.4,1.6,0.8c-0.6,0-1.2-0.1-1.7-0.3S382.3,204.6,381.8,204.2
			z"/>
	</g>
	<g>
		<path class="st3" d="M382.7,203.8c0.6,0,1.2,0.1,1.7,0.3c0.6,0.2,1.1,0.4,1.6,0.8c-0.6,0-1.2-0.1-1.7-0.3
			C383.7,204.3,383.2,204.1,382.7,203.8z"/>
	</g>
	<g>
		<path class="st3" d="M383.4,203.2c0.6,0,1.2,0.1,1.7,0.3c0.6,0.2,1.1,0.4,1.6,0.8c-0.6,0-1.2-0.1-1.7-0.3S383.9,203.5,383.4,203.2
			z"/>
	</g>
	<g>
		<path class="st3" d="M380.8,205.1c0.6,0.2,1,0.6,1.5,1c0.4,0.4,0.9,0.8,1.2,1.3c-0.6-0.2-1-0.6-1.5-1
			C381.5,206,381.1,205.6,380.8,205.1z"/>
	</g>
	<g>
		<path class="st3" d="M380,205.6c0.6,0.2,1,0.6,1.5,1c0.4,0.4,0.9,0.8,1.2,1.3c-0.6-0.2-1-0.6-1.5-1
			C380.7,206.5,380.3,206.1,380,205.6z"/>
	</g>
	<g>
		<path class="st3" d="M380,206.3c0.7,0.4,1.3,0.9,1.9,1.4s1.1,1.1,1.6,1.7c-0.7-0.4-1.3-0.8-1.9-1.4C381,207.5,380.4,207,380,206.3
			z"/>
	</g>
	<g>
		<path class="st3" d="M385.2,199c0.1,0.6,0.1,1.2,0,1.8s-0.2,1.2-0.5,1.7c-0.1-0.6-0.1-1.2,0-1.8
			C384.8,200.1,384.9,199.6,385.2,199z"/>
	</g>
	<g>
		<path class="st3" d="M384.3,199.5c0.1,0.6,0.1,1.2,0,1.8s-0.2,1.2-0.5,1.7c-0.1-0.6-0.1-1.2,0-1.8
			C384,200.6,384.1,200,384.3,199.5z"/>
	</g>
	<g>
		<path class="st3" d="M382.8,200c0.4,0.5,0.6,1.1,0.7,1.6c0.2,0.6,0.3,1.1,0.3,1.8c-0.4-0.5-0.6-1.1-0.7-1.6
			C382.9,201.2,382.8,200.6,382.8,200z"/>
	</g>
	<g>
		<path class="st3" d="M381.6,199.3c0.4,0.7,0.7,1.4,0.9,2.1c0.2,0.7,0.4,1.5,0.5,2.3c-0.4-0.7-0.7-1.4-0.9-2.1
			C381.8,200.9,381.6,200.1,381.6,199.3z"/>
	</g>
	<g>
		<path class="st3" d="M380.7,199.8c0.4,0.7,0.7,1.4,0.9,2.1c0.2,0.7,0.4,1.5,0.5,2.3c-0.4-0.7-0.7-1.4-0.9-2.1
			C381,201.4,380.8,200.6,380.7,199.8z"/>
	</g>
	<g>
		<path class="st3" d="M379.9,200.3c0.4,0.7,0.7,1.4,0.9,2.1c0.2,0.7,0.4,1.5,0.5,2.3c-0.4-0.7-0.7-1.4-0.9-2.1
			C380.1,201.8,379.9,201.1,379.9,200.3z"/>
	</g>
	<g>
		<path class="st3" d="M379.5,201.6c0.4,0.7,0.7,1.4,0.9,2.1c0.2,0.7,0.4,1.5,0.5,2.3c-0.4-0.7-0.7-1.4-0.9-2.1
			C379.7,203.1,379.6,202.4,379.5,201.6z"/>
	</g>
	<g>
		<path class="st3" d="M381,206.2c0.4,0.7,0.7,1.4,0.9,2.1c0.2,0.7,0.4,1.5,0.5,2.3c-0.4-0.7-0.7-1.4-0.9-2.1
			C381.2,207.7,381,207,381,206.2z"/>
	</g>
	<g>
		<path class="st3" d="M380.1,206.6c0.4,0.7,0.7,1.4,0.9,2.1c0.2,0.7,0.4,1.5,0.5,2.3c-0.4-0.7-0.7-1.4-0.9-2.1
			C380.4,208.2,380.2,207.4,380.1,206.6z"/>
	</g>
	<g>
		<path class="st3" d="M379.7,207.9c0.4,0.7,0.7,1.4,0.9,2.1c0.2,0.7,0.4,1.5,0.5,2.3c-0.4-0.7-0.7-1.4-0.9-2.1
			C380,209.5,379.8,208.7,379.7,207.9z"/>
	</g>
	<g>
		<path class="st3" d="M378.1,209.9c0.6,0.7,1.1,1.6,1.6,2.4c0.4,0.8,0.9,1.7,1.2,2.6c-0.6-0.7-1.1-1.6-1.6-2.4
			C378.8,211.7,378.4,210.9,378.1,209.9z"/>
	</g>
	<g>
		<path class="st3" d="M377.3,210.4c0.6,0.7,1.1,1.6,1.6,2.4c0.4,0.8,0.9,1.7,1.2,2.6c-0.6-0.7-1.1-1.6-1.6-2.4
			C378,212.2,377.6,211.3,377.3,210.4z"/>
	</g>
	<g>
		<path class="st3" d="M376.9,211.7c0.6,0.7,1.1,1.6,1.6,2.4c0.4,0.8,0.9,1.7,1.2,2.6c-0.6-0.7-1.1-1.6-1.6-2.4
			C377.6,213.5,377.2,212.6,376.9,211.7z"/>
	</g>
	<g>
		<path class="st3" d="M376.5,213c0.6,0.7,1.1,1.6,1.6,2.4c0.4,0.8,0.9,1.7,1.2,2.6c-0.6-0.7-1.1-1.6-1.6-2.4
			C377.2,214.8,376.8,213.9,376.5,213z"/>
	</g>
	<g>
		<path class="st3" d="M374.5,205.4c0.6,0.7,1.1,1.6,1.6,2.4c0.4,0.8,0.9,1.7,1.2,2.6c-0.6-0.7-1.1-1.6-1.6-2.4
			C375.2,207.2,374.8,206.3,374.5,205.4z"/>
	</g>
	<g>
		<path class="st3" d="M374.1,206.7c0.6,0.7,1.1,1.6,1.6,2.4c0.4,0.8,0.9,1.7,1.2,2.6c-0.6-0.7-1.1-1.6-1.6-2.4
			C374.9,208.4,374.4,207.6,374.1,206.7z"/>
	</g>
	<g>
		<path class="st3" d="M373.3,206c0.6,0.9,1.1,1.9,1.6,2.9s0.9,2.1,1.2,3.1c-0.6-0.9-1.1-1.9-1.6-2.9
			C374,208.2,373.6,207.1,373.3,206z"/>
	</g>
	<g>
		<path class="st3" d="M372.9,207.3c0.6,0.9,1.1,1.9,1.6,2.9s0.9,2.1,1.2,3.1c-0.6-0.9-1.1-1.9-1.6-2.9
			C373.6,209.5,373.2,208.4,372.9,207.3z"/>
	</g>
	<g>
		<path class="st3" d="M375.7,214.5c0.6,0.9,1.1,1.9,1.6,2.9s0.9,2.1,1.2,3.1c-0.6-0.9-1.1-1.9-1.6-2.9
			C376.4,216.6,376,215.6,375.7,214.5z"/>
	</g>
	<g>
		<path class="st3" d="M376.1,213.2c0.6,0.9,1.1,1.9,1.6,2.9s0.9,2.1,1.2,3.1c-0.6-0.9-1.1-1.9-1.6-2.9
			C376.8,215.3,376.4,214.3,376.1,213.2z"/>
	</g>
	<g>
		<path class="st3" d="M378.5,208.6c0.6,0.7,1.1,1.6,1.6,2.4c0.4,0.8,0.9,1.7,1.2,2.6c-0.6-0.7-1.1-1.6-1.6-2.4
			C379.2,210.4,378.8,209.6,378.5,208.6z"/>
	</g>
	<g>
		<path class="st3" d="M378.7,202c0.4,0.7,0.7,1.4,0.9,2.1c0.2,0.7,0.4,1.5,0.5,2.3c-0.4-0.7-0.7-1.4-0.9-2.1
			C378.9,203.6,378.7,202.8,378.7,202z"/>
	</g>
	<g>
		<path class="st3" d="M377.8,202.5c0.4,0.7,0.7,1.4,0.9,2.1c0.2,0.7,0.4,1.5,0.5,2.3c-0.4-0.7-0.7-1.4-0.9-2.1
			C378.1,204,377.9,203.3,377.8,202.5z"/>
	</g>
	<g>
		<path class="st3" d="M377.5,203.8c0.4,0.7,0.7,1.4,0.9,2.1c0.2,0.7,0.4,1.5,0.5,2.3c-0.4-0.7-0.7-1.4-0.9-2.1
			C377.7,205.3,377.5,204.6,377.5,203.8z"/>
	</g>
	<g>
		<path class="st3" d="M376.2,203.4c0.6,1,1,2,1.4,3s0.7,2.1,0.9,3.1c-0.6-1-1-2-1.4-3S376.4,204.5,376.2,203.4z"/>
	</g>
	<g>
		<path class="st3" d="M374.9,203c0.6,1.1,1.1,2.2,1.6,3.4s0.9,2.3,1.2,3.6c-0.6-1.1-1.1-2.2-1.6-3.4
			C375.6,205.4,375.1,204.2,374.9,203z"/>
	</g>
	<g>
		<path class="st3" d="M382.2,204.7c0.7,0,1.3,0.1,2,0.2c0.6,0.2,1.3,0.4,1.9,0.7c-0.7,0-1.3-0.1-2-0.2
			C383.4,205.2,382.8,205,382.2,204.7z"/>
	</g>
	<g>
		<path class="st3" d="M383,204.2c0.6,0,1.2,0.1,1.7,0.3c0.6,0.2,1.1,0.4,1.6,0.8c-0.6,0-1.2-0.1-1.7-0.3S383.5,204.6,383,204.2z"/>
	</g>
	<g>
		<path class="st3" d="M383.9,203.8c0.6,0,1.2,0.1,1.7,0.3c0.6,0.2,1.1,0.4,1.6,0.8c-0.6,0-1.2-0.1-1.7-0.3
			C384.9,204.3,384.4,204.1,383.9,203.8z"/>
	</g>
	<g>
		<path class="st3" d="M384.6,203.2c0.6,0,1.2,0.1,1.7,0.3c0.6,0.2,1.1,0.4,1.6,0.8c-0.6,0-1.2-0.1-1.7-0.3S385.1,203.5,384.6,203.2
			z"/>
	</g>
	<g>
		<path class="st3" d="M382,205.1c0.6,0.2,1,0.6,1.5,1c0.4,0.4,0.9,0.8,1.2,1.3c-0.6-0.2-1-0.6-1.5-1
			C382.7,206,382.3,205.6,382,205.1z"/>
	</g>
	<g>
		<path class="st3" d="M381.2,205.6c0.6,0.2,1,0.6,1.5,1c0.4,0.4,0.9,0.8,1.2,1.3c-0.6-0.2-1-0.6-1.5-1
			C381.9,206.5,381.5,206.1,381.2,205.6z"/>
	</g>
	<g>
		<path class="st3" d="M381.2,206.3c0.7,0.4,1.3,0.9,1.9,1.4s1.1,1.1,1.6,1.7c-0.7-0.4-1.3-0.8-1.9-1.4
			C382.2,207.5,381.6,207,381.2,206.3z"/>
	</g>
	<g>
		<path class="st3" d="M392.7,210.8c-0.2,0.5-0.5,0.9-0.8,1.3c-0.4,0.4-0.7,0.7-1.2,1c0.2-0.5,0.5-0.9,0.8-1.3
			C391.9,211.4,392.3,211,392.7,210.8z"/>
	</g>
	<g>
		<path class="st3" d="M391.9,210.7c-0.2,0.5-0.5,0.9-0.8,1.3c-0.4,0.4-0.7,0.7-1.2,1c0.2-0.5,0.5-0.9,0.8-1.3
			C391,211.3,391.4,210.9,391.9,210.7z"/>
	</g>
	<g>
		<path class="st3" d="M390.5,210.3c0,0.6-0.1,1.1-0.2,1.6c-0.2,0.5-0.4,1-0.7,1.4c0-0.6,0.1-1.1,0.2-1.6
			C390,211.2,390.2,210.7,390.5,210.3z"/>
	</g>
	<g>
		<path class="st3" d="M389.9,209.2c0,0.7-0.2,1.4-0.4,2.1c-0.2,0.7-0.5,1.3-0.8,1.9c0-0.7,0.2-1.4,0.4-2.1
			C389.3,210.4,389.5,209.8,389.9,209.2z"/>
	</g>
	<g>
		<path class="st3" d="M389.1,209.1c0,0.7-0.2,1.4-0.4,2.1c-0.2,0.7-0.5,1.3-0.8,1.9c0-0.7,0.2-1.4,0.4-2.1
			C388.4,210.4,388.7,209.7,389.1,209.1z"/>
	</g>
	<g>
		<path class="st3" d="M388.2,209c0,0.7-0.2,1.4-0.4,2.1c-0.2,0.7-0.5,1.3-0.8,1.9c0-0.7,0.2-1.4,0.4-2.1
			C387.6,210.3,387.8,209.6,388.2,209z"/>
	</g>
	<g>
		<path class="st3" d="M387.3,209.8c0,0.7-0.2,1.4-0.4,2.1c-0.2,0.7-0.5,1.3-0.8,1.9c0-0.7,0.2-1.4,0.4-2.1
			C386.7,211,386.9,210.4,387.3,209.8z"/>
	</g>
	<g>
		<path class="st3" d="M386,213.9c0,0.7-0.2,1.4-0.4,2.1c-0.2,0.7-0.5,1.3-0.8,1.9c0-0.7,0.2-1.4,0.4-2.1
			C385.4,215.2,385.6,214.5,386,213.9z"/>
	</g>
	<g>
		<path class="st3" d="M385.2,213.8c0,0.7-0.2,1.4-0.4,2.1c-0.2,0.7-0.5,1.3-0.8,1.9c0-0.7,0.2-1.4,0.4-2.1
			C384.6,215.1,384.8,214.4,385.2,213.8z"/>
	</g>
	<g>
		<path class="st3" d="M384.3,214.6c0,0.7-0.2,1.4-0.4,2.1c-0.2,0.7-0.5,1.3-0.8,1.9c0-0.7,0.2-1.4,0.4-2.1
			C383.6,215.8,383.9,215.2,384.3,214.6z"/>
	</g>
	<g>
		<path class="st3" d="M382.1,215.2c0.1,0.9,0.1,1.7,0,2.6c-0.1,0.8-0.2,1.7-0.5,2.5c-0.1-0.9-0.1-1.7,0-2.6
			C381.7,216.9,381.8,216,382.1,215.2z"/>
	</g>
	<g>
		<path class="st3" d="M381.2,215.1c0.1,0.9,0.1,1.7,0,2.6c-0.1,0.8-0.2,1.7-0.5,2.5c-0.1-0.9-0.1-1.7,0-2.6
			C380.8,216.8,380.9,216,381.2,215.1z"/>
	</g>
	<g>
		<path class="st3" d="M380.3,215.9c0.1,0.9,0.1,1.7,0,2.6c-0.1,0.8-0.2,1.7-0.5,2.5c-0.1-0.9-0.1-1.7,0-2.6
			C379.9,217.6,380,216.7,380.3,215.9z"/>
	</g>
	<g>
		<path class="st3" d="M379.4,216.7c0.1,0.9,0.1,1.7,0,2.6c-0.1,0.8-0.2,1.7-0.5,2.5c-0.1-0.9-0.1-1.7,0-2.6
			C379,218.3,379.1,217.5,379.4,216.7z"/>
	</g>
	<g>
		<path class="st3" d="M381.7,210.1c0.1,0.9,0.1,1.7,0,2.6c-0.1,0.8-0.2,1.7-0.5,2.5c-0.1-0.9-0.1-1.7,0-2.6
			C381.3,211.7,381.4,210.9,381.7,210.1z"/>
	</g>
	<g>
		<path class="st3" d="M380.8,210.8c0.1,0.9,0.1,1.7,0,2.6c-0.1,0.8-0.2,1.7-0.5,2.5c-0.1-0.9-0.1-1.7,0-2.6
			C380.4,212.5,380.5,211.7,380.8,210.8z"/>
	</g>
	<g>
		<path class="st3" d="M380.5,209.9c0,1-0.1,2-0.3,3c-0.2,1-0.4,1.9-0.8,2.9c0-1,0.1-2,0.3-3C379.9,211.9,380.1,210.9,380.5,209.9z"
			/>
	</g>
	<g>
		<path class="st3" d="M379.5,210.7c0,1-0.1,2-0.3,3c-0.2,1-0.4,1.9-0.8,2.9c0-1,0.1-2,0.3-3C379,212.6,379.2,211.7,379.5,210.7z"/>
	</g>
	<g>
		<path class="st3" d="M378,217.4c0,1-0.1,2-0.3,3c-0.2,1-0.4,1.9-0.8,2.9c0-1,0.1-2,0.3-3C377.4,219.3,377.6,218.3,378,217.4z"/>
	</g>
	<g>
		<path class="st3" d="M378.9,216.6c0,1-0.1,2-0.3,3c-0.2,1-0.4,1.9-0.8,2.9c0-1,0.1-2,0.3-3C378.4,218.5,378.6,217.6,378.9,216.6z"
			/>
	</g>
	<g>
		<path class="st3" d="M383,214.5c0.1,0.9,0.1,1.7,0,2.6c-0.1,0.8-0.2,1.7-0.5,2.5c-0.1-0.9-0.1-1.7,0-2.6
			C382.6,216.1,382.7,215.3,383,214.5z"/>
	</g>
	<g>
		<path class="st3" d="M386.5,209.7c0,0.7-0.2,1.4-0.4,2.1c-0.2,0.7-0.5,1.3-0.8,1.9c0-0.7,0.2-1.4,0.4-2.1
			C385.8,210.9,386.1,210.3,386.5,209.7z"/>
	</g>
	<g>
		<path class="st3" d="M385.6,209.6c0,0.7-0.2,1.4-0.4,2.1c-0.2,0.7-0.5,1.3-0.8,1.9c0-0.7,0.2-1.4,0.4-2.1
			C385,210.9,385.2,210.2,385.6,209.6z"/>
	</g>
	<g>
		<path class="st3" d="M384.7,210.4c0,0.7-0.2,1.4-0.4,2.1c-0.2,0.7-0.5,1.3-0.8,1.9c0-0.7,0.2-1.4,0.4-2.1
			C384,211.6,384.3,211,384.7,210.4z"/>
	</g>
	<g>
		<path class="st3" d="M383.9,209.4c0,1-0.2,1.9-0.4,2.9c-0.2,0.9-0.5,1.9-0.9,2.8c0-1,0.2-1.9,0.4-2.9
			C383.2,211.3,383.5,210.3,383.9,209.4z"/>
	</g>
	<g>
		<path class="st3" d="M383.2,208.5c-0.1,1.1-0.3,2.2-0.5,3.3c-0.3,1.1-0.5,2.2-1,3.2c0.1-1.1,0.3-2.2,0.5-3.3
			C382.4,210.6,382.7,209.6,383.2,208.5z"/>
	</g>
	<g>
		<path class="st3" d="M387.7,213.4c0.5,0.3,1,0.7,1.4,1.1c0.4,0.4,0.8,0.9,1,1.5c-0.5-0.3-1-0.7-1.4-1.1
			C388.3,214.4,387.9,214,387.7,213.4z"/>
	</g>
	<g>
		<path class="st3" d="M388.5,213.5c0.5,0.3,0.8,0.7,1.2,1.1c0.3,0.4,0.6,0.8,0.8,1.4c-0.5-0.3-0.8-0.7-1.2-1.1
			C389,214.5,388.7,214,388.5,213.5z"/>
	</g>
	<g>
		<path class="st3" d="M389.4,213.6c0.5,0.3,0.8,0.7,1.2,1.1c0.3,0.4,0.6,0.8,0.8,1.4c-0.5-0.3-0.8-0.7-1.2-1.1
			C389.8,214.6,389.6,214.1,389.4,213.6z"/>
	</g>
	<g>
		<path class="st3" d="M390.2,213.5c0.5,0.3,0.8,0.7,1.2,1.1c0.3,0.4,0.6,0.8,0.8,1.4c-0.5-0.3-0.8-0.7-1.2-1.1
			C390.7,214.5,390.4,214.1,390.2,213.5z"/>
	</g>
	<g>
		<path class="st3" d="M387.3,213.6c0.3,0.5,0.5,0.9,0.6,1.4s0.2,1,0.2,1.6c-0.3-0.5-0.5-0.9-0.6-1.4
			C387.4,214.7,387.3,214.2,387.3,213.6z"/>
	</g>
	<g>
		<path class="st3" d="M386.5,213.6c0.3,0.5,0.5,0.9,0.6,1.4s0.2,1,0.2,1.6c-0.3-0.5-0.5-0.9-0.6-1.4
			C386.5,214.6,386.4,214.1,386.5,213.6z"/>
	</g>
	<g>
		<path class="st3" d="M386.1,214.1c0.4,0.6,0.6,1.3,0.7,2c0.2,0.7,0.3,1.4,0.3,2.1c-0.4-0.6-0.6-1.3-0.7-2
			C386.2,215.5,386.1,214.8,386.1,214.1z"/>
	</g>
	<g>
		<path class="st3" d="M382.3,208.4c0.5,0.3,0.8,0.7,1.1,1.2c0.3,0.4,0.6,0.9,0.7,1.5c-0.5-0.3-0.8-0.7-1.1-1.2
			C382.7,209.4,382.4,208.9,382.3,208.4z"/>
	</g>
	<g>
		<path class="st3" d="M383.1,208.4c0.5,0.3,0.8,0.7,1.1,1.2c0.3,0.4,0.6,0.9,0.7,1.5c-0.5-0.3-0.8-0.7-1.1-1.2
			C383.6,209.4,383.3,208.9,383.1,208.4z"/>
	</g>
	<g>
		<path class="st3" d="M384.6,208.1c0.3,0.5,0.5,1,0.6,1.5s0.2,1.1,0.1,1.6c-0.3-0.5-0.5-1-0.6-1.5
			C384.6,209.2,384.5,208.7,384.6,208.1z"/>
	</g>
	<g>
		<path class="st3" d="M385.3,207.1c0.3,0.7,0.5,1.4,0.7,2c0.1,0.7,0.2,1.4,0.2,2.1c-0.3-0.7-0.5-1.4-0.7-2
			C385.4,208.5,385.3,207.8,385.3,207.1z"/>
	</g>
	<g>
		<path class="st3" d="M386.2,207.1c0.3,0.7,0.5,1.4,0.7,2c0.1,0.7,0.2,1.4,0.2,2.1c-0.3-0.7-0.5-1.4-0.7-2
			C386.2,208.5,386.1,207.8,386.2,207.1z"/>
	</g>
	<g>
		<path class="st3" d="M387.1,207.1c0.3,0.7,0.5,1.4,0.7,2c0.1,0.7,0.2,1.4,0.2,2.1c-0.3-0.7-0.5-1.4-0.7-2
			C387.1,208.5,387,207.8,387.1,207.1z"/>
	</g>
	<g>
		<path class="st3" d="M387.9,207.9c0.3,0.7,0.5,1.4,0.7,2c0.1,0.7,0.2,1.4,0.2,2.1c-0.3-0.7-0.5-1.4-0.7-2
			C388,209.4,387.9,208.7,387.9,207.9z"/>
	</g>
	<g>
		<path class="st3" d="M388.8,212.3c0.3,0.7,0.5,1.4,0.7,2c0.1,0.7,0.2,1.4,0.2,2.1c-0.3-0.7-0.5-1.4-0.7-2
			C388.9,213.7,388.8,213,388.8,212.3z"/>
	</g>
	<g>
		<path class="st3" d="M389.7,212.3c0.3,0.7,0.5,1.4,0.7,2c0.1,0.7,0.2,1.4,0.2,2.1c-0.3-0.7-0.5-1.4-0.7-2
			C389.7,213.7,389.6,213,389.7,212.3z"/>
	</g>
	<g>
		<path class="st3" d="M390.6,213.2c0.3,0.7,0.5,1.4,0.7,2c0.1,0.7,0.2,1.4,0.2,2.1c-0.3-0.7-0.5-1.4-0.7-2
			C390.6,214.6,390.5,213.9,390.6,213.2z"/>
	</g>
	<g>
		<path class="st3" d="M392.7,214c0.2,0.9,0.2,1.7,0.2,2.6c0,0.9-0.1,1.7-0.2,2.6c-0.2-0.9-0.2-1.7-0.2-2.6
			C392.5,215.8,392.6,214.9,392.7,214z"/>
	</g>
	<g>
		<path class="st3" d="M393.6,214c0.2,0.9,0.2,1.7,0.2,2.6c0,0.9-0.1,1.7-0.2,2.6c-0.2-0.9-0.2-1.7-0.2-2.6
			C393.4,215.8,393.4,214.9,393.6,214z"/>
	</g>
	<g>
		<path class="st3" d="M394.5,214.9c0.2,0.9,0.2,1.7,0.2,2.6c0,0.9-0.1,1.7-0.2,2.6c-0.2-0.9-0.2-1.7-0.2-2.6
			C394.3,216.7,394.3,215.8,394.5,214.9z"/>
	</g>
	<g>
		<path class="st3" d="M395.4,215.8c0.2,0.9,0.2,1.7,0.2,2.6c0,0.9-0.1,1.7-0.2,2.6c-0.2-0.9-0.2-1.7-0.2-2.6
			C395.1,217.5,395.2,216.7,395.4,215.8z"/>
	</g>
	<g>
		<path class="st3" d="M393.6,208.8c0.2,0.9,0.2,1.7,0.2,2.6c0,0.9-0.1,1.7-0.2,2.6c-0.2-0.9-0.2-1.7-0.2-2.6
			S393.4,209.7,393.6,208.8z"/>
	</g>
	<g>
		<path class="st3" d="M394.5,209.7c0.2,0.9,0.2,1.7,0.2,2.6c0,0.9-0.1,1.7-0.2,2.6c-0.2-0.9-0.2-1.7-0.2-2.6
			S394.3,210.5,394.5,209.7z"/>
	</g>
	<g>
		<path class="st3" d="M394.9,208.8c0.3,1,0.4,2,0.5,3s0.1,2,0,3.1c-0.3-1-0.4-2-0.5-3C394.8,210.9,394.8,209.8,394.9,208.8z"/>
	</g>
	<g>
		<path class="st3" d="M395.8,209.7c0.3,1,0.4,2,0.5,3s0.1,2,0,3.1c-0.3-1-0.4-2-0.5-3C395.7,211.7,395.7,210.7,395.8,209.7z"/>
	</g>
	<g>
		<path class="st3" d="M396.7,216.7c0.3,1,0.4,2,0.5,3s0.1,2,0,3.1c-0.3-1-0.4-2-0.5-3C396.6,218.7,396.6,217.7,396.7,216.7z"/>
	</g>
	<g>
		<path class="st3" d="M395.8,215.8c0.3,1,0.4,2,0.5,3s0.1,2,0,3.1c-0.3-1-0.4-2-0.5-3C395.7,217.8,395.7,216.8,395.8,215.8z"/>
	</g>
	<g>
		<path class="st3" d="M391.9,213.2c0.2,0.9,0.2,1.7,0.2,2.6c0,0.9-0.1,1.7-0.2,2.6c-0.2-0.9-0.2-1.7-0.2-2.6
			C391.6,214.9,391.7,214,391.9,213.2z"/>
	</g>
	<g>
		<path class="st3" d="M388.8,207.9c0.3,0.7,0.5,1.4,0.7,2c0.1,0.7,0.2,1.4,0.2,2.1c-0.3-0.7-0.5-1.4-0.7-2
			C388.9,209.4,388.8,208.7,388.8,207.9z"/>
	</g>
	<g>
		<path class="st3" d="M389.7,207.9c0.3,0.7,0.5,1.4,0.7,2c0.1,0.7,0.2,1.4,0.2,2.1c-0.3-0.7-0.5-1.4-0.7-2S389.6,208.7,389.7,207.9
			z"/>
	</g>
	<g>
		<path class="st3" d="M390.6,208.8c0.3,0.7,0.5,1.4,0.7,2c0.1,0.7,0.2,1.4,0.2,2.1c-0.3-0.7-0.5-1.4-0.7-2
			C390.6,210.2,390.5,209.5,390.6,208.8z"/>
	</g>
	<g>
		<path class="st3" d="M391.4,207.9c0.3,1,0.5,1.9,0.7,2.9c0.1,1,0.2,2,0.2,3c-0.3-1-0.5-1.9-0.7-2.9
			C391.5,209.9,391.4,208.9,391.4,207.9z"/>
	</g>
	<g>
		<path class="st3" d="M392.3,207.1c0.3,1.1,0.5,2.2,0.7,3.4c0.1,1.1,0.2,2.3,0.2,3.4c-0.3-1.1-0.5-2.2-0.7-3.4
			C392.3,209.4,392.3,208.2,392.3,207.1z"/>
	</g>
	<g>
		<path class="st3" d="M387.2,211.6c-0.3,0.6-0.7,1-1.2,1.4s-0.9,0.8-1.5,1c0.3-0.6,0.7-1,1.2-1.4
			C386.1,212.2,386.6,211.9,387.2,211.6z"/>
	</g>
	<g>
		<path class="st3" d="M386.3,211.6c-0.2,0.5-0.6,0.9-0.9,1.3c-0.4,0.4-0.8,0.7-1.3,1c0.2-0.5,0.6-0.9,0.9-1.3
			C385.4,212.2,385.8,211.9,386.3,211.6z"/>
	</g>
	<g>
		<path class="st3" d="M385.4,211.6c-0.2,0.5-0.6,0.9-0.9,1.3c-0.4,0.4-0.8,0.7-1.3,1c0.2-0.5,0.6-0.9,0.9-1.3
			C384.5,212.2,384.9,211.9,385.4,211.6z"/>
	</g>
	<g>
		<path class="st3" d="M384.5,211.5c-0.2,0.5-0.6,0.9-0.9,1.3c-0.4,0.4-0.8,0.7-1.3,1c0.2-0.5,0.6-0.9,0.9-1.3
			C383.6,212.1,384,211.7,384.5,211.5z"/>
	</g>
	<g>
		<path class="st3" d="M387.5,211.9c0,0.6-0.2,1.1-0.3,1.6c-0.2,0.5-0.4,1-0.8,1.4c0-0.6,0.2-1.1,0.3-1.6
			C386.9,212.8,387.1,212.3,387.5,211.9z"/>
	</g>
	<g>
		<path class="st3" d="M388.4,211.9c0,0.6-0.2,1.1-0.3,1.6c-0.2,0.5-0.4,1-0.8,1.4c0-0.6,0.2-1.1,0.3-1.6
			C387.8,212.8,388,212.3,388.4,211.9z"/>
	</g>
	<g>
		<path class="st3" d="M388.7,212.5c-0.1,0.7-0.3,1.4-0.5,2.1c-0.2,0.7-0.5,1.3-1,1.9c0.1-0.7,0.3-1.4,0.5-2.1
			C388,213.7,388.3,213.1,388.7,212.5z"/>
	</g>
	<g>
		<path class="st3" d="M390.4,199c0.3,0.6,0.4,1.1,0.5,1.7c0.1,0.6,0.1,1.2,0,1.8c-0.3-0.6-0.4-1.1-0.5-1.7
			C390.3,200.2,390.3,199.6,390.4,199z"/>
	</g>
	<g>
		<path class="st3" d="M391.3,199.5c0.3,0.6,0.4,1.1,0.5,1.7c0.1,0.6,0.1,1.2,0,1.8c-0.3-0.6-0.4-1.1-0.5-1.7
			C391.2,200.6,391.1,200.1,391.3,199.5z"/>
	</g>
	<g>
		<path class="st3" d="M392.8,200c0,0.6-0.1,1.2-0.3,1.8c-0.2,0.6-0.4,1.1-0.7,1.6c0-0.6,0.1-1.2,0.3-1.8
			C392.2,201,392.5,200.5,392.8,200z"/>
	</g>
	<g>
		<path class="st3" d="M394,199.3c0,0.8-0.2,1.6-0.5,2.3c-0.2,0.7-0.5,1.5-0.9,2.1c0-0.8,0.2-1.6,0.5-2.3
			C393.3,200.8,393.6,200,394,199.3z"/>
	</g>
	<g>
		<path class="st3" d="M394.9,199.8c0,0.8-0.2,1.6-0.5,2.3c-0.2,0.7-0.5,1.5-0.9,2.1c0-0.8,0.2-1.6,0.5-2.3
			C394.2,201.2,394.5,200.5,394.9,199.8z"/>
	</g>
	<g>
		<path class="st3" d="M395.7,200.3c0,0.8-0.2,1.6-0.5,2.3c-0.2,0.7-0.5,1.5-0.9,2.1c0-0.8,0.2-1.6,0.5-2.3
			C395,201.7,395.3,200.9,395.7,200.3z"/>
	</g>
	<g>
		<path class="st3" d="M396.1,201.6c0,0.8-0.2,1.6-0.5,2.3c-0.2,0.7-0.5,1.5-0.9,2.1c0-0.8,0.2-1.6,0.5-2.3
			C395.4,203,395.7,202.2,396.1,201.6z"/>
	</g>
	<g>
		<path class="st3" d="M394.6,206.2c0,0.8-0.2,1.6-0.5,2.3c-0.2,0.7-0.5,1.5-0.9,2.1c0-0.8,0.2-1.6,0.5-2.3
			C393.9,207.6,394.2,206.9,394.6,206.2z"/>
	</g>
	<g>
		<path class="st3" d="M395.5,206.6c0,0.8-0.2,1.6-0.5,2.3c-0.2,0.7-0.5,1.5-0.9,2.1c0-0.8,0.2-1.6,0.5-2.3
			C394.8,208.1,395.1,207.3,395.5,206.6z"/>
	</g>
	<g>
		<path class="st3" d="M395.9,207.9c0,0.8-0.2,1.6-0.5,2.3c-0.2,0.7-0.5,1.5-0.9,2.1c0-0.8,0.2-1.6,0.5-2.3
			C395.2,209.4,395.4,208.6,395.9,207.9z"/>
	</g>
	<g>
		<path class="st3" d="M397.5,209.9c-0.3,0.9-0.7,1.8-1.2,2.6s-1,1.6-1.6,2.4c0.3-0.9,0.7-1.8,1.2-2.6
			C396.4,211.5,396.9,210.7,397.5,209.9z"/>
	</g>
	<g>
		<path class="st3" d="M398.3,210.4c-0.3,0.9-0.7,1.8-1.2,2.6s-1,1.6-1.6,2.4c0.3-0.9,0.7-1.8,1.2-2.6
			C397.2,211.9,397.7,211.1,398.3,210.4z"/>
	</g>
	<g>
		<path class="st3" d="M398.7,211.7c-0.3,0.9-0.7,1.8-1.2,2.6s-1,1.6-1.6,2.4c0.3-0.9,0.7-1.8,1.2-2.6
			C397.6,213.2,398.1,212.4,398.7,211.7z"/>
	</g>
	<g>
		<path class="st3" d="M399.1,213c-0.3,0.9-0.7,1.8-1.2,2.6s-1,1.6-1.6,2.4c0.3-0.9,0.7-1.8,1.2-2.6
			C398,214.5,398.5,213.7,399.1,213z"/>
	</g>
	<g>
		<path class="st3" d="M401.1,205.4c-0.3,0.9-0.7,1.8-1.2,2.6s-1,1.6-1.6,2.4c0.3-0.9,0.7-1.8,1.2-2.6
			C399.9,206.9,400.4,206.1,401.1,205.4z"/>
	</g>
	<g>
		<path class="st3" d="M401.4,206.7c-0.3,0.9-0.7,1.8-1.2,2.6s-1,1.6-1.6,2.4c0.3-0.9,0.7-1.8,1.2-2.6
			C400.3,208.2,400.8,207.4,401.4,206.7z"/>
	</g>
	<g>
		<path class="st3" d="M402.3,206c-0.3,1.1-0.7,2.1-1.2,3.1s-1,2-1.6,2.9c0.3-1.1,0.7-2.1,1.2-3.1C401.2,208,401.7,207,402.3,206z"
			/>
	</g>
	<g>
		<path class="st3" d="M402.7,207.3c-0.3,1.1-0.7,2.1-1.2,3.1s-1,2-1.6,2.9c0.3-1.1,0.7-2.1,1.2-3.1
			C401.6,209.3,402.1,208.3,402.7,207.3z"/>
	</g>
	<g>
		<path class="st3" d="M399.9,214.5c-0.3,1.1-0.7,2.1-1.2,3.1s-1,2-1.6,2.9c0.3-1.1,0.7-2.1,1.2-3.1
			C398.7,216.4,399.2,215.4,399.9,214.5z"/>
	</g>
	<g>
		<path class="st3" d="M399.5,213.2c-0.3,1.1-0.7,2.1-1.2,3.1s-1,2-1.6,2.9c0.3-1.1,0.7-2.1,1.2-3.1
			C398.4,215.1,398.9,214.1,399.5,213.2z"/>
	</g>
	<g>
		<path class="st3" d="M397.1,208.6c-0.3,0.9-0.7,1.8-1.2,2.6s-1,1.6-1.6,2.4c0.3-0.9,0.7-1.8,1.2-2.6S396.5,209.4,397.1,208.6z"/>
	</g>
	<g>
		<path class="st3" d="M396.9,202c0,0.8-0.2,1.6-0.5,2.3c-0.2,0.7-0.5,1.5-0.9,2.1c0-0.8,0.2-1.6,0.5-2.3
			C396.2,203.4,396.5,202.7,396.9,202z"/>
	</g>
	<g>
		<path class="st3" d="M397.8,202.5c0,0.8-0.2,1.6-0.5,2.3c-0.2,0.7-0.5,1.5-0.9,2.1c0-0.8,0.2-1.6,0.5-2.3
			C397.1,203.9,397.3,203.2,397.8,202.5z"/>
	</g>
	<g>
		<path class="st3" d="M398.1,203.8c0,0.8-0.2,1.6-0.5,2.3c-0.2,0.7-0.5,1.5-0.9,2.1c0-0.8,0.2-1.6,0.5-2.3
			C397.4,205.2,397.7,204.4,398.1,203.8z"/>
	</g>
	<g>
		<path class="st3" d="M399.4,203.4c-0.2,1.1-0.5,2.1-0.9,3.1s-0.8,2-1.4,3c0.2-1.1,0.5-2.1,0.9-3.1
			C398.4,205.3,398.9,204.3,399.4,203.4z"/>
	</g>
	<g>
		<path class="st3" d="M400.7,203c-0.3,1.2-0.7,2.4-1.2,3.6c-0.5,1.2-1,2.3-1.6,3.4c0.3-1.2,0.7-2.4,1.2-3.6
			C399.6,205.2,400.1,204.1,400.7,203z"/>
	</g>
	<g>
		<path class="st3" d="M393.4,204.7c-0.6,0.3-1.2,0.5-1.9,0.7c-0.6,0.1-1.3,0.2-2,0.2c0.6-0.3,1.2-0.5,1.9-0.7
			C392.1,204.7,392.7,204.6,393.4,204.7z"/>
	</g>
	<g>
		<path class="st3" d="M392.6,204.2c-0.5,0.4-1,0.6-1.6,0.8s-1.1,0.3-1.7,0.3c0.5-0.4,1-0.6,1.6-0.8
			C391.4,204.3,392,204.2,392.6,204.2z"/>
	</g>
	<g>
		<path class="st3" d="M391.7,203.8c-0.5,0.4-1,0.6-1.6,0.8s-1.1,0.3-1.7,0.3c0.5-0.4,1-0.6,1.6-0.8
			C390.6,203.9,391.1,203.7,391.7,203.8z"/>
	</g>
	<g>
		<path class="st3" d="M391,203.2c-0.5,0.4-1,0.6-1.6,0.8s-1.1,0.3-1.7,0.3c0.5-0.4,1-0.6,1.6-0.8
			C389.8,203.3,390.4,203.2,391,203.2z"/>
	</g>
	<g>
		<path class="st3" d="M393.6,205.1c-0.3,0.5-0.7,0.9-1.2,1.3c-0.4,0.4-0.9,0.7-1.5,1c0.3-0.5,0.7-0.9,1.2-1.3
			S393,205.3,393.6,205.1z"/>
	</g>
	<g>
		<path class="st3" d="M394.4,205.6c-0.3,0.5-0.7,0.9-1.2,1.3c-0.4,0.4-0.9,0.7-1.5,1c0.3-0.5,0.7-0.9,1.2-1.3
			C393.4,206.1,393.9,205.8,394.4,205.6z"/>
	</g>
	<g>
		<path class="st3" d="M394.4,206.3c-0.5,0.7-1,1.2-1.6,1.7s-1.2,1-1.9,1.4c0.5-0.7,1-1.2,1.6-1.7S393.7,206.7,394.4,206.3z"/>
	</g>
	<g>
		<path class="st3" d="M413,199c0.1,0.6,0.1,1.2,0,1.8s-0.2,1.2-0.5,1.7c-0.1-0.6-0.1-1.2,0-1.8C412.6,200.1,412.7,199.6,413,199z"
			/>
	</g>
	<g>
		<path class="st3" d="M412.1,199.5c0.1,0.6,0.1,1.2,0,1.8s-0.2,1.2-0.5,1.7c-0.1-0.6-0.1-1.2,0-1.8
			C411.8,200.6,411.9,200,412.1,199.5z"/>
	</g>
	<g>
		<path class="st3" d="M410.6,200c0.4,0.5,0.6,1.1,0.7,1.6c0.2,0.6,0.3,1.1,0.3,1.8c-0.4-0.5-0.6-1.1-0.7-1.6
			C410.7,201.2,410.6,200.6,410.6,200z"/>
	</g>
	<g>
		<path class="st3" d="M409.4,199.3c0.4,0.7,0.7,1.4,0.9,2.1c0.2,0.7,0.4,1.5,0.5,2.3c-0.4-0.7-0.7-1.4-0.9-2.1
			C409.6,200.9,409.4,200.1,409.4,199.3z"/>
	</g>
	<g>
		<path class="st3" d="M408.5,199.8c0.4,0.7,0.7,1.4,0.9,2.1c0.2,0.7,0.4,1.5,0.5,2.3c-0.4-0.7-0.7-1.4-0.9-2.1
			C408.8,201.4,408.6,200.6,408.5,199.8z"/>
	</g>
	<g>
		<path class="st3" d="M407.7,200.3c0.4,0.7,0.7,1.4,0.9,2.1c0.2,0.7,0.4,1.5,0.5,2.3c-0.4-0.7-0.7-1.4-0.9-2.1
			C407.9,201.8,407.7,201.1,407.7,200.3z"/>
	</g>
	<g>
		<path class="st3" d="M407.3,201.6c0.4,0.7,0.7,1.4,0.9,2.1c0.2,0.7,0.4,1.5,0.5,2.3c-0.4-0.7-0.7-1.4-0.9-2.1
			C407.6,203.1,407.4,202.4,407.3,201.6z"/>
	</g>
	<g>
		<path class="st3" d="M408.8,206.2c0.4,0.7,0.7,1.4,0.9,2.1c0.2,0.7,0.4,1.5,0.5,2.3c-0.4-0.7-0.7-1.4-0.9-2.1
			C409,207.7,408.8,207,408.8,206.2z"/>
	</g>
	<g>
		<path class="st3" d="M407.9,206.6c0.4,0.7,0.7,1.4,0.9,2.1c0.2,0.7,0.4,1.5,0.5,2.3c-0.4-0.7-0.7-1.4-0.9-2.1
			S408,207.4,407.9,206.6z"/>
	</g>
	<g>
		<path class="st3" d="M407.6,207.9c0.4,0.7,0.7,1.4,0.9,2.1c0.2,0.7,0.4,1.5,0.5,2.3c-0.4-0.7-0.7-1.4-0.9-2.1
			C407.8,209.5,407.6,208.7,407.6,207.9z"/>
	</g>
	<g>
		<path class="st3" d="M405.9,209.9c0.6,0.7,1.1,1.6,1.6,2.4c0.5,0.8,0.9,1.7,1.2,2.6c-0.6-0.7-1.1-1.6-1.6-2.4
			C406.6,211.7,406.2,210.9,405.9,209.9z"/>
	</g>
	<g>
		<path class="st3" d="M405.1,210.4c0.6,0.7,1.1,1.6,1.6,2.4c0.4,0.8,0.9,1.7,1.2,2.6c-0.6-0.7-1.1-1.6-1.6-2.4
			C405.8,212.2,405.4,211.3,405.1,210.4z"/>
	</g>
	<g>
		<path class="st3" d="M404.7,211.7c0.6,0.7,1.1,1.6,1.6,2.4c0.4,0.8,0.9,1.7,1.2,2.6c-0.6-0.7-1.1-1.6-1.6-2.4
			C405.4,213.5,405,212.6,404.7,211.7z"/>
	</g>
	<g>
		<path class="st3" d="M404.3,213c0.6,0.7,1.1,1.6,1.6,2.4c0.4,0.8,0.9,1.7,1.2,2.6c-0.6-0.7-1.1-1.6-1.6-2.4
			C405,214.8,404.6,213.9,404.3,213z"/>
	</g>
	<g>
		<path class="st3" d="M402.3,205.4c0.6,0.7,1.1,1.6,1.6,2.4c0.4,0.8,0.9,1.7,1.2,2.6c-0.6-0.7-1.1-1.6-1.6-2.4
			C403,207.2,402.6,206.3,402.3,205.4z"/>
	</g>
	<g>
		<path class="st3" d="M402,206.7c0.6,0.7,1.1,1.6,1.6,2.4c0.4,0.8,0.9,1.7,1.2,2.6c-0.6-0.7-1.1-1.6-1.6-2.4
			C402.7,208.4,402.2,207.6,402,206.7z"/>
	</g>
	<g>
		<path class="st3" d="M401.1,206c0.6,0.9,1.1,1.9,1.6,2.9s0.9,2.1,1.2,3.1c-0.6-0.9-1.1-1.9-1.6-2.9
			C401.8,208.2,401.4,207.1,401.1,206z"/>
	</g>
	<g>
		<path class="st3" d="M400.7,207.3c0.6,0.9,1.1,1.9,1.6,2.9s0.9,2.1,1.2,3.1c-0.6-0.9-1.1-1.9-1.6-2.9
			C401.4,209.5,401,208.4,400.7,207.3z"/>
	</g>
	<g>
		<path class="st3" d="M403.5,214.5c0.6,0.9,1.1,1.9,1.6,2.9s0.9,2.1,1.2,3.1c-0.6-0.9-1.1-1.9-1.6-2.9S403.8,215.6,403.5,214.5z"/>
	</g>
	<g>
		<path class="st3" d="M403.9,213.2c0.6,0.9,1.1,1.9,1.6,2.9s0.9,2.1,1.2,3.1c-0.6-0.9-1.1-1.9-1.6-2.9S404.2,214.3,403.9,213.2z"/>
	</g>
	<g>
		<path class="st3" d="M406.3,208.6c0.6,0.7,1.1,1.6,1.6,2.4c0.4,0.8,0.9,1.7,1.2,2.6c-0.6-0.7-1.1-1.6-1.6-2.4
			C407,210.4,406.6,209.6,406.3,208.6z"/>
	</g>
	<g>
		<path class="st3" d="M406.5,202c0.4,0.7,0.7,1.4,0.9,2.1c0.2,0.7,0.4,1.5,0.5,2.3c-0.4-0.7-0.7-1.4-0.9-2.1
			C406.7,203.6,406.5,202.8,406.5,202z"/>
	</g>
	<g>
		<path class="st3" d="M405.6,202.5c0.4,0.7,0.7,1.4,0.9,2.1c0.2,0.7,0.4,1.5,0.5,2.3c-0.4-0.7-0.7-1.4-0.9-2.1
			C405.9,204,405.7,203.3,405.6,202.5z"/>
	</g>
	<g>
		<path class="st3" d="M405.3,203.8c0.4,0.7,0.7,1.4,0.9,2.1c0.2,0.7,0.4,1.5,0.5,2.3c-0.4-0.7-0.7-1.4-0.9-2.1
			C405.5,205.3,405.3,204.6,405.3,203.8z"/>
	</g>
	<g>
		<path class="st3" d="M404,203.4c0.6,1,1,2,1.4,3s0.7,2.1,0.9,3.1c-0.6-1-1-2-1.4-3S404.2,204.5,404,203.4z"/>
	</g>
	<g>
		<path class="st3" d="M402.7,203c0.6,1.1,1.1,2.2,1.6,3.4s0.9,2.3,1.2,3.6c-0.6-1.1-1.1-2.2-1.6-3.4
			C403.4,205.4,403,204.2,402.7,203z"/>
	</g>
	<g>
		<path class="st3" d="M410,204.7c0.7,0,1.3,0.1,2,0.2c0.6,0.2,1.3,0.4,1.9,0.7c-0.7,0-1.3-0.1-2-0.2
			C411.2,205.2,410.6,205,410,204.7z"/>
	</g>
	<g>
		<path class="st3" d="M410.8,204.2c0.6,0,1.2,0.1,1.7,0.3c0.6,0.2,1.1,0.4,1.6,0.8c-0.6,0-1.2-0.1-1.7-0.3S411.3,204.6,410.8,204.2
			z"/>
	</g>
	<g>
		<path class="st3" d="M411.7,203.8c0.6,0,1.2,0.1,1.7,0.3c0.6,0.2,1.1,0.4,1.6,0.8c-0.6,0-1.2-0.1-1.7-0.3
			C412.7,204.3,412.2,204.1,411.7,203.8z"/>
	</g>
	<g>
		<path class="st3" d="M412.4,203.2c0.6,0,1.2,0.1,1.7,0.3c0.6,0.2,1.1,0.4,1.6,0.8c-0.6,0-1.2-0.1-1.7-0.3S412.9,203.5,412.4,203.2
			z"/>
	</g>
	<g>
		<path class="st3" d="M409.8,205.1c0.6,0.2,1,0.6,1.5,1c0.4,0.4,0.9,0.8,1.2,1.3c-0.6-0.2-1-0.6-1.5-1
			C410.5,206,410.1,205.6,409.8,205.1z"/>
	</g>
	<g>
		<path class="st3" d="M409,205.6c0.6,0.2,1,0.6,1.5,1c0.4,0.4,0.9,0.8,1.2,1.3c-0.6-0.2-1-0.6-1.5-1
			C409.7,206.5,409.3,206.1,409,205.6z"/>
	</g>
	<g>
		<path class="st3" d="M409,206.3c0.7,0.4,1.3,0.9,1.9,1.4s1.1,1.1,1.6,1.7c-0.7-0.4-1.3-0.8-1.9-1.4C410,207.5,409.4,207,409,206.3
			z"/>
	</g>
	<g>
		<path class="st3" d="M414.2,199c0.1,0.6,0.1,1.2,0,1.8s-0.2,1.2-0.5,1.7c-0.1-0.6-0.1-1.2,0-1.8
			C413.8,200.1,413.9,199.6,414.2,199z"/>
	</g>
	<g>
		<path class="st3" d="M413.3,199.5c0.1,0.6,0.1,1.2,0,1.8s-0.2,1.2-0.5,1.7c-0.1-0.6-0.1-1.2,0-1.8
			C413,200.6,413.1,200,413.3,199.5z"/>
	</g>
	<g>
		<path class="st3" d="M411.8,200c0.4,0.5,0.6,1.1,0.7,1.6c0.2,0.6,0.3,1.1,0.3,1.8c-0.4-0.5-0.6-1.1-0.7-1.6
			C411.9,201.2,411.8,200.6,411.8,200z"/>
	</g>
	<g>
		<path class="st3" d="M410.6,199.3c0.4,0.7,0.7,1.4,0.9,2.1c0.2,0.7,0.4,1.5,0.5,2.3c-0.4-0.7-0.7-1.4-0.9-2.1
			C410.8,200.9,410.6,200.1,410.6,199.3z"/>
	</g>
	<g>
		<path class="st3" d="M409.7,199.8c0.4,0.7,0.7,1.4,0.9,2.1c0.2,0.7,0.4,1.5,0.5,2.3c-0.4-0.7-0.7-1.4-0.9-2.1
			C410,201.4,409.8,200.6,409.7,199.8z"/>
	</g>
	<g>
		<path class="st3" d="M408.9,200.3c0.4,0.7,0.7,1.4,0.9,2.1c0.2,0.7,0.4,1.5,0.5,2.3c-0.4-0.7-0.7-1.4-0.9-2.1
			C409.1,201.8,408.9,201.1,408.9,200.3z"/>
	</g>
	<g>
		<path class="st3" d="M408.5,201.6c0.4,0.7,0.7,1.4,0.9,2.1c0.2,0.7,0.4,1.5,0.5,2.3c-0.4-0.7-0.7-1.4-0.9-2.1
			C408.7,203.1,408.6,202.4,408.5,201.6z"/>
	</g>
	<g>
		<path class="st3" d="M410,206.2c0.4,0.7,0.7,1.4,0.9,2.1c0.2,0.7,0.4,1.5,0.5,2.3c-0.4-0.7-0.7-1.4-0.9-2.1
			C410.2,207.7,410,207,410,206.2z"/>
	</g>
	<g>
		<path class="st3" d="M409.1,206.6c0.4,0.7,0.7,1.4,0.9,2.1c0.2,0.7,0.4,1.5,0.5,2.3c-0.4-0.7-0.7-1.4-0.9-2.1
			C409.4,208.2,409.2,207.4,409.1,206.6z"/>
	</g>
	<g>
		<path class="st3" d="M408.7,207.9c0.4,0.7,0.7,1.4,0.9,2.1c0.2,0.7,0.4,1.5,0.5,2.3c-0.4-0.7-0.7-1.4-0.9-2.1
			C409,209.5,408.8,208.7,408.7,207.9z"/>
	</g>
	<g>
		<path class="st3" d="M407.1,209.9c0.6,0.7,1.1,1.6,1.6,2.4c0.4,0.8,0.9,1.7,1.2,2.6c-0.6-0.7-1.1-1.6-1.6-2.4
			C407.8,211.7,407.4,210.9,407.1,209.9z"/>
	</g>
	<g>
		<path class="st3" d="M406.3,210.4c0.6,0.7,1.1,1.6,1.6,2.4c0.4,0.8,0.9,1.7,1.2,2.6c-0.6-0.7-1.1-1.6-1.6-2.4
			C407,212.2,406.6,211.3,406.3,210.4z"/>
	</g>
	<g>
		<path class="st3" d="M405.9,211.7c0.6,0.7,1.1,1.6,1.6,2.4c0.4,0.8,0.9,1.7,1.2,2.6c-0.6-0.7-1.1-1.6-1.6-2.4
			C406.6,213.5,406.2,212.6,405.9,211.7z"/>
	</g>
	<g>
		<path class="st3" d="M405.5,213c0.6,0.7,1.1,1.6,1.6,2.4c0.4,0.8,0.9,1.7,1.2,2.6c-0.6-0.7-1.1-1.6-1.6-2.4
			C406.2,214.8,405.8,213.9,405.5,213z"/>
	</g>
	<g>
		<path class="st3" d="M403.5,205.4c0.6,0.7,1.1,1.6,1.6,2.4c0.4,0.8,0.9,1.7,1.2,2.6c-0.6-0.7-1.1-1.6-1.6-2.4
			C404.2,207.2,403.8,206.3,403.5,205.4z"/>
	</g>
	<g>
		<path class="st3" d="M403.1,206.7c0.6,0.7,1.1,1.6,1.6,2.4c0.4,0.8,0.9,1.7,1.2,2.6c-0.6-0.7-1.1-1.6-1.6-2.4
			C403.9,208.4,403.4,207.6,403.1,206.7z"/>
	</g>
	<g>
		<path class="st3" d="M402.3,206c0.6,0.9,1.1,1.9,1.6,2.9s0.9,2.1,1.2,3.1c-0.6-0.9-1.1-1.9-1.6-2.9
			C403,208.2,402.6,207.1,402.3,206z"/>
	</g>
	<g>
		<path class="st3" d="M401.9,207.3c0.6,0.9,1.1,1.9,1.6,2.9s0.9,2.1,1.2,3.1c-0.6-0.9-1.1-1.9-1.6-2.9
			C402.6,209.5,402.2,208.4,401.9,207.3z"/>
	</g>
	<g>
		<path class="st3" d="M404.7,214.5c0.6,0.9,1.1,1.9,1.6,2.9s0.9,2.1,1.2,3.1c-0.6-0.9-1.1-1.9-1.6-2.9
			C405.4,216.6,405,215.6,404.7,214.5z"/>
	</g>
	<g>
		<path class="st3" d="M405.1,213.2c0.6,0.9,1.1,1.9,1.6,2.9s0.9,2.1,1.2,3.1c-0.6-0.9-1.1-1.9-1.6-2.9
			C405.8,215.3,405.4,214.3,405.1,213.2z"/>
	</g>
	<g>
		<path class="st3" d="M407.5,208.6c0.6,0.7,1.1,1.6,1.6,2.4c0.4,0.8,0.9,1.7,1.2,2.6c-0.6-0.7-1.1-1.6-1.6-2.4
			C408.2,210.4,407.8,209.6,407.5,208.6z"/>
	</g>
	<g>
		<path class="st3" d="M407.7,202c0.4,0.7,0.7,1.4,0.9,2.1c0.2,0.7,0.4,1.5,0.5,2.3c-0.4-0.7-0.7-1.4-0.9-2.1
			C407.9,203.6,407.7,202.8,407.7,202z"/>
	</g>
	<g>
		<path class="st3" d="M406.8,202.5c0.4,0.7,0.7,1.4,0.9,2.1c0.2,0.7,0.4,1.5,0.5,2.3c-0.4-0.7-0.7-1.4-0.9-2.1
			C407.1,204,406.9,203.3,406.8,202.5z"/>
	</g>
	<g>
		<path class="st3" d="M406.5,203.8c0.4,0.7,0.7,1.4,0.9,2.1c0.2,0.7,0.4,1.5,0.5,2.3c-0.4-0.7-0.7-1.4-0.9-2.1
			C406.7,205.3,406.5,204.6,406.5,203.8z"/>
	</g>
	<g>
		<path class="st3" d="M405.2,203.4c0.6,1,1,2,1.4,3s0.7,2.1,0.9,3.1c-0.6-1-1-2-1.4-3S405.4,204.5,405.2,203.4z"/>
	</g>
	<g>
		<path class="st3" d="M403.9,203c0.6,1.1,1.1,2.2,1.6,3.4s0.9,2.3,1.2,3.6c-0.6-1.1-1.1-2.2-1.6-3.4
			C404.6,205.4,404.1,204.2,403.9,203z"/>
	</g>
	<g>
		<path class="st3" d="M411.2,204.7c0.7,0,1.3,0.1,2,0.2c0.6,0.2,1.3,0.4,1.9,0.7c-0.7,0-1.3-0.1-2-0.2
			C412.4,205.2,411.8,205,411.2,204.7z"/>
	</g>
	<g>
		<path class="st3" d="M412,204.2c0.6,0,1.2,0.1,1.7,0.3c0.6,0.2,1.1,0.4,1.6,0.8c-0.6,0-1.2-0.1-1.7-0.3S412.5,204.6,412,204.2z"/>
	</g>
	<g>
		<path class="st3" d="M412.9,203.8c0.6,0,1.2,0.1,1.7,0.3c0.6,0.2,1.1,0.4,1.6,0.8c-0.6,0-1.2-0.1-1.7-0.3
			C413.9,204.3,413.4,204.1,412.9,203.8z"/>
	</g>
	<g>
		<path class="st3" d="M413.6,203.2c0.6,0,1.2,0.1,1.7,0.3c0.6,0.2,1.1,0.4,1.6,0.8c-0.6,0-1.2-0.1-1.7-0.3S414.1,203.5,413.6,203.2
			z"/>
	</g>
	<g>
		<path class="st3" d="M411,205.1c0.6,0.2,1,0.6,1.5,1c0.4,0.4,0.9,0.8,1.2,1.3c-0.6-0.2-1-0.6-1.5-1
			C411.7,206,411.3,205.6,411,205.1z"/>
	</g>
	<g>
		<path class="st3" d="M410.2,205.6c0.6,0.2,1,0.6,1.5,1c0.4,0.4,0.9,0.8,1.2,1.3c-0.6-0.2-1-0.6-1.5-1
			C410.9,206.5,410.5,206.1,410.2,205.6z"/>
	</g>
	<g>
		<path class="st3" d="M410.2,206.3c0.7,0.4,1.3,0.9,1.9,1.4s1.1,1.1,1.6,1.7c-0.7-0.4-1.3-0.8-1.9-1.4
			C411.2,207.5,410.6,207,410.2,206.3z"/>
	</g>
	<g>
		<path class="st3" d="M421.7,210.8c-0.2,0.5-0.5,0.9-0.8,1.3c-0.4,0.4-0.7,0.7-1.2,1c0.2-0.5,0.5-0.9,0.8-1.3
			C420.9,211.4,421.3,211,421.7,210.8z"/>
	</g>
	<g>
		<path class="st3" d="M420.9,210.7c-0.2,0.5-0.5,0.9-0.8,1.3c-0.4,0.4-0.7,0.7-1.2,1c0.2-0.5,0.5-0.9,0.8-1.3
			C420,211.3,420.4,210.9,420.9,210.7z"/>
	</g>
	<g>
		<path class="st3" d="M419.5,210.3c0,0.6-0.1,1.1-0.2,1.6c-0.2,0.5-0.4,1-0.7,1.4c0-0.6,0.1-1.1,0.2-1.6
			C419,211.2,419.2,210.7,419.5,210.3z"/>
	</g>
	<g>
		<path class="st3" d="M418.9,209.2c0,0.7-0.2,1.4-0.4,2.1c-0.2,0.7-0.5,1.3-0.8,1.9c0-0.7,0.2-1.4,0.4-2.1
			C418.3,210.4,418.5,209.8,418.9,209.2z"/>
	</g>
	<g>
		<path class="st3" d="M418.1,209.1c0,0.7-0.2,1.4-0.4,2.1c-0.2,0.7-0.5,1.3-0.8,1.9c0-0.7,0.2-1.4,0.4-2.1
			C417.4,210.4,417.7,209.7,418.1,209.1z"/>
	</g>
	<g>
		<path class="st3" d="M417.2,209c0,0.7-0.2,1.4-0.4,2.1c-0.2,0.7-0.5,1.3-0.8,1.9c0-0.7,0.2-1.4,0.4-2.1
			C416.6,210.3,416.8,209.6,417.2,209z"/>
	</g>
	<g>
		<path class="st3" d="M416.3,209.8c0,0.7-0.2,1.4-0.4,2.1c-0.2,0.7-0.5,1.3-0.8,1.9c0-0.7,0.2-1.4,0.4-2.1
			C415.7,211,415.9,210.4,416.3,209.8z"/>
	</g>
	<g>
		<path class="st3" d="M415,213.9c0,0.7-0.2,1.4-0.4,2.1c-0.2,0.7-0.5,1.3-0.8,1.9c0-0.7,0.2-1.4,0.4-2.1
			C414.4,215.2,414.6,214.5,415,213.9z"/>
	</g>
	<g>
		<path class="st3" d="M414.2,213.8c0,0.7-0.2,1.4-0.4,2.1c-0.2,0.7-0.5,1.3-0.8,1.9c0-0.7,0.2-1.4,0.4-2.1
			C413.6,215.1,413.8,214.4,414.2,213.8z"/>
	</g>
	<g>
		<path class="st3" d="M413.3,214.6c0,0.7-0.2,1.4-0.4,2.1c-0.2,0.7-0.5,1.3-0.8,1.9c0-0.7,0.2-1.4,0.4-2.1
			C412.6,215.8,412.9,215.2,413.3,214.6z"/>
	</g>
	<g>
		<path class="st3" d="M411.1,215.2c0.1,0.9,0.1,1.7,0,2.6c-0.1,0.8-0.2,1.7-0.5,2.5c-0.1-0.9-0.1-1.7,0-2.6
			C410.7,216.9,410.8,216,411.1,215.2z"/>
	</g>
	<g>
		<path class="st3" d="M410.2,215.1c0.1,0.9,0.1,1.7,0,2.6c-0.1,0.8-0.2,1.7-0.5,2.5c-0.1-0.9-0.1-1.7,0-2.6
			C409.8,216.8,409.9,216,410.2,215.1z"/>
	</g>
	<g>
		<path class="st3" d="M409.3,215.9c0.1,0.9,0.1,1.7,0,2.6c-0.1,0.8-0.2,1.7-0.5,2.5c-0.1-0.9-0.1-1.7,0-2.6
			C408.9,217.6,409,216.7,409.3,215.9z"/>
	</g>
	<g>
		<path class="st3" d="M408.4,216.7c0.1,0.9,0.1,1.7,0,2.6c-0.1,0.8-0.2,1.7-0.5,2.5c-0.1-0.9-0.1-1.7,0-2.6
			C408,218.3,408.1,217.5,408.4,216.7z"/>
	</g>
	<g>
		<path class="st3" d="M410.7,210.1c0.1,0.9,0.1,1.7,0,2.6c-0.1,0.8-0.2,1.7-0.5,2.5c-0.1-0.9-0.1-1.7,0-2.6
			C410.3,211.7,410.4,210.9,410.7,210.1z"/>
	</g>
	<g>
		<path class="st3" d="M409.8,210.8c0.1,0.9,0.1,1.7,0,2.6c-0.1,0.8-0.2,1.7-0.5,2.5c-0.1-0.9-0.1-1.7,0-2.6
			C409.4,212.5,409.5,211.7,409.8,210.8z"/>
	</g>
	<g>
		<path class="st3" d="M409.5,209.9c0,1-0.1,2-0.3,3c-0.2,1-0.4,1.9-0.8,2.9c0-1,0.1-2,0.3-3C408.9,211.9,409.1,210.9,409.5,209.9z"
			/>
	</g>
	<g>
		<path class="st3" d="M408.5,210.7c0,1-0.1,2-0.3,3c-0.2,1-0.4,1.9-0.8,2.9c0-1,0.1-2,0.3-3C408,212.6,408.2,211.7,408.5,210.7z"/>
	</g>
	<g>
		<path class="st3" d="M407,217.4c0,1-0.1,2-0.3,3c-0.2,1-0.4,1.9-0.8,2.9c0-1,0.1-2,0.3-3C406.4,219.3,406.6,218.3,407,217.4z"/>
	</g>
	<g>
		<path class="st3" d="M407.9,216.6c0,1-0.1,2-0.3,3c-0.2,1-0.4,1.9-0.8,2.9c0-1,0.1-2,0.3-3C407.4,218.5,407.6,217.6,407.9,216.6z"
			/>
	</g>
	<g>
		<path class="st3" d="M412,214.5c0.1,0.9,0.1,1.7,0,2.6c-0.1,0.8-0.2,1.7-0.5,2.5c-0.1-0.9-0.1-1.7,0-2.6
			C411.6,216.1,411.7,215.3,412,214.5z"/>
	</g>
	<g>
		<path class="st3" d="M415.5,209.7c0,0.7-0.2,1.4-0.4,2.1c-0.2,0.7-0.5,1.3-0.8,1.9c0-0.7,0.2-1.4,0.4-2.1
			C414.8,210.9,415.1,210.3,415.5,209.7z"/>
	</g>
	<g>
		<path class="st3" d="M414.6,209.6c0,0.7-0.2,1.4-0.4,2.1c-0.2,0.7-0.5,1.3-0.8,1.9c0-0.7,0.2-1.4,0.4-2.1
			C414,210.9,414.2,210.2,414.6,209.6z"/>
	</g>
	<g>
		<path class="st3" d="M413.7,210.4c0,0.7-0.2,1.4-0.4,2.1c-0.2,0.7-0.5,1.3-0.8,1.9c0-0.7,0.2-1.4,0.4-2.1
			C413,211.6,413.3,211,413.7,210.4z"/>
	</g>
	<g>
		<path class="st3" d="M412.9,209.4c0,1-0.2,1.9-0.4,2.9c-0.2,0.9-0.5,1.9-0.9,2.8c0-1,0.2-1.9,0.4-2.9
			C412.2,211.3,412.5,210.3,412.9,209.4z"/>
	</g>
	<g>
		<path class="st3" d="M412.2,208.5c-0.1,1.1-0.3,2.2-0.5,3.3c-0.3,1.1-0.5,2.2-1,3.2c0.1-1.1,0.3-2.2,0.5-3.3
			C411.4,210.6,411.7,209.6,412.2,208.5z"/>
	</g>
	<g>
		<path class="st3" d="M416.7,213.4c0.5,0.3,1,0.7,1.4,1.1c0.4,0.4,0.8,0.9,1,1.5c-0.5-0.3-1-0.7-1.4-1.1
			C417.3,214.4,416.9,214,416.7,213.4z"/>
	</g>
	<g>
		<path class="st3" d="M417.5,213.5c0.5,0.3,0.8,0.7,1.2,1.1c0.3,0.4,0.6,0.8,0.8,1.4c-0.5-0.3-0.8-0.7-1.2-1.1
			C418,214.5,417.7,214,417.5,213.5z"/>
	</g>
	<g>
		<path class="st3" d="M418.4,213.6c0.5,0.3,0.8,0.7,1.2,1.1c0.3,0.4,0.6,0.8,0.8,1.4c-0.5-0.3-0.8-0.7-1.2-1.1
			C418.8,214.6,418.6,214.1,418.4,213.6z"/>
	</g>
	<g>
		<path class="st3" d="M419.2,213.5c0.5,0.3,0.8,0.7,1.2,1.1c0.3,0.4,0.6,0.8,0.8,1.4c-0.5-0.3-0.8-0.7-1.2-1.1
			C419.7,214.5,419.4,214.1,419.2,213.5z"/>
	</g>
	<g>
		<path class="st3" d="M416.3,213.6c0.3,0.5,0.5,0.9,0.6,1.4s0.2,1,0.2,1.6c-0.3-0.5-0.5-0.9-0.6-1.4
			C416.4,214.7,416.3,214.2,416.3,213.6z"/>
	</g>
	<g>
		<path class="st3" d="M415.5,213.6c0.3,0.5,0.5,0.9,0.6,1.4s0.2,1,0.2,1.6c-0.3-0.5-0.5-0.9-0.6-1.4
			C415.5,214.6,415.4,214.1,415.5,213.6z"/>
	</g>
	<g>
		<path class="st3" d="M415.1,214.1c0.4,0.6,0.6,1.3,0.7,2c0.2,0.7,0.3,1.4,0.3,2.1c-0.4-0.6-0.6-1.3-0.7-2
			C415.2,215.5,415.1,214.8,415.1,214.1z"/>
	</g>
</g>
<g id="Calque_1_1_">
	<rect x="860.5" y="130.5" class="st4" width="63" height="117"/>
	<rect x="936.5" y="149.5" class="st4" width="61.9" height="98"/>
	<g>
		<rect x="659" y="203.5" class="st4" width="43.7" height="44"/>
		<polygon class="st4" points="742,185.2 727.6,171 713.4,185.5 699.3,200 701.9,200 701.9,247.5 753.4,247.5 753.4,199.4 
			756.5,199.4 		"/>
	</g>
	<polygon class="st4" points="828.2,199.8 814,185.4 799.7,171 785.4,185.3 771,199.6 773.8,199.6 773.8,247.5 825.3,247.5 
		825.3,199.8 	"/>
	<polygon class="st4" points="1083.7,197.5 1068.1,181.8 1052.5,166 1036.8,181.7 1021.1,197.4 1025.9,197.4 1025.9,247.5 
		1079.6,247.5 1079.6,197.5 	"/>
	<polygon class="st4" points="1206.7,210.5 1206.7,207.6 1210,207.6 1197.3,194.8 1184.6,182 1171.8,194.7 1159.1,207.5 1163,207.5 
		1163,247.5 1206,247.5 1206.7,247.5 1232.5,247.5 1232.5,210.5 	"/>
	<polygon class="st4" points="1576,204.6 1563.3,191.8 1550.6,179 1537.8,191.7 1525.1,204.5 1529,204.5 1529,247.5 1572.7,247.5 
		1572.7,204.6 	"/>
	<polygon class="st4" points="1631,210.7 1619.8,199.3 1608.5,188 1597.2,199.3 1585.9,210.6 1589.4,210.6 1589.4,247.5 
		1628.1,247.5 1628.1,210.7 	"/>
	<polygon class="st4" points="1690,205.6 1677.3,192.8 1664.6,180 1651.8,192.7 1639.1,205.5 1643,205.5 1643,247.5 1686.7,247.5 
		1686.7,205.6 	"/>
	<polygon class="st4" points="1744,210 1732.6,198.5 1721.2,187 1709.7,198.5 1698.2,209.9 1701.8,209.9 1701.8,247.5 1741,247.5 
		1741,210 	"/>
	<line class="st13" x1="1117.5" y1="231" x2="1117.5" y2="247"/>
	<line class="st13" x1="1121.3" y1="231" x2="1121.3" y2="247"/>
	<line class="st14" x1="1258" y1="231" x2="1258" y2="247"/>
	<line class="st13" x1="1125.2" y1="231" x2="1125.2" y2="247"/>
	<line class="st13" x1="1129" y1="231" x2="1129" y2="247"/>
	<line class="st15" x1="1114" y1="235" x2="1133" y2="235"/>
	<path class="st3" d="M1267.8,213.2l0.7,0.1c4.2,0.8,5.6,6.1,2.4,8.9l-0.6,0.5c-1.3,1.1-1.9,2.8-1.7,4.5l0.1,0.7
		c0.5,4.2-4.1,7.2-7.7,5l-0.6-0.4c-1.5-0.9-3.2-1-4.8-0.3l-0.7,0.3c-3.9,1.8-8.1-1.7-7.2-5.8l0.2-0.7c0.4-1.6-0.1-3.4-1.2-4.6
		l-0.5-0.6c-2.9-3.1-0.9-8.2,3.3-8.6l0.7-0.1c1.7-0.2,3.2-1.1,4-2.6l0.4-0.7c2.1-3.7,7.5-3.4,9.2,0.5l0.3,0.7
		C1264.8,211.7,1266.2,212.9,1267.8,213.2z"/>
	<line class="st14" x1="1099.7" y1="232.5" x2="1099.7" y2="247"/>
	<path class="st3" d="M1108.6,216.5l0.7,0.1c3.8,0.8,5,5.5,2.1,8l-0.5,0.4c-1.2,1-1.7,2.5-1.6,4l0.1,0.7c0.4,3.8-3.7,6.5-7,4.5
		l-0.6-0.3c-1.3-0.8-2.9-0.9-4.3-0.2l-0.6,0.3c-3.5,1.6-7.3-1.5-6.5-5.2l0.2-0.7c0.3-1.5-0.1-3.1-1.1-4.2l-0.5-0.5
		c-2.6-2.8-0.8-7.4,3-7.8l0.7-0.1c1.5-0.1,2.9-1,3.6-2.4l0.3-0.6c1.9-3.4,6.8-3.1,8.3,0.4l0.3,0.6
		C1105.8,215.2,1107.1,216.2,1108.6,216.5z"/>
	<line class="st14" x1="1459" y1="231" x2="1459" y2="247"/>
	<line class="st14" x1="1477.3" y1="234.6" x2="1477.3" y2="247"/>
	<line class="st14" x1="1490.7" y1="232.8" x2="1490.7" y2="247"/>
	<path class="st3" d="M1500.1,217.2l-0.7-0.1c-1.5-0.3-2.7-1.3-3.3-2.7l-0.3-0.6c-1.5-3.5-6.3-3.7-8.2-0.4l-0.3,0.6
		c-0.7,1.3-2.1,2.2-3.6,2.3l-0.7,0.1c-0.8,0.1-1.5,0.3-2.1,0.7c-1.7-2-5.1-1.8-6.5,0.7l-0.3,0.5c-0.2,0.3-0.4,0.6-0.7,0.9
		c0.3-2.5-1.2-5.2-4.1-5.7l-0.7-0.1c-1.7-0.3-3-1.5-3.7-3l-0.3-0.7c-1.7-3.9-7.1-4.2-9.2-0.5l-0.4,0.7c-0.8,1.5-2.3,2.4-4,2.6
		l-0.7,0.1c-4.2,0.4-6.2,5.5-3.3,8.6l0.5,0.6c1.1,1.2,1.6,3,1.2,4.6l-0.2,0.7c-0.9,4.2,3.3,7.6,7.2,5.8l0.7-0.3
		c1.5-0.7,3.3-0.6,4.8,0.3l0.6,0.4c3,1.8,6.5,0.2,7.5-2.8c0,0.3,0,0.5-0.1,0.8l-0.1,0.6c-0.7,3.2,2.6,5.9,5.6,4.5l0.5-0.2
		c1.2-0.5,2.6-0.5,3.7,0.2l0.5,0.3c2.1,1.3,4.6,0.3,5.6-1.6c0.9,0.2,1.8,0.1,2.8-0.3l0.6-0.3c1.4-0.6,3-0.5,4.2,0.2l0.6,0.3
		c3.3,1.9,7.3-0.7,6.9-4.5l-0.1-0.7c-0.2-1.5,0.4-3,1.5-4l0.5-0.4C1505.1,222.6,1503.8,217.9,1500.1,217.2z"/>
	<line class="st14" x1="619.3" y1="228.1" x2="619.3" y2="247"/>
	<path class="st3" d="M631.4,207.7l0.9,0.2c4.9,1.2,6.2,7.5,2.3,10.7l-0.7,0.6c-1.6,1.2-2.4,3.2-2.3,5.2l0.1,0.9
		c0.3,5-5.2,8.2-9.4,5.5l-0.7-0.5c-1.7-1.1-3.8-1.3-5.6-0.6l-0.8,0.3c-4.7,1.9-9.5-2.4-8.1-7.3l0.2-0.9c0.5-1.9,0.1-4-1.2-5.5
		l-0.6-0.7c-3.2-3.9-0.6-9.8,4.4-10h0.9c2-0.1,3.8-1.1,4.9-2.8l0.5-0.8c2.7-4.3,9.1-3.6,10.8,1.1l0.3,0.8
		C627.9,205.8,629.5,207.2,631.4,207.7z"/>
	<line class="st14" x1="1793.6" y1="231" x2="1793.6" y2="247"/>
	<line class="st14" x1="1775.3" y1="234.6" x2="1775.3" y2="247"/>
	<line class="st14" x1="1761.9" y1="232.8" x2="1761.9" y2="247"/>
	<path class="st3" d="M1802.1,212.3l-0.7-0.1c-1.7-0.2-3.2-1.1-4-2.6l-0.4-0.7c-2.1-3.7-7.5-3.4-9.2,0.5l-0.3,0.7
		c-0.7,1.6-2.1,2.7-3.7,3l-0.7,0.1c-2.9,0.6-4.4,3.2-4.1,5.7c-0.3-0.3-0.5-0.6-0.7-0.9l-0.3-0.5c-1.4-2.5-4.8-2.7-6.5-0.7
		c-0.6-0.4-1.3-0.6-2.1-0.7l-0.7-0.1c-1.5-0.1-2.8-1-3.6-2.3l-0.3-0.6c-1.9-3.3-6.7-3-8.2,0.4l-0.3,0.6c-0.6,1.4-1.8,2.4-3.3,2.7
		l-0.7,0.1c-3.7,0.7-5,5.4-2.1,7.9l0.5,0.4c1.1,1,1.7,2.5,1.5,4l-0.1,0.7c-0.4,3.8,3.6,6.4,6.9,4.5l0.6-0.3c1.3-0.8,2.9-0.9,4.2-0.2
		l0.6,0.3c0.9,0.4,1.9,0.5,2.8,0.3c1,1.9,3.5,2.9,5.6,1.6l0.5-0.3c1.1-0.7,2.5-0.7,3.7-0.2l0.5,0.2c3,1.4,6.3-1.3,5.6-4.5l-0.1-0.6
		c-0.1-0.3-0.1-0.5-0.1-0.8c1,2.9,4.5,4.5,7.5,2.8l0.6-0.4c1.5-0.9,3.2-1,4.8-0.3l0.7,0.3c3.9,1.8,8.1-1.7,7.2-5.8l-0.2-0.7
		c-0.4-1.6,0.1-3.4,1.2-4.6l0.5-0.6C1808.3,217.8,1806.4,212.7,1802.1,212.3z"/>
</g>
<g id="Calque_4">
	<polyline class="st2" points="1721.5,164.5 1664.5,141.5 1608.5,163.5 1550.5,144.5 1184.5,158.5 1052.5,130.5 967.5,98.5 
		891.5,87.5 799.5,149.5 699.5,136.5 329.5,170.5 	"/>
	<path class="st16" d="M1,0"/>
</g>
<g id="Calque_3">
	<circle class="st1" cx="699.5" cy="136.5" r="6"/>
	<circle class="st1" cx="329.5" cy="170.5" r="6"/>
	<circle class="st1" cx="799.5" cy="149.5" r="6"/>
	<circle class="st1" cx="891.5" cy="87.5" r="6"/>
	<circle class="st1" cx="967.5" cy="98.5" r="6"/>
	<circle class="st1" cx="1052.5" cy="130.5" r="6"/>
	<circle class="st1" cx="1184.5" cy="158.5" r="6"/>
	<circle class="st1" cx="1550.5" cy="144.5" r="6"/>
	<circle class="st1" cx="1608.5" cy="163.5" r="6"/>
	<circle class="st1" cx="1664.5" cy="141.5" r="6"/>
	<circle class="st1" cx="1721.5" cy="164.5" r="6"/>
</g>
</svg>
