<?xml version="1.0" encoding="utf-8"?>
<!-- Generator: Adobe Illustrator 22.0.1, SVG Export Plug-In . SVG Version: 6.00 Build 0)  -->
<!DOCTYPE svg PUBLIC "-//W3C//DTD SVG 1.1//EN" "http://www.w3.org/Graphics/SVG/1.1/DTD/svg11.dtd" [
	<!ENTITY st0 "fill:none;stroke:#FFFFFF;stroke-width:2;stroke-linecap:round;stroke-linejoin:round;">
]>
<svg version="1.1" id="Calque_2" xmlns="http://www.w3.org/2000/svg" xmlns:xlink="http://www.w3.org/1999/xlink" x="0px" y="0px"
	 viewBox="0 0 400 400" style="enable-background:new 0 0 400 400;" xml:space="preserve">
<g>
	<g>
		<path style="&st0;" d="M199.774,74.626c0.011,0.019,0.744-0.453,0.754-0.435c0.126,0.219-5.968,8.846-5.807,9.126
			c0.136,0.236,8.191-4.966,8.293-4.788c0.204,0.354-13.557,13.113-13.346,13.479c0.212,0.367,15.626-9.5,15.833-9.141
			c0.367,0.636-21.276,17.156-20.885,17.832c0.317,0.548,22.989-14.157,23.372-13.494c0.446,0.773-28.904,21.355-28.425,22.185
			c0.444,0.77,30.512-18.539,30.912-17.847c0.497,0.861-36.55,25.524-35.964,26.538c0.468,0.81,37.979-23.018,38.451-22.2
			c0.606,1.049-44.076,29.9-43.504,30.891c0.729,1.263,45.312-27.729,45.991-26.553c0.661,1.145-51.683,34.135-51.043,35.243
			c0.896,1.552,52.724-32.303,53.53-30.906c0.863,1.494-59.49,38.026-58.583,39.596c1.008,1.746,60.259-36.664,61.07-35.259
			c1.134,1.965-67.091,42.271-66.122,43.949c1.157,2.004,67.713-41.164,68.609-39.612c1.231,2.132-74.834,46.273-73.662,48.302
			c1.234,2.137,74.908-46.115,76.149-43.965c1.086,1.881-82.335,50.692-81.201,52.655c1.275,2.209,82.445-50.471,83.688-48.317
			c1.339,2.32-90.207,54.468-88.741,57.008c1.477,2.558,89.983-54.827,91.228-52.67c1.628,2.82-97.494,59.26-96.28,61.361
			c1.159,2.007,97.167-59.795,98.767-57.023c1.261,2.185-105.566,62.69-103.82,65.714c1.771,3.067,104.604-64.326,106.307-61.376
			c1.707,2.957-113.148,66.968-111.359,70.067c1.82,3.152,112.01-68.91,113.846-65.729c1.942,3.364-120.909,70.938-118.899,74.42
			c2.001,3.466,119.673-73.048,121.386-70.082c2.221,3.848-128.065,75.956-126.438,78.773
			c1.799,3.116,127.054-77.677,128.925-74.435c2.313,4.006-135.742,80.069-133.978,83.126
			c1.874,3.246,134.607-82.005,136.465-78.788c2.378,4.119-143.653,83.779-141.517,87.479c1.98,3.43,141.743-87.057,144.004-83.141
			c2.076,3.596-150.909,88.623-149.057,91.832c2.376,4.115,149.001-91.898,151.544-87.494
			c2.529,4.381-159.061,91.916-156.596,96.184c1.889,3.272,156.848-95.718,159.083-91.847
			c2.627,4.551-153.939,90.157-151.993,93.527c2.611,4.523,152.547-92.537,154.48-89.189c1.813,3.141-146.813,85.268-144.532,89.219
			c2.002,3.468,144.837-88.661,147.019-84.881c2.417,4.186-138.697,82.095-137.071,84.912
			c1.892,3.277,137.876-83.487,139.558-80.574c1.943,3.366-131.432,77.448-129.61,80.604c1.787,3.095,130.115-79.698,132.097-76.266
			c1.925,3.335-124.11,72.9-122.149,76.296c1.632,2.826,122.538-75.593,124.636-71.959c1.958,3.392-116.106,69.532-114.688,71.989
			c1.924,3.332,115.47-70.603,117.175-67.651c1.5,2.598-108.922,64.745-107.227,67.681c1.548,2.68,108.174-66.01,109.714-63.343
			c1.635,2.831-101.094,61.072-99.766,63.373c1.699,2.942,100.6-61.898,102.253-59.036c1.488,2.577-93.814,56.452-92.305,59.066
			c1.424,2.467,93.291-57.328,94.792-54.728c1.342,2.325-85.942,52.855-84.844,54.758c1.423,2.465,86.029-52.674,87.331-50.42
			c1.017,1.761-78.529,48.465-77.383,50.45c1.347,2.332,78.642-48.239,79.87-46.113c1.202,2.082-71.013,44.253-69.922,46.143
			c1.241,2.15,71.541-43.308,72.408-41.805c0.965,1.672-63.327,40.334-62.461,41.835c1.09,1.888,63.956-39.214,64.947-37.497
			c0.708,1.226-55.771,36.19-54.999,37.527c0.945,1.637,56.616-34.697,57.486-33.19c0.793,1.373-48.361,31.795-47.538,33.22
			c0.76,1.316,49.433-29.909,50.025-28.882c0.67,1.161-40.587,28.029-40.077,28.912c0.637,1.102,42.05-25.466,42.564-24.574
			c0.522,0.904-33.147,23.686-32.616,24.605c0.416,0.721,34.533-21.255,35.103-20.267c0.458,0.793-25.597,19.533-25.155,20.297
			c0.388,0.671,27.261-16.62,27.642-15.959c0.303,0.524-17.95,15.546-17.694,15.989c0.338,0.585,19.916-12.11,20.181-11.652
			c0.162,0.281-10.42,11.357-10.233,11.682c0.153,0.265,12.57-7.605,12.72-7.344c0.09,0.156-2.884,7.18-2.772,7.374
			c0.067,0.116,5.193-3.15,5.259-3.036"/>
	</g>
</g>
</svg>
