<?xml version="1.0" encoding="utf-8"?>
<!-- Generator: Adobe Illustrator 22.0.1, SVG Export Plug-In . SVG Version: 6.00 Build 0)  -->
<svg version="1.1" id="Calque_1" xmlns="http://www.w3.org/2000/svg" xmlns:xlink="http://www.w3.org/1999/xlink" x="0px" y="0px"
	 viewBox="0 0 122 122" style="enable-background:new 0 0 122 122;" xml:space="preserve">
<style type="text/css">
	.st0{fill:#0D769B;}
	.st1{opacity:8.000000e-02;}
	.st2{fill:#FFFFFF;}
	.st3{fill:#F9F0E5;}
	.st4{fill:#EADDD0;}
	.st5{opacity:0.48;fill:#5B5A59;enable-background:new    ;}
	.st6{fill:#EFEEED;stroke:#4F4F4E;stroke-width:0.25;stroke-miterlimit:10;}
	.st7{fill:none;stroke:#4F4F4E;stroke-width:0.25;stroke-miterlimit:10;}
	.st8{fill:#4C4B4B;}
	.st9{fill:#04142D;}
</style>
<rect class="st0" width="122" height="122"/>
<g class="st1">
	<path class="st2" d="M0.6,4.2l0.5,1.3c0.1,0.2,0.2,0.4,0.2,0.6l0,0c0.1-0.2,0.1-0.4,0.2-0.6L2,4.2h0.5l-1,2.4H1.1l-1-2.4H0.6z"/>
	<path class="st2" d="M4.5,6.6V6.3l0,0C4.3,6.5,4,6.6,3.6,6.6c-0.5,0-0.8-0.3-0.8-0.7C2.8,5.3,3.4,5,4.4,5l0,0
		c0-0.2-0.1-0.6-0.6-0.6c-0.2,0-0.5,0.1-0.7,0.2L3,4.3c0.2-0.1,0.5-0.2,0.9-0.2c0.8,0,1,0.5,1,1V6c0,0.2,0,0.4,0,0.6H4.5z M4.4,5.4
		c-0.5,0-1.1,0.1-1.1,0.5c0,0.3,0.2,0.4,0.5,0.4s0.6-0.2,0.6-0.4V5.8V5.4z"/>
	<path class="st2" d="M5.7,4.9c0-0.3,0-0.5,0-0.7h0.4v0.5l0,0c0.1-0.3,0.4-0.5,0.7-0.5c0.1,0,0.1,0,0.1,0v0.4c0,0-0.1,0-0.2,0
		c-0.3,0-0.6,0.2-0.6,0.6c0,0.1,0,0.1,0,0.2v1.3H5.7V4.9z"/>
	<path class="st2" d="M10.9,3.1V6c0,0.2,0,0.5,0,0.6h-0.4V6.2l0,0C10.3,6.4,10,6.6,9.6,6.6C9,6.6,8.5,6.1,8.5,5.4
		c0-0.8,0.5-1.3,1.2-1.3c0.4,0,0.7,0.2,0.8,0.4l0,0V3.1H10.9z M10.4,5.2c0-0.1,0-0.1,0-0.2c-0.1-0.3-0.3-0.5-0.7-0.5
		c-0.5,0-0.8,0.4-0.8,0.9s0.3,0.9,0.8,0.9c0.3,0,0.6-0.2,0.7-0.5c0-0.1,0-0.1,0-0.2V5.2z"/>
	<path class="st2" d="M13.2,6.6V6.3l0,0c-0.1,0.2-0.4,0.4-0.8,0.4c-0.5,0-0.8-0.3-0.8-0.7c0-0.6,0.6-0.9,1.6-0.9V5
		c0-0.2-0.1-0.6-0.6-0.6c-0.2,0-0.5,0.1-0.7,0.2l-0.1-0.3c0.2-0.1,0.5-0.2,0.9-0.2c0.8,0,1,0.5,1,1V6c0,0.2,0,0.4,0,0.6H13.2
		L13.2,6.6z M13.1,5.4c-0.5,0-1.1,0.1-1.1,0.5c0,0.3,0.2,0.4,0.5,0.4s0.6-0.2,0.6-0.4V5.8V5.4z"/>
	<path class="st2" d="M14.9,3.5v0.7h0.7v0.3h-0.7v1.3c0,0.3,0.1,0.5,0.4,0.5c0.1,0,0.2,0,0.3,0v0.3c-0.1,0-0.2,0.1-0.4,0.1
		s-0.4-0.1-0.5-0.2s-0.2-0.3-0.2-0.6V4.5H14V4.2h0.4V3.6L14.9,3.5z"/>
	<path class="st2" d="M16.4,5.5c0,0.6,0.4,0.8,0.9,0.8c0.3,0,0.6-0.1,0.7-0.1l0.1,0.3c-0.2,0.1-0.5,0.1-0.9,0.1
		c-0.8,0-1.3-0.5-1.3-1.2s0.5-1.3,1.2-1.3c0.9,0,1.1,0.7,1.1,1.1c0,0.1,0,0.2,0,0.2L16.4,5.5L16.4,5.5z M17.8,5.1
		c0-0.3-0.1-0.7-0.7-0.7c-0.5,0-0.7,0.4-0.7,0.7H17.8z"/>
	<path class="st2" d="M22,4.9c0,1.2-0.8,1.8-1.7,1.8c-1,0-1.7-0.7-1.7-1.7c0-1.1,0.7-1.8,1.7-1.8C21.4,3.2,22,3.9,22,4.9z M19.2,4.9
		c0,0.7,0.4,1.4,1.2,1.4c0.8,0,1.2-0.6,1.2-1.4c0-0.7-0.4-1.4-1.2-1.4S19.2,4.2,19.2,4.9z"/>
	<path class="st2" d="M22.8,6.6V4.5h-0.4V4.2h0.4V4.1c0-0.3,0.1-0.6,0.3-0.8C23.3,3.1,23.5,3,23.7,3s0.3,0,0.4,0.1L24,3.4
		c-0.1,0-0.2-0.1-0.3-0.1c-0.4,0-0.5,0.3-0.5,0.7v0.1h0.6v0.3h-0.6v2.1L22.8,6.6L22.8,6.6z"/>
	<path class="st2" d="M25,3.6h-1.1V3.2h2.7v0.4h-1.1v3H25V3.6z"/>
	<path class="st2" d="M27,3.1h0.5v1.5l0,0c0.1-0.1,0.2-0.2,0.3-0.3c0.1-0.1,0.3-0.1,0.5-0.1c0.4,0,0.9,0.2,0.9,1v1.4h-0.5V5.2
		c0-0.4-0.2-0.7-0.6-0.7c-0.3,0-0.6,0.2-0.6,0.4c0,0.1,0,0.1,0,0.2v1.4H27V3.1z"/>
	<path class="st2" d="M30.3,5.5c0,0.6,0.4,0.8,0.9,0.8c0.3,0,0.6-0.1,0.7-0.1L32,6.5c-0.2,0.1-0.5,0.1-0.9,0.1
		c-0.8,0-1.3-0.5-1.3-1.2s0.5-1.3,1.2-1.3c0.9,0,1.1,0.7,1.1,1.1c0,0.1,0,0.2,0,0.2L30.3,5.5L30.3,5.5z M31.7,5.1
		c0-0.3-0.1-0.7-0.7-0.7c-0.5,0-0.7,0.4-0.7,0.7H31.7z"/>
	<path class="st2" d="M32.8,3.3c0.3,0,0.6-0.1,1-0.1c0.7,0,1.2,0.1,1.5,0.4s0.5,0.7,0.5,1.2s-0.2,1-0.5,1.3s-0.9,0.5-1.6,0.5
		c-0.3,0-0.6,0-0.9,0V3.3L32.8,3.3z M33.3,6.2c0.1,0,0.3,0,0.5,0c1,0,1.6-0.5,1.6-1.4c0-0.8-0.5-1.3-1.5-1.3c-0.2,0-0.4,0-0.6,0V6.2
		L33.3,6.2z"/>
	<path class="st2" d="M37.9,6.6V6.3l0,0c-0.1,0.2-0.4,0.4-0.8,0.4c-0.5,0-0.8-0.3-0.8-0.7c0-0.6,0.6-0.9,1.6-0.9V5
		c0-0.2-0.1-0.6-0.6-0.6c-0.2,0-0.5,0.1-0.7,0.2l-0.1-0.3c0.2-0.1,0.5-0.2,0.9-0.2c0.8,0,1,0.5,1,1V6c0,0.2,0,0.4,0,0.6H37.9
		L37.9,6.6z M37.9,5.4c-0.5,0-1.1,0.1-1.1,0.5c0,0.3,0.2,0.4,0.5,0.4s0.6-0.2,0.6-0.4V5.8V5.4z"/>
	<path class="st2" d="M39.2,4.2l0.6,1.4c0.1,0.2,0.1,0.3,0.2,0.5l0,0c0-0.1,0.1-0.3,0.2-0.5l0.5-1.4h0.5l-0.7,1.7
		c-0.3,0.8-0.6,1.2-0.9,1.5c-0.2,0.2-0.5,0.3-0.6,0.3l-0.1-0.4c0.1,0,0.3-0.1,0.4-0.2c0.1-0.1,0.3-0.3,0.4-0.5V6.5V6.4l-1-2.2H39.2z
		"/>
	<path class="st2" d="M42.6,4.9V4.6h2.8v0.3H42.6z M42.6,5.9V5.6h2.8v0.3H42.6z"/>
	<path class="st2" d="M47.2,4.8c0-0.2,0-0.5,0-0.7h0.4v0.4l0,0C47.7,4.3,48,4,48.5,4c0.4,0,0.9,0.2,0.9,1v1.4H49V5.2
		c0-0.4-0.2-0.7-0.6-0.7c-0.3,0-0.6,0.2-0.6,0.4c0,0.1,0,0.1,0,0.2v1.4h-0.5V4.8H47.2z"/>
	<path class="st2" d="M50.5,5.5c0,0.6,0.4,0.8,0.9,0.8c0.3,0,0.6-0.1,0.7-0.1l0.1,0.3c-0.2,0.1-0.5,0.1-0.9,0.1
		c-0.8,0-1.3-0.5-1.3-1.2s0.5-1.3,1.2-1.3c0.9,0,1.1,0.7,1.1,1.1c0,0.1,0,0.2,0,0.2L50.5,5.5L50.5,5.5z M52,5.1
		c0-0.3-0.1-0.7-0.7-0.7c-0.5,0-0.7,0.4-0.7,0.7H52z"/>
	<path class="st2" d="M53.2,4.2l0.4,1.2c0.1,0.3,0.1,0.5,0.2,0.8l0,0C53.9,6,53.9,5.7,54,5.4l0.4-1.2h0.4l0.4,1.2
		c0.1,0.3,0.2,0.5,0.2,0.8l0,0c0-0.2,0.1-0.5,0.2-0.8L56,4.2h0.5l-0.9,2.4h-0.4l-0.4-1.1c-0.1-0.3-0.2-0.5-0.2-0.8l0,0
		c-0.1,0.3-0.1,0.5-0.2,0.8L54,6.6h-0.4l-0.8-2.4H53.2L53.2,4.2z"/>
	<path class="st2" d="M58.2,3.3c0.3,0,0.6-0.1,1-0.1c0.7,0,1.2,0.1,1.5,0.4s0.5,0.7,0.5,1.2s-0.2,1-0.5,1.3s-0.9,0.5-1.6,0.5
		c-0.3,0-0.6,0-0.9,0V3.3L58.2,3.3z M58.7,6.2c0.1,0,0.3,0,0.5,0c1,0,1.6-0.5,1.6-1.4c0-0.8-0.5-1.3-1.5-1.3c-0.2,0-0.4,0-0.6,0V6.2
		L58.7,6.2z"/>
	<path class="st2" d="M63.3,6.6V6.3l0,0c-0.1,0.2-0.4,0.4-0.8,0.4c-0.5,0-0.8-0.3-0.8-0.7c0-0.6,0.6-0.9,1.6-0.9V5
		c0-0.2-0.1-0.6-0.6-0.6c-0.2,0-0.5,0.1-0.7,0.2l-0.1-0.3c0.2-0.1,0.5-0.2,0.9-0.2c0.8,0,1,0.5,1,1V6c0,0.2,0,0.4,0,0.6H63.3z
		 M63.3,5.4c-0.5,0-1.1,0.1-1.1,0.5c0,0.3,0.2,0.4,0.5,0.4s0.6-0.2,0.6-0.4V5.8V5.4z"/>
	<path class="st2" d="M65.1,3.5v0.7h0.7v0.3h-0.7v1.3c0,0.3,0.1,0.5,0.4,0.5c0.1,0,0.2,0,0.3,0v0.3c-0.1,0-0.2,0.1-0.4,0.1
		c-0.2,0-0.4-0.1-0.5-0.2s-0.2-0.3-0.2-0.6V4.5h-0.4V4.2h0.4V3.6L65.1,3.5z"/>
	<path class="st2" d="M66.5,5.5c0,0.6,0.4,0.8,0.9,0.8c0.3,0,0.6-0.1,0.7-0.1l0.1,0.3c-0.2,0.1-0.5,0.1-0.9,0.1
		c-0.8,0-1.3-0.5-1.3-1.2s0.5-1.3,1.2-1.3c0.9,0,1.1,0.7,1.1,1.1c0,0.1,0,0.2,0,0.2L66.5,5.5L66.5,5.5z M68,5.1
		c0-0.3-0.1-0.7-0.7-0.7c-0.5,0-0.7,0.4-0.7,0.7H68z"/>
	<path class="st2" d="M70.1,3.1c-0.4,0.5-0.7,1.1-0.7,2s0.3,1.5,0.7,2h-0.4c-0.3-0.4-0.7-1-0.7-2s0.4-1.6,0.7-2H70.1z"/>
	<path class="st2" d="M70.3,7.2C70.7,6.7,71,6,71,5.2c0-0.9-0.3-1.5-0.7-2h0.4c0.4,0.4,0.7,1,0.7,2s-0.4,1.6-0.7,2
		C70.7,7.2,70.3,7.2,70.3,7.2z"/>
	<path class="st2" d="M71.8,7.2c0.1-0.3,0.3-0.8,0.3-1.2h0.6c-0.1,0.4-0.4,1-0.5,1.2H71.8z M72.1,4.6c0-0.2,0.1-0.3,0.3-0.3
		c0.2,0,0.3,0.1,0.3,0.3c0,0.2-0.1,0.3-0.3,0.3S72.1,4.8,72.1,4.6z"/>
	<path class="st2" d="M0.6,10.1l0.5,1.3c0.1,0.2,0.2,0.4,0.2,0.6l0,0c0.1-0.2,0.1-0.4,0.2-0.6L2,10.1h0.5l-1,2.4H1.1l-1-2.4H0.6z"/>
	<path class="st2" d="M4.5,12.5v-0.3l0,0c-0.1,0.2-0.4,0.4-0.8,0.4c-0.5,0-0.8-0.3-0.8-0.7c0-0.6,0.6-0.9,1.6-0.9l0,0
		c0-0.2-0.1-0.6-0.6-0.6c-0.2,0-0.5,0.1-0.7,0.2L3,10.3c0.2-0.1,0.5-0.2,0.9-0.2c0.8,0,1,0.5,1,1V12c0,0.2,0,0.4,0,0.6L4.5,12.5
		L4.5,12.5z M4.4,11.3c-0.5,0-1.1,0.1-1.1,0.5c0,0.3,0.2,0.4,0.5,0.4s0.6-0.2,0.6-0.4v-0.1V11.3z"/>
	<path class="st2" d="M5.7,10.9c0-0.3,0-0.5,0-0.7h0.4v0.5l0,0c0.1-0.3,0.4-0.5,0.7-0.5c0.1,0,0.1,0,0.1,0v0.4c0,0-0.1,0-0.2,0
		c-0.3,0-0.6,0.2-0.6,0.6c0,0.1,0,0.1,0,0.2v1.3H5.7V10.9z"/>
	<path class="st2" d="M10.9,9v2.9c0,0.2,0,0.5,0,0.6h-0.4v-0.4l0,0c-0.1,0.3-0.5,0.5-0.9,0.5c-0.6,0-1.1-0.5-1.1-1.2
		c0-0.8,0.5-1.3,1.2-1.3c0.4,0,0.7,0.2,0.8,0.4l0,0V9H10.9z M10.4,11.1c0-0.1,0-0.1,0-0.2c-0.1-0.3-0.3-0.5-0.7-0.5
		c-0.5,0-0.8,0.4-0.8,0.9s0.3,0.9,0.8,0.9c0.3,0,0.6-0.2,0.7-0.5c0-0.1,0-0.1,0-0.2V11.1z"/>
	<path class="st2" d="M13.2,12.5v-0.3l0,0c-0.1,0.2-0.4,0.4-0.8,0.4c-0.5,0-0.8-0.3-0.8-0.7c0-0.6,0.6-0.9,1.6-0.9l0,0
		c0-0.2-0.1-0.6-0.6-0.6c-0.2,0-0.5,0.1-0.7,0.2l-0.1-0.3c0.2-0.1,0.5-0.2,0.9-0.2c0.8,0,1,0.5,1,1V12c0,0.2,0,0.4,0,0.6L13.2,12.5
		L13.2,12.5z M13.1,11.3c-0.5,0-1.1,0.1-1.1,0.5c0,0.3,0.2,0.4,0.5,0.4s0.6-0.2,0.6-0.4v-0.1V11.3z"/>
	<path class="st2" d="M14.5,10.1l0.6,1.4c0.1,0.2,0.1,0.3,0.2,0.5l0,0c0-0.1,0.1-0.3,0.2-0.5l0.5-1.4h0.5l-0.7,1.7
		c-0.3,0.8-0.6,1.2-0.9,1.5c-0.2,0.2-0.5,0.3-0.6,0.3l-0.1-0.4c0.1,0,0.3-0.1,0.4-0.2c0.1-0.1,0.3-0.3,0.4-0.5v-0.1v-0.1l-1-2.2
		C14,10.1,14.5,10.1,14.5,10.1z"/>
	<path class="st2" d="M16.9,12.5V9.2h0.5l1.2,1.7c0.3,0.4,0.5,0.7,0.7,1.1l0,0c0-0.4-0.1-0.9-0.1-1.4V9.2h0.4v3.3h-0.5L18,10.8
		c-0.3-0.4-0.5-0.8-0.7-1.1l0,0c0,0.4,0,0.8,0,1.4v1.4L16.9,12.5L16.9,12.5z"/>
	<path class="st2" d="M22,12.5v-0.3l0,0c-0.1,0.2-0.4,0.4-0.8,0.4c-0.5,0-0.8-0.3-0.8-0.7c0-0.6,0.6-0.9,1.6-0.9l0,0
		c0-0.2-0.1-0.6-0.6-0.6c-0.2,0-0.5,0.1-0.7,0.2l-0.1-0.3c0.2-0.1,0.5-0.2,0.9-0.2c0.8,0,1,0.5,1,1V12c0,0.2,0,0.4,0,0.6L22,12.5
		L22,12.5z M21.9,11.3c-0.5,0-1.1,0.1-1.1,0.5c0,0.3,0.2,0.4,0.5,0.4s0.6-0.2,0.6-0.4v-0.1V11.3z"/>
	<path class="st2" d="M23.1,10.8c0-0.2,0-0.5,0-0.6h0.4v0.4l0,0c0.1-0.2,0.4-0.4,0.8-0.4s0.6,0.2,0.8,0.5l0,0
		c0.1-0.1,0.2-0.2,0.3-0.3c0.2-0.1,0.3-0.2,0.6-0.2c0.4,0,0.9,0.2,0.9,1v1.4h-0.5v-1.4c0-0.5-0.2-0.7-0.6-0.7
		c-0.3,0-0.5,0.2-0.6,0.4c0,0.1,0,0.1,0,0.2v1.5h-0.5v-1.4c0-0.4-0.2-0.7-0.6-0.7c-0.3,0-0.5,0.2-0.6,0.4c0,0.1,0,0.1,0,0.2v1.4H23
		L23.1,10.8L23.1,10.8z"/>
	<path class="st2" d="M28,11.4c0,0.6,0.4,0.8,0.9,0.8c0.3,0,0.6-0.1,0.7-0.1l0.1,0.3c-0.2,0.1-0.5,0.1-0.9,0.1
		c-0.8,0-1.3-0.5-1.3-1.2S28,10,28.7,10c0.9,0,1.1,0.7,1.1,1.1c0,0.1,0,0.2,0,0.2C29.8,11.4,28,11.4,28,11.4z M29.4,11.1
		c0-0.3-0.1-0.7-0.7-0.7c-0.5,0-0.7,0.4-0.7,0.7H29.4z"/>
	<path class="st2" d="M31.4,10.9v-0.3h2.8v0.3H31.4z M31.4,11.8v-0.3h2.8v0.3H31.4z"/>
	<path class="st2" d="M38.3,9v2.9c0,0.2,0,0.5,0,0.6h-0.4v-0.4l0,0c-0.1,0.3-0.5,0.5-0.9,0.5c-0.6,0-1.1-0.5-1.1-1.2
		c0-0.8,0.5-1.3,1.2-1.3c0.4,0,0.7,0.2,0.8,0.4l0,0V9H38.3z M37.9,11.1c0-0.1,0-0.1,0-0.2c-0.1-0.3-0.3-0.5-0.7-0.5
		c-0.5,0-0.8,0.4-0.8,0.9s0.3,0.9,0.8,0.9c0.3,0,0.6-0.2,0.7-0.5c0-0.1,0-0.1,0-0.2V11.1z"/>
	<path class="st2" d="M40.6,12.5v-0.3l0,0c-0.1,0.2-0.4,0.4-0.8,0.4c-0.5,0-0.8-0.3-0.8-0.7c0-0.6,0.6-0.9,1.6-0.9l0,0
		c0-0.2-0.1-0.6-0.6-0.6c-0.2,0-0.5,0.1-0.7,0.2l-0.1-0.3c0.2-0.1,0.5-0.2,0.9-0.2c0.8,0,1,0.5,1,1V12c0,0.2,0,0.4,0,0.6L40.6,12.5
		L40.6,12.5z M40.5,11.3c-0.5,0-1.1,0.1-1.1,0.5c0,0.3,0.2,0.4,0.5,0.4s0.6-0.2,0.6-0.4v-0.1V11.3z"/>
	<path class="st2" d="M42.3,9.4v0.7H43v0.3h-0.7v1.3c0,0.3,0.1,0.5,0.4,0.5c0.1,0,0.2,0,0.3,0v0.3c-0.1,0-0.2,0.1-0.4,0.1
		s-0.4-0.1-0.5-0.2c-0.1-0.1-0.2-0.3-0.2-0.6v-1.3h-0.4v-0.3h0.4V9.6L42.3,9.4z"/>
	<path class="st2" d="M43.8,11.4c0,0.6,0.4,0.8,0.9,0.8c0.3,0,0.6-0.1,0.7-0.1l0.1,0.3c-0.2,0.1-0.5,0.1-0.9,0.1
		c-0.8,0-1.3-0.5-1.3-1.2s0.5-1.3,1.2-1.3c0.9,0,1.1,0.7,1.1,1.1c0,0.1,0,0.2,0,0.2C45.7,11.4,43.8,11.4,43.8,11.4z M45.2,11.1
		c0-0.3-0.1-0.7-0.7-0.7c-0.5,0-0.7,0.4-0.7,0.7H45.2z"/>
	<path class="st2" d="M49.5,10.8c0,1.2-0.8,1.8-1.7,1.8c-1,0-1.7-0.7-1.7-1.7c0-1.1,0.7-1.8,1.7-1.8S49.5,9.8,49.5,10.8z M46.6,10.9
		c0,0.7,0.4,1.4,1.2,1.4s1.2-0.6,1.2-1.4c0-0.7-0.4-1.4-1.2-1.4S46.6,10.1,46.6,10.9z"/>
	<path class="st2" d="M50.2,12.5v-2.1h-0.4v-0.3h0.4V10c0-0.3,0.1-0.6,0.3-0.8S50.9,9,51.2,9c0.2,0,0.3,0,0.4,0.1l-0.1,0.3
		c-0.1,0-0.2-0.1-0.3-0.1c-0.4,0-0.5,0.3-0.5,0.7v0.1h0.6v0.3h-0.6v2.1C50.7,12.5,50.2,12.5,50.2,12.5z"/>
	<path class="st2" d="M52.5,9.6h-1.1V9.2h2.7v0.4H53v3h-0.5C52.5,12.5,52.5,9.6,52.5,9.6z"/>
	<path class="st2" d="M54.5,9H55v1.5l0,0c0.1-0.1,0.2-0.2,0.3-0.3s0.3-0.1,0.5-0.1c0.4,0,0.9,0.2,0.9,1v1.4h-0.5v-1.4
		c0-0.4-0.2-0.7-0.6-0.7c-0.3,0-0.6,0.2-0.6,0.4c0,0.1,0,0.1,0,0.2v1.4h-0.5C54.5,12.5,54.5,9,54.5,9z"/>
	<path class="st2" d="M57.8,11.4c0,0.6,0.4,0.8,0.9,0.8c0.3,0,0.6-0.1,0.7-0.1l0.1,0.3c-0.2,0.1-0.5,0.1-0.9,0.1
		c-0.8,0-1.3-0.5-1.3-1.2s0.5-1.3,1.2-1.3c0.9,0,1.1,0.7,1.1,1.1c0,0.1,0,0.2,0,0.2C59.6,11.4,57.8,11.4,57.8,11.4z M59.2,11.1
		c0-0.3-0.1-0.7-0.7-0.7c-0.5,0-0.7,0.4-0.7,0.7H59.2z"/>
	<path class="st2" d="M60.3,9.2c0.3,0,0.6-0.1,1-0.1c0.7,0,1.2,0.1,1.5,0.4c0.3,0.3,0.5,0.7,0.5,1.2s-0.2,1-0.5,1.3
		s-0.9,0.5-1.6,0.5c-0.3,0-0.6,0-0.9,0V9.2L60.3,9.2z M60.7,12.2c0.1,0,0.3,0,0.5,0c1,0,1.6-0.5,1.6-1.4c0-0.8-0.5-1.3-1.5-1.3
		c-0.2,0-0.4,0-0.6,0V12.2z"/>
	<path class="st2" d="M65.4,12.5v-0.3l0,0c-0.1,0.2-0.4,0.4-0.8,0.4c-0.5,0-0.8-0.3-0.8-0.7c0-0.6,0.6-0.9,1.6-0.9l0,0
		c0-0.2-0.1-0.6-0.6-0.6c-0.2,0-0.5,0.1-0.7,0.2L64,10.3c0.2-0.1,0.5-0.2,0.9-0.2c0.8,0,1,0.5,1,1V12c0,0.2,0,0.4,0,0.6L65.4,12.5
		L65.4,12.5z M65.3,11.3c-0.5,0-1.1,0.1-1.1,0.5c0,0.3,0.2,0.4,0.5,0.4s0.6-0.2,0.6-0.4v-0.1V11.3z"/>
	<path class="st2" d="M66.7,10.1l0.6,1.4c0.1,0.2,0.1,0.3,0.2,0.5l0,0c0-0.1,0.1-0.3,0.2-0.5l0.5-1.4h0.5L68,11.8
		c-0.3,0.8-0.6,1.2-0.9,1.5c-0.2,0.2-0.5,0.3-0.6,0.3l-0.1-0.4c0.1,0,0.3-0.1,0.4-0.2c0.1-0.1,0.3-0.3,0.4-0.5v-0.1v-0.1l-1-2.2
		C66.1,10.1,66.7,10.1,66.7,10.1z"/>
	<path class="st2" d="M68.7,12.3c0-0.2,0.1-0.3,0.3-0.3c0.2,0,0.3,0.1,0.3,0.3s-0.1,0.3-0.3,0.3C68.9,12.6,68.7,12.4,68.7,12.3z"/>
	<path class="st2" d="M72.3,10.1c0,0.2,0,0.4,0,0.7v1.4c0,0.6-0.1,0.9-0.4,1.1c-0.3,0.2-0.6,0.3-1,0.3c-0.3,0-0.7-0.1-0.9-0.2
		l0.1-0.3c0.2,0.1,0.4,0.2,0.8,0.2c0.5,0,0.9-0.2,0.9-0.8v-0.3l0,0c-0.1,0.2-0.4,0.4-0.8,0.4c-0.7,0-1.1-0.5-1.1-1.2
		c0-0.8,0.6-1.3,1.2-1.3c0.5,0,0.7,0.2,0.8,0.4l0,0v-0.4L72.3,10.1L72.3,10.1z M71.8,11.1c0-0.1,0-0.1,0-0.2
		c-0.1-0.3-0.3-0.5-0.7-0.5c-0.5,0-0.8,0.4-0.8,0.9s0.3,0.9,0.8,0.9c0.3,0,0.6-0.2,0.7-0.4c0-0.1,0-0.2,0-0.2
		C71.8,11.5,71.8,11.1,71.8,11.1z"/>
	<path class="st2" d="M73.3,11.4c0,0.6,0.4,0.8,0.9,0.8c0.3,0,0.6-0.1,0.7-0.1l0.1,0.3c-0.2,0.1-0.5,0.1-0.9,0.1
		c-0.8,0-1.3-0.5-1.3-1.2S73.3,10,74,10c0.9,0,1.1,0.7,1.1,1.1c0,0.1,0,0.2,0,0.2C75.2,11.4,73.3,11.4,73.3,11.4z M74.7,11.1
		c0-0.3-0.1-0.7-0.7-0.7c-0.5,0-0.7,0.4-0.7,0.7H74.7z"/>
	<path class="st2" d="M76.4,9.4v0.7h0.7v0.3h-0.7v1.3c0,0.3,0.1,0.5,0.4,0.5c0.1,0,0.2,0,0.3,0v0.3c-0.1,0-0.2,0.1-0.4,0.1
		c-0.2,0-0.4-0.1-0.5-0.2c-0.1-0.1-0.2-0.3-0.2-0.6v-1.3h-0.4v-0.3H76V9.6L76.4,9.4z"/>
	<path class="st2" d="M77.6,9.2c0.3,0,0.6-0.1,1-0.1c0.7,0,1.2,0.1,1.5,0.4c0.3,0.3,0.5,0.7,0.5,1.2s-0.2,1-0.5,1.3
		s-0.9,0.5-1.6,0.5c-0.3,0-0.6,0-0.9,0V9.2L77.6,9.2z M78.1,12.2c0.1,0,0.3,0,0.5,0c1,0,1.6-0.5,1.6-1.4c0-0.8-0.5-1.3-1.5-1.3
		c-0.2,0-0.4,0-0.6,0V12.2L78.1,12.2z"/>
	<path class="st2" d="M82.7,12.5v-0.3l0,0c-0.1,0.2-0.4,0.4-0.8,0.4c-0.5,0-0.8-0.3-0.8-0.7c0-0.6,0.6-0.9,1.6-0.9l0,0
		c0-0.2-0.1-0.6-0.6-0.6c-0.2,0-0.5,0.1-0.7,0.2l-0.1-0.3c0.2-0.1,0.5-0.2,0.9-0.2c0.8,0,1,0.5,1,1V12c0,0.2,0,0.4,0,0.6L82.7,12.5
		L82.7,12.5z M82.7,11.3c-0.5,0-1.1,0.1-1.1,0.5c0,0.3,0.2,0.4,0.5,0.4s0.6-0.2,0.6-0.4v-0.1V11.3z"/>
	<path class="st2" d="M84,10.1l0.6,1.4c0.1,0.2,0.1,0.3,0.2,0.5l0,0c0-0.1,0.1-0.3,0.2-0.5l0.5-1.4H86l-0.7,1.7
		c-0.3,0.8-0.6,1.2-0.9,1.5c-0.2,0.2-0.5,0.3-0.6,0.3l-0.1-0.4c0.1,0,0.3-0.1,0.4-0.2c0.1-0.1,0.3-0.3,0.4-0.5v-0.1v-0.1l-1-2.2
		C83.5,10.1,84,10.1,84,10.1z"/>
	<path class="st2" d="M87.5,9.1c-0.4,0.5-0.7,1.1-0.7,2s0.3,1.5,0.7,2h-0.4c-0.3-0.4-0.7-1-0.7-2s0.4-1.6,0.7-2H87.5z"/>
	<path class="st2" d="M87.7,13.1c0.4-0.5,0.7-1.1,0.7-2s-0.3-1.5-0.7-2h0.4c0.4,0.4,0.7,1,0.7,2s-0.4,1.6-0.7,2H87.7z"/>
	<path class="st2" d="M89.3,13.1c0.1-0.3,0.3-0.8,0.3-1.2l0.5-0.1c-0.1,0.4-0.4,1-0.5,1.2L89.3,13.1z M89.5,10.5
		c0-0.2,0.1-0.3,0.3-0.3c0.2,0,0.3,0.1,0.3,0.3s-0.1,0.3-0.3,0.3S89.5,10.7,89.5,10.5z"/>
	<path class="st2" d="M0.6,16.1l0.5,1.3c0.1,0.2,0.2,0.4,0.2,0.6l0,0c0.1-0.2,0.1-0.4,0.2-0.6L2,16.1h0.5l-1,2.4H1.1l-1-2.4H0.6z"/>
	<path class="st2" d="M4.5,18.5v-0.3l0,0c-0.1,0.2-0.4,0.4-0.8,0.4c-0.5,0-0.8-0.3-0.8-0.7c0-0.6,0.6-0.9,1.6-0.9l0,0
		c0-0.2-0.1-0.6-0.6-0.6c-0.2,0-0.5,0.1-0.7,0.2L3,16.2C3.2,16.1,3.5,16,3.9,16c0.8,0,1,0.5,1,1v0.9c0,0.2,0,0.4,0,0.6H4.5L4.5,18.5
		z M4.4,17.3c-0.5,0-1.1,0.1-1.1,0.5c0,0.3,0.2,0.4,0.5,0.4s0.6-0.2,0.6-0.4v-0.1C4.4,17.7,4.4,17.3,4.4,17.3z"/>
	<path class="st2" d="M5.7,16.8c0-0.3,0-0.5,0-0.7h0.4v0.5l0,0C6.2,16.2,6.5,16,6.8,16c0.1,0,0.1,0,0.1,0v0.4c0,0-0.1,0-0.2,0
		c-0.3,0-0.6,0.2-0.6,0.6c0,0.1,0,0.1,0,0.2v1.3H5.7V16.8z"/>
	<path class="st2" d="M10.9,15v2.9c0,0.2,0,0.5,0,0.6h-0.4v-0.4l0,0c-0.1,0.3-0.5,0.5-0.9,0.5c-0.6,0-1.1-0.5-1.1-1.2
		C8.4,16.5,9,16,9.6,16c0.4,0,0.7,0.2,0.8,0.4l0,0V15C10.4,15,10.9,15,10.9,15z M10.4,17.1c0-0.1,0-0.1,0-0.2
		c-0.1-0.3-0.3-0.5-0.7-0.5c-0.5,0-0.8,0.4-0.8,0.9s0.3,0.9,0.8,0.9c0.3,0,0.6-0.2,0.7-0.5c0-0.1,0-0.1,0-0.2V17.1z"/>
	<path class="st2" d="M13.2,18.5v-0.3l0,0c-0.1,0.2-0.4,0.4-0.8,0.4c-0.5,0-0.8-0.3-0.8-0.7c0-0.6,0.6-0.9,1.6-0.9l0,0
		c0-0.2-0.1-0.6-0.6-0.6c-0.2,0-0.5,0.1-0.7,0.2l-0.1-0.3c0.2-0.1,0.5-0.2,0.9-0.2c0.8,0,1,0.5,1,1V18c0,0.2,0,0.4,0,0.6L13.2,18.5
		L13.2,18.5z M13.1,17.3c-0.5,0-1.1,0.1-1.1,0.5c0,0.3,0.2,0.4,0.5,0.4s0.6-0.2,0.6-0.4v-0.1V17.3z"/>
	<path class="st2" d="M14.5,16.1l0.6,1.4c0.1,0.2,0.1,0.3,0.2,0.5l0,0c0-0.1,0.1-0.3,0.2-0.5l0.5-1.4h0.5l-0.7,1.7
		c-0.3,0.8-0.6,1.2-0.9,1.5c-0.2,0.2-0.5,0.3-0.6,0.3l-0.1-0.4c0.1,0,0.3-0.1,0.4-0.2c0.1-0.1,0.3-0.3,0.4-0.5v-0.1v-0.1l-1-2.2
		C14,16.1,14.5,16.1,14.5,16.1z"/>
	<path class="st2" d="M17.9,16.8v-0.3h2.8v0.3C20.7,16.8,17.9,16.8,17.9,16.8z M17.9,17.8v-0.3h2.8v0.3H17.9z"/>
	<path class="st2" d="M24.8,15v2.9c0,0.2,0,0.5,0,0.6h-0.4v-0.4l0,0c-0.1,0.3-0.5,0.5-0.9,0.5c-0.6,0-1.1-0.5-1.1-1.2
		c0-0.8,0.5-1.3,1.2-1.3c0.4,0,0.7,0.2,0.8,0.4l0,0V15C24.3,15,24.8,15,24.8,15z M24.3,17.1c0-0.1,0-0.1,0-0.2
		c-0.1-0.3-0.3-0.5-0.7-0.5c-0.5,0-0.8,0.4-0.8,0.9s0.3,0.9,0.8,0.9c0.3,0,0.6-0.2,0.7-0.5c0-0.1,0-0.1,0-0.2V17.1L24.3,17.1z"/>
	<path class="st2" d="M27,18.5v-0.3l0,0c-0.1,0.2-0.4,0.4-0.8,0.4c-0.5,0-0.8-0.3-0.8-0.7c0-0.6,0.6-0.9,1.6-0.9l0,0
		c0-0.2-0.1-0.6-0.6-0.6c-0.2,0-0.5,0.1-0.7,0.2l-0.1-0.3c0.2-0.1,0.5-0.2,0.9-0.2c0.8,0,1,0.5,1,1V18c0,0.2,0,0.4,0,0.6L27,18.5
		L27,18.5z M27,17.3c-0.5,0-1.1,0.1-1.1,0.5c0,0.3,0.2,0.4,0.5,0.4S27,18,27,17.8v-0.1C27,17.7,27,17.3,27,17.3z"/>
	<path class="st2" d="M28.8,15.4v0.7h0.7v0.3h-0.7v1.3c0,0.3,0.1,0.5,0.4,0.5c0.1,0,0.2,0,0.3,0v0.3c-0.1,0-0.2,0.1-0.4,0.1
		c-0.2,0-0.4-0.1-0.5-0.2s-0.2-0.3-0.2-0.6v-1.3H28v-0.3h0.4v-0.6L28.8,15.4z"/>
	<path class="st2" d="M30.2,17.4c0,0.6,0.4,0.8,0.9,0.8c0.3,0,0.6-0.1,0.7-0.1l0.1,0.3c-0.2,0.1-0.5,0.1-0.9,0.1
		c-0.8,0-1.3-0.5-1.3-1.2S30.3,16,31,16c0.9,0,1.1,0.7,1.1,1.1c0,0.1,0,0.2,0,0.2L30.2,17.4L30.2,17.4z M31.7,17
		c0-0.3-0.1-0.7-0.7-0.7c-0.5,0-0.7,0.4-0.7,0.7H31.7z"/>
	<path class="st2" d="M35.9,16.8c0,1.1-0.8,1.8-1.7,1.8c-1,0-1.7-0.7-1.7-1.7c0-1.1,0.7-1.8,1.7-1.8C35.2,15.1,35.9,15.8,35.9,16.8z
		 M33,16.8c0,0.7,0.4,1.4,1.2,1.4s1.2-0.6,1.2-1.4c0-0.7-0.4-1.4-1.2-1.4S33,16.1,33,16.8z"/>
	<path class="st2" d="M36.6,18.5v-2.1h-0.4v-0.3h0.4V16c0-0.3,0.1-0.6,0.3-0.8s0.4-0.2,0.6-0.2c0.2,0,0.3,0,0.4,0.1l-0.1,0.3
		c-0.1,0-0.2-0.1-0.3-0.1c-0.4,0-0.5,0.3-0.5,0.7v0.1h0.6v0.3H37v2.1H36.6z"/>
	<path class="st2" d="M38.9,15.5h-1.1v-0.4h2.7v0.4h-1.1v3h-0.5C38.9,18.5,38.9,15.5,38.9,15.5z"/>
	<path class="st2" d="M40.9,15h0.5v1.5l0,0c0.1-0.1,0.2-0.2,0.3-0.3c0.1-0.1,0.3-0.1,0.5-0.1c0.4,0,0.9,0.2,0.9,1v1.4h-0.5v-1.4
		c0-0.4-0.2-0.7-0.6-0.7c-0.3,0-0.6,0.2-0.6,0.4c0,0.1,0,0.1,0,0.2v1.4h-0.5C40.9,18.5,40.9,15,40.9,15z"/>
	<path class="st2" d="M44.2,17.4c0,0.6,0.4,0.8,0.9,0.8c0.3,0,0.6-0.1,0.7-0.1l0.1,0.3c-0.2,0.1-0.5,0.1-0.9,0.1
		c-0.8,0-1.3-0.5-1.3-1.2S44.2,16,45,16c0.9,0,1.1,0.7,1.1,1.1c0,0.1,0,0.2,0,0.2L44.2,17.4L44.2,17.4z M45.6,17
		c0-0.3-0.1-0.7-0.7-0.7c-0.5,0-0.7,0.4-0.7,0.7H45.6z"/>
	<path class="st2" d="M46.7,15.2c0.3,0,0.6-0.1,1-0.1c0.7,0,1.2,0.1,1.5,0.4c0.3,0.3,0.5,0.7,0.5,1.2s-0.2,1-0.5,1.3
		s-0.9,0.5-1.6,0.5c-0.3,0-0.6,0-0.9,0V15.2L46.7,15.2z M47.2,18.1c0.1,0,0.3,0,0.5,0c1,0,1.6-0.5,1.6-1.4c0-0.8-0.5-1.3-1.5-1.3
		c-0.2,0-0.4,0-0.6,0V18.1L47.2,18.1z"/>
	<path class="st2" d="M51.8,18.5v-0.3l0,0c-0.1,0.2-0.4,0.4-0.8,0.4c-0.5,0-0.8-0.3-0.8-0.7c0-0.6,0.6-0.9,1.6-0.9l0,0
		c0-0.2-0.1-0.6-0.6-0.6c-0.2,0-0.5,0.1-0.7,0.2l-0.1-0.3c0.2-0.1,0.5-0.2,0.9-0.2c0.8,0,1,0.5,1,1V18c0,0.2,0,0.4,0,0.6L51.8,18.5
		L51.8,18.5z M51.7,17.3c-0.5,0-1.1,0.1-1.1,0.5c0,0.3,0.2,0.4,0.5,0.4s0.6-0.2,0.6-0.4v-0.1V17.3z"/>
	<path class="st2" d="M53.1,16.1l0.6,1.4c0.1,0.2,0.1,0.3,0.2,0.5l0,0c0-0.1,0.1-0.3,0.2-0.5l0.5-1.4h0.5l-0.7,1.7
		c-0.3,0.8-0.6,1.2-0.9,1.5c-0.2,0.2-0.5,0.3-0.6,0.3l-0.1-0.4c0.1,0,0.3-0.1,0.4-0.2c0.1-0.1,0.3-0.3,0.4-0.5v-0.1v-0.1l-1-2.2
		C52.6,16.1,53.1,16.1,53.1,16.1z"/>
	<path class="st2" d="M55.2,18.2c0-0.2,0.1-0.3,0.3-0.3s0.3,0.1,0.3,0.3c0,0.2-0.1,0.3-0.3,0.3S55.2,18.4,55.2,18.2z"/>
	<path class="st2" d="M58.7,16.1c0,0.2,0,0.4,0,0.7v1.4c0,0.5-0.1,0.9-0.4,1.1c-0.3,0.2-0.6,0.3-1,0.3c-0.3,0-0.7-0.1-0.9-0.2
		l0.1-0.3c0.2,0.1,0.4,0.2,0.8,0.2c0.5,0,0.9-0.2,0.9-0.8v-0.3l0,0c-0.1,0.2-0.4,0.4-0.8,0.4c-0.7,0-1.1-0.5-1.1-1.2
		c0-0.8,0.6-1.3,1.2-1.3c0.5,0,0.7,0.2,0.8,0.4l0,0v-0.4L58.7,16.1L58.7,16.1z M58.2,17c0-0.1,0-0.1,0-0.2c-0.1-0.3-0.3-0.5-0.7-0.5
		c-0.5,0-0.8,0.4-0.8,0.9s0.3,0.9,0.8,0.9c0.3,0,0.6-0.2,0.7-0.4c0-0.1,0-0.2,0-0.2V17L58.2,17z"/>
	<path class="st2" d="M59.8,17.4c0,0.6,0.4,0.8,0.9,0.8c0.3,0,0.6-0.1,0.7-0.1l0.1,0.3c-0.2,0.1-0.5,0.1-0.9,0.1
		c-0.8,0-1.3-0.5-1.3-1.2s0.5-1.3,1.2-1.3c0.9,0,1.1,0.7,1.1,1.1c0,0.1,0,0.2,0,0.2h-1.8V17.4z M61.2,17c0-0.3-0.1-0.7-0.7-0.7
		c-0.5,0-0.7,0.4-0.7,0.7H61.2z"/>
	<path class="st2" d="M62.8,15.4v0.7h0.7v0.3h-0.7v1.3c0,0.3,0.1,0.5,0.4,0.5c0.1,0,0.2,0,0.3,0v0.3c-0.1,0-0.2,0.1-0.4,0.1
		s-0.4-0.1-0.5-0.2s-0.2-0.3-0.2-0.6v-1.3H62v-0.3h0.4v-0.6L62.8,15.4z"/>
	<path class="st2" d="M64.1,15.2c0.3,0,0.6-0.1,1-0.1c0.7,0,1.2,0.1,1.5,0.4c0.3,0.3,0.5,0.7,0.5,1.2s-0.2,1-0.5,1.3
		s-0.9,0.5-1.6,0.5c-0.3,0-0.6,0-0.9,0V15.2L64.1,15.2z M64.5,18.1c0.1,0,0.3,0,0.5,0c1,0,1.6-0.5,1.6-1.4c0-0.8-0.5-1.3-1.5-1.3
		c-0.2,0-0.4,0-0.6,0V18.1L64.5,18.1z"/>
	<path class="st2" d="M69.2,18.5v-0.3l0,0c-0.1,0.2-0.4,0.4-0.8,0.4c-0.5,0-0.8-0.3-0.8-0.7c0-0.6,0.6-0.9,1.6-0.9l0,0
		c0-0.2-0.1-0.6-0.6-0.6c-0.2,0-0.5,0.1-0.7,0.2l-0.1-0.3c0.2-0.1,0.5-0.2,0.9-0.2c0.8,0,1,0.5,1,1V18c0,0.2,0,0.4,0,0.6L69.2,18.5
		L69.2,18.5z M69.1,17.3c-0.5,0-1.1,0.1-1.1,0.5c0,0.3,0.2,0.4,0.5,0.4s0.6-0.2,0.6-0.4v-0.1V17.3z"/>
	<path class="st2" d="M70.9,15.4v0.7h0.7v0.3h-0.7v1.3c0,0.3,0.1,0.5,0.4,0.5c0.1,0,0.2,0,0.3,0v0.3c-0.1,0-0.2,0.1-0.4,0.1
		c-0.2,0-0.4-0.1-0.5-0.2s-0.2-0.3-0.2-0.6v-1.3H70v-0.3h0.4v-0.6L70.9,15.4z"/>
	<path class="st2" d="M72.4,17.4c0,0.6,0.4,0.8,0.9,0.8c0.3,0,0.6-0.1,0.7-0.1l0.1,0.3c-0.2,0.1-0.5,0.1-0.9,0.1
		c-0.8,0-1.3-0.5-1.3-1.2s0.5-1.3,1.2-1.3c0.9,0,1.1,0.7,1.1,1.1c0,0.1,0,0.2,0,0.2h-1.8V17.4z M73.8,17c0-0.3-0.1-0.7-0.7-0.7
		c-0.5,0-0.7,0.4-0.7,0.7H73.8z"/>
	<path class="st2" d="M75.9,15c-0.4,0.5-0.7,1.1-0.7,2s0.3,1.5,0.7,2h-0.4c-0.3-0.4-0.7-1-0.7-2s0.4-1.6,0.7-2H75.9z"/>
	<path class="st2" d="M76.1,19.1c0.4-0.5,0.7-1.1,0.7-2s-0.3-1.5-0.7-2h0.4c0.4,0.4,0.7,1,0.7,2s-0.4,1.6-0.7,2H76.1z"/>
	<path class="st2" d="M77.7,19.1c0.1-0.3,0.3-0.8,0.3-1.2h0.5c-0.1,0.4-0.4,1-0.5,1.2H77.7z M77.9,16.5c0-0.2,0.1-0.3,0.3-0.3
		c0.2,0,0.3,0.1,0.3,0.3c0,0.2-0.1,0.3-0.3,0.3S77.9,16.6,77.9,16.5z"/>
	<path class="st2" d="M0.6,22l0.5,1.3c0.1,0.2,0.2,0.4,0.2,0.6l0,0c0.1-0.2,0.1-0.4,0.2-0.6L2.1,22h0.5l-1,2.4H1.1l-1-2.4
		C0.1,22,0.6,22,0.6,22z"/>
	<path class="st2" d="M4.5,24.4v-0.3l0,0c-0.1,0.2-0.4,0.4-0.8,0.4c-0.5,0-0.8-0.3-0.8-0.7c0-0.6,0.6-0.9,1.6-0.9l0,0
		c0-0.2-0.1-0.6-0.6-0.6c-0.2,0-0.5,0.1-0.7,0.2L3,22.2C3.2,22.1,3.5,22,3.9,22c0.8,0,1,0.5,1,1v0.9c0,0.2,0,0.4,0,0.6L4.5,24.4
		L4.5,24.4z M4.4,23.2c-0.5,0-1.1,0.1-1.1,0.5c0,0.3,0.2,0.4,0.5,0.4s0.6-0.2,0.6-0.4v-0.1V23.2z"/>
	<path class="st2" d="M5.7,22.8c0-0.3,0-0.5,0-0.7h0.4v0.5l0,0C6.2,22.2,6.5,22,6.8,22c0.1,0,0.1,0,0.1,0v0.4c0,0-0.1,0-0.2,0
		c-0.3,0-0.6,0.2-0.6,0.6c0,0.1,0,0.1,0,0.2v1.3H5.7V22.8z"/>
	<path class="st2" d="M8.6,22.7c0-0.2,0-0.5,0-0.6H9v0.4l0,0C9.2,22.2,9.5,22,9.9,22s0.6,0.2,0.8,0.5l0,0c0.1-0.1,0.2-0.2,0.3-0.3
		c0.2-0.1,0.3-0.2,0.6-0.2c0.4,0,0.9,0.2,0.9,1v1.4H12V23c0-0.5-0.2-0.7-0.6-0.7c-0.3,0-0.5,0.2-0.6,0.4c0,0.1,0,0.1,0,0.2v1.5h-0.5
		V23c0-0.4-0.2-0.7-0.6-0.7c-0.3,0-0.5,0.2-0.6,0.4c0,0.1,0,0.1,0,0.2v1.4H8.6V22.7z"/>
	<path class="st2" d="M15.6,23.2c0,0.9-0.7,1.3-1.3,1.3c-0.7,0-1.3-0.5-1.3-1.2c0-0.8,0.6-1.3,1.3-1.3C15.1,22,15.6,22.5,15.6,23.2z
		 M13.5,23.2c0,0.5,0.3,0.9,0.8,0.9s0.8-0.4,0.8-0.9c0-0.4-0.2-0.9-0.8-0.9C13.7,22.3,13.5,22.8,13.5,23.2z"/>
	<path class="st2" d="M16.2,22.7c0-0.2,0-0.5,0-0.6h0.4v0.4l0,0c0.1-0.2,0.4-0.5,0.9-0.5c0.4,0,0.9,0.2,0.9,1v1.4H18V23
		c0-0.4-0.2-0.7-0.6-0.7c-0.3,0-0.6,0.2-0.6,0.4c0,0.1,0,0.1,0,0.2v1.4h-0.5L16.2,22.7L16.2,22.7z"/>
	<path class="st2" d="M19.8,21.3V22h0.7v0.3h-0.7v1.3c0,0.3,0.1,0.5,0.4,0.5c0.1,0,0.2,0,0.3,0v0.3c-0.1,0-0.2,0.1-0.4,0.1
		c-0.2,0-0.4-0.1-0.5-0.2s-0.2-0.3-0.2-0.6v-1.3H19V22h0.4v-0.6L19.8,21.3z"/>
	<path class="st2" d="M21,20.9h0.5v1.5l0,0c0.1-0.1,0.2-0.2,0.3-0.3C22,22,22.2,22,22.4,22c0.4,0,0.9,0.2,0.9,1v1.4h-0.5V23
		c0-0.4-0.2-0.7-0.6-0.7c-0.3,0-0.6,0.2-0.6,0.4c0,0.1,0,0.1,0,0.2v1.4H21C21,24.4,21,20.9,21,20.9z"/>
	<path class="st2" d="M25.1,22.8v-0.3h2.8v0.3H25.1z M25.1,23.7v-0.3h2.8v0.3H25.1z"/>
	<path class="st2" d="M32,20.9v2.9c0,0.2,0,0.5,0,0.6h-0.4V24l0,0c-0.1,0.3-0.5,0.5-0.9,0.5c-0.6,0-1.1-0.5-1.1-1.2
		c0-0.8,0.5-1.3,1.2-1.3c0.4,0,0.7,0.2,0.8,0.4l0,0V21C31.5,20.9,32,20.9,32,20.9z M31.5,23c0-0.1,0-0.1,0-0.2
		c-0.1-0.3-0.3-0.5-0.7-0.5c-0.5,0-0.8,0.4-0.8,0.9s0.3,0.9,0.8,0.9c0.3,0,0.6-0.2,0.7-0.5c0-0.1,0-0.1,0-0.2V23L31.5,23z"/>
	<path class="st2" d="M34.2,24.4v-0.3l0,0c-0.1,0.2-0.4,0.4-0.8,0.4c-0.5,0-0.8-0.3-0.8-0.7c0-0.6,0.6-0.9,1.6-0.9l0,0
		c0-0.2-0.1-0.6-0.6-0.6c-0.2,0-0.5,0.1-0.7,0.2l-0.1-0.3c0.2-0.1,0.5-0.2,0.9-0.2c0.8,0,1,0.5,1,1v0.9c0,0.2,0,0.4,0,0.6L34.2,24.4
		L34.2,24.4z M34.2,23.2c-0.5,0-1.1,0.1-1.1,0.5c0,0.3,0.2,0.4,0.5,0.4s0.6-0.2,0.6-0.4v-0.1V23.2z"/>
	<path class="st2" d="M36,21.3V22h0.7v0.3H36v1.3c0,0.3,0.1,0.5,0.4,0.5c0.1,0,0.2,0,0.3,0v0.3c-0.1,0-0.2,0.1-0.4,0.1
		s-0.4-0.1-0.5-0.2s-0.2-0.3-0.2-0.6v-1.3h-0.4V22h0.4v-0.6L36,21.3z"/>
	<path class="st2" d="M37.4,23.3c0,0.6,0.4,0.8,0.9,0.8c0.3,0,0.6-0.1,0.7-0.1l0.1,0.3c-0.2,0.1-0.5,0.1-0.9,0.1
		c-0.8,0-1.3-0.5-1.3-1.2s0.5-1.3,1.2-1.3c0.9,0,1.1,0.7,1.1,1.1c0,0.1,0,0.2,0,0.2C39.3,23.3,37.4,23.3,37.4,23.3z M38.9,23
		c0-0.3-0.1-0.7-0.7-0.7c-0.5,0-0.7,0.4-0.7,0.7H38.9z"/>
	<path class="st2" d="M43.1,22.7c0,1.1-0.8,1.8-1.7,1.8c-1,0-1.7-0.7-1.7-1.7c0-1.1,0.7-1.8,1.7-1.8C42.4,21,43.1,21.7,43.1,22.7z
		 M40.2,22.8c0,0.7,0.4,1.4,1.2,1.4s1.2-0.6,1.2-1.4c0-0.7-0.4-1.4-1.2-1.4C40.6,21.4,40.2,22,40.2,22.8z"/>
	<path class="st2" d="M43.8,24.4v-2.1h-0.4V22h0.4v-0.1c0-0.3,0.1-0.6,0.3-0.8c0.2-0.2,0.4-0.2,0.6-0.2c0.2,0,0.3,0,0.4,0.1L45,21.3
		c-0.1,0-0.2-0.1-0.3-0.1c-0.4,0-0.5,0.3-0.5,0.7V22h0.6v0.3h-0.6v2.1H43.8z"/>
	<path class="st2" d="M46.1,21.5H45v-0.4h2.7v0.4h-1.1v3h-0.5C46.1,24.4,46.1,21.5,46.1,21.5z"/>
	<path class="st2" d="M48.1,20.9h0.5v1.5l0,0c0.1-0.1,0.2-0.2,0.3-0.3C49,22,49.2,22,49.4,22c0.4,0,0.9,0.2,0.9,1v1.4h-0.5V23
		c0-0.4-0.2-0.7-0.6-0.7c-0.3,0-0.6,0.2-0.6,0.4c0,0.1,0,0.1,0,0.2v1.4h-0.5C48.1,24.4,48.1,20.9,48.1,20.9z"/>
	<path class="st2" d="M51.4,23.3c0,0.6,0.4,0.8,0.9,0.8c0.3,0,0.6-0.1,0.7-0.1l0.1,0.3c-0.2,0.1-0.5,0.1-0.9,0.1
		c-0.8,0-1.3-0.5-1.3-1.2s0.5-1.3,1.2-1.3c0.9,0,1.1,0.7,1.1,1.1c0,0.1,0,0.2,0,0.2C53.2,23.3,51.4,23.3,51.4,23.3z M52.8,23
		c0-0.3-0.1-0.7-0.7-0.7c-0.5,0-0.7,0.4-0.7,0.7H52.8z"/>
	<path class="st2" d="M53.9,21.1c0.3,0,0.6-0.1,1-0.1c0.7,0,1.2,0.1,1.5,0.4s0.5,0.7,0.5,1.2s-0.2,1-0.5,1.3s-0.9,0.5-1.6,0.5
		c-0.3,0-0.6,0-0.9,0V21.1L53.9,21.1z M54.4,24.1c0.1,0,0.3,0,0.5,0c1,0,1.6-0.5,1.6-1.4c0-0.8-0.5-1.3-1.5-1.3c-0.2,0-0.4,0-0.6,0
		V24.1L54.4,24.1z"/>
	<path class="st2" d="M62.4,24.2c0-0.2,0.1-0.3,0.3-0.3S63,24,63,24.2c0,0.2-0.1,0.3-0.3,0.3S62.4,24.3,62.4,24.2z"/>
	<path class="st2" d="M66.9,23.3c0,0.6,0.4,0.8,0.9,0.8c0.3,0,0.6-0.1,0.7-0.1l0.1,0.3c-0.2,0.1-0.5,0.1-0.9,0.1
		c-0.8,0-1.3-0.5-1.3-1.2s0.5-1.3,1.2-1.3c0.9,0,1.1,0.7,1.1,1.1c0,0.1,0,0.2,0,0.2C68.8,23.3,66.9,23.3,66.9,23.3z M68.4,23
		c0-0.3-0.1-0.7-0.7-0.7c-0.5,0-0.7,0.4-0.7,0.7H68.4z"/>
	<path class="st2" d="M70,21.3V22h0.7v0.3H70v1.3c0,0.3,0.1,0.5,0.4,0.5c0.1,0,0.2,0,0.3,0v0.3c-0.1,0-0.2,0.1-0.4,0.1
		c-0.2,0-0.4-0.1-0.5-0.2s-0.2-0.3-0.2-0.6v-1.3h-0.4V22h0.4v-0.6L70,21.3z"/>
	<path class="st2" d="M74.4,23c0-0.5-0.1-1-0.1-1.4l0,0c-0.1,0.4-0.3,0.8-0.5,1.3l-0.7,1.6h-0.4l-0.6-1.6c-0.2-0.5-0.3-0.9-0.4-1.3
		l0,0c0,0.4,0,1-0.1,1.5l-0.1,1.4H71l0.3-3.3H72l0.6,1.6c0.2,0.4,0.3,0.8,0.4,1.1l0,0c0.1-0.3,0.2-0.7,0.4-1.1l0.7-1.6h0.6l0.2,3.3
		h-0.5L74.4,23z"/>
	<path class="st2" d="M78.1,23.2c0,0.9-0.7,1.3-1.3,1.3c-0.7,0-1.3-0.5-1.3-1.2c0-0.8,0.6-1.3,1.3-1.3C77.6,22,78.1,22.5,78.1,23.2z
		 M76,23.2c0,0.5,0.3,0.9,0.8,0.9s0.8-0.4,0.8-0.9c0-0.4-0.2-0.9-0.8-0.9C76.2,22.3,76,22.8,76,23.2z"/>
	<path class="st2" d="M78.7,22.7c0-0.2,0-0.5,0-0.6h0.4v0.4l0,0c0.1-0.2,0.4-0.5,0.9-0.5c0.4,0,0.9,0.2,0.9,1v1.4h-0.5V23
		c0-0.4-0.2-0.7-0.6-0.7c-0.3,0-0.6,0.2-0.6,0.4c0,0.1,0,0.1,0,0.2v1.4h-0.5L78.7,22.7L78.7,22.7z"/>
	<path class="st2" d="M82.3,21.3V22H83v0.3h-0.7v1.3c0,0.3,0.1,0.5,0.4,0.5c0.1,0,0.2,0,0.3,0v0.3c-0.1,0-0.2,0.1-0.4,0.1
		c-0.2,0-0.4-0.1-0.5-0.2s-0.2-0.3-0.2-0.6v-1.3h-0.4V22h0.4v-0.6L82.3,21.3z"/>
	<path class="st2" d="M83.5,20.9H84v1.5l0,0c0.1-0.1,0.2-0.2,0.3-0.3c0.1-0.1,0.3-0.1,0.5-0.1c0.4,0,0.9,0.2,0.9,1v1.4h-0.5V23
		c0-0.4-0.2-0.7-0.6-0.7c-0.3,0-0.6,0.2-0.6,0.4c0,0.1,0,0.1,0,0.2v1.4h-0.5L83.5,20.9L83.5,20.9z"/>
	<path class="st2" d="M87.6,21c-0.4,0.5-0.7,1.1-0.7,2s0.3,1.5,0.7,2h-0.4c-0.3-0.4-0.7-1-0.7-2s0.4-1.6,0.7-2H87.6z"/>
	<path class="st2" d="M87.8,25c0.4-0.5,0.7-1.1,0.7-2s-0.3-1.5-0.7-2h0.4c0.4,0.4,0.7,1,0.7,2s-0.4,1.6-0.7,2H87.8z"/>
	<path class="st2" d="M89.4,25c0.1-0.3,0.3-0.8,0.3-1.2h0.5c-0.1,0.4-0.4,1-0.5,1.2H89.4z M89.6,22.4c0-0.2,0.1-0.3,0.3-0.3
		c0.2,0,0.3,0.1,0.3,0.3c0,0.2-0.1,0.3-0.3,0.3C89.7,22.7,89.6,22.6,89.6,22.4z"/>
	<path class="st2" d="M0.6,28l0.5,1.3c0.1,0.2,0.2,0.4,0.2,0.6l0,0c0.1-0.2,0.1-0.4,0.2-0.6L2.1,28h0.5l-1,2.4H1.1l-1-2.4
		C0.1,28,0.6,28,0.6,28z"/>
	<path class="st2" d="M4.5,30.4v-0.3l0,0c-0.1,0.2-0.4,0.4-0.8,0.4c-0.5,0-0.8-0.3-0.8-0.7c0-0.6,0.6-0.9,1.6-0.9l0,0
		c0-0.2-0.1-0.6-0.6-0.6c-0.2,0-0.5,0.1-0.7,0.2L3,28.1c0.2-0.1,0.5-0.2,0.9-0.2c0.8,0,1,0.5,1,1v0.9c0,0.2,0,0.4,0,0.6H4.5z
		 M4.4,29.1c-0.5,0-1.1,0.1-1.1,0.5c0,0.3,0.2,0.4,0.5,0.4s0.6-0.2,0.6-0.4v-0.1C4.4,29.6,4.4,29.1,4.4,29.1z"/>
	<path class="st2" d="M5.7,28.7c0-0.3,0-0.5,0-0.7h0.4v0.5l0,0C6.2,28.2,6.5,28,6.8,28c0.1,0,0.1,0,0.1,0v0.4c0,0-0.1,0-0.2,0
		c-0.3,0-0.6,0.2-0.6,0.6c0,0.1,0,0.1,0,0.2v1.3H5.7V28.7z"/>
	<path class="st2" d="M8.8,28l0.6,1.4c0.1,0.2,0.1,0.3,0.2,0.5l0,0c0-0.1,0.1-0.3,0.2-0.5l0.5-1.4h0.5L10,29.7
		c-0.3,0.8-0.6,1.2-0.9,1.5c-0.2,0.2-0.5,0.3-0.6,0.3l-0.1-0.4c0.1,0,0.3-0.1,0.4-0.2c0.1-0.1,0.3-0.3,0.4-0.5v-0.1v-0.1l-1-2.2
		C8.2,28,8.8,28,8.8,28z"/>
	<path class="st2" d="M11.4,29.3c0,0.6,0.4,0.8,0.9,0.8c0.3,0,0.6-0.1,0.7-0.1l0.1,0.3c-0.2,0.1-0.5,0.1-0.9,0.1
		c-0.8,0-1.3-0.5-1.3-1.2s0.5-1.3,1.2-1.3c0.9,0,1.1,0.7,1.1,1.1c0,0.1,0,0.2,0,0.2h-1.8V29.3z M12.8,28.9c0-0.3-0.1-0.7-0.7-0.7
		c-0.5,0-0.7,0.4-0.7,0.7H12.8z"/>
	<path class="st2" d="M15.4,30.4v-0.3l0,0c-0.1,0.2-0.4,0.4-0.8,0.4c-0.5,0-0.8-0.3-0.8-0.7c0-0.6,0.6-0.9,1.6-0.9l0,0
		c0-0.2-0.1-0.6-0.6-0.6c-0.2,0-0.5,0.1-0.7,0.2L14,28.2c0.2-0.1,0.5-0.2,0.9-0.2c0.8,0,1,0.5,1,1v0.9c0,0.2,0,0.4,0,0.6h-0.5V30.4z
		 M15.3,29.1c-0.5,0-1.1,0.1-1.1,0.5c0,0.3,0.2,0.4,0.5,0.4s0.6-0.2,0.6-0.4v-0.1V29.1z"/>
	<path class="st2" d="M16.5,28.7c0-0.3,0-0.5,0-0.7h0.4v0.5l0,0c0.1-0.3,0.4-0.5,0.7-0.5c0.1,0,0.1,0,0.1,0v0.4c0,0-0.1,0-0.2,0
		c-0.3,0-0.6,0.2-0.6,0.6c0,0.1,0,0.1,0,0.2v1.3h-0.5C16.5,30.4,16.5,28.7,16.5,28.7z"/>
	<path class="st2" d="M19.3,28.7v-0.3h2.8v0.3H19.3z M19.3,29.7v-0.3h2.8v0.3H19.3z"/>
	<path class="st2" d="M26.2,26.9v2.9c0,0.2,0,0.5,0,0.6h-0.4V30l0,0c-0.1,0.3-0.5,0.5-0.9,0.5c-0.6,0-1.1-0.5-1.1-1.2
		c0-0.8,0.5-1.3,1.2-1.3c0.4,0,0.7,0.2,0.8,0.4l0,0V27C25.7,26.9,26.2,26.9,26.2,26.9z M25.7,29c0-0.1,0-0.1,0-0.2
		c-0.1-0.3-0.3-0.5-0.7-0.5c-0.5,0-0.8,0.4-0.8,0.9s0.3,0.9,0.8,0.9c0.3,0,0.6-0.2,0.7-0.5c0-0.1,0-0.1,0-0.2V29L25.7,29z"/>
	<path class="st2" d="M28.5,30.4v-0.3l0,0c-0.1,0.2-0.4,0.4-0.8,0.4c-0.5,0-0.8-0.3-0.8-0.7c0-0.6,0.6-0.9,1.6-0.9l0,0
		c0-0.2-0.1-0.6-0.6-0.6c-0.2,0-0.5,0.1-0.7,0.2L27,28.1c0.2-0.1,0.5-0.2,0.9-0.2c0.8,0,1,0.5,1,1v0.9c0,0.2,0,0.4,0,0.6H28.5z
		 M28.4,29.1c-0.5,0-1.1,0.1-1.1,0.5c0,0.3,0.2,0.4,0.5,0.4s0.6-0.2,0.6-0.4v-0.1C28.4,29.6,28.4,29.1,28.4,29.1z"/>
	<path class="st2" d="M30.2,27.3V28h0.7v0.3h-0.7v1.3c0,0.3,0.1,0.5,0.4,0.5c0.1,0,0.2,0,0.3,0v0.3c-0.1,0-0.2,0.1-0.4,0.1
		c-0.2,0-0.4-0.1-0.5-0.2s-0.2-0.3-0.2-0.6v-1.3h-0.4V28h0.4v-0.6L30.2,27.3z"/>
	<path class="st2" d="M31.7,29.3c0,0.6,0.4,0.8,0.9,0.8c0.3,0,0.6-0.1,0.7-0.1l0.1,0.3c-0.2,0.1-0.5,0.1-0.9,0.1
		c-0.8,0-1.3-0.5-1.3-1.2s0.5-1.3,1.2-1.3c0.9,0,1.1,0.7,1.1,1.1c0,0.1,0,0.2,0,0.2h-1.8V29.3z M33.1,28.9c0-0.3-0.1-0.7-0.7-0.7
		c-0.5,0-0.7,0.4-0.7,0.7H33.1z"/>
	<path class="st2" d="M37.3,28.7c0,1.2-0.8,1.8-1.7,1.8c-1,0-1.7-0.7-1.7-1.7c0-1.1,0.7-1.8,1.7-1.8C36.7,27,37.3,27.7,37.3,28.7z
		 M34.5,28.7c0,0.7,0.4,1.4,1.2,1.4s1.2-0.6,1.2-1.4c0-0.7-0.4-1.4-1.2-1.4C34.9,27.3,34.5,28,34.5,28.7z"/>
	<path class="st2" d="M38.1,30.4v-2.1h-0.4V28h0.4v-0.1c0-0.3,0.1-0.6,0.3-0.8c0.2-0.2,0.4-0.2,0.6-0.2c0.2,0,0.3,0,0.4,0.1
		l-0.1,0.3c-0.1,0-0.2-0.1-0.3-0.1c-0.4,0-0.5,0.3-0.5,0.7V28h0.6v0.3h-0.6v2.1H38.1z"/>
	<path class="st2" d="M40.3,27.4h-1.1V27H42v0.4h-1.1v3h-0.5C40.3,30.4,40.3,27.4,40.3,27.4z"/>
	<path class="st2" d="M42.3,26.9h0.5v1.5l0,0c0.1-0.1,0.2-0.2,0.3-0.3c0.1-0.1,0.3-0.1,0.5-0.1c0.4,0,0.9,0.2,0.9,1v1.4H44V29
		c0-0.4-0.2-0.7-0.6-0.7c-0.3,0-0.6,0.2-0.6,0.4c0,0.1,0,0.1,0,0.2v1.4h-0.5C42.3,30.4,42.3,26.9,42.3,26.9z"/>
	<path class="st2" d="M45.6,29.3c0,0.6,0.4,0.8,0.9,0.8c0.3,0,0.6-0.1,0.7-0.1l0.1,0.3c-0.2,0.1-0.5,0.1-0.9,0.1
		c-0.8,0-1.3-0.5-1.3-1.2s0.5-1.3,1.2-1.3c0.9,0,1.1,0.7,1.1,1.1c0,0.1,0,0.2,0,0.2h-1.8V29.3z M47,28.9c0-0.3-0.1-0.7-0.7-0.7
		c-0.5,0-0.7,0.4-0.7,0.7H47z"/>
	<path class="st2" d="M56.6,30.1c0-0.2,0.1-0.3,0.3-0.3s0.3,0.1,0.3,0.3c0,0.2-0.1,0.3-0.3,0.3C56.7,30.4,56.6,30.3,56.6,30.1z"/>
	<path class="st2" d="M74.4,30.4V29l-1.2-2h0.5l0.5,0.9c0.1,0.3,0.3,0.5,0.4,0.7l0,0c0.1-0.2,0.2-0.4,0.4-0.7l0.5-0.9H76l-1.1,2v1.4
		H74.4z"/>
	<path class="st2" d="M76.4,29.3c0,0.6,0.4,0.8,0.9,0.8c0.3,0,0.6-0.1,0.7-0.1l0.1,0.3c-0.2,0.1-0.5,0.1-0.9,0.1
		c-0.8,0-1.3-0.5-1.3-1.2s0.5-1.3,1.2-1.3c0.9,0,1.1,0.7,1.1,1.1c0,0.1,0,0.2,0,0.2h-1.8V29.3z M77.8,28.9c0-0.3-0.1-0.7-0.7-0.7
		c-0.5,0-0.7,0.4-0.7,0.7H77.8z"/>
	<path class="st2" d="M80.3,30.4v-0.3l0,0c-0.1,0.2-0.4,0.4-0.8,0.4c-0.5,0-0.8-0.3-0.8-0.7c0-0.6,0.6-0.9,1.6-0.9l0,0
		c0-0.2-0.1-0.6-0.6-0.6c-0.2,0-0.5,0.1-0.7,0.2l-0.1-0.3c0.2-0.1,0.5-0.2,0.9-0.2c0.8,0,1,0.5,1,1v0.9c0,0.2,0,0.4,0,0.6h-0.5V30.4
		z M80.3,29.1c-0.5,0-1.1,0.1-1.1,0.5c0,0.3,0.2,0.4,0.5,0.4s0.6-0.2,0.6-0.4v-0.1V29.1z"/>
	<path class="st2" d="M81.5,28.7c0-0.3,0-0.5,0-0.7h0.4v0.5l0,0c0.1-0.3,0.4-0.5,0.7-0.5c0.1,0,0.1,0,0.1,0v0.4c0,0-0.1,0-0.2,0
		c-0.3,0-0.6,0.2-0.6,0.6c0,0.1,0,0.1,0,0.2v1.3h-0.5L81.5,28.7L81.5,28.7z"/>
	<path class="st2" d="M84.4,26.9c-0.4,0.5-0.7,1.1-0.7,2s0.3,1.5,0.7,2H84c-0.3-0.4-0.7-1-0.7-2s0.4-1.6,0.7-2H84.4z"/>
	<path class="st2" d="M84.6,31c0.4-0.5,0.7-1.1,0.7-2s-0.3-1.5-0.7-2H85c0.4,0.4,0.7,1,0.7,2s-0.4,1.6-0.7,2H84.6z"/>
	<path class="st2" d="M86.1,31c0.1-0.3,0.3-0.8,0.3-1.2h0.5c-0.1,0.4-0.4,1-0.5,1.2H86.1z M86.4,28.4c0-0.2,0.1-0.3,0.3-0.3
		c0.2,0,0.3,0.1,0.3,0.3c0,0.2-0.1,0.3-0.3,0.3C86.5,28.7,86.4,28.5,86.4,28.4z"/>
	<path class="st2" d="M0.6,39.9l0.5,1.3c0.1,0.2,0.2,0.4,0.2,0.6l0,0c0.1-0.2,0.1-0.4,0.2-0.6L2,39.9h0.5l-1,2.4H1.1l-1-2.4H0.6z"/>
	<path class="st2" d="M4.5,42.3V42l0,0c-0.1,0.2-0.4,0.4-0.8,0.4c-0.5,0-0.8-0.3-0.8-0.7c0-0.6,0.6-0.9,1.6-0.9l0,0
		c0-0.2-0.1-0.6-0.6-0.6c-0.2,0-0.5,0.1-0.7,0.2L3,40c0.2-0.1,0.5-0.2,0.9-0.2c0.8,0,1,0.5,1,1v0.9c0,0.2,0,0.4,0,0.6H4.5L4.5,42.3z
		 M4.4,41c-0.5,0-1.1,0.1-1.1,0.5c0,0.3,0.2,0.4,0.5,0.4s0.6-0.2,0.6-0.4v-0.1C4.4,41.5,4.4,41,4.4,41z"/>
	<path class="st2" d="M5.7,40.6c0-0.3,0-0.5,0-0.7h0.4v0.5l0,0c0.1-0.3,0.4-0.5,0.7-0.5c0.1,0,0.1,0,0.1,0v0.4c0,0-0.1,0-0.2,0
		c-0.3,0-0.6,0.2-0.6,0.6c0,0.1,0,0.1,0,0.2v1.3H5.7V40.6z"/>
	<path class="st2" d="M8.6,38.8h0.5v1.5l0,0c0.1-0.1,0.2-0.2,0.3-0.3s0.3-0.1,0.5-0.1c0.4,0,0.9,0.2,0.9,1v1.4h-0.5v-1.4
		c0-0.4-0.2-0.7-0.6-0.7c-0.3,0-0.6,0.2-0.6,0.4c0,0.1,0,0.1,0,0.2v1.4H8.6V38.8z"/>
	<path class="st2" d="M14.1,41.1c0,0.9-0.7,1.3-1.3,1.3c-0.7,0-1.3-0.5-1.3-1.2c0-0.8,0.6-1.3,1.3-1.3
		C13.5,39.8,14.1,40.3,14.1,41.1z M12,41.1c0,0.5,0.3,0.9,0.8,0.9s0.8-0.4,0.8-0.9c0-0.4-0.2-0.9-0.8-0.9C12.2,40.1,12,40.6,12,41.1
		z"/>
	<path class="st2" d="M16.9,41.6c0,0.2,0,0.5,0,0.7h-0.4v-0.4l0,0c-0.1,0.2-0.4,0.4-0.9,0.4c-0.4,0-0.9-0.2-0.9-1.1v-1.4h0.5v1.3
		c0,0.5,0.2,0.8,0.6,0.8c0.3,0,0.5-0.2,0.6-0.4c0-0.1,0-0.1,0-0.2v-1.5h0.5L16.9,41.6L16.9,41.6z"/>
	<path class="st2" d="M17.7,40.6c0-0.3,0-0.5,0-0.7h0.4v0.5l0,0c0.1-0.3,0.4-0.5,0.7-0.5c0.1,0,0.1,0,0.1,0v0.4c0,0-0.1,0-0.2,0
		c-0.3,0-0.6,0.2-0.6,0.6c0,0.1,0,0.1,0,0.2v1.3h-0.5C17.7,42.3,17.7,40.6,17.7,40.6z"/>
	<path class="st2" d="M20.5,40.6v-0.3h2.8v0.3H20.5z M20.5,41.6v-0.3h2.8v0.3H20.5z"/>
	<path class="st2" d="M27.4,38.8v2.9c0,0.2,0,0.5,0,0.6H27v-0.4l0,0c-0.1,0.3-0.5,0.5-0.9,0.5c-0.6,0-1.1-0.5-1.1-1.2
		c0-0.8,0.5-1.3,1.2-1.3c0.4,0,0.7,0.2,0.8,0.4l0,0v-1.4L27.4,38.8L27.4,38.8z M26.9,40.8c0-0.1,0-0.1,0-0.2
		c-0.1-0.3-0.3-0.5-0.7-0.5c-0.5,0-0.8,0.4-0.8,0.9s0.3,0.9,0.8,0.9c0.3,0,0.6-0.2,0.7-0.5c0-0.1,0-0.1,0-0.2V40.8L26.9,40.8z"/>
	<path class="st2" d="M29.6,42.3V42l0,0c-0.1,0.2-0.4,0.4-0.8,0.4c-0.5,0-0.8-0.3-0.8-0.7c0-0.6,0.6-0.9,1.6-0.9l0,0
		c0-0.2-0.1-0.6-0.6-0.6c-0.2,0-0.5,0.1-0.7,0.2L28.2,40c0.2-0.1,0.5-0.2,0.9-0.2c0.8,0,1,0.5,1,1v0.9c0,0.2,0,0.4,0,0.6H29.6
		L29.6,42.3z M29.6,41c-0.5,0-1.1,0.1-1.1,0.5c0,0.3,0.2,0.4,0.5,0.4s0.6-0.2,0.6-0.4v-0.1C29.6,41.5,29.6,41,29.6,41z"/>
	<path class="st2" d="M31.4,39.2v0.7h0.7v0.3h-0.7v1.3c0,0.3,0.1,0.5,0.4,0.5c0.1,0,0.2,0,0.3,0v0.3c-0.1,0-0.2,0.1-0.4,0.1
		c-0.2,0-0.4-0.1-0.5-0.2c-0.1-0.1-0.2-0.3-0.2-0.6v-1.3h-0.4V40H31v-0.6L31.4,39.2z"/>
	<path class="st2" d="M32.8,41.2c0,0.6,0.4,0.8,0.9,0.8c0.3,0,0.6-0.1,0.7-0.1l0.1,0.3c-0.2,0.1-0.5,0.1-0.9,0.1
		c-0.8,0-1.3-0.5-1.3-1.2s0.5-1.3,1.2-1.3c0.9,0,1.1,0.7,1.1,1.1c0,0.1,0,0.2,0,0.2h-1.8V41.2z M34.3,40.8c0-0.3-0.1-0.7-0.7-0.7
		c-0.5,0-0.7,0.4-0.7,0.7H34.3z"/>
	<path class="st2" d="M38.5,40.6c0,1.2-0.8,1.8-1.7,1.8c-1,0-1.7-0.7-1.7-1.7c0-1.1,0.7-1.8,1.7-1.8C37.8,38.9,38.5,39.6,38.5,40.6z
		 M35.6,40.6c0,0.7,0.4,1.4,1.2,1.4s1.2-0.6,1.2-1.4c0-0.7-0.4-1.4-1.2-1.4C36,39.2,35.6,39.9,35.6,40.6z"/>
	<path class="st2" d="M39.2,42.3v-2.1h-0.4v-0.3h0.4v-0.1c0-0.3,0.1-0.6,0.3-0.8s0.4-0.2,0.6-0.2c0.2,0,0.3,0,0.4,0.1l-0.1,0.3
		c-0.1,0-0.2-0.1-0.3-0.1c-0.4,0-0.5,0.3-0.5,0.7v0.1h0.6v0.3h-0.6v2.1C39.7,42.3,39.2,42.3,39.2,42.3z"/>
	<path class="st2" d="M41.5,39.3h-1.1v-0.4h2.7v0.4H42v3h-0.5V39.3z"/>
	<path class="st2" d="M57.8,42c0-0.2,0.1-0.3,0.3-0.3s0.3,0.1,0.3,0.3s-0.1,0.3-0.3,0.3C57.9,42.3,57.8,42.2,57.8,42z"/>
	<path class="st2" d="M81.3,38.8c-0.4,0.5-0.7,1.1-0.7,2s0.3,1.5,0.7,2h-0.4c-0.3-0.4-0.7-1-0.7-2s0.4-1.6,0.7-2H81.3z"/>
	<path class="st2" d="M81.5,42.9c0.4-0.5,0.7-1.1,0.7-2s-0.3-1.5-0.7-2h0.4c0.4,0.4,0.7,1,0.7,2s-0.4,1.6-0.7,2H81.5z"/>
	<path class="st2" d="M83,42.9c0.1-0.3,0.3-0.8,0.3-1.2h0.5c-0.1,0.4-0.4,1-0.5,1.2H83z M83.3,40.3c0-0.2,0.1-0.3,0.3-0.3
		c0.2,0,0.3,0.1,0.3,0.3s-0.1,0.3-0.3,0.3S83.3,40.4,83.3,40.3z"/>
	<path class="st2" d="M0.6,45.8l0.5,1.3c0.1,0.2,0.2,0.4,0.2,0.6l0,0c0.1-0.2,0.1-0.4,0.2-0.6L2,45.8h0.5l-1,2.4H1.1l-1-2.4H0.6z"/>
	<path class="st2" d="M4.5,48.2v-0.3l0,0c-0.1,0.2-0.4,0.4-0.8,0.4c-0.5,0-0.8-0.3-0.8-0.7c0-0.6,0.6-0.9,1.6-0.9l0,0
		c0-0.2-0.1-0.6-0.6-0.6c-0.2,0-0.5,0.1-0.7,0.2L3,46c0.2-0.1,0.5-0.2,0.9-0.2c0.8,0,1,0.5,1,1v0.9c0,0.2,0,0.4,0,0.6L4.5,48.2
		L4.5,48.2z M4.4,47c-0.5,0-1.1,0.1-1.1,0.5c0,0.3,0.2,0.4,0.5,0.4s0.6-0.2,0.6-0.4v-0.1V47z"/>
	<path class="st2" d="M5.7,46.6c0-0.3,0-0.5,0-0.7h0.4v0.5l0,0c0.1-0.3,0.4-0.5,0.7-0.5c0.1,0,0.1,0,0.1,0v0.4c0,0-0.1,0-0.2,0
		c-0.3,0-0.6,0.2-0.6,0.6c0,0.1,0,0.1,0,0.2v1.3H5.7V46.6z"/>
	<path class="st2" d="M8.6,46.5c0-0.2,0-0.5,0-0.7H9v0.4l0,0c0.1-0.2,0.4-0.4,0.8-0.4c0.4,0,0.6,0.2,0.8,0.5l0,0
		c0.1-0.1,0.2-0.2,0.3-0.3c0.2-0.1,0.3-0.2,0.6-0.2c0.4,0,0.9,0.2,0.9,1v1.4h-0.5v-1.4c0-0.5-0.2-0.7-0.6-0.7
		c-0.3,0-0.5,0.2-0.6,0.4c0,0.1,0,0.1,0,0.2v1.5h-0.5v-1.4c0-0.4-0.2-0.7-0.6-0.7c-0.3,0-0.5,0.2-0.6,0.4c0,0.1,0,0.1,0,0.2v1.4H8.6
		V46.5z"/>
	<path class="st2" d="M13.7,45.1c0,0.1-0.1,0.3-0.3,0.3s-0.3-0.1-0.3-0.3s0.1-0.3,0.3-0.3C13.6,44.9,13.7,45,13.7,45.1z M13.2,48.2
		v-2.4h0.5v2.4H13.2z"/>
	<path class="st2" d="M14.5,46.5c0-0.2,0-0.5,0-0.7h0.4v0.4l0,0c0.1-0.2,0.4-0.5,0.9-0.5c0.4,0,0.9,0.2,0.9,1v1.4h-0.5v-1.4
		c0-0.4-0.2-0.7-0.6-0.7c-0.3,0-0.6,0.2-0.6,0.4c0,0.1,0,0.1,0,0.2V48h-0.5C14.5,48.2,14.5,46.5,14.5,46.5z"/>
	<path class="st2" d="M19.7,47.6c0,0.2,0,0.5,0,0.7h-0.4v-0.4l0,0c-0.1,0.2-0.4,0.4-0.9,0.4c-0.4,0-0.9-0.2-0.9-1.1v-1.4H18v1.3
		c0,0.5,0.2,0.8,0.6,0.8c0.3,0,0.5-0.2,0.6-0.4c0-0.1,0-0.1,0-0.2v-1.5h0.5V47.6L19.7,47.6z"/>
	<path class="st2" d="M21.1,45.1v0.7h0.7v0.3h-0.7v1.3c0,0.3,0.1,0.5,0.4,0.5c0.1,0,0.2,0,0.3,0v0.3c-0.1,0-0.2,0.1-0.4,0.1
		c-0.2,0-0.4-0.1-0.5-0.2c-0.1-0.1-0.2-0.3-0.2-0.6v-1.3h-0.4v-0.3h0.4v-0.6L21.1,45.1z"/>
	<path class="st2" d="M22.6,47.1c0,0.6,0.4,0.8,0.9,0.8c0.3,0,0.6-0.1,0.7-0.1l0.1,0.3c-0.2,0.1-0.5,0.1-0.9,0.1
		c-0.8,0-1.3-0.5-1.3-1.2s0.5-1.3,1.2-1.3c0.9,0,1.1,0.7,1.1,1.1c0,0.1,0,0.2,0,0.2h-1.8V47.1z M24,46.8c0-0.3-0.1-0.7-0.7-0.7
		c-0.5,0-0.7,0.4-0.7,0.7H24z"/>
	<path class="st2" d="M26,46.5v-0.3h2.8v0.3H26z M26,47.5v-0.3h2.8v0.3H26z"/>
	<path class="st2" d="M33,44.7v2.9c0,0.2,0,0.5,0,0.6h-0.4v-0.4l0,0c-0.1,0.3-0.5,0.5-0.9,0.5c-0.6,0-1.1-0.5-1.1-1.2
		c0-0.8,0.5-1.3,1.2-1.3c0.4,0,0.7,0.2,0.8,0.4l0,0v-1.4C32.5,44.7,33,44.7,33,44.7z M32.5,46.8c0-0.1,0-0.1,0-0.2
		c-0.1-0.3-0.3-0.5-0.7-0.5c-0.5,0-0.8,0.4-0.8,0.9s0.3,0.9,0.8,0.9c0.3,0,0.6-0.2,0.7-0.5c0-0.1,0-0.1,0-0.2V46.8z"/>
	<path class="st2" d="M35.2,48.2v-0.3l0,0c-0.1,0.2-0.4,0.4-0.8,0.4c-0.5,0-0.8-0.3-0.8-0.7c0-0.6,0.6-0.9,1.6-0.9l0,0
		c0-0.2-0.1-0.6-0.6-0.6c-0.2,0-0.5,0.1-0.7,0.2L33.7,46c0.2-0.1,0.5-0.2,0.9-0.2c0.8,0,1,0.5,1,1v0.9c0,0.2,0,0.4,0,0.6L35.2,48.2
		L35.2,48.2z M35.2,47c-0.5,0-1.1,0.1-1.1,0.5c0,0.3,0.2,0.4,0.5,0.4s0.6-0.2,0.6-0.4v-0.1V47z"/>
	<path class="st2" d="M37,45.1v0.7h0.7v0.3H37v1.3c0,0.3,0.1,0.5,0.4,0.5c0.1,0,0.2,0,0.3,0v0.3c-0.1,0-0.2,0.1-0.4,0.1
		s-0.4-0.1-0.5-0.2c-0.1-0.1-0.2-0.3-0.2-0.6v-1.3h-0.4v-0.3h0.4v-0.6L37,45.1z"/>
	<path class="st2" d="M38.4,47.1c0,0.6,0.4,0.8,0.9,0.8c0.3,0,0.6-0.1,0.7-0.1l0.1,0.3c-0.2,0.1-0.5,0.1-0.9,0.1
		c-0.8,0-1.3-0.5-1.3-1.2s0.5-1.3,1.2-1.3c0.9,0,1.1,0.7,1.1,1.1c0,0.1,0,0.2,0,0.2h-1.8V47.1z M39.8,46.8c0-0.3-0.1-0.7-0.7-0.7
		c-0.5,0-0.7,0.4-0.7,0.7H39.8z"/>
	<path class="st2" d="M63.4,48c0-0.2,0.1-0.3,0.3-0.3S64,47.8,64,48s-0.1,0.3-0.3,0.3S63.4,48.1,63.4,48z"/>
	<path class="st2" d="M77.2,45.1c0,0.1-0.1,0.3-0.3,0.3c-0.2,0-0.3-0.1-0.3-0.3s0.1-0.3,0.3-0.3C77.1,44.9,77.2,45,77.2,45.1z
		 M76.7,48.2v-2.4h0.5v2.4H76.7z"/>
	<path class="st2" d="M84.6,45.1v0.7h0.7v0.3h-0.7v1.3c0,0.3,0.1,0.5,0.4,0.5c0.1,0,0.2,0,0.3,0v0.3c-0.1,0-0.2,0.1-0.4,0.1
		c-0.2,0-0.4-0.1-0.5-0.2c-0.1-0.1-0.2-0.3-0.2-0.6v-1.3h-0.4v-0.3h0.4v-0.6L84.6,45.1z"/>
	<path class="st2" d="M86.1,47.1c0,0.6,0.4,0.8,0.9,0.8c0.3,0,0.6-0.1,0.7-0.1l0.1,0.3c-0.2,0.1-0.5,0.1-0.9,0.1
		c-0.8,0-1.3-0.5-1.3-1.2s0.5-1.3,1.2-1.3c0.9,0,1.1,0.7,1.1,1.1c0,0.1,0,0.2,0,0.2h-1.8V47.1z M87.5,46.8c0-0.3-0.1-0.7-0.7-0.7
		c-0.5,0-0.7,0.4-0.7,0.7H87.5z"/>
	<path class="st2" d="M88.5,47.8c0.1,0.1,0.4,0.2,0.6,0.2c0.4,0,0.5-0.2,0.5-0.4s-0.1-0.3-0.5-0.4c-0.5-0.2-0.7-0.4-0.7-0.7
		c0-0.4,0.3-0.7,0.9-0.7c0.3,0,0.5,0.1,0.7,0.1l-0.1,0.3c-0.1-0.1-0.3-0.1-0.5-0.1c-0.3,0-0.4,0.1-0.4,0.3s0.2,0.3,0.5,0.4
		c0.5,0.2,0.7,0.4,0.7,0.7c0,0.4-0.4,0.7-1,0.7c-0.3,0-0.6-0.1-0.7-0.2V47.8z"/>
	<path class="st2" d="M91.8,44.8c-0.4,0.5-0.7,1.1-0.7,2s0.3,1.5,0.7,2h-0.4c-0.3-0.4-0.7-1-0.7-2s0.4-1.6,0.7-2H91.8z"/>
	<path class="st2" d="M92,48.8c0.4-0.5,0.7-1.1,0.7-2s-0.3-1.5-0.7-2h0.4c0.4,0.4,0.7,1,0.7,2s-0.4,1.6-0.7,2H92z"/>
	<path class="st2" d="M93.6,48.8c0.1-0.3,0.3-0.8,0.3-1.2h0.5c-0.1,0.4-0.4,1-0.5,1.2H93.6z M93.8,46.2c0-0.2,0.1-0.3,0.3-0.3
		c0.2,0,0.3,0.1,0.3,0.3s-0.1,0.3-0.3,0.3S93.8,46.4,93.8,46.2z"/>
	<path class="st2" d="M0.6,51.8l0.5,1.3c0.1,0.2,0.2,0.4,0.2,0.6l0,0c0.1-0.2,0.1-0.4,0.2-0.6L2,51.8h0.5l-1,2.4H1.1l-1-2.4H0.6z"/>
	<path class="st2" d="M4.5,54.2v-0.3l0,0c-0.1,0.2-0.4,0.4-0.8,0.4c-0.5,0-0.8-0.3-0.8-0.7c0-0.6,0.6-0.9,1.6-0.9l0,0
		c0-0.2-0.1-0.6-0.6-0.6c-0.2,0-0.5,0.1-0.7,0.2L3,51.9c0.2-0.1,0.5-0.2,0.9-0.2c0.8,0,1,0.5,1,1v0.9c0,0.2,0,0.4,0,0.6H4.5
		L4.5,54.2z M4.4,52.9c-0.5,0-1.1,0.1-1.1,0.5c0,0.3,0.2,0.4,0.5,0.4s0.6-0.2,0.6-0.4v-0.1C4.4,53.4,4.4,52.9,4.4,52.9z"/>
	<path class="st2" d="M5.7,52.5c0-0.3,0-0.5,0-0.7h0.4v0.5l0,0c0.1-0.3,0.4-0.5,0.7-0.5c0.1,0,0.1,0,0.1,0v0.4c0,0-0.1,0-0.2,0
		c-0.3,0-0.6,0.2-0.6,0.6c0,0.1,0,0.1,0,0.2v1.3H5.7V52.5z"/>
	<path class="st2" d="M8.6,53.7c0.1,0.1,0.4,0.2,0.6,0.2c0.4,0,0.5-0.2,0.5-0.4s-0.1-0.3-0.5-0.4c-0.5-0.2-0.7-0.4-0.7-0.7
		c0-0.4,0.3-0.7,0.9-0.7c0.3,0,0.5,0.1,0.7,0.1L10,52.2C9.9,52.1,9.7,52,9.4,52C9.1,52,9,52.2,9,52.4s0.2,0.3,0.5,0.4
		c0.5,0.2,0.7,0.4,0.7,0.7c0,0.4-0.4,0.7-1,0.7c-0.3,0-0.6-0.1-0.7-0.2L8.6,53.7z"/>
	<path class="st2" d="M11.1,53c0,0.6,0.4,0.8,0.9,0.8c0.3,0,0.6-0.1,0.7-0.1l0.1,0.3c-0.2,0.1-0.5,0.1-0.9,0.1
		c-0.8,0-1.3-0.5-1.3-1.2s0.5-1.3,1.2-1.3c0.9,0,1.1,0.7,1.1,1.1c0,0.1,0,0.2,0,0.2h-1.8V53z M12.5,52.7c0-0.3-0.1-0.7-0.7-0.7
		c-0.5,0-0.7,0.4-0.7,0.7H12.5z"/>
	<path class="st2" d="M15.4,54.1c-0.1,0.1-0.4,0.1-0.8,0.1c-0.8,0-1.3-0.5-1.3-1.2s0.6-1.3,1.4-1.3c0.3,0,0.5,0.1,0.7,0.1l-0.1,0.3
		C15.2,52,15,52,14.7,52c-0.6,0-0.9,0.4-0.9,0.9c0,0.6,0.4,0.9,0.9,0.9c0.3,0,0.5-0.1,0.6-0.1L15.4,54.1z"/>
	<path class="st2" d="M18.4,52.9c0,0.9-0.7,1.3-1.3,1.3c-0.7,0-1.3-0.5-1.3-1.2c0-0.8,0.6-1.3,1.3-1.3
		C17.8,51.7,18.4,52.2,18.4,52.9z M16.3,53c0,0.5,0.3,0.9,0.8,0.9s0.8-0.4,0.8-0.9c0-0.4-0.2-0.9-0.8-0.9S16.3,52.5,16.3,53z"/>
	<path class="st2" d="M19,52.4c0-0.2,0-0.5,0-0.7h0.4v0.4l0,0c0.1-0.2,0.4-0.5,0.9-0.5c0.4,0,0.9,0.2,0.9,1V54h-0.5v-1.4
		c0-0.4-0.2-0.7-0.6-0.7c-0.3,0-0.6,0.2-0.6,0.4c0,0.1,0,0.1,0,0.2v1.4H19V52.4L19,52.4z"/>
	<path class="st2" d="M24.3,50.6v2.9c0,0.2,0,0.5,0,0.6h-0.4v-0.4l0,0c-0.1,0.3-0.5,0.5-0.9,0.5c-0.6,0-1.1-0.5-1.1-1.2
		c0-0.8,0.5-1.3,1.2-1.3c0.4,0,0.7,0.2,0.8,0.4l0,0v-1.4L24.3,50.6L24.3,50.6z M23.8,52.7c0-0.1,0-0.1,0-0.2
		c-0.1-0.3-0.3-0.5-0.7-0.5c-0.5,0-0.8,0.4-0.8,0.9s0.3,0.9,0.8,0.9c0.3,0,0.6-0.2,0.7-0.5c0-0.1,0-0.1,0-0.2
		C23.8,53.2,23.8,52.7,23.8,52.7z"/>
	<path class="st2" d="M26.1,52.5v-0.3h2.8v0.3H26.1L26.1,52.5z M26.1,53.5v-0.3h2.8v0.3H26.1z"/>
	<path class="st2" d="M33,50.6v2.9c0,0.2,0,0.5,0,0.6h-0.4v-0.4l0,0c-0.1,0.3-0.5,0.5-0.9,0.5c-0.6,0-1.1-0.5-1.1-1.2
		c0-0.8,0.5-1.3,1.2-1.3c0.4,0,0.7,0.2,0.8,0.4l0,0v-1.4L33,50.6L33,50.6z M32.5,52.7c0-0.1,0-0.1,0-0.2c-0.1-0.3-0.3-0.5-0.7-0.5
		c-0.5,0-0.8,0.4-0.8,0.9s0.3,0.9,0.8,0.9c0.3,0,0.6-0.2,0.7-0.5c0-0.1,0-0.1,0-0.2V52.7L32.5,52.7z"/>
	<path class="st2" d="M35.3,54.2v-0.3l0,0c-0.1,0.2-0.4,0.4-0.8,0.4c-0.5,0-0.8-0.3-0.8-0.7c0-0.6,0.6-0.9,1.6-0.9l0,0
		c0-0.2-0.1-0.6-0.6-0.6c-0.2,0-0.5,0.1-0.7,0.2L33.9,52c0.2-0.1,0.5-0.2,0.9-0.2c0.8,0,1,0.5,1,1v0.9c0,0.2,0,0.4,0,0.6L35.3,54.2
		L35.3,54.2z M35.2,52.9c-0.5,0-1.1,0.1-1.1,0.5c0,0.3,0.2,0.4,0.5,0.4s0.6-0.2,0.6-0.4v-0.1V52.9z"/>
	<path class="st2" d="M37,51.1v0.7h0.7v0.3H37v1.3c0,0.3,0.1,0.5,0.4,0.5c0.1,0,0.2,0,0.3,0v0.3c-0.1,0-0.2,0.1-0.4,0.1
		s-0.4-0.1-0.5-0.2c-0.1-0.1-0.2-0.3-0.2-0.6v-1.3h-0.4v-0.3h0.4v-0.6L37,51.1z"/>
	<path class="st2" d="M38.5,53c0,0.6,0.4,0.8,0.9,0.8c0.3,0,0.6-0.1,0.7-0.1l0.1,0.3c-0.2,0.1-0.5,0.1-0.9,0.1
		c-0.8,0-1.3-0.5-1.3-1.2s0.5-1.3,1.2-1.3c0.9,0,1.1,0.7,1.1,1.1c0,0.1,0,0.2,0,0.2h-1.8V53z M39.9,52.7c0-0.3-0.1-0.7-0.7-0.7
		c-0.5,0-0.7,0.4-0.7,0.7H39.9z"/>
	<path class="st2" d="M63.4,53.9c0-0.2,0.1-0.3,0.3-0.3s0.3,0.1,0.3,0.3s-0.1,0.3-0.3,0.3S63.4,54.1,63.4,53.9z"/>
	<path class="st2" d="M82.6,52.9c0,0.9-0.7,1.3-1.3,1.3c-0.7,0-1.3-0.5-1.3-1.2c0-0.8,0.6-1.3,1.3-1.3
		C82.1,51.7,82.6,52.2,82.6,52.9z M80.5,53c0,0.5,0.3,0.9,0.8,0.9s0.8-0.4,0.8-0.9c0-0.4-0.2-0.9-0.8-0.9C80.7,52,80.5,52.5,80.5,53
		z"/>
	<path class="st2" d="M83.2,52.4c0-0.2,0-0.5,0-0.7h0.4v0.4l0,0c0.1-0.2,0.4-0.5,0.9-0.5c0.4,0,0.9,0.2,0.9,1V54H85v-1.4
		c0-0.4-0.2-0.7-0.6-0.7c-0.3,0-0.6,0.2-0.6,0.4c0,0.1,0,0.1,0,0.2v1.4h-0.5L83.2,52.4L83.2,52.4z"/>
	<path class="st2" d="M88.5,50.6v2.9c0,0.2,0,0.5,0,0.6h-0.4v-0.4l0,0c-0.1,0.3-0.5,0.5-0.9,0.5c-0.6,0-1.1-0.5-1.1-1.2
		c0-0.8,0.5-1.3,1.2-1.3c0.4,0,0.7,0.2,0.8,0.4l0,0v-1.4L88.5,50.6L88.5,50.6z M88,52.7c0-0.1,0-0.1,0-0.2c-0.1-0.3-0.3-0.5-0.7-0.5
		c-0.5,0-0.8,0.4-0.8,0.9s0.3,0.9,0.8,0.9c0.3,0,0.6-0.2,0.7-0.5c0-0.1,0-0.1,0-0.2V52.7z"/>
	<path class="st2" d="M89.3,53.7c0.1,0.1,0.4,0.2,0.6,0.2c0.4,0,0.5-0.2,0.5-0.4s-0.1-0.3-0.5-0.4c-0.5-0.2-0.7-0.4-0.7-0.7
		c0-0.4,0.3-0.7,0.9-0.7c0.3,0,0.5,0.1,0.7,0.1l-0.1,0.3C90.6,52,90.4,52,90.2,52c-0.3,0-0.4,0.1-0.4,0.3s0.2,0.3,0.5,0.4
		c0.5,0.2,0.7,0.4,0.7,0.7c0,0.4-0.4,0.7-1,0.7c-0.3,0-0.6-0.1-0.7-0.2V53.7z"/>
	<path class="st2" d="M92.5,50.7c-0.4,0.5-0.7,1.1-0.7,2s0.3,1.5,0.7,2h-0.4c-0.3-0.4-0.7-1-0.7-2s0.4-1.6,0.7-2H92.5z"/>
	<path class="st2" d="M92.8,54.8c0.4-0.5,0.7-1.1,0.7-2s-0.3-1.5-0.7-2h0.4c0.4,0.4,0.7,1,0.7,2s-0.4,1.6-0.7,2H92.8z"/>
	<path class="st2" d="M94.3,54.8c0.1-0.3,0.3-0.8,0.3-1.2h0.5c-0.1,0.4-0.4,1-0.5,1.2H94.3z M94.5,52.2c0-0.2,0.1-0.3,0.3-0.3
		c0.2,0,0.3,0.1,0.3,0.3s-0.1,0.3-0.3,0.3C94.7,52.5,94.5,52.3,94.5,52.2z"/>
	<path class="st2" d="M5.6,57c0,0.1-0.1,0.3-0.3,0.3C5.1,57.3,5,57.2,5,57s0.1-0.3,0.3-0.3C5.5,56.8,5.6,56.9,5.6,57z M5.1,60.1
		v-2.4h0.5v2.4H5.1z"/>
	<path class="st2" d="M6.4,60.1V58H6v-0.3h0.4v-0.1c0-0.3,0.1-0.6,0.3-0.8c0.2-0.2,0.4-0.2,0.6-0.2s0.3,0,0.4,0.1L7.6,57
		c-0.1,0-0.2-0.1-0.3-0.1c-0.4,0-0.5,0.3-0.5,0.7v0.1h0.6V58H6.9v2.1H6.4L6.4,60.1z"/>
	<path class="st2" d="M10.1,56.7c-0.4,0.5-0.7,1.1-0.7,2s0.3,1.5,0.7,2H9.8c-0.3-0.4-0.7-1-0.7-2s0.4-1.6,0.7-2H10.1z"/>
	<path class="st2" d="M12.9,56.6v2.9c0,0.2,0,0.5,0,0.6h-0.4v-0.4l0,0c-0.1,0.3-0.5,0.5-0.9,0.5c-0.6,0-1.1-0.5-1.1-1.2
		c0-0.8,0.5-1.3,1.2-1.3c0.4,0,0.7,0.2,0.8,0.4l0,0v-1.4L12.9,56.6L12.9,56.6z M12.5,58.7c0-0.1,0-0.1,0-0.2
		c-0.1-0.3-0.3-0.5-0.7-0.5c-0.5,0-0.8,0.4-0.8,0.9s0.3,0.9,0.8,0.9c0.3,0,0.6-0.2,0.7-0.5c0-0.1,0-0.1,0-0.2V58.7L12.5,58.7z"/>
	<path class="st2" d="M15.2,60.1v-0.3l0,0c-0.1,0.2-0.4,0.4-0.8,0.4c-0.5,0-0.8-0.3-0.8-0.7c0-0.6,0.6-0.9,1.6-0.9l0,0
		c0-0.2-0.1-0.6-0.6-0.6c-0.2,0-0.5,0.1-0.7,0.2l-0.1-0.3c0.2-0.1,0.5-0.2,0.9-0.2c0.8,0,1,0.5,1,1v0.9c0,0.2,0,0.4,0,0.6L15.2,60.1
		L15.2,60.1z M15.1,58.9c-0.5,0-1.1,0.1-1.1,0.5c0,0.3,0.2,0.4,0.5,0.4s0.6-0.2,0.6-0.4v-0.1V58.9z"/>
	<path class="st2" d="M16.5,57.7l0.6,1.4c0.1,0.2,0.1,0.3,0.2,0.5l0,0c0-0.1,0.1-0.3,0.2-0.5l0.5-1.4h0.5l-0.7,1.7
		c-0.3,0.8-0.6,1.2-0.9,1.5c-0.2,0.2-0.5,0.3-0.6,0.3l-0.1-0.4c0.1,0,0.3-0.1,0.4-0.2c0.1-0.1,0.3-0.3,0.4-0.5V60v-0.1l-1-2.2H16.5z
		"/>
	<path class="st2" d="M18.9,58.7l2.5-1.2v0.3l-2.1,1l0,0l2.1,1v0.3l-2.5-1.2V58.7z"/>
	<path class="st2" d="M23.1,57.3L23.1,57.3l-0.6,0.3l-0.1-0.3l0.8-0.4h0.4v3.2h-0.5L23.1,57.3L23.1,57.3z"/>
	<path class="st2" d="M27.2,58.5c0,1.1-0.4,1.7-1.2,1.7c-0.7,0-1.2-0.6-1.2-1.7c0-1.1,0.5-1.7,1.2-1.7
		C26.8,56.8,27.2,57.4,27.2,58.5z M25.3,58.5c0,0.8,0.3,1.3,0.7,1.3c0.5,0,0.7-0.5,0.7-1.3s-0.2-1.3-0.7-1.3
		C25.6,57.2,25.3,57.6,25.3,58.5z"/>
	<path class="st2" d="M27.5,60.7c0.4-0.5,0.7-1.1,0.7-2s-0.3-1.5-0.7-2h0.4c0.4,0.4,0.7,1,0.7,2s-0.4,1.6-0.7,2H27.5z"/>
	<path class="st2" d="M29.1,58.6c0.4,0,0.4-0.2,0.4-0.4c0-0.1,0-0.3,0-0.4c0-0.1,0-0.3,0-0.4c0-0.5,0.3-0.6,0.8-0.6h0.1V57h-0.1
		c-0.3,0-0.4,0.2-0.4,0.4c0,0.1,0,0.2,0,0.4c0,0.1,0,0.2,0,0.4c0,0.3-0.1,0.5-0.4,0.5l0,0c0.2,0.1,0.4,0.2,0.4,0.5
		c0,0.1,0,0.3,0,0.4c0,0.1,0,0.2,0,0.4c0,0.3,0.1,0.4,0.4,0.4h0.1v0.3h-0.1c-0.5,0-0.8-0.2-0.8-0.7c0-0.1,0-0.3,0-0.4s0-0.3,0-0.4
		c0-0.2-0.1-0.4-0.4-0.4V58.6z"/>
	<path class="st2" d="M12,62.5v2.9c0,0.2,0,0.5,0,0.6h-0.4v-0.4l0,0c-0.1,0.3-0.5,0.5-0.9,0.5c-0.6,0-1.1-0.5-1.1-1.2
		c0-0.8,0.5-1.3,1.2-1.3c0.4,0,0.7,0.2,0.8,0.4l0,0v-1.4C11.5,62.5,12,62.5,12,62.5z M11.5,64.6c0-0.1,0-0.1,0-0.2
		c-0.1-0.3-0.3-0.5-0.7-0.5c-0.5,0-0.8,0.4-0.8,0.9s0.3,0.9,0.8,0.9c0.3,0,0.6-0.2,0.7-0.5c0-0.1,0-0.1,0-0.2V64.6L11.5,64.6z"/>
	<path class="st2" d="M14.3,66.1v-0.3l0,0c-0.1,0.2-0.4,0.4-0.8,0.4c-0.5,0-0.8-0.3-0.8-0.7c0-0.6,0.6-0.9,1.6-0.9v-0.1
		c0-0.2-0.1-0.6-0.6-0.6c-0.2,0-0.5,0.1-0.7,0.2l-0.1-0.3c0.2-0.1,0.5-0.2,0.9-0.2c0.8,0,1,0.5,1,1v0.9c0,0.2,0,0.4,0,0.6H14.3
		L14.3,66.1z M14.2,64.8c-0.5,0-1.1,0.1-1.1,0.5c0,0.3,0.2,0.4,0.5,0.4s0.6-0.2,0.6-0.4v-0.1V64.8z"/>
	<path class="st2" d="M15.6,63.7l0.6,1.4c0.1,0.2,0.1,0.3,0.2,0.5l0,0c0-0.1,0.1-0.3,0.2-0.5l0.5-1.4h0.5l-0.7,1.7
		c-0.3,0.8-0.6,1.2-0.9,1.5c-0.2,0.2-0.5,0.3-0.6,0.3l-0.1-0.4c0.1,0,0.3-0.1,0.4-0.2c0.1-0.1,0.3-0.3,0.4-0.5V66v-0.1l-1-2.2
		C15,63.7,15.6,63.7,15.6,63.7z"/>
	<path class="st2" d="M17.8,64.4v-0.3h2.8v0.3H17.8z M17.8,65.4v-0.3h2.8v0.3H17.8z"/>
	<path class="st2" d="M21.6,62.7l-0.1,1.2h-0.3l-0.1-1.2H21.6z M22.4,62.7l-0.1,1.2H22l-0.1-1.2H22.4z"/>
	<path class="st2" d="M25.3,64.4c0,1.1-0.4,1.7-1.2,1.7c-0.7,0-1.2-0.6-1.2-1.7s0.5-1.7,1.2-1.7C24.9,62.8,25.3,63.4,25.3,64.4z
		 M23.4,64.5c0,0.8,0.3,1.3,0.7,1.3c0.5,0,0.7-0.5,0.7-1.3c0-0.8-0.2-1.3-0.7-1.3C23.7,63.1,23.4,63.6,23.4,64.5z"/>
	<path class="st2" d="M26.3,62.7l-0.1,1.2h-0.3l-0.1-1.2H26.3z M27.1,62.7L27,63.9h-0.3l-0.1-1.2H27.1z"/>
	<path class="st2" d="M29.2,63.4v1.2h1.2v0.3h-1.2v1.2h-0.4v-1.2h-1.2v-0.3h1.2v-1.2L29.2,63.4L29.2,63.4z"/>
	<path class="st2" d="M33.3,62.5v2.9c0,0.2,0,0.5,0,0.6h-0.4v-0.4l0,0c-0.1,0.3-0.5,0.5-0.9,0.5c-0.6,0-1.1-0.5-1.1-1.2
		c0-0.8,0.5-1.3,1.2-1.3c0.4,0,0.7,0.2,0.8,0.4l0,0v-1.4C32.8,62.5,33.3,62.5,33.3,62.5z M32.8,64.6c0-0.1,0-0.1,0-0.2
		c-0.1-0.3-0.3-0.5-0.7-0.5c-0.5,0-0.8,0.4-0.8,0.9s0.3,0.9,0.8,0.9c0.3,0,0.6-0.2,0.7-0.5c0-0.1,0-0.1,0-0.2V64.6L32.8,64.6z"/>
	<path class="st2" d="M35.6,66.1v-0.3l0,0c-0.1,0.2-0.4,0.4-0.8,0.4c-0.5,0-0.8-0.3-0.8-0.7c0-0.6,0.6-0.9,1.6-0.9v-0.1
		c0-0.2-0.1-0.6-0.6-0.6c-0.2,0-0.5,0.1-0.7,0.2l-0.1-0.3c0.2-0.1,0.5-0.2,0.9-0.2c0.8,0,1,0.5,1,1v0.9c0,0.2,0,0.4,0,0.6H35.6
		L35.6,66.1z M35.5,64.8c-0.5,0-1.1,0.1-1.1,0.5c0,0.3,0.2,0.4,0.5,0.4s0.6-0.2,0.6-0.4v-0.1V64.8z"/>
	<path class="st2" d="M36.9,63.7l0.6,1.4c0.1,0.2,0.1,0.3,0.2,0.5l0,0c0-0.1,0.1-0.3,0.2-0.5l0.5-1.4h0.5l-0.7,1.7
		c-0.3,0.8-0.6,1.2-0.9,1.5c-0.2,0.2-0.5,0.3-0.6,0.3l-0.1-0.4c0.1,0,0.3-0.1,0.4-0.2c0.1-0.1,0.3-0.3,0.4-0.5V66v-0.1l-1-2.2
		C36.4,63.7,36.9,63.7,36.9,63.7z"/>
	<path class="st2" d="M39.1,66.7c0.1-0.3,0.3-0.8,0.3-1.2l0.5-0.1c-0.1,0.4-0.4,1-0.5,1.2L39.1,66.7z M39.4,64.1
		c0-0.2,0.1-0.3,0.3-0.3s0.3,0.1,0.3,0.3c0,0.2-0.1,0.3-0.3,0.3S39.4,64.2,39.4,64.1z"/>
	<path class="st2" d="M6.1,70.7c-0.4,0-0.4,0.2-0.4,0.4c0,0.1,0,0.3,0,0.4s0,0.3,0,0.4c0,0.5-0.3,0.7-0.8,0.7H4.8v-0.3h0.1
		c0.3,0,0.4-0.2,0.4-0.4c0-0.1,0-0.2,0-0.4c0-0.1,0-0.2,0-0.4c0-0.3,0.2-0.5,0.4-0.5l0,0c-0.2-0.1-0.4-0.2-0.4-0.5
		c0-0.1,0-0.3,0-0.4s0-0.2,0-0.4c0-0.3-0.1-0.4-0.4-0.4H4.8v-0.3h0.1c0.5,0,0.8,0.2,0.8,0.6c0,0.1,0,0.3,0,0.4s0,0.3,0,0.4
		c0,0.2,0.1,0.4,0.4,0.4L6.1,70.7L6.1,70.7z"/>
	<path class="st2" d="M5.6,74.9c0,0.1-0.1,0.3-0.3,0.3C5.1,75.2,5,75,5,74.9c0-0.2,0.1-0.3,0.3-0.3C5.5,74.6,5.6,74.7,5.6,74.9z
		 M5.1,78v-2.4h0.5V78H5.1z"/>
	<path class="st2" d="M6.4,78v-2.1H6v-0.3h0.4v-0.1c0-0.3,0.1-0.6,0.3-0.8c0.2-0.2,0.4-0.2,0.6-0.2s0.3,0,0.4,0.1l-0.1,0.3
		c-0.1,0-0.2-0.1-0.3-0.1c-0.4,0-0.5,0.3-0.5,0.7v0.1h0.6v0.3H6.9V78H6.4z"/>
	<path class="st2" d="M10.1,74.5c-0.4,0.5-0.7,1.1-0.7,2s0.3,1.5,0.7,2H9.8c-0.3-0.4-0.7-1-0.7-2s0.4-1.6,0.7-2H10.1z"/>
	<path class="st2" d="M10.7,74.4h0.5v1.5l0,0c0.1-0.1,0.2-0.2,0.3-0.3c0.1-0.1,0.3-0.1,0.5-0.1c0.4,0,0.9,0.2,0.9,1V78h-0.5v-1.4
		c0-0.4-0.2-0.7-0.6-0.7c-0.3,0-0.6,0.2-0.6,0.4c0,0.1,0,0.1,0,0.2V78h-0.5C10.7,78,10.7,74.4,10.7,74.4z"/>
	<path class="st2" d="M16.1,76.7c0,0.9-0.7,1.3-1.3,1.3c-0.7,0-1.3-0.5-1.3-1.2c0-0.8,0.6-1.3,1.3-1.3C15.6,75.5,16.1,76,16.1,76.7z
		 M14,76.8c0,0.5,0.3,0.9,0.8,0.9s0.8-0.4,0.8-0.9c0-0.4-0.2-0.9-0.8-0.9C14.2,75.8,14,76.3,14,76.8z"/>
	<path class="st2" d="M18.9,77.3c0,0.2,0,0.5,0,0.7h-0.4v-0.4l0,0c-0.1,0.2-0.4,0.4-0.9,0.4c-0.4,0-0.9-0.2-0.9-1.1v-1.4h0.5v1.3
		c0,0.5,0.2,0.8,0.6,0.8c0.3,0,0.5-0.2,0.6-0.4c0-0.1,0-0.1,0-0.2v-1.5h0.5L18.9,77.3L18.9,77.3z"/>
	<path class="st2" d="M19.7,76.3c0-0.3,0-0.5,0-0.7h0.4v0.5l0,0c0.1-0.3,0.4-0.5,0.7-0.5c0.1,0,0.1,0,0.1,0V76c0,0-0.1,0-0.2,0
		c-0.3,0-0.6,0.2-0.6,0.6c0,0.1,0,0.1,0,0.2V78h-0.5C19.7,78,19.7,76.3,19.7,76.3z"/>
	<path class="st2" d="M21.5,76.5l2.5-1.2v0.3l-2.1,1l0,0l2.1,1V78l-2.5-1.2V76.5z"/>
	<path class="st2" d="M25.7,75.1L25.7,75.1l-0.6,0.3L25,75.1l0.8-0.4h0.4V78h-0.5L25.7,75.1L25.7,75.1z"/>
	<path class="st2" d="M29.8,76.3c0,1.1-0.4,1.7-1.2,1.7c-0.7,0-1.2-0.6-1.2-1.7s0.5-1.7,1.2-1.7C29.4,74.7,29.8,75.3,29.8,76.3z
		 M27.9,76.4c0,0.8,0.3,1.3,0.7,1.3c0.5,0,0.7-0.5,0.7-1.3s-0.2-1.3-0.7-1.3C28.2,75,27.9,75.5,27.9,76.4z"/>
	<path class="st2" d="M30.1,78.6c0.4-0.5,0.7-1.1,0.7-2s-0.3-1.5-0.7-2h0.4c0.4,0.4,0.7,1,0.7,2s-0.4,1.6-0.7,2H30.1z"/>
	<path class="st2" d="M31.7,76.4c0.4,0,0.4-0.2,0.4-0.4c0-0.1,0-0.3,0-0.4s0-0.3,0-0.4c0-0.5,0.3-0.6,0.8-0.6H33v0.3h-0.1
		c-0.3,0-0.4,0.2-0.4,0.4c0,0.1,0,0.2,0,0.4c0,0.1,0,0.2,0,0.4c0,0.3-0.1,0.5-0.4,0.5l0,0c0.2,0.1,0.4,0.2,0.4,0.5
		c0,0.1,0,0.3,0,0.4s0,0.2,0,0.4c0,0.3,0.1,0.4,0.4,0.4H33v0.3h-0.1c-0.5,0-0.8-0.2-0.8-0.7c0-0.1,0-0.3,0-0.4s0-0.3,0-0.4
		c0-0.2-0.1-0.4-0.4-0.4C31.7,76.7,31.7,76.4,31.7,76.4z"/>
	<path class="st2" d="M9.7,80.4h0.5v1.5l0,0c0.1-0.1,0.2-0.2,0.3-0.3c0.1-0.1,0.3-0.1,0.5-0.1c0.4,0,0.9,0.2,0.9,1v1.4h-0.5v-1.4
		c0-0.4-0.2-0.7-0.6-0.7c-0.3,0-0.6,0.2-0.6,0.4c0,0.1,0,0.1,0,0.2v1.4H9.7V80.4z"/>
	<path class="st2" d="M15.1,82.7c0,0.9-0.7,1.3-1.3,1.3c-0.7,0-1.3-0.5-1.3-1.2c0-0.8,0.6-1.3,1.3-1.3C14.6,81.5,15.1,82,15.1,82.7z
		 M13,82.7c0,0.5,0.3,0.9,0.8,0.9s0.8-0.4,0.8-0.9c0-0.4-0.2-0.9-0.8-0.9C13.3,81.8,13,82.3,13,82.7z"/>
	<path class="st2" d="M18,83.3c0,0.2,0,0.5,0,0.7h-0.4v-0.4l0,0c-0.1,0.2-0.4,0.4-0.9,0.4c-0.4,0-0.9-0.2-0.9-1.1v-1.4h0.5v1.3
		c0,0.5,0.2,0.8,0.6,0.8c0.3,0,0.5-0.2,0.6-0.4c0-0.1,0-0.1,0-0.2v-1.5H18V83.3L18,83.3z"/>
	<path class="st2" d="M18.8,82.3c0-0.3,0-0.5,0-0.7h0.4v0.5l0,0c0.1-0.3,0.4-0.5,0.7-0.5c0.1,0,0.1,0,0.1,0V82c0,0-0.1,0-0.2,0
		c-0.3,0-0.6,0.2-0.6,0.6c0,0.1,0,0.1,0,0.2v1.3h-0.5C18.8,83.9,18.8,82.3,18.8,82.3z"/>
	<path class="st2" d="M20.4,82.2v-0.3h2.8v0.3H20.4z M20.4,83.2v-0.3h2.8v0.3H20.4z"/>
	<path class="st2" d="M24.2,80.5l-0.1,1.2h-0.3l-0.1-1.2H24.2z M25,80.5l-0.1,1.2h-0.3l-0.1-1.2H25z"/>
	<path class="st2" d="M27.9,82.3c0,1.1-0.4,1.7-1.2,1.7c-0.7,0-1.2-0.6-1.2-1.7s0.5-1.7,1.2-1.7C27.5,80.6,27.9,81.2,27.9,82.3z
		 M26,82.3c0,0.8,0.3,1.3,0.7,1.3c0.5,0,0.7-0.5,0.7-1.3S27.2,81,26.7,81C26.3,81,26,81.4,26,82.3z"/>
	<path class="st2" d="M28.9,80.5l-0.1,1.2h-0.3l-0.1-1.2H28.9z M29.7,80.5l-0.1,1.2h-0.3l-0.1-1.2H29.7z"/>
	<path class="st2" d="M6.1,88.6c-0.4,0-0.4,0.2-0.4,0.4c0,0.1,0,0.3,0,0.4s0,0.3,0,0.4c0,0.5-0.3,0.7-0.8,0.7H4.8v-0.3h0.1
		c0.3,0,0.4-0.2,0.4-0.4c0-0.1,0-0.2,0-0.4c0-0.1,0-0.2,0-0.4c0-0.3,0.2-0.5,0.4-0.5l0,0c-0.2-0.1-0.4-0.2-0.4-0.5
		c0-0.1,0-0.3,0-0.4s0-0.2,0-0.4c0-0.3-0.1-0.4-0.4-0.4H4.8v-0.3h0.1c0.5,0,0.8,0.2,0.8,0.6c0,0.1,0,0.3,0,0.4s0,0.3,0,0.4
		c0,0.2,0.1,0.4,0.4,0.4L6.1,88.6L6.1,88.6z"/>
	<path class="st2" d="M6.3,90.5c0.1-0.3,0.3-0.8,0.3-1.2l0.5-0.1c-0.1,0.4-0.4,1-0.5,1.2L6.3,90.5z M6.5,87.9c0-0.2,0.1-0.3,0.3-0.3
		c0.2,0,0.3,0.1,0.3,0.3c0,0.2-0.1,0.3-0.3,0.3C6.7,88.2,6.5,88,6.5,87.9z"/>
	<path class="st2" d="M5.6,92.7c0,0.1-0.1,0.3-0.3,0.3C5.1,93,5,92.9,5,92.7c0-0.2,0.1-0.3,0.3-0.3C5.5,92.5,5.6,92.6,5.6,92.7z
		 M5.1,95.8v-2.4h0.5v2.4H5.1z"/>
	<path class="st2" d="M6.4,95.8v-2.1H6v-0.3h0.4v-0.1c0-0.3,0.1-0.6,0.3-0.8c0.2-0.2,0.4-0.2,0.6-0.2s0.3,0,0.4,0.1l-0.1,0.3
		c-0.1,0-0.2-0.1-0.3-0.1c-0.4,0-0.5,0.3-0.5,0.7v0.1h0.6v0.3H6.9v2.1H6.4z"/>
	<path class="st2" d="M10.1,92.4c-0.4,0.5-0.7,1.1-0.7,2s0.3,1.5,0.7,2H9.8c-0.3-0.4-0.7-1-0.7-2s0.4-1.6,0.7-2H10.1z"/>
	<path class="st2" d="M10.7,94.1c0-0.2,0-0.5,0-0.7h0.4v0.4l0,0c0.1-0.2,0.4-0.4,0.8-0.4c0.4,0,0.6,0.2,0.8,0.5l0,0
		c0.1-0.1,0.2-0.2,0.3-0.3c0.2-0.1,0.3-0.2,0.6-0.2c0.4,0,0.9,0.2,0.9,1v1.4H14v-1.4c0-0.5-0.2-0.7-0.6-0.7c-0.3,0-0.5,0.2-0.6,0.4
		c0,0.1,0,0.1,0,0.2v1.5h-0.5v-1.4c0-0.4-0.2-0.7-0.6-0.7c-0.3,0-0.5,0.2-0.6,0.4c0,0.1,0,0.1,0,0.2v1.4h-0.5L10.7,94.1L10.7,94.1z"
		/>
	<path class="st2" d="M15.8,92.7c0,0.1-0.1,0.3-0.3,0.3s-0.3-0.1-0.3-0.3c0-0.2,0.1-0.3,0.3-0.3C15.7,92.5,15.8,92.6,15.8,92.7z
		 M15.2,95.8v-2.4h0.5v2.4H15.2z"/>
	<path class="st2" d="M16.5,94.1c0-0.2,0-0.5,0-0.7h0.4v0.4l0,0c0.1-0.2,0.4-0.5,0.9-0.5c0.4,0,0.9,0.2,0.9,1v1.4h-0.5v-1.4
		c0-0.4-0.2-0.7-0.6-0.7c-0.3,0-0.6,0.2-0.6,0.4c0,0.1,0,0.1,0,0.2v1.4h-0.5L16.5,94.1L16.5,94.1z"/>
	<path class="st2" d="M21.8,95.2c0,0.2,0,0.5,0,0.7h-0.4v-0.4l0,0c-0.1,0.2-0.4,0.4-0.9,0.4c-0.4,0-0.9-0.2-0.9-1.1v-1.4H20v1.3
		c0,0.5,0.2,0.8,0.6,0.8c0.3,0,0.5-0.2,0.6-0.4c0-0.1,0-0.1,0-0.2v-1.5h0.5L21.8,95.2L21.8,95.2z"/>
	<path class="st2" d="M23.2,92.7v0.7h0.7v0.3h-0.7V95c0,0.3,0.1,0.5,0.4,0.5c0.1,0,0.2,0,0.3,0v0.3c-0.1,0-0.2,0.1-0.4,0.1
		c-0.2,0-0.4-0.1-0.5-0.2s-0.2-0.3-0.2-0.6v-1.3h-0.4v-0.3h0.4v-0.6L23.2,92.7z"/>
	<path class="st2" d="M24.6,94.7c0,0.6,0.4,0.8,0.9,0.8c0.3,0,0.6-0.1,0.7-0.1l0.1,0.3c-0.2,0.1-0.5,0.1-0.9,0.1
		c-0.8,0-1.3-0.5-1.3-1.2s0.5-1.3,1.2-1.3c0.9,0,1.1,0.7,1.1,1.1c0,0.1,0,0.2,0,0.2L24.6,94.7L24.6,94.7z M26,94.4
		c0-0.3-0.1-0.7-0.7-0.7c-0.5,0-0.7,0.4-0.7,0.7H26z"/>
	<path class="st2" d="M9.7,100c0-0.2,0-0.5,0-0.7h0.4v0.4l0,0c0.1-0.2,0.4-0.4,0.8-0.4c0.4,0,0.6,0.2,0.8,0.5l0,0
		c0.1-0.1,0.2-0.2,0.3-0.3c0.2-0.1,0.3-0.2,0.6-0.2c0.4,0,0.9,0.2,0.9,1v1.4H13v-1.4c0-0.5-0.2-0.7-0.6-0.7c-0.3,0-0.5,0.2-0.6,0.4
		c0,0.1,0,0.1,0,0.2v1.5h-0.5v-1.4c0-0.4-0.2-0.7-0.6-0.7c-0.3,0-0.5,0.2-0.6,0.4c0,0.1,0,0.1,0,0.2v1.4H9.7V100z"/>
	<path class="st2" d="M14.8,98.7c0,0.1-0.1,0.3-0.3,0.3s-0.3-0.1-0.3-0.3c0-0.2,0.1-0.3,0.3-0.3C14.7,98.4,14.8,98.5,14.8,98.7z
		 M14.3,101.8v-2.4h0.5v2.4H14.3z"/>
	<path class="st2" d="M15.6,100c0-0.2,0-0.5,0-0.7H16v0.4l0,0c0.1-0.2,0.4-0.5,0.9-0.5c0.4,0,0.9,0.2,0.9,1v1.4h-0.5v-1.4
		c0-0.4-0.2-0.7-0.6-0.7c-0.3,0-0.6,0.2-0.6,0.4c0,0.1,0,0.1,0,0.2v1.4h-0.5C15.6,101.5,15.6,100,15.6,100z"/>
	<path class="st2" d="M20.8,101.1c0,0.2,0,0.5,0,0.7h-0.4v-0.4l0,0c-0.1,0.2-0.4,0.4-0.9,0.4c-0.4,0-0.9-0.2-0.9-1.1v-1.4h0.5v1.3
		c0,0.5,0.2,0.8,0.6,0.8c0.3,0,0.5-0.2,0.6-0.4c0-0.1,0-0.1,0-0.2v-1.5h0.5L20.8,101.1L20.8,101.1z"/>
	<path class="st2" d="M22.2,98.7v0.7h0.7v0.3h-0.7v1.3c0,0.3,0.1,0.5,0.4,0.5c0.1,0,0.2,0,0.3,0v0.3c-0.1,0-0.2,0.1-0.4,0.1
		c-0.2,0-0.4-0.1-0.5-0.2s-0.2-0.3-0.2-0.6v-1.3h-0.4v-0.3h0.4v-0.6L22.2,98.7z"/>
	<path class="st2" d="M23.7,100.6c0,0.6,0.4,0.8,0.9,0.8c0.3,0,0.6-0.1,0.7-0.1l0.1,0.3c-0.2,0.1-0.5,0.1-0.9,0.1
		c-0.8,0-1.3-0.5-1.3-1.2s0.5-1.3,1.2-1.3c0.9,0,1.1,0.7,1.1,1.1c0,0.1,0,0.2,0,0.2L23.7,100.6L23.7,100.6z M25.1,100.3
		c0-0.3-0.1-0.7-0.7-0.7c-0.5,0-0.7,0.4-0.7,0.7H25.1z"/>
	<path class="st2" d="M6.1,106.4c-0.4,0-0.4,0.2-0.4,0.4c0,0.1,0,0.3,0,0.4s0,0.3,0,0.4c0,0.5-0.3,0.7-0.8,0.7H4.8V108h0.1
		c0.3,0,0.4-0.2,0.4-0.4c0-0.1,0-0.2,0-0.4c0-0.1,0-0.2,0-0.4c0-0.3,0.2-0.5,0.4-0.5l0,0c-0.2-0.1-0.4-0.2-0.4-0.5
		c0-0.1,0-0.3,0-0.4s0-0.2,0-0.4c0-0.3-0.1-0.4-0.4-0.4H4.8v-0.3h0.1c0.5,0,0.8,0.2,0.8,0.6c0,0.1,0,0.3,0,0.4s0,0.3,0,0.4
		c0,0.2,0.1,0.4,0.4,0.4L6.1,106.4L6.1,106.4z"/>
	<path class="st2" d="M6.3,108.3c0.1-0.3,0.3-0.8,0.3-1.2l0.5-0.1c-0.1,0.4-0.4,1-0.5,1.2L6.3,108.3z M6.5,105.7
		c0-0.2,0.1-0.3,0.3-0.3c0.2,0,0.3,0.1,0.3,0.3c0,0.2-0.1,0.3-0.3,0.3C6.7,106,6.5,105.9,6.5,105.7z"/>
	<path class="st2" d="M5.6,110.6c0,0.1-0.1,0.3-0.3,0.3c-0.2,0-0.3-0.1-0.3-0.3c0-0.2,0.1-0.3,0.3-0.3
		C5.5,110.3,5.6,110.4,5.6,110.6z M5.1,113.7v-2.4h0.5v2.4H5.1z"/>
	<path class="st2" d="M6.4,113.7v-2.1H6v-0.3h0.4v-0.1c0-0.3,0.1-0.6,0.3-0.8c0.2-0.2,0.4-0.2,0.6-0.2s0.3,0,0.4,0.1l-0.1,0.3
		c-0.1,0-0.2-0.1-0.3-0.1c-0.4,0-0.5,0.3-0.5,0.7v0.1h0.6v0.3H6.9v2.1H6.4z"/>
	<path class="st2" d="M10.1,110.2c-0.4,0.5-0.7,1.1-0.7,2s0.3,1.5,0.7,2H9.8c-0.3-0.4-0.7-1-0.7-2s0.4-1.6,0.7-2H10.1z"/>
	<path class="st2" d="M10.6,113.2c0.1,0.1,0.4,0.2,0.6,0.2c0.4,0,0.5-0.2,0.5-0.4c0-0.2-0.1-0.3-0.5-0.4c-0.5-0.2-0.7-0.4-0.7-0.7
		c0-0.4,0.3-0.7,0.9-0.7c0.3,0,0.5,0.1,0.7,0.1l-0.1,0.3c-0.1-0.1-0.3-0.1-0.5-0.1c-0.3,0-0.4,0.1-0.4,0.3c0,0.2,0.2,0.3,0.5,0.4
		c0.5,0.2,0.7,0.4,0.7,0.7c0,0.4-0.4,0.7-1,0.7c-0.3,0-0.6-0.1-0.7-0.2V113.2z"/>
	<path class="st2" d="M13.1,112.5c0,0.6,0.4,0.8,0.9,0.8c0.3,0,0.6-0.1,0.7-0.1l0.1,0.3c-0.2,0.1-0.5,0.1-0.9,0.1
		c-0.8,0-1.3-0.5-1.3-1.2s0.5-1.3,1.2-1.3c0.9,0,1.1,0.7,1.1,1.1c0,0.1,0,0.2,0,0.2L13.1,112.5L13.1,112.5z M14.5,112.2
		c0-0.3-0.1-0.7-0.7-0.7c-0.5,0-0.7,0.4-0.7,0.7H14.5z"/>
	<path class="st2" d="M17.5,113.6c-0.1,0.1-0.4,0.1-0.8,0.1c-0.8,0-1.3-0.5-1.3-1.2s0.6-1.3,1.4-1.3c0.3,0,0.5,0.1,0.7,0.1l-0.1,0.3
		c-0.1-0.1-0.3-0.1-0.6-0.1c-0.6,0-0.9,0.4-0.9,0.9c0,0.6,0.4,0.9,0.9,0.9c0.3,0,0.5-0.1,0.6-0.1L17.5,113.6z"/>
	<path class="st2" d="M20.4,112.4c0,0.9-0.7,1.3-1.3,1.3c-0.7,0-1.3-0.5-1.3-1.2c0-0.8,0.6-1.3,1.3-1.3
		C19.9,111.2,20.4,111.7,20.4,112.4z M18.3,112.5c0,0.5,0.3,0.9,0.8,0.9s0.8-0.4,0.8-0.9c0-0.4-0.2-0.9-0.8-0.9
		C18.5,111.5,18.3,112,18.3,112.5z"/>
	<path class="st2" d="M21,111.9c0-0.2,0-0.5,0-0.7h0.4v0.4l0,0c0.1-0.2,0.4-0.5,0.9-0.5c0.4,0,0.9,0.2,0.9,1v1.4h-0.5v-1.4
		c0-0.4-0.2-0.7-0.6-0.7c-0.3,0-0.6,0.2-0.6,0.4c0,0.1,0,0.1,0,0.2v1.4H21V111.9z"/>
	<path class="st2" d="M26.3,110.1v2.9c0,0.2,0,0.5,0,0.6h-0.4v-0.4l0,0c-0.1,0.3-0.5,0.5-0.9,0.5c-0.6,0-1.1-0.5-1.1-1.2
		c0-0.8,0.5-1.3,1.2-1.3c0.4,0,0.7,0.2,0.8,0.4l0,0v-1.4L26.3,110.1L26.3,110.1z M25.9,112.2c0-0.1,0-0.1,0-0.2
		c-0.1-0.3-0.3-0.5-0.7-0.5c-0.5,0-0.8,0.4-0.8,0.9s0.3,0.9,0.8,0.9c0.3,0,0.6-0.2,0.7-0.5c0-0.1,0-0.1,0-0.2V112.2L25.9,112.2z"/>
</g>
<path class="st3" d="M52.9,67.2c0.8,3.6,0.9,7.3,0,10.9c5.6,4.6,11.4,4.4,17.2,0c-0.7-3.6-1.2-7.3,0-10.9"/>
<path class="st4" d="M53.1,68.3c2.5,1.4,5.3,2.1,8.4,2.2l-0.2,11.1c-3-0.1-5.8-1.1-8.5-3.4C53.6,75.1,53.6,71.8,53.1,68.3z"/>
<ellipse class="st3" cx="61.3" cy="46" rx="19.9" ry="24.4"/>
<path class="st4" d="M61.3,70.4c-11,0-19.9-10.9-19.9-24.4s8.9-24.4,19.9-24.4"/>
<path class="st5" d="M75.7,63c-2.3,3-4.8,4.7-7.4,5.9c0,0-4,1.9-7.5,1.5c-2.3-0.2-3.2-0.3-6-1.3c-3.8-1.6-6.5-4.3-8.7-7.3
	c-1.2-1.8-2-3.5-2.2-4c0.4-1.1,3-0.6,9-0.7c7.4-0.1,7.1,0,16.9,0.3c4.5,0.1,9.3-0.1,8.7,1.1C77.1,61.3,75.8,62.7,75.7,63z"/>
<rect x="64.3" y="41.4" class="st6" width="12.7" height="5.8"/>
<rect x="46.7" y="41.4" class="st6" width="12" height="5.8"/>
<g>
	<path class="st2" d="M53.3,60c1.5,0,2.8,0.2,4,0.3c1.3,0.1,2.5,0.2,3.7,0.2s2.4,0,3.6-0.1c1.3-0.1,2.5-0.2,4-0.3
		c-0.9,1.2-2.1,2-3.4,2.6c-1.3,0.6-2.8,0.9-4.2,0.9c-1.5,0-2.9-0.3-4.2-0.9C55.5,62,54.3,61.1,53.3,60z"/>
</g>
<path class="st7" d="M64.3,44.3c-1.9-0.3-3.7-0.5-5.5,0"/>
<path class="st4" d="M41.8,41.7C40,45,39.3,48.1,41.9,51"/>
<path class="st3" d="M80.8,41.7c1.8,3.3,2.5,6.4-0.1,9.2"/>
<g>
	<path class="st3" d="M41.9,44.6c-0.1,0.8-0.2,1.5-0.2,2.2s0.1,1.5,0.2,2.2c-0.4-0.7-0.6-1.4-0.7-2.2C41.2,46,41.4,45.2,41.9,44.6z"
		/>
</g>
<g>
	<path class="st4" d="M80.5,44.6c0.5,0.6,0.7,1.4,0.7,2.2S81,48.4,80.5,49c0.1-0.8,0.2-1.5,0.2-2.2C80.7,46,80.6,45.3,80.5,44.6z"/>
</g>
<g>
	<path class="st8" d="M67.5,37.5c1.5-0.6,3.2-0.8,4.8-0.7c1.6,0.1,3.3,0.6,4.6,1.6c-1.6-0.4-3.1-0.7-4.7-0.8
		C70.7,37.5,69.1,37.5,67.5,37.5z"/>
</g>
<g>
	<path class="st8" d="M55.2,37.5c-1.6,0-3.2-0.1-4.8,0.1c-1.6,0.1-3.1,0.4-4.7,0.8c1.3-1,3-1.5,4.6-1.6C52,36.7,53.7,37,55.2,37.5z"
		/>
</g>
<rect x="28.8" y="111.2" class="st4" width="10.5" height="10.8"/>
<rect x="84.8" y="111.8" class="st3" width="10.5" height="10.2"/>
<path class="st9" d="M52.9,78.2c5.6,4.6,11.4,4.5,17.2,0c8.6,0.3,16.8,1.5,24.7,3.2c1.2,0.3,2.1,1.4,2.1,2.6v29
	c-4.6-0.7-10-0.9-14,0l-0.5-8v17H41.9v-17l-0.4,8c-3.8-0.8-9.8-0.7-15.3,0V84.5c0-1.6,1.1-3,2.7-3.3C37,79.5,45.1,78.5,52.9,78.2z"
	/>
</svg>
