<?xml version="1.0" encoding="utf-8"?>
<!-- Generator: Adobe Illustrator 22.0.1, SVG Export Plug-In . SVG Version: 6.00 Build 0)  -->
<svg version="1.1" id="Calque_1" xmlns="http://www.w3.org/2000/svg" xmlns:xlink="http://www.w3.org/1999/xlink" x="0px" y="0px"
	 viewBox="0 0 451.094 84.054" style="enable-background:new 0 0 451.094 84.054;" xml:space="preserve">
<style type="text/css">
	.st0{fill:#2A2A2A;stroke:#2A2A2A;stroke-miterlimit:10;}
</style>
<g>
	<path class="st0" d="M13.315,83.554H0.5V0.5h12.815v3.559H4.059v75.935h9.255V83.554z"/>
	<path class="st0" d="M24.204,65.765h6.138v5.394h-6.138V65.765z"/>
	<path class="st0" d="M73.959,68.369H43.641L62.706,23.45L82.98,71.159h2.976l-23.25-54.87l-23.25,54.87h34.503V68.369z"/>
	<path class="st0" d="M135.246,68.369H99.348V21.125l20.925,20.925l20.925-20.925v50.034l2.79-0.093V17.219h-2.79l-20.925,20.925
		L99.348,17.219h-2.79v53.94l38.688-0.093V68.369z"/>
	<path class="st0" d="M197.649,65.486c-3.348,4.403-8.897,6.603-16.647,6.603c-7.751,0-13.299-2.2-16.647-6.603
		c-3.348-4.402-5.022-11.5-5.022-21.297c0-9.795,1.674-16.894,5.022-21.297c3.348-4.401,8.896-6.603,16.647-6.603
		c7.75,0,13.299,2.202,16.647,6.603c3.348,4.403,5.022,11.501,5.022,21.297C202.671,53.986,200.996,61.085,197.649,65.486z
		 M188.814,20.056c-2.109-0.651-4.713-0.977-7.812-0.977c-3.101,0-5.705,0.326-7.812,0.977c-2.109,0.651-4.046,1.86-5.812,3.627
		c-1.767,1.767-3.085,4.34-3.953,7.719c-0.869,3.38-1.302,7.642-1.302,12.787c0,5.147,0.433,9.409,1.302,12.788
		c0.868,3.38,2.186,5.952,3.953,7.719c1.767,1.767,3.704,2.976,5.812,3.627c2.107,0.651,4.711,0.977,7.812,0.977
		c3.099,0,5.703-0.326,7.812-0.977c2.107-0.651,4.045-1.86,5.812-3.627c1.767-1.767,3.083-4.339,3.952-7.719
		c0.868-3.378,1.302-7.641,1.302-12.788c0-5.146-0.435-9.407-1.302-12.787c-0.869-3.379-2.186-5.952-3.952-7.719
		C192.859,21.916,190.921,20.707,188.814,20.056z"/>
	<path class="st0" d="M218.014,71.159v-53.94h2.79l30.319,48.825V17.219h2.79v53.94h-2.79l-30.319-48.918v48.918H218.014z"/>
	<path class="st0" d="M307.574,65.486c-3.349,4.403-8.897,6.603-16.647,6.603c-7.751,0-13.299-2.2-16.646-6.603
		c-3.349-4.402-5.022-11.5-5.022-21.297c0-9.795,1.674-16.894,5.022-21.297c3.348-4.401,8.896-6.603,16.646-6.603
		c7.75,0,13.299,2.202,16.647,6.603c3.348,4.403,5.021,11.501,5.021,21.297C312.595,53.986,310.921,61.085,307.574,65.486z
		 M298.739,20.056c-2.108-0.651-4.713-0.977-7.812-0.977c-3.101,0-5.705,0.326-7.812,0.977c-2.108,0.651-4.046,1.86-5.812,3.627
		c-1.768,1.767-3.085,4.34-3.953,7.719c-0.868,3.38-1.302,7.642-1.302,12.787c0,5.147,0.434,9.409,1.302,12.788
		c0.868,3.38,2.186,5.952,3.953,7.719c1.767,1.767,3.704,2.976,5.812,3.627c2.106,0.651,4.711,0.977,7.812,0.977
		c3.1,0,5.704-0.326,7.812-0.977c2.106-0.651,4.045-1.86,5.812-3.627c1.767-1.767,3.083-4.339,3.952-7.719
		c0.867-3.378,1.302-7.641,1.302-12.788c0-5.146-0.435-9.407-1.302-12.787c-0.869-3.379-2.186-5.952-3.952-7.719
		C302.784,21.916,300.845,20.707,298.739,20.056z"/>
	<path class="st0" d="M336.681,68.369h35.897V21.125L351.654,42.05l-20.925-20.925v50.034l-2.79-0.093V17.219h2.79l20.925,20.925
		l20.925-20.925h2.79v53.94l-38.688-0.093V68.369z"/>
	<path class="st0" d="M397.967,68.369h30.318L409.22,23.45l-20.273,47.709h-2.977l23.25-54.87l23.25,54.87h-34.503V68.369z"/>
	<path class="st0" d="M437.78,0.5h12.814v83.054H437.78v-3.559h9.254V4.059h-9.254V0.5z"/>
</g>
</svg>
