<?xml version="1.0" encoding="utf-8"?>
<!-- Generator: Adobe Illustrator 22.0.1, SVG Export Plug-In . SVG Version: 6.00 Build 0)  -->
<svg version="1.1" xmlns="http://www.w3.org/2000/svg" xmlns:xlink="http://www.w3.org/1999/xlink" x="0px" y="0px"
	 viewBox="0 0 256 144" style="enable-background:new 0 0 256 144;" xml:space="preserve">
<style type="text/css">
	.st0{opacity:0.66;}
	.st1{fill:#8E8E8E;}
	.st2{fill:#FFFFFF;}
	.st3{fill:none;}
	.st4{font-family:'MyriadPro-Regular';}
	.st5{font-size:10.2083px;}
	.st6{font-size:8.75px;}
	.st7{font-size:9px;}
	.st8{font-size:11px;}
	.st9{opacity:0.75;fill:#01739C;}
	.st10{font-family:'Lato-Bold';}
	.st11{font-size:20px;}
	.st12{fill:none;stroke:#FFFFFF;stroke-miterlimit:10;}
</style>
<g id="Calque_4">
	<rect class="st0" width="256" height="144"/>
</g>
<g id="Calque_2">
	<rect x="40.5" y="38.5" class="st1" width="87.5" height="52.7"/>
	<rect x="128" y="91.1" class="st1" width="87.5" height="52.7"/>
	<rect x="128" y="38.5" class="st2" width="87.5" height="52.7"/>
	<rect x="40.5" y="91.1" class="st2" width="87.5" height="52.7"/>
	<rect x="132.4" y="44.8" class="st3" width="65.1" height="11.2"/>
	<text transform="matrix(1 0 0 1 132.3753 52.0537)" class="st4 st5">Titre de l’article</text>
	<rect x="133.3" y="60.8" class="st3" width="71.9" height="12.2"/>
	<text transform="matrix(1 0 0 1 133.348 67.0605)" class="st4 st6">Lorem ipsum </text>
	<rect x="44.7" y="99.9" class="st3" width="65.1" height="11.2"/>
	<text transform="matrix(1 0 0 1 44.7087 107.1509)" class="st4 st5">Titre de l’article</text>
	<rect x="45.7" y="115.9" class="st3" width="71.9" height="12.2"/>
	<text transform="matrix(1 0 0 1 45.6813 122.1578)" class="st4 st6">Lorem ipsum </text>
	<rect x="6" y="6.3" class="st3" width="90" height="8.7"/>
	<text transform="matrix(1 0 0 1 6.0413 12.7242)" class="st2 st4 st7">Get By Idea, le Blog</text>
	<rect x="73.5" y="60.5" class="st3" width="20" height="8.7"/>
	<text transform="matrix(1 0 0 1 74.5519 68.2983)" class="st4 st8">img</text>
	<rect x="161.8" y="114" class="st3" width="20" height="8.7"/>
	<text transform="matrix(1 0 0 1 162.8019 121.8101)" class="st4 st8">img</text>
	<rect x="161" y="5.5" class="st3" width="84" height="10.3"/>
	<text transform="matrix(1 0 0 1 160.9993 11.891)" class="st2 st4 st7">Menus - 1 - 2 - 3 - 4 - 5</text>
</g>
<g id="Calque_1">
	<rect x="-0.3" class="st9" width="256.3" height="144"/>
</g>
<g id="Calque_3">
	<rect x="30.7" y="28" class="st3" width="225.3" height="100.7"/>
	<text transform="matrix(1 0 0 1 30.6667 42.8599)"><tspan x="0" y="0" class="st2 st10 st11">Projet :</tspan><tspan x="0" y="48" class="st2 st10 st11">Création d’un Blog </tspan><tspan x="0" y="72" class="st2 st10 st11">sur le webdesign</tspan></text>
	<line class="st12" x1="2.3" y1="36.7" x2="25" y2="36.7"/>
</g>
</svg>
