<?xml version="1.0" encoding="utf-8"?>
<!-- Generator: Adobe Illustrator 22.0.1, SVG Export Plug-In . SVG Version: 6.00 Build 0)  -->
<svg version="1.1" id="Calque_1" xmlns="http://www.w3.org/2000/svg" xmlns:xlink="http://www.w3.org/1999/xlink" x="0px" y="0px"
	 viewBox="0 0 155.5 756" style="enable-background:new 0 0 155.5 756;" xml:space="preserve">
<style type="text/css">
	.st0{fill:none;stroke:#01739c;stroke-miterlimit:10;}
	.st1{fill:#01739c;}
</style>
<g id="Calque_1_1_">
	<g>
		<path class="st0" d="M134.8,0c0,6.2-1.2,12.5-3.8,18.2c-2.6,5.7-6.3,10.8-10.7,15.3c-4.4,4.4-9.3,8.3-14.5,11.8
			c-5.2,3.5-10.5,6.7-16,9.7C79,61.1,67.8,66.6,56.9,72.8c-5.4,3.1-10.7,6.4-15.7,10c-5,3.6-9.8,7.7-13.9,12.3
			c-4.1,4.6-7.5,9.9-9.5,15.7c-1,2.9-1.7,5.9-2.1,9c-0.3,3.1-0.4,6.2-0.1,9.2c0.6,6.1,2.9,12,6.4,17c3.5,5,8.2,9.3,13.1,12.9
			c5,3.7,10.3,6.9,15.8,9.8c5.5,2.9,11.1,5.7,16.7,8.3c11.3,5.3,22.7,10.3,33.7,16.3c5.5,3,10.8,6.3,15.8,10.2
			c4.9,3.9,9.5,8.4,12.9,13.8c6.9,10.7,7.5,25.2,1.5,36.5c-3,5.7-7.3,10.4-12.1,14.5c-4.8,4.1-10.1,7.5-15.5,10.7
			c-10.9,6.3-22.3,11.3-33.6,16.6c-11.3,5.3-22.5,10.7-32.7,17.7c-5.1,3.5-9.8,7.6-13.6,12.3c-3.8,4.8-6.6,10.4-7.6,16.3
			c-0.5,3-0.7,6.1-0.4,9c0.4,3,1.3,5.9,2.7,8.5c2.9,5.3,7.5,9.5,12.6,13c5,3.5,10.5,6.4,16.1,9c5.6,2.6,11.4,5,17.2,7.2
			c11.6,4.5,23.4,8.7,34.8,13.8c5.7,2.6,11.4,5.3,16.7,8.7c5.3,3.4,10.4,7.3,14.3,12.4c1.9,2.6,3.4,5.5,4.3,8.6
			c0.9,3.1,1.2,6.4,1,9.6c-0.4,6.4-2.7,12.7-6.3,17.9c-3.6,5.3-8.3,9.6-13.4,13.4c-5,3.8-10.5,7-16,9.9
			c-11.1,5.9-22.5,10.8-33.8,16.1c-5.6,2.6-11.3,5.3-16.7,8.3c-5.5,2.9-10.8,6.2-15.7,9.9c-4.9,3.7-9.4,8.1-12.7,13.2
			c-3.3,5.1-5.3,11.1-5.4,17.2c-0.3,6.1,1.3,12.2,4.4,17.4c3.1,5.2,7.6,9.6,12.5,13.4c4.9,3.8,10.2,7,15.7,9.9
			c5.5,2.9,11.1,5.6,16.8,8.1c11.3,5.1,22.9,9.9,34,15.6c5.6,2.9,11,5.9,16.1,9.6c5.1,3.6,9.9,7.8,13.6,13c1.8,2.6,3.4,5.4,4.5,8.3
			c1.1,3,1.7,6.1,1.9,9.3c0.2,3.2-0.1,6.4-0.9,9.4c-0.8,3.1-2.1,6-3.7,8.7c-3.3,5.4-8.1,9.7-13.1,13.4c-5.1,3.7-10.5,6.8-16.1,9.6
			c-11.2,5.6-22.8,10.2-34.2,15.1c-11.4,4.9-22.9,9.9-33.2,17c-5.1,3.5-9.9,7.7-13.5,12.8c-1.8,2.5-3.2,5.3-4.2,8.3
			c-1,3-1.5,6.1-1.5,9.2c0-3.1,0.4-6.2,1.4-9.2c1-3,2.4-5.8,4.2-8.3c3.6-5.1,8.4-9.3,13.4-12.9c10.3-7.1,21.8-12.2,33.2-17.2
			c11.4-5,23-9.6,34.1-15.3c5.5-2.8,10.9-5.9,15.9-9.6c5-3.7,9.6-8,12.8-13.2c1.6-2.6,2.8-5.5,3.6-8.4c0.7-3,1-6.1,0.8-9.1
			c-0.3-6.1-2.6-12.1-6.3-17c-3.6-5-8.4-9.1-13.4-12.6c-5.1-3.6-10.5-6.6-16-9.4c-11.1-5.6-22.6-10.3-34-15.5
			c-5.7-2.6-11.4-5.2-16.9-8.1c-5.5-2.9-10.9-6.1-15.9-10c-5-3.8-9.6-8.3-12.9-13.8c-1.6-2.7-2.9-5.7-3.7-8.8
			c-0.8-3.1-1.1-6.3-1-9.5c0.2-6.4,2.2-12.7,5.7-18c3.5-5.4,8.1-9.8,13.1-13.7c5-3.8,10.4-7.1,15.9-10.1c5.5-3,11.1-5.7,16.8-8.3
			c11.3-5.3,22.8-10.2,33.7-16c5.5-2.9,10.8-6.1,15.7-9.8c4.9-3.7,9.5-7.9,12.9-13c3.5-5,5.6-10.9,5.9-17c0.2-3,0-6-0.9-8.9
			c-0.9-2.9-2.3-5.6-4.1-8c-3.6-4.9-8.6-8.7-13.8-11.9c-5.2-3.3-10.8-6-16.5-8.5c-11.4-5-23.1-9.2-34.7-13.7
			c-5.8-2.3-11.6-4.7-17.3-7.3c-5.7-2.7-11.2-5.6-16.4-9.2c-5.1-3.6-10-8-13.1-13.7c-1.5-2.8-2.6-6-2.9-9.2
			c-0.4-3.2-0.1-6.4,0.4-9.6c1.1-6.3,4-12.2,8-17.2c4-5,8.9-9.1,14-12.7c10.3-7.2,21.7-12.6,33-17.9c11.3-5.3,22.7-10.3,33.5-16.5
			c5.4-3.1,10.6-6.5,15.3-10.5c4.7-4,8.9-8.6,11.7-14c5.8-10.7,5.3-24.6-1.3-34.8c-3.2-5.2-7.6-9.6-12.5-13.4
			c-4.8-3.8-10.1-7.1-15.5-10.1c-10.9-6-22.3-11.1-33.5-16.4c-5.6-2.7-11.3-5.4-16.8-8.4c-5.5-3-10.9-6.2-15.9-10
			c-5-3.8-9.7-8.1-13.3-13.3c-3.6-5.2-6-11.3-6.6-17.6c-0.3-3.2-0.2-6.3,0.2-9.5c0.4-3.1,1.1-6.2,2.2-9.2c2.1-6,5.6-11.4,9.8-16
			c4.2-4.7,9-8.7,14.1-12.4c5.1-3.6,10.4-6.9,15.9-9.9c10.9-6.1,22.1-11.6,33-17.6c5.5-3,10.8-6.1,16-9.6
			c5.2-3.5,10.1-7.3,14.5-11.7c4.4-4.4,8.2-9.5,10.8-15.1C133.5,12.5,134.8,6.2,134.8,0z"/>
	</g>
</g>
<g id="Calque_2_1_">
	<g>
		<path class="st1" d="M10.6,35.6H9.7V17.1l-1.6,6.3H7.2l2.5-8.7h0.9L10.6,35.6L10.6,35.6z"/>
	</g>
	<g>
		<path class="st1" d="M12.7,641.9c-0.2,0.3-0.5,0.8-0.8,1.4c-0.3,0.6-0.9,1.7-1.8,3.5c-0.9,1.7-1.6,3.4-2.2,5
			c-0.6,1.6-1.2,3.5-1.8,5.5c-0.5,2-0.8,3.9-0.8,5.5H4.4c0-2.2,0.4-4.7,1.3-7.6s1.8-5.2,2.7-7.2s1.9-3.7,2.8-5.2H1.4v-0.9
			L12.7,641.9L12.7,641.9z"/>
	</g>
	<g>
		<path class="st1" d="M154.6,140.3h-11.8v-2.1c0-0.9,0.3-1.8,0.8-2.7c0.5-0.9,1.2-1.7,2-2.4s1.7-1.4,2.7-2.1c1-0.7,1.8-1.4,2.7-2.1
			c0.8-0.6,1.5-1.3,2-2.1c0.5-0.8,0.8-1.5,0.8-2.3c0-1-0.1-1.8-0.4-2.4c-0.3-0.6-0.7-1.1-1.2-1.4c-0.5-0.3-1.1-0.5-1.6-0.6
			c-0.5-0.1-1.2-0.1-2-0.1c-1.2,0-2.1,0.3-2.9,0.8c-0.8,0.5-1.4,1.5-1.8,2.8l3.2,2.4h-1.5l-2.8-2.1c0.4-1.6,1.1-2.8,2-3.6
			c0.9-0.8,2.2-1.2,3.7-1.2c2.2,0,3.8,0.4,4.7,1.3c1,0.9,1.5,2.2,1.5,4.2c0,0.9-0.3,1.7-0.8,2.6c-0.5,0.9-1.2,1.6-2,2.3
			s-1.7,1.3-2.7,2.1c-1,0.7-1.8,1.4-2.7,2c-0.8,0.6-1.5,1.4-2,2.2c-0.5,0.8-0.8,1.6-0.8,2.5v1.2h10.9L154.6,140.3L154.6,140.3z"/>
	</g>
	<g>
		<path class="st1" d="M1.5,223.7h11.7l-6.3,8c0.9,0.1,1.7,0.3,2.5,0.6s1.5,0.7,2.2,1.2s1.2,1.2,1.6,2s0.6,1.7,0.6,2.8
			c0,2-0.6,3.7-1.8,4.8c-1.2,1.2-2.9,1.8-5,1.8c-1,0-1.8-0.1-2.7-0.4c-0.8-0.3-1.5-0.6-2-0.9c-0.5-0.4-0.9-0.7-1.3-1.1
			c-0.4-0.4-0.6-0.7-0.8-0.9L0,241.1l0.8-0.4c0.1,0.1,0.1,0.2,0.2,0.3c0.1,0.1,0.3,0.4,0.7,0.8c0.4,0.4,0.8,0.7,1.2,1
			c0.4,0.3,1,0.5,1.7,0.8c0.7,0.2,1.5,0.3,2.3,0.3c1.9,0,3.3-0.5,4.4-1.5s1.5-2.4,1.5-4.2c0-1.6-0.6-2.9-1.7-3.8
			c-1.1-0.9-2.6-1.5-4.4-1.8l-1.5-0.2l6-7.7H1.5L1.5,223.7L1.5,223.7z"/>
	</g>
	<g>
		<path class="st1" d="M151.8,349.2h-0.9v-6.1h-8.2v-0.9l8-13.9h1v13.9h2.4v0.9h-2.4L151.8,349.2L151.8,349.2z M150.9,342.2v-12.4
			l-7.1,12.4L150.9,342.2L150.9,342.2z"/>
	</g>
	<g>
		<path class="st1" d="M3,439.2h3.2c1.8,0,3.5,0.7,4.8,2.1c1.4,1.4,2.1,3.1,2.1,5.2c0,2.1-0.6,3.9-1.9,5.3s-2.9,2.1-4.9,2.1
			c-1,0-1.8-0.1-2.6-0.4c-0.8-0.2-1.4-0.6-1.8-0.9s-0.8-0.7-1.1-1.1s-0.5-0.7-0.6-0.9l-0.1-0.4l0.8-0.4c0,0.1,0.1,0.2,0.1,0.3
			c0.1,0.1,0.2,0.4,0.5,0.7c0.3,0.4,0.6,0.7,1,1s0.9,0.5,1.5,0.7s1.4,0.3,2.2,0.3c1.8,0,3.3-0.6,4.3-1.9c1.1-1.2,1.6-2.8,1.6-4.6
			c0-1.7-0.6-3.3-1.8-4.5c-1.2-1.3-2.6-1.9-4.3-1.9h-4v-7.4h8.8v0.9H3V439.2z"/>
	</g>
	<g>
		<path class="st1" d="M143.9,551.1c0,2,0.5,3.6,1.6,4.8s2.5,1.8,4.3,1.8c1.3,0,2.4-0.3,3.4-1c1-0.7,1.4-1.9,1.4-3.5
			c0-0.9-0.2-1.6-0.5-2.3c-0.4-0.7-0.8-1.2-1.3-1.5c-0.5-0.3-1-0.6-1.5-0.8c-0.5-0.2-0.9-0.3-1.3-0.3c-0.6,0-1.2,0.1-1.7,0.3
			c-0.6,0.2-1,0.3-1.3,0.5c-0.3,0.2-0.5,0.3-0.6,0.4l-0.5-0.7c0.1-0.1,0.3-0.2,0.6-0.4c0.2-0.1,0.7-0.3,1.4-0.6s1.4-0.4,2.1-0.4
			c1.3,0,2.6,0.5,3.8,1.5c1.2,1,1.8,2.4,1.8,4.2c0,1.9-0.6,3.2-1.7,4.1c-1.1,0.9-2.5,1.3-4.1,1.3c-2,0-3.6-0.7-4.9-2
			c-1.2-1.3-1.9-3.1-1.9-5.4c0-1.3,0.2-2.6,0.7-4.1c0.5-1.5,1.1-2.9,2-4.3s2-2.6,3.5-3.7c1.4-1.1,3.1-1.7,4.8-2l0.2,0.9
			c-1.3,0.2-2.6,0.6-3.7,1.3c-1.2,0.7-2.1,1.5-2.9,2.4c-0.8,0.9-1.5,2-2,3.1c-0.6,1.1-1,2.2-1.3,3.3
			C144.1,549.2,143.9,550.2,143.9,551.1z"/>
	</g>
</g>
<g id="Calque_3">
	<g>
		<path d="M52.8,642.6h3.7v1h-4.9V635h1.2C52.8,635,52.8,642.6,52.8,642.6z"/>
		<path d="M59.1,635.6c0,0.1,0,0.2-0.1,0.3s-0.1,0.2-0.2,0.2s-0.2,0.1-0.2,0.2s-0.2,0.1-0.3,0.1s-0.2,0-0.3-0.1s-0.2-0.1-0.2-0.2
			s-0.1-0.2-0.2-0.2s-0.1-0.2-0.1-0.3s0-0.2,0.1-0.3s0.1-0.2,0.2-0.2c0.1-0.1,0.2-0.1,0.2-0.2s0.2-0.1,0.3-0.1s0.2,0,0.3,0.1
			s0.2,0.1,0.2,0.2c0.1,0.1,0.1,0.2,0.2,0.2S59.1,635.5,59.1,635.6z M58.8,637.5v6.1h-1.1v-6.1H58.8z"/>
		<path d="M60,637.5h0.9c0.1,0,0.2,0,0.2,0.1s0.1,0.1,0.1,0.2l1.5,3.9c0.1,0.1,0.1,0.3,0.1,0.4c0,0.1,0.1,0.3,0.1,0.4
			c0-0.1,0.1-0.3,0.1-0.4c0-0.1,0.1-0.3,0.1-0.4l1.6-3.9c0-0.1,0.1-0.1,0.1-0.2c0.1,0,0.1-0.1,0.2-0.1h0.8l-2.5,6.1h-1L60,637.5z"/>
		<path d="M66.9,643.6v-6.1h0.6c0.1,0,0.2,0,0.2,0.1s0.1,0.1,0.1,0.2l0.1,0.9c0.2-0.4,0.5-0.8,0.8-1c0.3-0.2,0.7-0.4,1.1-0.4
			c0.2,0,0.3,0,0.5,0.1s0.3,0.1,0.4,0.2l-0.1,0.8c0,0.1-0.1,0.1-0.2,0.1c-0.1,0-0.1,0-0.3-0.1c-0.1,0-0.3-0.1-0.5-0.1
			c-0.4,0-0.7,0.1-0.9,0.3c-0.2,0.2-0.5,0.5-0.6,0.9v3.9L66.9,643.6L66.9,643.6z"/>
		<path d="M75.9,643.6h-0.5c-0.1,0-0.2,0-0.3,0s-0.1-0.1-0.1-0.2l-0.1-0.6c-0.2,0.1-0.3,0.3-0.5,0.4c-0.2,0.1-0.3,0.2-0.5,0.3
			c-0.2,0.1-0.3,0.1-0.5,0.2s-0.4,0.1-0.6,0.1c-0.2,0-0.5,0-0.7-0.1s-0.4-0.2-0.5-0.3c-0.2-0.1-0.3-0.3-0.4-0.5
			c-0.1-0.2-0.1-0.4-0.1-0.7c0-0.2,0.1-0.5,0.2-0.7s0.3-0.4,0.6-0.6c0.3-0.2,0.7-0.3,1.2-0.4s1.1-0.2,1.7-0.2v-0.5
			c0-0.5-0.1-0.8-0.3-1.1c-0.2-0.2-0.5-0.4-0.9-0.4c-0.3,0-0.5,0-0.7,0.1c-0.2,0.1-0.3,0.1-0.5,0.2s-0.2,0.2-0.3,0.2
			s-0.2,0.1-0.3,0.1c-0.1,0-0.1,0-0.2-0.1s-0.1-0.1-0.1-0.1l-0.2-0.3c0.3-0.3,0.7-0.6,1.1-0.7c0.4-0.2,0.8-0.2,1.3-0.2
			c0.3,0,0.6,0.1,0.9,0.2c0.3,0.1,0.5,0.3,0.7,0.5s0.3,0.4,0.4,0.7c0.1,0.3,0.1,0.6,0.1,0.9L75.9,643.6L75.9,643.6z M73.2,642.9
			c0.2,0,0.4,0,0.5-0.1s0.3-0.1,0.4-0.2s0.3-0.2,0.4-0.3s0.2-0.2,0.4-0.3v-1.3c-0.5,0-0.9,0-1.3,0.1c-0.3,0.1-0.6,0.1-0.8,0.2
			c-0.2,0.1-0.4,0.2-0.5,0.4c-0.1,0.1-0.1,0.3-0.1,0.5c0,0.2,0,0.3,0.1,0.4c0.1,0.1,0.1,0.2,0.2,0.3s0.2,0.1,0.3,0.2
			C72.9,642.9,73,642.9,73.2,642.9z"/>
		<path d="M79,635.6c0,0.1,0,0.2-0.1,0.3c0,0.1-0.1,0.2-0.2,0.2c-0.1,0.1-0.2,0.1-0.2,0.2c-0.1,0-0.2,0.1-0.3,0.1s-0.2,0-0.3-0.1
			c-0.1,0-0.2-0.1-0.2-0.2s-0.1-0.2-0.2-0.2s-0.1-0.2-0.1-0.3s0-0.2,0.1-0.3s0.1-0.2,0.2-0.2c0.1-0.1,0.2-0.1,0.2-0.2
			s0.2-0.1,0.3-0.1s0.2,0,0.3,0.1c0.1,0,0.2,0.1,0.2,0.2c0.1,0.1,0.1,0.2,0.2,0.2C79,635.4,79,635.5,79,635.6z M78.7,637.5v6.1h-1.1
			v-6.1H78.7z"/>
		<path d="M84.1,638.5c0,0.1-0.1,0.1-0.2,0.1c-0.1,0-0.1,0-0.2-0.1s-0.2-0.1-0.3-0.1c-0.1-0.1-0.2-0.1-0.4-0.1s-0.3-0.1-0.5-0.1
			c-0.2,0-0.3,0-0.5,0.1c-0.1,0-0.3,0.1-0.4,0.2c-0.1,0.1-0.2,0.2-0.2,0.3c-0.1,0.1-0.1,0.2-0.1,0.3c0,0.2,0,0.3,0.1,0.4
			c0.1,0.1,0.2,0.2,0.4,0.3c0.1,0.1,0.3,0.1,0.5,0.2c0.2,0.1,0.4,0.1,0.6,0.2c0.2,0.1,0.4,0.1,0.6,0.2c0.2,0.1,0.4,0.2,0.5,0.3
			c0.1,0.1,0.3,0.3,0.4,0.4c0.1,0.2,0.1,0.4,0.1,0.6c0,0.3-0.1,0.5-0.2,0.8s-0.2,0.4-0.4,0.6c-0.2,0.2-0.4,0.3-0.7,0.4
			c-0.3,0.1-0.6,0.1-1,0.1c-0.4,0-0.8-0.1-1.2-0.2c-0.3-0.1-0.6-0.3-0.9-0.5l0.3-0.4c0-0.1,0.1-0.1,0.1-0.1s0.1,0,0.2,0
			s0.1,0,0.2,0.1s0.2,0.1,0.3,0.2c0.1,0.1,0.3,0.1,0.4,0.2s0.4,0.1,0.6,0.1c0.2,0,0.4,0,0.5-0.1s0.3-0.1,0.4-0.2
			c0.1-0.1,0.2-0.2,0.2-0.3s0.1-0.2,0.1-0.4c0-0.2,0-0.3-0.1-0.4c-0.1-0.1-0.2-0.2-0.4-0.3c-0.1-0.1-0.3-0.1-0.5-0.2
			s-0.4-0.1-0.6-0.2c-0.2-0.1-0.4-0.1-0.6-0.2c-0.2-0.1-0.4-0.2-0.5-0.3s-0.3-0.3-0.4-0.5c-0.1-0.2-0.1-0.4-0.1-0.7
			c0-0.2,0-0.5,0.1-0.7c0.1-0.2,0.2-0.4,0.4-0.6c0.2-0.2,0.4-0.3,0.7-0.4c0.3-0.1,0.6-0.1,0.9-0.1c0.4,0,0.8,0.1,1.1,0.2
			c0.3,0.1,0.6,0.3,0.8,0.5L84.1,638.5z"/>
		<path d="M88.3,637.4c0.4,0,0.8,0.1,1.2,0.2c0.4,0.1,0.7,0.4,0.9,0.6c0.2,0.3,0.4,0.6,0.6,1c0.1,0.4,0.2,0.8,0.2,1.3
			c0,0.5-0.1,0.9-0.2,1.3c-0.1,0.4-0.3,0.7-0.6,1c-0.2,0.3-0.6,0.5-0.9,0.6c-0.4,0.1-0.8,0.2-1.2,0.2s-0.8-0.1-1.2-0.2
			c-0.4-0.1-0.7-0.4-0.9-0.6c-0.3-0.3-0.4-0.6-0.6-1s-0.2-0.8-0.2-1.3c0-0.5,0.1-0.9,0.2-1.3s0.3-0.7,0.6-1c0.3-0.3,0.6-0.5,0.9-0.6
			C87.5,637.5,87.9,637.4,88.3,637.4z M88.3,642.8c0.6,0,1-0.2,1.3-0.6c0.3-0.4,0.4-1,0.4-1.7c0-0.7-0.1-1.3-0.4-1.7
			c-0.3-0.4-0.7-0.6-1.3-0.6c-0.3,0-0.6,0.1-0.8,0.2s-0.4,0.3-0.6,0.5c-0.2,0.2-0.3,0.4-0.3,0.7c-0.1,0.3-0.1,0.6-0.1,1s0,0.7,0.1,1
			c0.1,0.3,0.2,0.5,0.3,0.7c0.1,0.2,0.3,0.3,0.6,0.4C87.7,642.8,88,642.8,88.3,642.8z"/>
		<path d="M92.5,643.6v-6.1h0.6c0.2,0,0.2,0.1,0.3,0.2l0.1,0.7c0.3-0.3,0.6-0.5,0.9-0.7c0.3-0.2,0.7-0.3,1.1-0.3
			c0.3,0,0.6,0.1,0.9,0.2c0.3,0.1,0.5,0.3,0.6,0.5s0.3,0.4,0.4,0.7c0.1,0.3,0.1,0.6,0.1,0.9v3.9h-1.1v-3.9c0-0.5-0.1-0.8-0.3-1.1
			c-0.2-0.3-0.5-0.4-1-0.4c-0.3,0-0.6,0.1-0.9,0.2c-0.3,0.2-0.5,0.4-0.8,0.6v4.5L92.5,643.6L92.5,643.6z"/>
		<path d="M73.1,658c-0.2,0-0.2-0.1-0.3-0.2l-0.1-0.7c-0.3,0.3-0.6,0.6-0.9,0.8s-0.7,0.3-1.1,0.3c-0.3,0-0.7-0.1-0.9-0.2
			s-0.5-0.3-0.7-0.6s-0.4-0.6-0.5-1c-0.1-0.4-0.2-0.8-0.2-1.3c0-0.4,0.1-0.9,0.2-1.3c0.1-0.4,0.3-0.7,0.5-1c0.2-0.3,0.5-0.5,0.8-0.7
			s0.7-0.2,1.1-0.2c0.4,0,0.7,0.1,1,0.2s0.5,0.3,0.7,0.5v-3.4h1.1v8.8L73.1,658L73.1,658z M71,657.2c0.3,0,0.7-0.1,0.9-0.2
			c0.3-0.2,0.5-0.4,0.7-0.7v-2.9c-0.2-0.3-0.4-0.4-0.6-0.6c-0.2-0.1-0.5-0.2-0.8-0.2c-0.6,0-1,0.2-1.3,0.6s-0.5,1-0.5,1.7
			c0,0.4,0,0.7,0.1,1c0.1,0.3,0.2,0.5,0.3,0.7s0.3,0.3,0.5,0.4C70.6,657.2,70.8,657.2,71,657.2z"/>
		<path d="M78,651.8c0.4,0,0.7,0.1,1,0.2c0.3,0.1,0.6,0.3,0.8,0.5c0.2,0.2,0.4,0.5,0.5,0.9c0.1,0.3,0.2,0.7,0.2,1.2
			c0,0.2,0,0.3-0.1,0.3c0,0.1-0.1,0.1-0.2,0.1h-4c0,0.4,0.1,0.7,0.2,1s0.2,0.5,0.4,0.7c0.2,0.2,0.4,0.3,0.6,0.4
			c0.2,0.1,0.5,0.1,0.8,0.1c0.3,0,0.5,0,0.7-0.1s0.4-0.1,0.5-0.2s0.3-0.1,0.4-0.2c0.1-0.1,0.2-0.1,0.2-0.1c0.1,0,0.2,0,0.2,0.1
			l0.3,0.4c-0.1,0.2-0.3,0.3-0.5,0.4c-0.2,0.1-0.4,0.2-0.6,0.3c-0.2,0.1-0.4,0.1-0.7,0.2s-0.4,0.1-0.7,0.1c-0.4,0-0.8-0.1-1.2-0.2
			s-0.7-0.3-0.9-0.6c-0.3-0.3-0.5-0.6-0.6-1c-0.1-0.4-0.2-0.9-0.2-1.4c0-0.4,0.1-0.8,0.2-1.2s0.3-0.7,0.6-1c0.2-0.3,0.5-0.5,0.9-0.6
			C77.1,651.9,77.5,651.8,78,651.8z M78,652.6c-0.5,0-0.9,0.1-1.2,0.4c-0.3,0.3-0.5,0.7-0.6,1.2h3.3c0-0.2,0-0.5-0.1-0.7
			c-0.1-0.2-0.2-0.4-0.3-0.5c-0.1-0.2-0.3-0.3-0.5-0.3S78.2,652.6,78,652.6z"/>
		<path d="M49.8,666.3h0.9c0.1,0,0.2,0,0.2,0.1s0.1,0.1,0.1,0.2l1.5,3.9c0.1,0.1,0.1,0.3,0.1,0.4c0,0.1,0.1,0.3,0.1,0.4
			c0-0.1,0.1-0.3,0.1-0.4c0-0.1,0.1-0.3,0.1-0.4l1.6-3.9c0-0.1,0.1-0.1,0.1-0.2s0.1-0.1,0.2-0.1h0.8l-2.5,6.1h-1L49.8,666.3z"/>
		<path d="M59,666.2c0.4,0,0.8,0.1,1.2,0.2c0.4,0.1,0.7,0.4,0.9,0.6c0.2,0.3,0.4,0.6,0.6,1c0.1,0.4,0.2,0.8,0.2,1.3
			c0,0.5-0.1,0.9-0.2,1.3c-0.1,0.4-0.3,0.7-0.6,1c-0.2,0.3-0.6,0.5-0.9,0.6c-0.4,0.1-0.8,0.2-1.2,0.2s-0.8-0.1-1.2-0.2
			c-0.4-0.1-0.7-0.4-0.9-0.6c-0.3-0.3-0.4-0.6-0.6-1c-0.1-0.4-0.2-0.8-0.2-1.3c0-0.5,0.1-0.9,0.2-1.3c0.1-0.4,0.3-0.7,0.6-1
			c0.3-0.3,0.6-0.5,0.9-0.6C58.1,666.3,58.5,666.2,59,666.2z M59,671.6c0.6,0,1-0.2,1.3-0.6c0.3-0.4,0.4-1,0.4-1.7
			c0-0.7-0.1-1.3-0.4-1.7c-0.3-0.4-0.7-0.6-1.3-0.6c-0.3,0-0.6,0.1-0.8,0.2s-0.4,0.3-0.6,0.5c-0.2,0.2-0.3,0.4-0.3,0.7
			s-0.1,0.6-0.1,1s0,0.7,0.1,1c0.1,0.3,0.2,0.5,0.3,0.7c0.2,0.2,0.3,0.3,0.6,0.4C58.4,671.6,58.7,671.6,59,671.6z"/>
		<path d="M65,672.5c-0.5,0-0.8-0.1-1.1-0.4c-0.3-0.3-0.4-0.7-0.4-1.2v-3.7h-0.7c-0.1,0-0.1,0-0.2-0.1s-0.1-0.1-0.1-0.2v-0.4l1-0.1
			l0.2-1.9c0-0.1,0-0.1,0.1-0.1s0.1-0.1,0.2-0.1h0.5v2.1h1.7v0.8h-1.7v3.6c0,0.3,0.1,0.4,0.2,0.6s0.3,0.2,0.5,0.2c0.1,0,0.2,0,0.3,0
			s0.2-0.1,0.2-0.1s0.1-0.1,0.2-0.1c0,0,0.1,0,0.1,0c0.1,0,0.1,0,0.2,0.1l0.3,0.5c-0.2,0.2-0.4,0.3-0.7,0.4
			C65.6,672.4,65.3,672.5,65,672.5z"/>
		<path d="M67.7,672.4v-6.1h0.6c0.1,0,0.2,0,0.2,0.1s0.1,0.1,0.1,0.2l0.1,0.9c0.2-0.4,0.5-0.8,0.8-1c0.3-0.2,0.7-0.4,1.1-0.4
			c0.2,0,0.3,0,0.5,0.1s0.3,0.1,0.4,0.2l-0.1,0.8c0,0.1-0.1,0.1-0.2,0.1c-0.1,0-0.1,0-0.3-0.1c-0.1,0-0.3-0.1-0.5-0.1
			c-0.4,0-0.7,0.1-0.9,0.3c-0.2,0.2-0.5,0.5-0.6,0.9v3.9L67.7,672.4L67.7,672.4z"/>
		<path d="M74.9,666.2c0.4,0,0.7,0.1,1,0.2s0.6,0.3,0.8,0.5c0.2,0.2,0.4,0.5,0.5,0.9c0.1,0.3,0.2,0.7,0.2,1.2c0,0.2,0,0.3-0.1,0.3
			c0,0.1-0.1,0.1-0.2,0.1h-4c0,0.4,0.1,0.7,0.2,1s0.2,0.5,0.4,0.7c0.2,0.2,0.4,0.3,0.6,0.4c0.2,0.1,0.5,0.1,0.8,0.1
			c0.3,0,0.5,0,0.7-0.1s0.4-0.1,0.5-0.2s0.3-0.1,0.4-0.2c0.1-0.1,0.2-0.1,0.2-0.1c0.1,0,0.2,0,0.2,0.1l0.3,0.4
			c-0.1,0.2-0.3,0.3-0.5,0.4c-0.2,0.1-0.4,0.2-0.6,0.3c-0.2,0.1-0.4,0.1-0.7,0.2s-0.4,0.1-0.7,0.1c-0.4,0-0.8-0.1-1.2-0.2
			s-0.7-0.3-0.9-0.6c-0.3-0.3-0.5-0.6-0.6-1c-0.1-0.4-0.2-0.9-0.2-1.4c0-0.4,0.1-0.8,0.2-1.2s0.3-0.7,0.6-1c0.2-0.3,0.5-0.5,0.9-0.6
			C74.1,666.3,74.5,666.2,74.9,666.2z M74.9,667c-0.5,0-0.9,0.1-1.2,0.4c-0.3,0.3-0.5,0.7-0.6,1.2h3.3c0-0.2,0-0.5-0.1-0.7
			c-0.1-0.2-0.2-0.4-0.3-0.5s-0.3-0.3-0.5-0.3S75.2,667,74.9,667z"/>
		<path d="M84.6,667.3c0,0.1-0.1,0.1-0.2,0.1c-0.1,0-0.1,0-0.2-0.1s-0.2-0.1-0.3-0.1c-0.1-0.1-0.2-0.1-0.4-0.1s-0.3-0.1-0.5-0.1
			c-0.2,0-0.3,0-0.5,0.1c-0.1,0-0.3,0.1-0.4,0.2c-0.1,0.1-0.2,0.2-0.2,0.3c-0.1,0.1-0.1,0.2-0.1,0.3c0,0.2,0,0.3,0.1,0.4
			c0.1,0.1,0.2,0.2,0.4,0.3c0.1,0.1,0.3,0.1,0.5,0.2c0.2,0.1,0.4,0.1,0.6,0.2c0.2,0.1,0.4,0.1,0.6,0.2c0.2,0.1,0.4,0.2,0.5,0.3
			c0.1,0.1,0.3,0.3,0.4,0.4c0.1,0.2,0.1,0.4,0.1,0.6c0,0.3-0.1,0.5-0.2,0.8s-0.2,0.4-0.4,0.6c-0.2,0.2-0.4,0.3-0.7,0.4
			c-0.3,0.1-0.6,0.1-1,0.1c-0.4,0-0.8-0.1-1.2-0.2c-0.3-0.1-0.6-0.3-0.9-0.5l0.3-0.4c0-0.1,0.1-0.1,0.1-0.1s0.1,0,0.2,0
			s0.1,0,0.2,0.1s0.2,0.1,0.3,0.2c0.1,0.1,0.3,0.1,0.4,0.2s0.4,0.1,0.6,0.1c0.2,0,0.4,0,0.5-0.1s0.3-0.1,0.4-0.2
			c0.1-0.1,0.2-0.2,0.2-0.3s0.1-0.2,0.1-0.4c0-0.2,0-0.3-0.1-0.4c-0.1-0.1-0.2-0.2-0.4-0.3c-0.1-0.1-0.3-0.1-0.5-0.2
			s-0.4-0.1-0.6-0.2c-0.2-0.1-0.4-0.1-0.6-0.2c-0.2-0.1-0.4-0.2-0.5-0.3s-0.3-0.3-0.4-0.5c-0.1-0.2-0.1-0.4-0.1-0.7
			c0-0.2,0-0.5,0.1-0.7c0.1-0.2,0.2-0.4,0.4-0.6c0.2-0.2,0.4-0.3,0.7-0.4c0.3-0.1,0.6-0.1,0.9-0.1c0.4,0,0.8,0.1,1.1,0.2
			c0.3,0.1,0.6,0.3,0.8,0.5L84.6,667.3z"/>
		<path d="M87.7,664.4c0,0.1,0,0.2-0.1,0.3s-0.1,0.2-0.2,0.2c-0.1,0.1-0.2,0.1-0.2,0.2s-0.2,0.1-0.3,0.1s-0.2,0-0.3-0.1
			s-0.2-0.1-0.2-0.2s-0.1-0.2-0.2-0.2s-0.1-0.2-0.1-0.3s0-0.2,0.1-0.3s0.1-0.2,0.2-0.2c0.1-0.1,0.2-0.1,0.2-0.2s0.2-0.1,0.3-0.1
			c0.1,0,0.2,0,0.3,0.1s0.2,0.1,0.2,0.2c0.1,0.1,0.1,0.2,0.2,0.2S87.7,664.3,87.7,664.4z M87.5,666.3v6.1h-1.1v-6.1H87.5z"/>
		<path d="M91.2,672.5c-0.5,0-0.8-0.1-1.1-0.4c-0.3-0.3-0.4-0.7-0.4-1.2v-3.7H89c-0.1,0-0.1,0-0.2-0.1s-0.1-0.1-0.1-0.2v-0.4l1-0.1
			l0.2-1.9c0-0.1,0-0.1,0.1-0.1s0.1-0.1,0.2-0.1h0.5v2.1h1.7v0.8h-1.7v3.6c0,0.3,0.1,0.4,0.2,0.6s0.3,0.2,0.5,0.2c0.1,0,0.2,0,0.3,0
			s0.2-0.1,0.2-0.1c0.1,0,0.1-0.1,0.2-0.1c0,0,0.1,0,0.1,0c0.1,0,0.1,0,0.2,0.1l0.3,0.5c-0.2,0.2-0.4,0.3-0.7,0.4
			C91.8,672.4,91.5,672.5,91.2,672.5z"/>
		<path d="M96.3,666.2c0.4,0,0.7,0.1,1,0.2s0.6,0.3,0.8,0.5c0.2,0.2,0.4,0.5,0.5,0.9c0.1,0.3,0.2,0.7,0.2,1.2c0,0.2,0,0.3-0.1,0.3
			c0,0.1-0.1,0.1-0.2,0.1h-4c0,0.4,0.1,0.7,0.2,1s0.2,0.5,0.4,0.7c0.2,0.2,0.4,0.3,0.6,0.4c0.2,0.1,0.5,0.1,0.8,0.1
			c0.3,0,0.5,0,0.7-0.1s0.4-0.1,0.5-0.2s0.3-0.1,0.4-0.2c0.1-0.1,0.2-0.1,0.2-0.1c0.1,0,0.2,0,0.2,0.1l0.3,0.4
			c-0.1,0.2-0.3,0.3-0.5,0.4c-0.2,0.1-0.4,0.2-0.6,0.3c-0.2,0.1-0.4,0.1-0.7,0.2s-0.4,0.1-0.7,0.1c-0.4,0-0.8-0.1-1.2-0.2
			c-0.4-0.1-0.7-0.3-0.9-0.6c-0.3-0.3-0.5-0.6-0.6-1c-0.1-0.4-0.2-0.9-0.2-1.4c0-0.4,0.1-0.8,0.2-1.2s0.3-0.7,0.6-1
			c0.2-0.3,0.5-0.5,0.9-0.6C95.4,666.3,95.8,666.2,96.3,666.2z M96.3,667c-0.5,0-0.9,0.1-1.2,0.4c-0.3,0.3-0.5,0.7-0.6,1.2h3.3
			c0-0.2,0-0.5-0.1-0.7c-0.1-0.2-0.2-0.4-0.3-0.5c-0.1-0.2-0.3-0.3-0.5-0.3C96.7,667,96.5,667,96.3,667z"/>
	</g>
	<g>
		<path d="M59.8,530.9v1H57v7.6h-1.2v-7.6h-2.8v-1H59.8z"/>
		<path d="M62,533.3c0.4,0,0.7,0.1,1,0.2s0.6,0.3,0.8,0.5c0.2,0.2,0.4,0.5,0.5,0.9c0.1,0.3,0.2,0.7,0.2,1.2c0,0.2,0,0.3-0.1,0.3
			c0,0.1-0.1,0.1-0.2,0.1h-4c0,0.4,0.1,0.7,0.2,1c0.1,0.3,0.2,0.5,0.4,0.7s0.4,0.3,0.6,0.4c0.2,0.1,0.5,0.1,0.8,0.1
			c0.3,0,0.5,0,0.7-0.1s0.4-0.1,0.5-0.2s0.3-0.1,0.4-0.2s0.2-0.1,0.2-0.1c0.1,0,0.2,0,0.2,0.1l0.3,0.4c-0.1,0.2-0.3,0.3-0.5,0.4
			c-0.2,0.1-0.4,0.2-0.6,0.3c-0.2,0.1-0.4,0.1-0.7,0.2c-0.2,0-0.4,0.1-0.7,0.1c-0.4,0-0.8-0.1-1.2-0.2s-0.7-0.3-0.9-0.6
			c-0.3-0.3-0.5-0.6-0.6-1c-0.1-0.4-0.2-0.9-0.2-1.4c0-0.4,0.1-0.8,0.2-1.2s0.3-0.7,0.6-1c0.2-0.3,0.5-0.5,0.9-0.6
			C61.2,533.4,61.6,533.3,62,533.3z M62,534.1c-0.5,0-0.9,0.1-1.2,0.4c-0.3,0.3-0.5,0.7-0.6,1.2h3.3c0-0.2,0-0.5-0.1-0.7
			c-0.1-0.2-0.2-0.4-0.3-0.5s-0.3-0.3-0.5-0.3S62.3,534.1,62,534.1z"/>
		<path d="M69.4,534.4c0,0.1-0.1,0.1-0.2,0.1c-0.1,0-0.1,0-0.2-0.1c-0.1,0-0.2-0.1-0.3-0.1c-0.1-0.1-0.2-0.1-0.4-0.1
			c-0.2,0-0.3-0.1-0.5-0.1c-0.2,0-0.3,0-0.5,0.1s-0.3,0.1-0.4,0.2c-0.1,0.1-0.2,0.2-0.2,0.3c-0.1,0.1-0.1,0.2-0.1,0.3
			c0,0.2,0,0.3,0.1,0.4c0.1,0.1,0.2,0.2,0.4,0.3s0.3,0.1,0.5,0.2c0.2,0.1,0.4,0.1,0.6,0.2c0.2,0.1,0.4,0.1,0.6,0.2s0.4,0.2,0.5,0.3
			s0.3,0.3,0.4,0.4s0.1,0.4,0.1,0.6c0,0.3-0.1,0.5-0.2,0.8s-0.2,0.4-0.4,0.6s-0.4,0.3-0.7,0.4c-0.3,0.1-0.6,0.1-1,0.1
			c-0.4,0-0.8-0.1-1.2-0.2c-0.3-0.1-0.6-0.3-0.9-0.5l0.3-0.4c0-0.1,0.1-0.1,0.1-0.1s0.1,0,0.2,0c0.1,0,0.1,0,0.2,0.1
			c0.1,0.1,0.2,0.1,0.3,0.2s0.3,0.1,0.4,0.2s0.4,0.1,0.6,0.1c0.2,0,0.4,0,0.5-0.1s0.3-0.1,0.4-0.2c0.1-0.1,0.2-0.2,0.2-0.3
			s0.1-0.2,0.1-0.4c0-0.2,0-0.3-0.1-0.4s-0.2-0.2-0.4-0.3s-0.3-0.1-0.5-0.2s-0.4-0.1-0.6-0.2c-0.2-0.1-0.4-0.1-0.6-0.2
			s-0.4-0.2-0.5-0.3s-0.3-0.3-0.4-0.5c-0.1-0.2-0.1-0.4-0.1-0.7c0-0.2,0-0.5,0.1-0.7s0.2-0.4,0.4-0.6c0.2-0.2,0.4-0.3,0.7-0.4
			c0.3-0.1,0.6-0.1,0.9-0.1c0.4,0,0.8,0.1,1.1,0.2s0.6,0.3,0.8,0.5L69.4,534.4z"/>
		<path d="M72.9,539.6c-0.5,0-0.8-0.1-1.1-0.4c-0.3-0.3-0.4-0.7-0.4-1.2v-3.7h-0.7c-0.1,0-0.1,0-0.2-0.1s-0.1-0.1-0.1-0.2v-0.4
			l1-0.1l0.2-1.9c0-0.1,0-0.1,0.1-0.1s0.1-0.1,0.2-0.1h0.5v2.1h1.7v0.8h-1.7v3.6c0,0.3,0.1,0.4,0.2,0.6s0.3,0.2,0.5,0.2
			c0.1,0,0.2,0,0.3,0s0.2-0.1,0.2-0.1s0.1-0.1,0.2-0.1c0,0,0.1,0,0.1,0c0.1,0,0.1,0,0.2,0.1l0.3,0.5c-0.2,0.2-0.4,0.3-0.7,0.4
			C73.5,539.5,73.2,539.6,72.9,539.6z"/>
		<path d="M79.1,534.4c0,0.1-0.1,0.1-0.2,0.1c-0.1,0-0.1,0-0.2-0.1c-0.1,0-0.2-0.1-0.3-0.1c-0.1-0.1-0.2-0.1-0.4-0.1
			c-0.2,0-0.3-0.1-0.5-0.1c-0.2,0-0.3,0-0.5,0.1s-0.3,0.1-0.4,0.2c-0.1,0.1-0.2,0.2-0.2,0.3c-0.1,0.1-0.1,0.2-0.1,0.3
			c0,0.2,0,0.3,0.1,0.4c0.1,0.1,0.2,0.2,0.4,0.3s0.3,0.1,0.5,0.2c0.2,0.1,0.4,0.1,0.6,0.2c0.2,0.1,0.4,0.1,0.6,0.2
			c0.2,0.1,0.4,0.2,0.5,0.3c0.1,0.1,0.3,0.3,0.4,0.4c0.1,0.2,0.1,0.4,0.1,0.6c0,0.3-0.1,0.5-0.2,0.8s-0.2,0.4-0.4,0.6
			c-0.2,0.2-0.4,0.3-0.7,0.4c-0.3,0.1-0.6,0.1-1,0.1c-0.4,0-0.8-0.1-1.2-0.2c-0.3-0.1-0.6-0.3-0.9-0.5l0.3-0.4
			c0-0.1,0.1-0.1,0.1-0.1s0.1,0,0.2,0c0.1,0,0.1,0,0.2,0.1c0.1,0.1,0.2,0.1,0.3,0.2s0.3,0.1,0.4,0.2s0.4,0.1,0.6,0.1
			c0.2,0,0.4,0,0.5-0.1s0.3-0.1,0.4-0.2c0.1-0.1,0.2-0.2,0.2-0.3s0.1-0.2,0.1-0.4c0-0.2,0-0.3-0.1-0.4s-0.2-0.2-0.4-0.3
			s-0.3-0.1-0.5-0.2s-0.4-0.1-0.6-0.2c-0.2-0.1-0.4-0.1-0.6-0.2s-0.4-0.2-0.5-0.3s-0.3-0.3-0.4-0.5c-0.1-0.2-0.1-0.4-0.1-0.7
			c0-0.2,0-0.5,0.1-0.7s0.2-0.4,0.4-0.6c0.2-0.2,0.4-0.3,0.7-0.4c0.3-0.1,0.6-0.1,0.9-0.1c0.4,0,0.8,0.1,1.1,0.2s0.6,0.3,0.8,0.5
			L79.1,534.4z"/>
		<path d="M87.4,539.5c-0.2,0-0.2-0.1-0.3-0.2l-0.1-0.7c-0.3,0.3-0.6,0.6-0.9,0.8s-0.7,0.3-1.1,0.3c-0.3,0-0.7-0.1-0.9-0.2
			s-0.5-0.3-0.7-0.6s-0.4-0.6-0.5-1c-0.1-0.4-0.2-0.8-0.2-1.3c0-0.4,0.1-0.9,0.2-1.3c0.1-0.4,0.3-0.7,0.5-1c0.2-0.3,0.5-0.5,0.8-0.7
			s0.7-0.2,1.1-0.2c0.4,0,0.7,0.1,1,0.2c0.3,0.1,0.5,0.3,0.7,0.5v-3.4H88v8.8L87.4,539.5L87.4,539.5z M85.3,538.7
			c0.3,0,0.7-0.1,0.9-0.2c0.3-0.2,0.5-0.4,0.7-0.7v-2.9c-0.2-0.3-0.4-0.4-0.6-0.6c-0.2-0.1-0.5-0.2-0.8-0.2c-0.6,0-1,0.2-1.3,0.6
			c-0.3,0.4-0.5,1-0.5,1.7c0,0.4,0,0.7,0.1,1c0.1,0.3,0.2,0.5,0.3,0.7c0.1,0.2,0.3,0.3,0.5,0.4C84.8,538.7,85.1,538.7,85.3,538.7z"
			/>
		<path d="M92.2,533.3c0.4,0,0.7,0.1,1,0.2s0.6,0.3,0.8,0.5c0.2,0.2,0.4,0.5,0.5,0.9c0.1,0.3,0.2,0.7,0.2,1.2c0,0.2,0,0.3-0.1,0.3
			c0,0.1-0.1,0.1-0.2,0.1h-4c0,0.4,0.1,0.7,0.2,1s0.2,0.5,0.4,0.7c0.2,0.2,0.4,0.3,0.6,0.4c0.2,0.1,0.5,0.1,0.8,0.1
			c0.3,0,0.5,0,0.7-0.1s0.4-0.1,0.5-0.2s0.3-0.1,0.4-0.2c0.1-0.1,0.2-0.1,0.2-0.1c0.1,0,0.2,0,0.2,0.1l0.3,0.4
			c-0.1,0.2-0.3,0.3-0.5,0.4c-0.2,0.1-0.4,0.2-0.6,0.3c-0.2,0.1-0.4,0.1-0.7,0.2s-0.4,0.1-0.7,0.1c-0.4,0-0.8-0.1-1.2-0.2
			c-0.4-0.1-0.7-0.3-0.9-0.6c-0.3-0.3-0.5-0.6-0.6-1c-0.1-0.4-0.2-0.9-0.2-1.4c0-0.4,0.1-0.8,0.2-1.2s0.3-0.7,0.6-1
			c0.2-0.3,0.5-0.5,0.9-0.6C91.4,533.4,91.8,533.3,92.2,533.3z M92.2,534.1c-0.5,0-0.9,0.1-1.2,0.4c-0.3,0.3-0.5,0.7-0.6,1.2h3.3
			c0-0.2,0-0.5-0.1-0.7c-0.1-0.2-0.2-0.4-0.3-0.5c-0.1-0.2-0.3-0.3-0.5-0.3C92.7,534.1,92.5,534.1,92.2,534.1z"/>
		<path d="M56.3,547.8v8.1h-1.1v-3c-0.3,0.3-0.5,0.5-0.9,0.7c-0.3,0.2-0.7,0.3-1.1,0.3c-0.3,0-0.7-0.1-0.9-0.2s-0.5-0.3-0.7-0.6
			s-0.4-0.6-0.5-1c-0.1-0.4-0.2-0.8-0.2-1.3c0-0.4,0.1-0.9,0.2-1.3c0.1-0.4,0.3-0.7,0.5-1c0.2-0.3,0.5-0.5,0.8-0.7s0.7-0.2,1.1-0.2
			c0.4,0,0.7,0.1,1,0.2c0.3,0.1,0.5,0.3,0.7,0.6l0.1-0.5c0-0.1,0.1-0.2,0.3-0.2L56.3,547.8L56.3,547.8z M53.6,553.1
			c0.3,0,0.7-0.1,0.9-0.2c0.3-0.2,0.5-0.4,0.7-0.7v-2.9c-0.2-0.3-0.4-0.4-0.6-0.5s-0.5-0.2-0.8-0.2c-0.6,0-1,0.2-1.3,0.6
			c-0.3,0.4-0.5,1-0.5,1.7c0,0.4,0,0.7,0.1,1c0.1,0.3,0.2,0.5,0.3,0.7s0.3,0.3,0.5,0.4C53.1,553.1,53.3,553.1,53.6,553.1z"/>
		<path d="M59,547.8v3.9c0,0.5,0.1,0.8,0.3,1.1s0.5,0.4,1,0.4c0.3,0,0.6-0.1,0.9-0.2s0.5-0.4,0.8-0.6v-4.5H63v6.1h-0.6
			c-0.2,0-0.2-0.1-0.3-0.2L62,553c-0.3,0.3-0.6,0.5-0.9,0.7S60.4,554,60,554c-0.3,0-0.6-0.1-0.9-0.2c-0.3-0.1-0.5-0.3-0.6-0.5
			s-0.3-0.4-0.4-0.7S58,552,58,551.7v-3.9L59,547.8L59,547.8z"/>
		<path d="M69.2,553.9h-0.5c-0.1,0-0.2,0-0.3,0s-0.1-0.1-0.1-0.2l-0.1-0.6c-0.2,0.1-0.3,0.3-0.5,0.4c-0.2,0.1-0.3,0.2-0.5,0.3
			c-0.2,0.1-0.3,0.1-0.5,0.2s-0.4,0.1-0.6,0.1c-0.2,0-0.5,0-0.7-0.1s-0.4-0.2-0.5-0.3c-0.2-0.1-0.3-0.3-0.4-0.5
			c-0.1-0.2-0.1-0.4-0.1-0.7c0-0.2,0.1-0.5,0.2-0.7s0.3-0.4,0.6-0.6c0.3-0.2,0.7-0.3,1.2-0.4s1.1-0.2,1.7-0.2V550
			c0-0.5-0.1-0.8-0.3-1.1c-0.2-0.2-0.5-0.4-0.9-0.4c-0.3,0-0.5,0-0.7,0.1c-0.2,0.1-0.3,0.1-0.5,0.2s-0.2,0.2-0.3,0.2
			s-0.2,0.1-0.3,0.1c-0.1,0-0.1,0-0.2-0.1s-0.1-0.1-0.1-0.1l-0.2-0.3c0.3-0.3,0.7-0.6,1.1-0.7c0.4-0.2,0.8-0.2,1.3-0.2
			c0.3,0,0.6,0.1,0.9,0.2c0.3,0.1,0.5,0.3,0.7,0.5s0.3,0.4,0.4,0.7c0.1,0.3,0.1,0.6,0.1,0.9L69.2,553.9L69.2,553.9z M66.5,553.2
			c0.2,0,0.4,0,0.5-0.1s0.3-0.1,0.4-0.2s0.3-0.2,0.4-0.3s0.2-0.2,0.4-0.3v-1.3c-0.5,0-0.9,0-1.3,0.1c-0.3,0.1-0.6,0.1-0.8,0.2
			c-0.2,0.1-0.4,0.2-0.5,0.4c-0.1,0.1-0.1,0.3-0.1,0.5c0,0.2,0,0.3,0.1,0.4c0.1,0.1,0.1,0.2,0.2,0.3s0.2,0.1,0.3,0.2
			C66.2,553.2,66.3,553.2,66.5,553.2z"/>
		<path d="M72,545v8.8H71V545H72z"/>
		<path d="M75.3,545.9c0,0.1,0,0.2-0.1,0.3s-0.1,0.2-0.2,0.2s-0.2,0.1-0.2,0.2c-0.1,0-0.2,0.1-0.3,0.1s-0.2,0-0.3-0.1
			c-0.1,0-0.2-0.1-0.2-0.2s-0.1-0.2-0.2-0.2s-0.1-0.2-0.1-0.3s0-0.2,0.1-0.3s0.1-0.2,0.2-0.2c0.1-0.1,0.2-0.1,0.2-0.2
			s0.2-0.1,0.3-0.1s0.2,0,0.3,0.1c0.1,0,0.2,0.1,0.2,0.2c0.1,0.1,0.1,0.2,0.2,0.2S75.3,545.8,75.3,545.9z M75.1,547.8v6.1H74v-6.1
			H75.1z"/>
		<path d="M78.8,554c-0.5,0-0.8-0.1-1.1-0.4c-0.3-0.3-0.4-0.7-0.4-1.2v-3.7h-0.7c-0.1,0-0.1,0-0.2-0.1s-0.1-0.1-0.1-0.2V548l1-0.1
			l0.2-1.9c0-0.1,0-0.1,0.1-0.1s0.1-0.1,0.2-0.1h0.5v2.1h1.7v0.8h-1.7v3.6c0,0.3,0.1,0.4,0.2,0.6c0.1,0.1,0.3,0.2,0.5,0.2
			c0.1,0,0.2,0,0.3,0s0.2-0.1,0.2-0.1c0.1,0,0.1-0.1,0.2-0.1c0,0,0.1,0,0.1,0c0.1,0,0.1,0,0.2,0.1l0.3,0.5c-0.2,0.2-0.4,0.3-0.7,0.4
			C79.4,553.9,79.1,554,78.8,554z"/>
		<path d="M83.9,547.7c0.4,0,0.7,0.1,1,0.2s0.6,0.3,0.8,0.5c0.2,0.2,0.4,0.5,0.5,0.9c0.1,0.3,0.2,0.7,0.2,1.2c0,0.2,0,0.3-0.1,0.3
			c0,0.1-0.1,0.1-0.2,0.1h-4c0,0.4,0.1,0.7,0.2,1s0.2,0.5,0.4,0.7c0.2,0.2,0.4,0.3,0.6,0.4c0.2,0.1,0.5,0.1,0.8,0.1
			c0.3,0,0.5,0,0.7-0.1s0.4-0.1,0.5-0.2s0.3-0.1,0.4-0.2c0.1-0.1,0.2-0.1,0.2-0.1c0.1,0,0.2,0,0.2,0.1l0.3,0.4
			c-0.1,0.2-0.3,0.3-0.5,0.4c-0.2,0.1-0.4,0.2-0.6,0.3c-0.2,0.1-0.4,0.1-0.7,0.2s-0.4,0.1-0.7,0.1c-0.4,0-0.8-0.1-1.2-0.2
			c-0.4-0.1-0.7-0.3-0.9-0.6c-0.3-0.3-0.5-0.6-0.6-1c-0.1-0.4-0.2-0.9-0.2-1.4c0-0.4,0.1-0.8,0.2-1.2s0.3-0.7,0.6-1
			c0.2-0.3,0.5-0.5,0.9-0.6C83,547.8,83.4,547.7,83.9,547.7z M83.9,548.5c-0.5,0-0.9,0.1-1.2,0.4c-0.3,0.3-0.5,0.7-0.6,1.2h3.3
			c0-0.2,0-0.5-0.1-0.7c-0.1-0.2-0.2-0.4-0.3-0.5c-0.1-0.2-0.3-0.3-0.5-0.3C84.4,548.5,84.1,548.5,83.9,548.5z M85.6,545.2l-1.4,1.5
			c-0.1,0.1-0.1,0.1-0.2,0.1c-0.1,0-0.1,0-0.2,0h-0.6l0.9-1.5c0.1-0.1,0.1-0.2,0.2-0.2s0.2-0.1,0.3-0.1L85.6,545.2L85.6,545.2z"/>
		<path d="M93.2,545.2c0.3,0,0.6,0.1,0.9,0.2c0.3,0.1,0.5,0.2,0.7,0.4c0.2,0.2,0.3,0.4,0.4,0.6c0.1,0.2,0.2,0.5,0.2,0.7l-0.7,0.1
			c0,0,0,0-0.1,0c-0.1,0-0.1,0-0.1,0c0,0-0.1-0.1-0.1-0.2c0-0.1-0.1-0.2-0.1-0.3c-0.1-0.1-0.1-0.2-0.2-0.3s-0.2-0.2-0.4-0.2
			c-0.1-0.1-0.3-0.1-0.5-0.1c-0.2,0-0.4,0-0.5,0.1c-0.2,0.1-0.3,0.2-0.4,0.3s-0.2,0.2-0.3,0.4c-0.1,0.2-0.1,0.3-0.1,0.5
			c0,0.1,0,0.3,0.1,0.4c0,0.1,0.1,0.3,0.2,0.4c0.1,0.1,0.2,0.3,0.3,0.4c0.1,0.1,0.2,0.3,0.4,0.4l2.5,2.5c0.2-0.3,0.3-0.5,0.4-0.8
			s0.2-0.6,0.2-0.9c0-0.1,0-0.1,0.1-0.2s0.1-0.1,0.2-0.1h0.7c0,0.5-0.1,0.9-0.2,1.4c-0.1,0.4-0.3,0.9-0.6,1.2l1.8,1.8h-1
			c-0.1,0-0.2,0-0.3,0s-0.2-0.1-0.2-0.2l-0.9-0.9c-0.4,0.4-0.8,0.7-1.3,0.9c-0.5,0.2-1,0.3-1.6,0.3c-0.3,0-0.6-0.1-0.9-0.2
			c-0.3-0.1-0.6-0.3-0.8-0.5s-0.4-0.5-0.6-0.8c-0.1-0.3-0.2-0.6-0.2-1c0-0.3,0-0.5,0.1-0.8s0.2-0.5,0.4-0.7c0.2-0.2,0.4-0.4,0.6-0.6
			c0.2-0.2,0.5-0.3,0.8-0.4c-0.2-0.3-0.4-0.6-0.5-0.9s-0.2-0.6-0.2-0.9c0-0.3,0.1-0.6,0.2-0.8c0.1-0.3,0.3-0.5,0.5-0.7
			c0.2-0.2,0.4-0.3,0.7-0.5C92.5,545.2,92.8,545.2,93.2,545.2z M90.8,551.5c0,0.3,0,0.5,0.1,0.7c0.1,0.2,0.2,0.4,0.4,0.5
			c0.2,0.1,0.3,0.2,0.5,0.3s0.4,0.1,0.6,0.1c0.4,0,0.8-0.1,1.2-0.2c0.4-0.2,0.7-0.4,0.9-0.7l-2.5-2.6c-0.4,0.2-0.7,0.5-1,0.8
			C90.9,550.8,90.8,551.1,90.8,551.5z"/>
		<path d="M52.7,560.3c0,0.1,0,0.2-0.1,0.3s-0.1,0.2-0.2,0.2s-0.2,0.1-0.2,0.2S52,561,51.9,561s-0.2,0-0.3-0.1s-0.2-0.1-0.2-0.2
			s-0.1-0.2-0.2-0.2s-0.1-0.2-0.1-0.3s0-0.2,0.1-0.3s0.1-0.2,0.2-0.2c0.1-0.1,0.2-0.1,0.2-0.2s0.2-0.1,0.3-0.1s0.2,0,0.3,0.1
			s0.2,0.1,0.2,0.2c0.1,0.1,0.1,0.2,0.2,0.2S52.7,560.2,52.7,560.3z M52.5,562.2v6.1h-1.1v-6.1H52.5z"/>
		<path d="M54.3,568.3v-6.1H55c0.2,0,0.2,0.1,0.3,0.2l0.1,0.7c0.3-0.3,0.6-0.5,0.9-0.7c0.3-0.2,0.7-0.3,1.1-0.3
			c0.3,0,0.6,0.1,0.9,0.2c0.3,0.1,0.5,0.3,0.6,0.5s0.3,0.4,0.4,0.7c0.1,0.3,0.1,0.6,0.1,0.9v3.9h-1.1v-3.9c0-0.5-0.1-0.8-0.3-1.1
			c-0.2-0.3-0.5-0.4-1-0.4c-0.3,0-0.6,0.1-0.9,0.2c-0.3,0.2-0.5,0.4-0.8,0.6v4.5L54.3,568.3L54.3,568.3z"/>
		<path d="M62.5,560.3c0,0.1,0,0.2-0.1,0.3s-0.1,0.2-0.2,0.2s-0.2,0.1-0.2,0.2s-0.2,0.1-0.3,0.1s-0.2,0-0.3-0.1s-0.2-0.1-0.2-0.2
			s-0.1-0.2-0.2-0.2s-0.1-0.2-0.1-0.3s0-0.2,0.1-0.3s0.1-0.2,0.2-0.2c0.1-0.1,0.2-0.1,0.2-0.2s0.2-0.1,0.3-0.1s0.2,0,0.3,0.1
			s0.2,0.1,0.2,0.2c0.1,0.1,0.1,0.2,0.2,0.2S62.5,560.2,62.5,560.3z M62.2,562.2v6.1h-1.1v-6.1H62.2z"/>
		<path d="M65.9,568.4c-0.5,0-0.8-0.1-1.1-0.4c-0.3-0.3-0.4-0.7-0.4-1.2v-3.7h-0.7c-0.1,0-0.1,0-0.2-0.1s-0.1-0.1-0.1-0.2v-0.4
			l1-0.1l0.2-1.9c0-0.1,0-0.1,0.1-0.1s0.1-0.1,0.2-0.1h0.5v2.1h1.7v0.8h-1.7v3.6c0,0.3,0.1,0.4,0.2,0.6s0.3,0.2,0.5,0.2
			c0.1,0,0.2,0,0.3,0s0.2-0.1,0.2-0.1s0.1-0.1,0.2-0.1c0,0,0.1,0,0.1,0c0.1,0,0.1,0,0.2,0.1l0.3,0.5c-0.2,0.2-0.4,0.3-0.7,0.4
			C66.5,568.3,66.2,568.4,65.9,568.4z"/>
		<path d="M70,560.3c0,0.1,0,0.2-0.1,0.3s-0.1,0.2-0.2,0.2s-0.2,0.1-0.2,0.2c-0.1,0-0.2,0.1-0.3,0.1s-0.2,0-0.3-0.1
			c-0.1,0-0.2-0.1-0.2-0.2s-0.1-0.2-0.2-0.2s-0.1-0.2-0.1-0.3s0-0.2,0.1-0.3s0.1-0.2,0.2-0.2c0.1-0.1,0.2-0.1,0.2-0.2
			s0.2-0.1,0.3-0.1s0.2,0,0.3,0.1c0.1,0,0.2,0.1,0.2,0.2c0.1,0.1,0.1,0.2,0.2,0.2S70,560.2,70,560.3z M69.8,562.2v6.1h-1.1v-6.1
			H69.8z"/>
		<path d="M76.1,568.3h-0.5c-0.1,0-0.2,0-0.3,0s-0.1-0.1-0.1-0.2l-0.1-0.6c-0.2,0.1-0.3,0.3-0.5,0.4c-0.2,0.1-0.3,0.2-0.5,0.3
			c-0.2,0.1-0.3,0.1-0.5,0.2s-0.4,0.1-0.6,0.1c-0.2,0-0.5,0-0.7-0.1s-0.4-0.2-0.5-0.3c-0.2-0.1-0.3-0.3-0.4-0.5
			c-0.1-0.2-0.1-0.4-0.1-0.7c0-0.2,0.1-0.5,0.2-0.7s0.3-0.4,0.6-0.6c0.3-0.2,0.7-0.3,1.2-0.4s1.1-0.2,1.7-0.2v-0.5
			c0-0.5-0.1-0.8-0.3-1.1c-0.2-0.2-0.5-0.4-0.9-0.4c-0.3,0-0.5,0-0.7,0.1c-0.2,0.1-0.3,0.1-0.5,0.2s-0.2,0.2-0.3,0.2
			s-0.2,0.1-0.3,0.1c-0.1,0-0.1,0-0.2-0.1s-0.1-0.1-0.1-0.1l-0.2-0.3c0.3-0.3,0.7-0.6,1.1-0.7c0.4-0.2,0.8-0.2,1.3-0.2
			c0.3,0,0.6,0.1,0.9,0.2c0.3,0.1,0.5,0.3,0.7,0.5s0.3,0.4,0.4,0.7c0.1,0.3,0.1,0.6,0.1,0.9L76.1,568.3L76.1,568.3z M73.3,567.6
			c0.2,0,0.4,0,0.5-0.1s0.3-0.1,0.4-0.2s0.3-0.2,0.4-0.3s0.2-0.2,0.4-0.3v-1.3c-0.5,0-0.9,0-1.3,0.1c-0.3,0.1-0.6,0.1-0.8,0.2
			c-0.2,0.1-0.4,0.2-0.5,0.4c-0.1,0.1-0.1,0.3-0.1,0.5c0,0.2,0,0.3,0.1,0.4c0.1,0.1,0.1,0.2,0.2,0.3s0.2,0.1,0.3,0.2
			C73.1,567.6,73.2,567.6,73.3,567.6z"/>
		<path d="M79.6,568.4c-0.5,0-0.8-0.1-1.1-0.4c-0.3-0.3-0.4-0.7-0.4-1.2v-3.7h-0.7c-0.1,0-0.1,0-0.2-0.1s-0.1-0.1-0.1-0.2v-0.4
			l1-0.1l0.2-1.9c0-0.1,0-0.1,0.1-0.1c0,0,0.1-0.1,0.2-0.1h0.5v2.1h1.7v0.8h-1.7v3.6c0,0.3,0.1,0.4,0.2,0.6c0.1,0.1,0.3,0.2,0.5,0.2
			c0.1,0,0.2,0,0.3,0s0.2-0.1,0.2-0.1c0.1,0,0.1-0.1,0.2-0.1c0,0,0.1,0,0.1,0c0.1,0,0.1,0,0.2,0.1l0.3,0.5c-0.2,0.2-0.4,0.3-0.7,0.4
			C80.1,568.3,79.8,568.4,79.6,568.4z"/>
		<path d="M83.6,560.3c0,0.1,0,0.2-0.1,0.3s-0.1,0.2-0.2,0.2c-0.1,0.1-0.2,0.1-0.2,0.2S83,561,82.9,561s-0.2,0-0.3-0.1
			s-0.2-0.1-0.2-0.2s-0.1-0.2-0.2-0.2s-0.1-0.2-0.1-0.3s0-0.2,0.1-0.3s0.1-0.2,0.2-0.2c0.1-0.1,0.2-0.1,0.2-0.2s0.2-0.1,0.3-0.1
			c0.1,0,0.2,0,0.3,0.1s0.2,0.1,0.2,0.2c0.1,0.1,0.1,0.2,0.2,0.2S83.6,560.2,83.6,560.3z M83.4,562.2v6.1h-1.1v-6.1H83.4z"/>
		<path d="M87.7,562.1c0.4,0,0.8,0.1,1.2,0.2c0.4,0.1,0.7,0.4,0.9,0.6c0.2,0.3,0.4,0.6,0.6,1c0.1,0.4,0.2,0.8,0.2,1.3
			c0,0.5-0.1,0.9-0.2,1.3c-0.1,0.4-0.3,0.7-0.6,1c-0.2,0.3-0.6,0.5-0.9,0.6c-0.4,0.1-0.8,0.2-1.2,0.2s-0.8-0.1-1.2-0.2
			c-0.4-0.1-0.7-0.4-0.9-0.6c-0.3-0.3-0.4-0.6-0.6-1s-0.2-0.8-0.2-1.3c0-0.5,0.1-0.9,0.2-1.3s0.3-0.7,0.6-1c0.3-0.3,0.6-0.5,0.9-0.6
			C86.9,562.2,87.3,562.1,87.7,562.1z M87.7,567.5c0.6,0,1-0.2,1.3-0.6c0.3-0.4,0.4-1,0.4-1.7c0-0.7-0.1-1.3-0.4-1.7
			c-0.3-0.4-0.7-0.6-1.3-0.6c-0.3,0-0.6,0.1-0.8,0.2s-0.4,0.3-0.6,0.5c-0.2,0.2-0.3,0.4-0.3,0.7c-0.1,0.3-0.1,0.6-0.1,1s0,0.7,0.1,1
			c0.1,0.3,0.2,0.5,0.3,0.7c0.1,0.2,0.3,0.3,0.6,0.4C87.2,567.5,87.4,567.5,87.7,567.5z"/>
		<path d="M91.9,568.3v-6.1h0.6c0.2,0,0.2,0.1,0.3,0.2l0.1,0.7c0.3-0.3,0.6-0.5,0.9-0.7c0.3-0.2,0.7-0.3,1.1-0.3
			c0.3,0,0.6,0.1,0.9,0.2c0.3,0.1,0.5,0.3,0.6,0.5s0.3,0.4,0.4,0.7c0.1,0.3,0.1,0.6,0.1,0.9v3.9h-1.1v-3.9c0-0.5-0.1-0.8-0.3-1.1
			c-0.2-0.3-0.5-0.4-1-0.4c-0.3,0-0.6,0.1-0.9,0.2c-0.3,0.2-0.5,0.4-0.8,0.6v4.5L91.9,568.3L91.9,568.3z"/>
	</g>
	<g>
		<path d="M40.4,430c0,0.6-0.1,1.2-0.3,1.8s-0.5,1-0.9,1.4c-0.4,0.4-0.8,0.7-1.3,0.9s-1.1,0.3-1.7,0.3h-3.2v-8.6h3.2
			c0.6,0,1.2,0.1,1.7,0.3s1,0.5,1.3,0.9c0.4,0.4,0.7,0.8,0.9,1.4C40.3,428.7,40.4,429.3,40.4,430z M39.2,430c0-0.5-0.1-1-0.2-1.4
			c-0.1-0.4-0.3-0.8-0.6-1.1c-0.3-0.3-0.6-0.5-1-0.7c-0.4-0.2-0.8-0.2-1.3-0.2h-2v6.7h2c0.5,0,0.9-0.1,1.3-0.2s0.7-0.4,1-0.7
			s0.5-0.6,0.6-1.1C39.1,431,39.2,430.5,39.2,430z"/>
		<path d="M44.2,428.1c0.4,0,0.7,0.1,1,0.2s0.6,0.3,0.8,0.5c0.2,0.2,0.4,0.5,0.5,0.9c0.1,0.3,0.2,0.7,0.2,1.2c0,0.2,0,0.3-0.1,0.3
			c0,0.1-0.1,0.1-0.2,0.1h-4c0,0.4,0.1,0.7,0.2,1c0.1,0.3,0.2,0.5,0.4,0.7c0.2,0.2,0.4,0.3,0.6,0.4c0.2,0.1,0.5,0.1,0.8,0.1
			c0.3,0,0.5,0,0.7-0.1c0.2-0.1,0.4-0.1,0.5-0.2s0.3-0.1,0.4-0.2c0.1-0.1,0.2-0.1,0.2-0.1c0.1,0,0.2,0,0.2,0.1l0.3,0.4
			c-0.1,0.2-0.3,0.3-0.5,0.4c-0.2,0.1-0.4,0.2-0.6,0.3c-0.2,0.1-0.4,0.1-0.7,0.2s-0.4,0.1-0.7,0.1c-0.4,0-0.8-0.1-1.2-0.2
			s-0.7-0.4-0.9-0.6s-0.5-0.6-0.6-1s-0.2-0.9-0.2-1.4c0-0.4,0.1-0.8,0.2-1.2c0.1-0.4,0.3-0.7,0.6-1c0.2-0.3,0.5-0.5,0.9-0.6
			C43.4,428.2,43.8,428.1,44.2,428.1z M44.2,428.9c-0.5,0-0.9,0.1-1.2,0.4c-0.3,0.3-0.5,0.7-0.6,1.2h3.3c0-0.2,0-0.5-0.1-0.7
			s-0.2-0.4-0.3-0.5c-0.1-0.1-0.3-0.3-0.5-0.3S44.5,428.9,44.2,428.9z M46,425.6l-1.4,1.5c-0.1,0.1-0.1,0.1-0.2,0.1
			c-0.1,0-0.1,0-0.2,0h-0.6l0.9-1.5c0.1-0.1,0.1-0.2,0.2-0.2s0.2-0.1,0.3-0.1L46,425.6L46,425.6z"/>
		<path d="M47.2,428.2H48c0.1,0,0.2,0,0.2,0.1s0.1,0.1,0.1,0.2l1.5,3.9c0.1,0.1,0.1,0.3,0.1,0.4c0,0.1,0.1,0.3,0.1,0.4
			c0-0.1,0.1-0.3,0.1-0.4c0-0.1,0.1-0.3,0.1-0.4l1.6-3.9c0-0.1,0.1-0.1,0.1-0.2c0.1,0,0.1-0.1,0.2-0.1h0.8l-2.5,6.1h-1L47.2,428.2z"
			/>
		<path d="M56.3,428.1c0.4,0,0.7,0.1,1,0.2c0.3,0.1,0.6,0.3,0.8,0.5c0.2,0.2,0.4,0.5,0.5,0.9c0.1,0.3,0.2,0.7,0.2,1.2
			c0,0.2,0,0.3-0.1,0.3c0,0.1-0.1,0.1-0.2,0.1h-4c0,0.4,0.1,0.7,0.2,1s0.2,0.5,0.4,0.7c0.2,0.2,0.4,0.3,0.6,0.4
			c0.2,0.1,0.5,0.1,0.8,0.1c0.3,0,0.5,0,0.7-0.1c0.2-0.1,0.4-0.1,0.5-0.2c0.1-0.1,0.3-0.1,0.4-0.2c0.1-0.1,0.2-0.1,0.2-0.1
			c0.1,0,0.2,0,0.2,0.1l0.3,0.4c-0.1,0.2-0.3,0.3-0.5,0.4c-0.2,0.1-0.4,0.2-0.6,0.3c-0.2,0.1-0.4,0.1-0.7,0.2
			c-0.2,0-0.4,0.1-0.7,0.1c-0.4,0-0.8-0.1-1.2-0.2s-0.7-0.4-0.9-0.6s-0.5-0.6-0.6-1c-0.1-0.4-0.2-0.9-0.2-1.4c0-0.4,0.1-0.8,0.2-1.2
			c0.1-0.4,0.3-0.7,0.6-1c0.2-0.3,0.5-0.5,0.9-0.6C55.5,428.2,55.9,428.1,56.3,428.1z M56.3,428.9c-0.5,0-0.9,0.1-1.2,0.4
			c-0.3,0.3-0.5,0.7-0.6,1.2h3.3c0-0.2,0-0.5-0.1-0.7s-0.2-0.4-0.3-0.5s-0.3-0.3-0.5-0.3C56.8,428.9,56.6,428.9,56.3,428.9z"/>
		<path d="M61.4,425.4v8.8h-1.1v-8.8H61.4z"/>
		<path d="M65.7,428.1c0.4,0,0.8,0.1,1.2,0.2c0.4,0.1,0.7,0.4,0.9,0.6s0.4,0.6,0.6,1s0.2,0.8,0.2,1.3c0,0.5-0.1,0.9-0.2,1.3
			s-0.3,0.7-0.6,1c-0.2,0.3-0.6,0.5-0.9,0.6c-0.4,0.1-0.8,0.2-1.2,0.2c-0.4,0-0.8-0.1-1.2-0.2c-0.4-0.1-0.7-0.4-0.9-0.6
			c-0.3-0.3-0.4-0.6-0.6-1c-0.1-0.4-0.2-0.8-0.2-1.3c0-0.5,0.1-0.9,0.2-1.3c0.1-0.4,0.3-0.7,0.6-1c0.3-0.3,0.6-0.5,0.9-0.6
			C64.9,428.2,65.3,428.1,65.7,428.1z M65.7,433.5c0.6,0,1-0.2,1.3-0.6s0.4-1,0.4-1.7c0-0.7-0.1-1.3-0.4-1.7
			c-0.3-0.4-0.7-0.6-1.3-0.6c-0.3,0-0.6,0.1-0.8,0.2c-0.2,0.1-0.4,0.3-0.6,0.5c-0.1,0.2-0.3,0.4-0.3,0.7s-0.1,0.6-0.1,1s0,0.7,0.1,1
			c0.1,0.3,0.2,0.5,0.3,0.7c0.1,0.2,0.3,0.3,0.6,0.4C65.2,433.5,65.4,433.5,65.7,433.5z"/>
		<path d="M69.9,436.3v-8.1h0.6c0.2,0,0.2,0.1,0.3,0.2l0.1,0.7c0.3-0.3,0.6-0.6,0.9-0.8c0.3-0.2,0.7-0.3,1.2-0.3
			c0.3,0,0.7,0.1,0.9,0.2c0.3,0.1,0.5,0.3,0.7,0.6c0.2,0.3,0.4,0.6,0.5,1c0.1,0.4,0.2,0.8,0.2,1.3c0,0.4-0.1,0.9-0.2,1.3
			s-0.3,0.7-0.5,1c-0.2,0.3-0.5,0.5-0.8,0.7s-0.7,0.2-1.1,0.2c-0.4,0-0.7-0.1-1-0.2c-0.3-0.1-0.5-0.3-0.7-0.5v2.7L69.9,436.3
			L69.9,436.3z M72.7,428.9c-0.3,0-0.7,0.1-0.9,0.2s-0.5,0.4-0.7,0.7v2.9c0.2,0.3,0.4,0.5,0.6,0.6c0.2,0.1,0.5,0.2,0.8,0.2
			c0.6,0,1-0.2,1.3-0.6c0.3-0.4,0.5-1,0.5-1.7c0-0.4,0-0.7-0.1-1c-0.1-0.3-0.2-0.5-0.3-0.7s-0.3-0.3-0.5-0.4
			C73.1,429,72.9,428.9,72.7,428.9z"/>
		<path d="M76.6,436.3v-8.1h0.6c0.2,0,0.2,0.1,0.3,0.2l0.1,0.7c0.3-0.3,0.6-0.6,0.9-0.8c0.3-0.2,0.7-0.3,1.2-0.3
			c0.3,0,0.7,0.1,0.9,0.2c0.3,0.1,0.5,0.3,0.7,0.6c0.2,0.3,0.4,0.6,0.5,1c0.1,0.4,0.2,0.8,0.2,1.3c0,0.4-0.1,0.9-0.2,1.3
			s-0.3,0.7-0.5,1c-0.2,0.3-0.5,0.5-0.8,0.7s-0.7,0.2-1.1,0.2c-0.4,0-0.7-0.1-1-0.2c-0.3-0.1-0.5-0.3-0.7-0.5v2.7L76.6,436.3
			L76.6,436.3z M79.3,428.9c-0.3,0-0.7,0.1-0.9,0.2s-0.5,0.4-0.7,0.7v2.9c0.2,0.3,0.4,0.5,0.6,0.6c0.2,0.1,0.5,0.2,0.8,0.2
			c0.6,0,1-0.2,1.3-0.6c0.3-0.4,0.5-1,0.5-1.7c0-0.4,0-0.7-0.1-1c-0.1-0.3-0.2-0.5-0.3-0.7s-0.3-0.3-0.5-0.4
			C79.7,429,79.5,428.9,79.3,428.9z"/>
		<path d="M85.6,428.1c0.4,0,0.7,0.1,1,0.2s0.6,0.3,0.8,0.5c0.2,0.2,0.4,0.5,0.5,0.9c0.1,0.3,0.2,0.7,0.2,1.2c0,0.2,0,0.3-0.1,0.3
			c0,0.1-0.1,0.1-0.2,0.1h-4c0,0.4,0.1,0.7,0.2,1c0.1,0.3,0.2,0.5,0.4,0.7c0.2,0.2,0.4,0.3,0.6,0.4c0.2,0.1,0.5,0.1,0.8,0.1
			c0.3,0,0.5,0,0.7-0.1c0.2-0.1,0.4-0.1,0.5-0.2s0.3-0.1,0.4-0.2c0.1-0.1,0.2-0.1,0.2-0.1c0.1,0,0.2,0,0.2,0.1l0.3,0.4
			c-0.1,0.2-0.3,0.3-0.5,0.4c-0.2,0.1-0.4,0.2-0.6,0.3c-0.2,0.1-0.4,0.1-0.7,0.2s-0.4,0.1-0.7,0.1c-0.4,0-0.8-0.1-1.2-0.2
			c-0.4-0.1-0.7-0.4-0.9-0.6c-0.3-0.3-0.5-0.6-0.6-1c-0.1-0.4-0.2-0.9-0.2-1.4c0-0.4,0.1-0.8,0.2-1.2c0.1-0.4,0.3-0.7,0.6-1
			c0.2-0.3,0.5-0.5,0.9-0.6C84.8,428.2,85.2,428.1,85.6,428.1z M85.6,428.9c-0.5,0-0.9,0.1-1.2,0.4c-0.3,0.3-0.5,0.7-0.6,1.2h3.3
			c0-0.2,0-0.5-0.1-0.7s-0.2-0.4-0.3-0.5c-0.1-0.1-0.3-0.3-0.5-0.3C86.1,428.9,85.9,428.9,85.6,428.9z"/>
		<path d="M89.5,434.3v-6.1h0.6c0.2,0,0.2,0.1,0.3,0.2l0.1,0.6c0.2-0.3,0.5-0.5,0.8-0.7s0.6-0.3,1-0.3c0.4,0,0.7,0.1,1,0.3
			c0.3,0.2,0.4,0.5,0.6,0.9c0.1-0.2,0.2-0.4,0.3-0.6c0.1-0.2,0.3-0.3,0.5-0.4s0.4-0.2,0.5-0.2c0.2,0,0.4-0.1,0.6-0.1
			c0.3,0,0.6,0.1,0.9,0.2c0.2,0.1,0.5,0.3,0.6,0.4c0.2,0.2,0.3,0.4,0.4,0.7c0.1,0.3,0.1,0.6,0.1,1v3.9h-1.1v-3.9
			c0-0.5-0.1-0.8-0.3-1.1s-0.5-0.4-0.9-0.4c-0.2,0-0.3,0-0.5,0.1c-0.2,0.1-0.3,0.2-0.4,0.3s-0.2,0.3-0.3,0.5s-0.1,0.4-0.1,0.6v3.9
			h-1.1v-3.9c0-0.5-0.1-0.9-0.3-1.1c-0.2-0.2-0.5-0.4-0.9-0.4c-0.3,0-0.5,0.1-0.7,0.2c-0.2,0.1-0.4,0.3-0.6,0.6v4.5L89.5,434.3
			L89.5,434.3z"/>
		<path d="M101.7,428.1c0.4,0,0.7,0.1,1,0.2s0.6,0.3,0.8,0.5c0.2,0.2,0.4,0.5,0.5,0.9c0.1,0.3,0.2,0.7,0.2,1.2c0,0.2,0,0.3-0.1,0.3
			c0,0.1-0.1,0.1-0.2,0.1h-4c0,0.4,0.1,0.7,0.2,1c0.1,0.3,0.2,0.5,0.4,0.7c0.2,0.2,0.4,0.3,0.6,0.4c0.2,0.1,0.5,0.1,0.8,0.1
			c0.3,0,0.5,0,0.7-0.1c0.2-0.1,0.4-0.1,0.5-0.2s0.3-0.1,0.4-0.2c0.1-0.1,0.2-0.1,0.2-0.1c0.1,0,0.2,0,0.2,0.1l0.3,0.4
			c-0.1,0.2-0.3,0.3-0.5,0.4c-0.2,0.1-0.4,0.2-0.6,0.3c-0.2,0.1-0.4,0.1-0.7,0.2s-0.4,0.1-0.7,0.1c-0.4,0-0.8-0.1-1.2-0.2
			c-0.4-0.1-0.7-0.4-0.9-0.6c-0.3-0.3-0.5-0.6-0.6-1c-0.1-0.4-0.2-0.9-0.2-1.4c0-0.4,0.1-0.8,0.2-1.2c0.1-0.4,0.3-0.7,0.6-1
			c0.2-0.3,0.5-0.5,0.9-0.6C100.9,428.2,101.3,428.1,101.7,428.1z M101.8,428.9c-0.5,0-0.9,0.1-1.2,0.4c-0.3,0.3-0.5,0.7-0.6,1.2
			h3.3c0-0.2,0-0.5-0.1-0.7s-0.2-0.4-0.3-0.5c-0.1-0.1-0.3-0.3-0.5-0.3C102.2,428.9,102,428.9,101.8,428.9z"/>
		<path d="M105.6,434.3v-6.1h0.6c0.2,0,0.2,0.1,0.3,0.2l0.1,0.7c0.3-0.3,0.6-0.5,0.9-0.7c0.3-0.2,0.7-0.3,1.1-0.3
			c0.3,0,0.6,0.1,0.9,0.2c0.3,0.1,0.5,0.3,0.6,0.5s0.3,0.4,0.4,0.7c0.1,0.3,0.1,0.6,0.1,0.9v3.9h-1.1v-3.9c0-0.5-0.1-0.8-0.3-1.1
			c-0.2-0.3-0.5-0.4-1-0.4c-0.3,0-0.6,0.1-0.9,0.2c-0.3,0.2-0.5,0.4-0.8,0.6v4.5H105.6z"/>
		<path d="M114.1,434.4c-0.5,0-0.8-0.1-1.1-0.4c-0.3-0.3-0.4-0.7-0.4-1.2v-3.7h-0.7c-0.1,0-0.1,0-0.2-0.1s-0.1-0.1-0.1-0.2v-0.4
			l1-0.1l0.2-1.9c0-0.1,0-0.1,0.1-0.1s0.1-0.1,0.2-0.1h0.5v2.1h1.7v0.8h-1.7v3.6c0,0.3,0.1,0.4,0.2,0.6s0.3,0.2,0.5,0.2
			c0.1,0,0.2,0,0.3,0s0.2-0.1,0.2-0.1c0.1,0,0.1-0.1,0.2-0.1c0,0,0.1,0,0.1,0c0.1,0,0.1,0,0.2,0.1l0.3,0.5c-0.2,0.2-0.4,0.3-0.7,0.4
			C114.7,434.3,114.4,434.4,114.1,434.4z"/>
		<path d="M73.6,440c0.3,0,0.6,0.1,0.9,0.2c0.3,0.1,0.5,0.2,0.7,0.4c0.2,0.2,0.3,0.4,0.4,0.6c0.1,0.2,0.2,0.5,0.2,0.7l-0.7,0.1
			c0,0,0,0-0.1,0c-0.1,0-0.1,0-0.1,0c0,0-0.1-0.1-0.1-0.1c0-0.1-0.1-0.2-0.1-0.3c-0.1-0.1-0.1-0.2-0.2-0.3s-0.2-0.2-0.4-0.2
			c-0.1-0.1-0.3-0.1-0.5-0.1c-0.2,0-0.4,0-0.5,0.1c-0.2,0.1-0.3,0.2-0.4,0.3s-0.2,0.2-0.3,0.4c-0.1,0.2-0.1,0.3-0.1,0.5
			c0,0.1,0,0.3,0.1,0.4c0,0.1,0.1,0.3,0.2,0.4c0.1,0.1,0.2,0.3,0.3,0.4c0.1,0.1,0.2,0.3,0.4,0.4l2.5,2.5c0.2-0.3,0.3-0.5,0.4-0.8
			s0.2-0.6,0.2-0.9c0-0.1,0-0.1,0.1-0.2s0.1-0.1,0.2-0.1h0.7c0,0.5-0.1,0.9-0.2,1.4c-0.1,0.4-0.3,0.9-0.6,1.2l1.8,1.8h-1
			c-0.1,0-0.2,0-0.3,0s-0.2-0.1-0.2-0.2l-0.9-0.9c-0.4,0.4-0.8,0.7-1.3,0.9c-0.5,0.2-1,0.3-1.6,0.3c-0.3,0-0.6-0.1-0.9-0.2
			c-0.3-0.1-0.6-0.3-0.8-0.5s-0.4-0.5-0.6-0.8c-0.1-0.3-0.2-0.6-0.2-1c0-0.3,0-0.5,0.1-0.8s0.2-0.5,0.4-0.7c0.2-0.2,0.4-0.4,0.6-0.6
			c0.2-0.2,0.5-0.3,0.8-0.4c-0.2-0.3-0.4-0.6-0.5-0.9s-0.2-0.6-0.2-0.9c0-0.3,0.1-0.6,0.2-0.8c0.1-0.3,0.3-0.5,0.5-0.7
			c0.2-0.2,0.4-0.3,0.7-0.5C73,440,73.3,440,73.6,440z M71.3,446.3c0,0.3,0,0.5,0.1,0.7c0.1,0.2,0.2,0.4,0.4,0.5
			c0.2,0.1,0.3,0.2,0.5,0.3s0.4,0.1,0.6,0.1c0.4,0,0.8-0.1,1.2-0.2c0.4-0.2,0.7-0.4,0.9-0.7l-2.5-2.6c-0.4,0.2-0.7,0.5-1,0.8
			C71.4,445.6,71.3,445.9,71.3,446.3z"/>
		<path d="M46.9,463.1h-1.2v-8.6h1.2V463.1z"/>
		<path d="M49,463.1V457h0.6c0.2,0,0.2,0.1,0.3,0.2l0.1,0.7c0.3-0.3,0.6-0.5,0.9-0.7c0.3-0.2,0.7-0.3,1.1-0.3c0.3,0,0.6,0.1,0.9,0.2
			c0.3,0.1,0.5,0.3,0.6,0.5s0.3,0.4,0.4,0.7c0.1,0.3,0.1,0.6,0.1,0.9v3.9H53v-3.9c0-0.5-0.1-0.8-0.3-1.1c-0.2-0.3-0.5-0.4-1-0.4
			c-0.3,0-0.6,0.1-0.9,0.2c-0.3,0.2-0.5,0.4-0.8,0.6v4.5H49z"/>
		<path d="M57.5,463.2c-0.5,0-0.8-0.1-1.1-0.4c-0.3-0.3-0.4-0.7-0.4-1.2v-3.7h-0.7c-0.1,0-0.1,0-0.2-0.1s-0.1-0.1-0.1-0.2v-0.4
			l1-0.1l0.2-1.9c0-0.1,0-0.1,0.1-0.1s0.1-0.1,0.2-0.1h0.5v2.1h1.7v0.8h-1.7v3.6c0,0.3,0.1,0.4,0.2,0.6c0.1,0.1,0.3,0.2,0.5,0.2
			c0.1,0,0.2,0,0.3,0s0.2-0.1,0.2-0.1s0.1-0.1,0.2-0.1c0,0,0.1,0,0.1,0c0.1,0,0.1,0,0.2,0.1l0.3,0.5c-0.2,0.2-0.4,0.3-0.7,0.4
			C58.1,463.1,57.8,463.2,57.5,463.2z"/>
		<path d="M62.6,456.9c0.4,0,0.7,0.1,1,0.2s0.6,0.3,0.8,0.5c0.2,0.2,0.4,0.5,0.5,0.9c0.1,0.3,0.2,0.7,0.2,1.2c0,0.2,0,0.3-0.1,0.3
			c0,0.1-0.1,0.1-0.2,0.1h-4c0,0.4,0.1,0.7,0.2,1s0.2,0.5,0.4,0.7c0.2,0.2,0.4,0.3,0.6,0.4c0.2,0.1,0.5,0.1,0.8,0.1
			c0.3,0,0.5,0,0.7-0.1c0.2-0.1,0.4-0.1,0.5-0.2s0.3-0.1,0.4-0.2c0.1-0.1,0.2-0.1,0.2-0.1c0.1,0,0.2,0,0.2,0.1l0.3,0.4
			c-0.1,0.2-0.3,0.3-0.5,0.4c-0.2,0.1-0.4,0.2-0.6,0.3c-0.2,0.1-0.4,0.1-0.7,0.2c-0.2,0-0.4,0.1-0.7,0.1c-0.4,0-0.8-0.1-1.2-0.2
			c-0.4-0.1-0.7-0.4-0.9-0.6c-0.3-0.3-0.5-0.6-0.6-1s-0.2-0.9-0.2-1.4c0-0.4,0.1-0.8,0.2-1.2c0.1-0.4,0.3-0.7,0.6-1
			c0.2-0.3,0.5-0.5,0.9-0.6C61.8,457,62.1,456.9,62.6,456.9z M62.6,457.7c-0.5,0-0.9,0.1-1.2,0.4c-0.3,0.3-0.5,0.7-0.6,1.2h3.3
			c0-0.2,0-0.5-0.1-0.7s-0.2-0.4-0.3-0.5c-0.1-0.1-0.3-0.3-0.5-0.3S62.9,457.7,62.6,457.7z M64.4,454.4l-1.4,1.5
			c-0.1,0.1-0.1,0.1-0.2,0.1c-0.1,0-0.1,0-0.2,0h-0.6l0.9-1.5c0.1-0.1,0.1-0.2,0.2-0.2s0.2-0.1,0.3-0.1L64.4,454.4L64.4,454.4z"/>
		<path d="M68.5,456.9c0.3,0,0.5,0,0.7,0.1c0.2,0.1,0.4,0.1,0.6,0.3h1.7v0.4c0,0.1-0.1,0.2-0.3,0.3l-0.7,0.1
			c0.1,0.3,0.2,0.5,0.2,0.9c0,0.3-0.1,0.6-0.2,0.8c-0.1,0.2-0.3,0.4-0.5,0.6s-0.4,0.3-0.7,0.4c-0.3,0.1-0.6,0.1-0.9,0.1
			c-0.3,0-0.6,0-0.8-0.1c-0.1,0.1-0.2,0.2-0.3,0.3c-0.1,0.1-0.1,0.2-0.1,0.3c0,0.1,0.1,0.3,0.2,0.3c0.1,0.1,0.3,0.1,0.5,0.2
			c0.2,0,0.4,0,0.7,0c0.2,0,0.5,0,0.7,0s0.5,0,0.7,0.1s0.5,0.1,0.7,0.2s0.3,0.2,0.5,0.4c0.1,0.2,0.2,0.4,0.2,0.7
			c0,0.3-0.1,0.5-0.2,0.8c-0.1,0.2-0.3,0.5-0.6,0.7s-0.5,0.3-0.9,0.5c-0.4,0.1-0.8,0.2-1.2,0.2s-0.8,0-1.2-0.1s-0.6-0.2-0.8-0.4
			c-0.2-0.1-0.4-0.3-0.5-0.5s-0.2-0.4-0.2-0.6c0-0.3,0.1-0.6,0.3-0.8s0.5-0.4,0.8-0.5c-0.2-0.1-0.3-0.2-0.4-0.3s-0.2-0.3-0.2-0.5
			c0-0.1,0-0.2,0-0.3c0-0.1,0.1-0.2,0.1-0.3s0.1-0.2,0.2-0.3c0.1-0.1,0.2-0.2,0.3-0.2c-0.3-0.2-0.5-0.4-0.7-0.7s-0.3-0.6-0.3-1
			c0-0.3,0.1-0.6,0.2-0.8s0.3-0.4,0.5-0.6c0.2-0.2,0.4-0.3,0.7-0.4S68.2,456.9,68.5,456.9z M70.4,463.4c0-0.2,0-0.3-0.1-0.4
			s-0.2-0.2-0.3-0.2c-0.1-0.1-0.3-0.1-0.5-0.1c-0.2,0-0.4,0-0.6,0s-0.4,0-0.6,0s-0.4,0-0.6-0.1c-0.2,0.1-0.4,0.2-0.6,0.4
			s-0.2,0.3-0.2,0.6c0,0.1,0,0.3,0.1,0.4s0.2,0.2,0.3,0.3c0.1,0.1,0.3,0.2,0.5,0.2s0.5,0.1,0.8,0.1c0.3,0,0.5,0,0.8-0.1
			c0.2-0.1,0.4-0.1,0.6-0.2c0.2-0.1,0.3-0.2,0.4-0.4S70.4,463.5,70.4,463.4z M68.5,460.1c0.2,0,0.4,0,0.6-0.1
			c0.2-0.1,0.3-0.1,0.4-0.3c0.1-0.1,0.2-0.2,0.3-0.4c0.1-0.1,0.1-0.3,0.1-0.5c0-0.4-0.1-0.7-0.3-0.9c-0.2-0.2-0.6-0.3-1-0.3
			c-0.4,0-0.8,0.1-1,0.3c-0.2,0.2-0.3,0.5-0.3,0.9c0,0.2,0,0.3,0.1,0.5c0.1,0.1,0.1,0.3,0.3,0.4c0.1,0.1,0.2,0.2,0.4,0.3
			C68.1,460.1,68.3,460.1,68.5,460.1z"/>
		<path d="M72.6,463.1V457h0.6c0.1,0,0.2,0,0.2,0.1s0.1,0.1,0.1,0.2l0.1,0.9c0.2-0.4,0.5-0.8,0.8-1s0.7-0.4,1.1-0.4
			c0.2,0,0.3,0,0.5,0.1c0.1,0,0.3,0.1,0.4,0.2l-0.1,0.8c0,0.1-0.1,0.1-0.2,0.1c-0.1,0-0.1,0-0.3-0.1s-0.3-0.1-0.5-0.1
			c-0.4,0-0.7,0.1-0.9,0.3c-0.2,0.2-0.5,0.5-0.6,0.9v3.9L72.6,463.1L72.6,463.1z"/>
		<path d="M81.7,463.1h-0.5c-0.1,0-0.2,0-0.3,0c-0.1,0-0.1-0.1-0.1-0.2l-0.1-0.6c-0.2,0.1-0.3,0.3-0.5,0.4c-0.2,0.1-0.3,0.2-0.5,0.3
			c-0.2,0.1-0.3,0.1-0.5,0.2c-0.2,0-0.4,0.1-0.6,0.1c-0.2,0-0.5,0-0.7-0.1s-0.4-0.2-0.5-0.3c-0.2-0.1-0.3-0.3-0.4-0.5
			c-0.1-0.2-0.1-0.4-0.1-0.7c0-0.2,0.1-0.5,0.2-0.7s0.3-0.4,0.6-0.6c0.3-0.2,0.7-0.3,1.2-0.4s1.1-0.2,1.7-0.2v-0.5
			c0-0.5-0.1-0.8-0.3-1.1c-0.2-0.2-0.5-0.4-0.9-0.4c-0.3,0-0.5,0-0.7,0.1c-0.2,0.1-0.3,0.1-0.5,0.2s-0.2,0.2-0.3,0.2
			c-0.1,0.1-0.2,0.1-0.3,0.1c-0.1,0-0.1,0-0.2-0.1s-0.1-0.1-0.1-0.1l-0.2-0.3c0.3-0.3,0.7-0.6,1.1-0.7c0.4-0.2,0.8-0.2,1.3-0.2
			c0.3,0,0.6,0.1,0.9,0.2c0.3,0.1,0.5,0.3,0.7,0.5s0.3,0.4,0.4,0.7s0.1,0.6,0.1,0.9L81.7,463.1L81.7,463.1z M78.9,462.4
			c0.2,0,0.4,0,0.5-0.1s0.3-0.1,0.4-0.2c0.1-0.1,0.3-0.2,0.4-0.3s0.2-0.2,0.4-0.3v-1.3c-0.5,0-0.9,0-1.3,0.1
			c-0.3,0.1-0.6,0.1-0.8,0.2s-0.4,0.2-0.5,0.4c-0.1,0.1-0.1,0.3-0.1,0.5c0,0.2,0,0.3,0.1,0.4c0.1,0.1,0.1,0.2,0.2,0.3
			s0.2,0.1,0.3,0.2S78.8,462.4,78.9,462.4z"/>
		<path d="M85.1,463.2c-0.5,0-0.8-0.1-1.1-0.4c-0.3-0.3-0.4-0.7-0.4-1.2v-3.7h-0.7c-0.1,0-0.1,0-0.2-0.1s-0.1-0.1-0.1-0.2v-0.4
			l1-0.1l0.2-1.9c0-0.1,0-0.1,0.1-0.1s0.1-0.1,0.2-0.1h0.5v2.1h1.7v0.8h-1.7v3.6c0,0.3,0.1,0.4,0.2,0.6s0.3,0.2,0.5,0.2
			c0.1,0,0.2,0,0.3,0s0.2-0.1,0.2-0.1c0.1,0,0.1-0.1,0.2-0.1c0,0,0.1,0,0.1,0c0.1,0,0.1,0,0.2,0.1l0.3,0.5c-0.2,0.2-0.4,0.3-0.7,0.4
			C85.7,463.1,85.4,463.2,85.1,463.2z"/>
		<path d="M89.2,455.1c0,0.1,0,0.2-0.1,0.3s-0.1,0.2-0.2,0.2c-0.1,0.1-0.2,0.1-0.2,0.2s-0.2,0.1-0.3,0.1s-0.2,0-0.3-0.1
			s-0.2-0.1-0.2-0.2s-0.1-0.1-0.2-0.2s-0.1-0.2-0.1-0.3c0-0.1,0-0.2,0.1-0.3s0.1-0.2,0.2-0.2c0.1-0.1,0.2-0.1,0.2-0.2
			s0.2-0.1,0.3-0.1c0.1,0,0.2,0,0.3,0.1s0.2,0.1,0.2,0.2c0.1,0.1,0.1,0.2,0.2,0.2S89.2,455,89.2,455.1z M89,457v6.1h-1.1V457H89z"/>
		<path d="M93.3,456.9c0.4,0,0.8,0.1,1.2,0.2c0.4,0.1,0.7,0.4,0.9,0.6s0.4,0.6,0.6,1c0.1,0.4,0.2,0.8,0.2,1.3c0,0.5-0.1,0.9-0.2,1.3
			c-0.1,0.4-0.3,0.7-0.6,1c-0.2,0.3-0.6,0.5-0.9,0.6c-0.4,0.1-0.8,0.2-1.2,0.2s-0.8-0.1-1.2-0.2c-0.4-0.1-0.7-0.4-0.9-0.6
			s-0.4-0.6-0.6-1s-0.2-0.8-0.2-1.3c0-0.5,0.1-0.9,0.2-1.3s0.3-0.7,0.6-1c0.3-0.3,0.6-0.5,0.9-0.6C92.5,457,92.9,456.9,93.3,456.9z
			 M93.3,462.3c0.6,0,1-0.2,1.3-0.6c0.3-0.4,0.4-1,0.4-1.7c0-0.7-0.1-1.3-0.4-1.7c-0.3-0.4-0.7-0.6-1.3-0.6c-0.3,0-0.6,0.1-0.8,0.2
			s-0.4,0.3-0.6,0.5c-0.2,0.2-0.3,0.4-0.3,0.7c-0.1,0.3-0.1,0.6-0.1,1s0,0.7,0.1,1c0.1,0.3,0.2,0.5,0.3,0.7c0.1,0.2,0.3,0.3,0.6,0.4
			C92.7,462.3,93,462.3,93.3,462.3z"/>
		<path d="M97.5,463.1V457h0.6c0.2,0,0.2,0.1,0.3,0.2l0.1,0.7c0.3-0.3,0.6-0.5,0.9-0.7c0.3-0.2,0.7-0.3,1.1-0.3
			c0.3,0,0.6,0.1,0.9,0.2c0.3,0.1,0.5,0.3,0.6,0.5s0.3,0.4,0.4,0.7c0.1,0.3,0.1,0.6,0.1,0.9v3.9h-1.1v-3.9c0-0.5-0.1-0.8-0.3-1.1
			c-0.2-0.3-0.5-0.4-1-0.4c-0.3,0-0.6,0.1-0.9,0.2c-0.3,0.2-0.5,0.4-0.8,0.6v4.5H97.5z"/>
	</g>
	<g>
		<path d="M51,335.5c0.1,0,0.1,0,0.2,0.1l0.5,0.5c-0.4,0.4-0.8,0.7-1.3,1c-0.5,0.2-1.1,0.3-1.8,0.3c-0.6,0-1.2-0.1-1.7-0.3
			s-0.9-0.5-1.3-0.9c-0.4-0.4-0.6-0.8-0.8-1.4c-0.2-0.5-0.3-1.1-0.3-1.8c0-0.6,0.1-1.2,0.3-1.8s0.5-1,0.9-1.4
			c0.4-0.4,0.8-0.7,1.4-0.9c0.5-0.2,1.1-0.3,1.8-0.3c0.6,0,1.2,0.1,1.6,0.3c0.5,0.2,0.9,0.5,1.2,0.8l-0.4,0.5c0,0-0.1,0.1-0.1,0.1
			c0,0-0.1,0-0.2,0c-0.1,0-0.1,0-0.2-0.1c-0.1,0-0.1-0.1-0.2-0.1s-0.2-0.1-0.3-0.2s-0.2-0.1-0.4-0.2c-0.1-0.1-0.3-0.1-0.5-0.1
			c-0.2,0-0.4-0.1-0.7-0.1c-0.5,0-0.9,0.1-1.3,0.2c-0.4,0.2-0.7,0.4-1,0.7s-0.5,0.6-0.6,1.1c-0.2,0.4-0.2,0.9-0.2,1.4
			c0,0.5,0.1,1,0.2,1.4c0.2,0.4,0.4,0.8,0.6,1.1c0.3,0.3,0.6,0.5,0.9,0.7c0.4,0.2,0.8,0.2,1.2,0.2c0.3,0,0.5,0,0.7,0
			s0.4-0.1,0.6-0.1c0.2-0.1,0.3-0.1,0.5-0.2c0.2-0.1,0.3-0.2,0.5-0.4C50.9,335.5,50.9,335.5,51,335.5z"/>
		<path d="M55.4,331.1c0.4,0,0.8,0.1,1.2,0.2c0.4,0.1,0.7,0.4,0.9,0.6s0.4,0.6,0.6,1c0.1,0.4,0.2,0.8,0.2,1.3c0,0.5-0.1,0.9-0.2,1.3
			c-0.1,0.4-0.3,0.7-0.6,1c-0.2,0.3-0.6,0.5-0.9,0.6c-0.4,0.1-0.8,0.2-1.2,0.2s-0.8-0.1-1.2-0.2s-0.7-0.4-0.9-0.6
			c-0.3-0.3-0.4-0.6-0.6-1c-0.1-0.4-0.2-0.8-0.2-1.3c0-0.5,0.1-0.9,0.2-1.3c0.1-0.4,0.3-0.7,0.6-1c0.3-0.3,0.6-0.5,0.9-0.6
			C54.6,331.2,55,331.1,55.4,331.1z M55.4,336.5c0.6,0,1-0.2,1.3-0.6c0.3-0.4,0.4-1,0.4-1.7c0-0.7-0.1-1.3-0.4-1.7
			c-0.3-0.4-0.7-0.6-1.3-0.6c-0.3,0-0.6,0.1-0.8,0.2s-0.4,0.3-0.6,0.5c-0.1,0.2-0.3,0.4-0.3,0.7s-0.1,0.6-0.1,1s0,0.7,0.1,1
			c0.1,0.3,0.2,0.5,0.3,0.7c0.2,0.2,0.3,0.3,0.6,0.4C54.9,336.5,55.1,336.5,55.4,336.5z"/>
		<path d="M59.7,337.3v-6.1h0.6c0.2,0,0.2,0.1,0.3,0.2l0.1,0.7c0.3-0.3,0.6-0.5,0.9-0.7c0.3-0.2,0.7-0.3,1.1-0.3
			c0.3,0,0.6,0.1,0.9,0.2c0.3,0.1,0.5,0.3,0.6,0.5s0.3,0.4,0.4,0.7c0.1,0.3,0.1,0.6,0.1,0.9v3.9h-1.1v-3.9c0-0.5-0.1-0.8-0.3-1.1
			c-0.2-0.3-0.5-0.4-1-0.4c-0.3,0-0.6,0.1-0.9,0.2c-0.3,0.2-0.5,0.4-0.8,0.6v4.5H59.7z"/>
		<path d="M70.5,332.3c0,0-0.1,0.1-0.1,0.1c0,0-0.1,0-0.1,0c-0.1,0-0.1,0-0.2-0.1c-0.1-0.1-0.2-0.1-0.3-0.2
			c-0.1-0.1-0.2-0.1-0.4-0.2c-0.2-0.1-0.3-0.1-0.6-0.1c-0.3,0-0.6,0.1-0.8,0.2c-0.2,0.1-0.4,0.3-0.6,0.5c-0.2,0.2-0.3,0.4-0.3,0.7
			c-0.1,0.3-0.1,0.6-0.1,1c0,0.4,0,0.7,0.1,1c0.1,0.3,0.2,0.5,0.4,0.7c0.2,0.2,0.3,0.3,0.6,0.4c0.2,0.1,0.5,0.2,0.7,0.2
			c0.3,0,0.5,0,0.6-0.1c0.2-0.1,0.3-0.1,0.4-0.2s0.2-0.1,0.3-0.2c0.1-0.1,0.1-0.1,0.2-0.1c0.1,0,0.2,0,0.2,0.1l0.3,0.4
			c-0.3,0.3-0.6,0.6-1,0.7c-0.4,0.1-0.8,0.2-1.3,0.2c-0.4,0-0.7-0.1-1.1-0.2c-0.3-0.1-0.6-0.3-0.8-0.6c-0.2-0.3-0.4-0.6-0.6-1
			c-0.1-0.4-0.2-0.8-0.2-1.3c0-0.5,0.1-0.9,0.2-1.3s0.3-0.7,0.6-1c0.2-0.3,0.5-0.5,0.9-0.7c0.4-0.2,0.8-0.2,1.2-0.2
			c0.4,0,0.8,0.1,1.1,0.2c0.3,0.1,0.6,0.3,0.9,0.6L70.5,332.3z"/>
		<path d="M74.3,331.1c0.4,0,0.7,0.1,1,0.2s0.6,0.3,0.8,0.5c0.2,0.2,0.4,0.5,0.5,0.9c0.1,0.3,0.2,0.7,0.2,1.2c0,0.2,0,0.3-0.1,0.3
			c0,0.1-0.1,0.1-0.2,0.1h-4c0,0.4,0.1,0.7,0.2,1c0.1,0.3,0.2,0.5,0.4,0.7c0.2,0.2,0.4,0.3,0.6,0.4c0.2,0.1,0.5,0.1,0.8,0.1
			c0.3,0,0.5,0,0.7-0.1c0.2-0.1,0.4-0.1,0.5-0.2s0.3-0.1,0.4-0.2c0.1-0.1,0.2-0.1,0.2-0.1c0.1,0,0.2,0,0.2,0.1l0.3,0.4
			c-0.1,0.2-0.3,0.3-0.5,0.4c-0.2,0.1-0.4,0.2-0.6,0.3c-0.2,0.1-0.4,0.1-0.7,0.2s-0.4,0.1-0.7,0.1c-0.4,0-0.8-0.1-1.2-0.2
			c-0.4-0.1-0.7-0.4-0.9-0.6c-0.3-0.3-0.5-0.6-0.6-1c-0.1-0.4-0.2-0.9-0.2-1.4c0-0.4,0.1-0.8,0.2-1.2c0.1-0.4,0.3-0.7,0.6-1
			c0.2-0.3,0.5-0.5,0.9-0.6C73.5,331.2,73.9,331.1,74.3,331.1z M74.4,331.9c-0.5,0-0.9,0.1-1.2,0.4c-0.3,0.3-0.5,0.7-0.6,1.2h3.3
			c0-0.2,0-0.5-0.1-0.7s-0.2-0.4-0.3-0.5c-0.1-0.1-0.3-0.3-0.5-0.3C74.8,331.9,74.6,331.9,74.4,331.9z"/>
		<path d="M78.2,339.3v-8.1h0.6c0.2,0,0.2,0.1,0.3,0.2l0.1,0.7c0.3-0.3,0.6-0.6,0.9-0.8c0.3-0.2,0.7-0.3,1.2-0.3
			c0.3,0,0.7,0.1,0.9,0.2c0.3,0.1,0.5,0.3,0.7,0.6c0.2,0.3,0.4,0.6,0.5,1c0.1,0.4,0.2,0.8,0.2,1.3c0,0.4-0.1,0.9-0.2,1.3
			s-0.3,0.7-0.5,1c-0.2,0.3-0.5,0.5-0.8,0.7s-0.7,0.2-1.1,0.2c-0.4,0-0.7-0.1-1-0.2c-0.3-0.1-0.5-0.3-0.7-0.5v2.7L78.2,339.3
			L78.2,339.3z M80.9,331.9c-0.3,0-0.7,0.1-0.9,0.2s-0.5,0.4-0.7,0.7v2.9c0.2,0.3,0.4,0.5,0.6,0.6c0.2,0.1,0.5,0.2,0.8,0.2
			c0.6,0,1-0.2,1.3-0.6c0.3-0.4,0.5-1,0.5-1.7c0-0.4,0-0.7-0.1-1c-0.1-0.3-0.2-0.5-0.3-0.7s-0.3-0.3-0.5-0.4
			C81.4,332,81.2,331.9,80.9,331.9z"/>
		<path d="M86.7,337.4c-0.5,0-0.8-0.1-1.1-0.4c-0.3-0.3-0.4-0.7-0.4-1.2v-3.7h-0.7c-0.1,0-0.1,0-0.2-0.1s-0.1-0.1-0.1-0.2v-0.4
			l1-0.1l0.2-1.9c0-0.1,0-0.1,0.1-0.1s0.1-0.1,0.2-0.1h0.5v2.1H88v0.8h-1.7v3.6c0,0.3,0.1,0.4,0.2,0.6s0.3,0.2,0.5,0.2
			c0.1,0,0.2,0,0.3,0s0.2-0.1,0.2-0.1c0.1,0,0.1-0.1,0.2-0.1c0,0,0.1,0,0.1,0c0.1,0,0.1,0,0.2,0.1l0.3,0.5c-0.2,0.2-0.4,0.3-0.7,0.4
			C87.2,337.3,87,337.4,86.7,337.4z"/>
		<path d="M90.7,329.3c0,0.1,0,0.2-0.1,0.3s-0.1,0.2-0.2,0.2c-0.1,0.1-0.2,0.1-0.2,0.2S90.1,330,90,330s-0.2,0-0.3-0.1
			s-0.2-0.1-0.2-0.2s-0.1-0.1-0.2-0.2s-0.1-0.2-0.1-0.3c0-0.1,0-0.2,0.1-0.3s0.1-0.2,0.2-0.2c0.1-0.1,0.2-0.1,0.2-0.2
			s0.2-0.1,0.3-0.1c0.1,0,0.2,0,0.3,0.1s0.2,0.1,0.2,0.2c0.1,0.1,0.1,0.2,0.2,0.2S90.7,329.2,90.7,329.3z M90.5,331.2v6.1h-1.1v-6.1
			H90.5z"/>
		<path d="M94.8,331.1c0.4,0,0.8,0.1,1.2,0.2c0.4,0.1,0.7,0.4,0.9,0.6s0.4,0.6,0.6,1c0.1,0.4,0.2,0.8,0.2,1.3c0,0.5-0.1,0.9-0.2,1.3
			c-0.1,0.4-0.3,0.7-0.6,1c-0.2,0.3-0.6,0.5-0.9,0.6c-0.4,0.1-0.8,0.2-1.2,0.2s-0.8-0.1-1.2-0.2c-0.4-0.1-0.7-0.4-0.9-0.6
			s-0.4-0.6-0.6-1s-0.2-0.8-0.2-1.3c0-0.5,0.1-0.9,0.2-1.3s0.3-0.7,0.6-1c0.3-0.3,0.6-0.5,0.9-0.6C94,331.2,94.4,331.1,94.8,331.1z
			 M94.8,336.5c0.6,0,1-0.2,1.3-0.6c0.3-0.4,0.4-1,0.4-1.7c0-0.7-0.1-1.3-0.4-1.7c-0.3-0.4-0.7-0.6-1.3-0.6c-0.3,0-0.6,0.1-0.8,0.2
			s-0.4,0.3-0.6,0.5c-0.2,0.2-0.3,0.4-0.3,0.7c-0.1,0.3-0.1,0.6-0.1,1s0,0.7,0.1,1c0.1,0.3,0.2,0.5,0.3,0.7c0.1,0.2,0.3,0.3,0.6,0.4
			C94.3,336.5,94.5,336.5,94.8,336.5z"/>
		<path d="M99.1,337.3v-6.1h0.6c0.2,0,0.2,0.1,0.3,0.2l0.1,0.7c0.3-0.3,0.6-0.5,0.9-0.7c0.3-0.2,0.7-0.3,1.1-0.3
			c0.3,0,0.6,0.1,0.9,0.2c0.3,0.1,0.5,0.3,0.6,0.5s0.3,0.4,0.4,0.7c0.1,0.3,0.1,0.6,0.1,0.9v3.9h-1.1v-3.9c0-0.5-0.1-0.8-0.3-1.1
			c-0.2-0.3-0.5-0.4-1-0.4c-0.3,0-0.6,0.1-0.9,0.2c-0.3,0.2-0.5,0.4-0.8,0.6v4.5H99.1z"/>
		<path d="M50.9,345.5c0.3,0,0.5,0,0.7,0.1c0.2,0.1,0.4,0.1,0.6,0.3h1.6v0.4c0,0.1-0.1,0.2-0.3,0.3l-0.7,0.1
			c0.1,0.3,0.2,0.5,0.2,0.9c0,0.3-0.1,0.6-0.2,0.8c-0.1,0.2-0.3,0.4-0.5,0.6c-0.2,0.2-0.4,0.3-0.7,0.4c-0.3,0.1-0.6,0.1-0.9,0.1
			c-0.3,0-0.6,0-0.8-0.1c-0.1,0.1-0.2,0.2-0.3,0.3c-0.1,0.1-0.1,0.2-0.1,0.3c0,0.1,0.1,0.3,0.2,0.3c0.1,0.1,0.3,0.1,0.5,0.2
			c0.2,0,0.4,0,0.7,0s0.5,0,0.7,0c0.3,0,0.5,0,0.7,0.1s0.5,0.1,0.7,0.2s0.3,0.2,0.5,0.4c0.1,0.2,0.2,0.4,0.2,0.7
			c0,0.3-0.1,0.5-0.2,0.8c-0.1,0.2-0.3,0.5-0.6,0.7s-0.5,0.3-0.9,0.5c-0.4,0.1-0.8,0.2-1.2,0.2s-0.8,0-1.2-0.1s-0.6-0.2-0.8-0.4
			c-0.2-0.1-0.4-0.3-0.5-0.5c-0.1-0.2-0.2-0.4-0.2-0.6c0-0.3,0.1-0.6,0.3-0.8s0.5-0.4,0.8-0.5c-0.2-0.1-0.3-0.2-0.4-0.3
			s-0.2-0.3-0.2-0.5c0-0.1,0-0.2,0-0.3c0-0.1,0.1-0.2,0.1-0.3s0.1-0.2,0.2-0.3s0.2-0.2,0.3-0.2c-0.3-0.2-0.5-0.4-0.7-0.7
			s-0.3-0.6-0.3-1c0-0.3,0.1-0.6,0.2-0.8c0.1-0.2,0.3-0.4,0.5-0.6c0.2-0.2,0.4-0.3,0.7-0.4S50.5,345.5,50.9,345.5z M52.8,352
			c0-0.2,0-0.3-0.1-0.4s-0.2-0.2-0.3-0.2c-0.1-0.1-0.3-0.1-0.5-0.1c-0.2,0-0.4,0-0.6,0s-0.4,0-0.6,0s-0.4,0-0.6-0.1
			c-0.2,0.1-0.4,0.2-0.6,0.4c-0.1,0.2-0.2,0.3-0.2,0.6c0,0.1,0,0.3,0.1,0.4c0.1,0.1,0.2,0.2,0.3,0.3c0.1,0.1,0.3,0.2,0.5,0.2
			c0.2,0,0.5,0.1,0.8,0.1c0.3,0,0.5,0,0.8-0.1c0.2-0.1,0.4-0.1,0.6-0.2c0.2-0.1,0.3-0.2,0.4-0.4S52.8,352.1,52.8,352z M50.9,348.7
			c0.2,0,0.4,0,0.6-0.1c0.2-0.1,0.3-0.1,0.4-0.3c0.1-0.1,0.2-0.2,0.3-0.4c0.1-0.1,0.1-0.3,0.1-0.5c0-0.4-0.1-0.7-0.3-0.9
			s-0.6-0.3-1-0.3c-0.4,0-0.8,0.1-1,0.3c-0.2,0.2-0.3,0.5-0.3,0.9c0,0.2,0,0.3,0.1,0.5c0.1,0.1,0.1,0.3,0.3,0.4
			c0.1,0.1,0.2,0.2,0.4,0.3C50.5,348.7,50.6,348.7,50.9,348.7z"/>
		<path d="M54.9,351.7v-6.1h0.6c0.1,0,0.2,0,0.2,0.1c0,0,0.1,0.1,0.1,0.2l0.1,0.9c0.2-0.4,0.5-0.8,0.8-1s0.7-0.4,1.1-0.4
			c0.2,0,0.3,0,0.5,0.1c0.1,0,0.3,0.1,0.4,0.2l-0.1,0.8c0,0.1-0.1,0.1-0.2,0.1c-0.1,0-0.1,0-0.3-0.1s-0.3-0.1-0.5-0.1
			c-0.4,0-0.7,0.1-0.9,0.3c-0.2,0.2-0.5,0.5-0.6,0.9v3.9L54.9,351.7L54.9,351.7z"/>
		<path d="M64,351.7h-0.5c-0.1,0-0.2,0-0.3,0s-0.1-0.1-0.1-0.2l-0.1-0.6c-0.2,0.1-0.3,0.3-0.5,0.4c-0.2,0.1-0.3,0.2-0.5,0.3
			c-0.2,0.1-0.3,0.1-0.5,0.2c-0.2,0-0.4,0.1-0.6,0.1c-0.2,0-0.5,0-0.7-0.1c-0.2-0.1-0.4-0.2-0.5-0.3c-0.2-0.1-0.3-0.3-0.4-0.5
			c-0.1-0.2-0.1-0.4-0.1-0.7c0-0.2,0.1-0.5,0.2-0.7c0.1-0.2,0.3-0.4,0.6-0.6c0.3-0.2,0.7-0.3,1.2-0.4c0.5-0.1,1.1-0.2,1.7-0.2v-0.5
			c0-0.5-0.1-0.8-0.3-1.1c-0.2-0.2-0.5-0.4-0.9-0.4c-0.3,0-0.5,0-0.7,0.1c-0.2,0.1-0.3,0.1-0.5,0.2c-0.1,0.1-0.2,0.2-0.3,0.2
			c-0.1,0.1-0.2,0.1-0.3,0.1c-0.1,0-0.1,0-0.2-0.1c-0.1,0-0.1-0.1-0.1-0.1l-0.2-0.3c0.3-0.3,0.7-0.6,1.1-0.7
			c0.4-0.2,0.8-0.2,1.3-0.2c0.3,0,0.6,0.1,0.9,0.2c0.3,0.1,0.5,0.3,0.7,0.5c0.2,0.2,0.3,0.4,0.4,0.7s0.1,0.6,0.1,0.9L64,351.7
			L64,351.7z M61.2,351c0.2,0,0.4,0,0.5-0.1s0.3-0.1,0.4-0.2s0.3-0.2,0.4-0.3c0.1-0.1,0.2-0.2,0.4-0.3v-1.3c-0.5,0-0.9,0-1.3,0.1
			c-0.3,0.1-0.6,0.1-0.8,0.2c-0.2,0.1-0.4,0.2-0.5,0.4s-0.1,0.3-0.1,0.5c0,0.2,0,0.3,0.1,0.4c0.1,0.1,0.1,0.2,0.2,0.3
			s0.2,0.1,0.3,0.2C61,351,61.1,351,61.2,351z"/>
		<path d="M65.6,353.7v-8.1h0.6c0.2,0,0.2,0.1,0.3,0.2l0.1,0.7c0.3-0.3,0.6-0.6,0.9-0.8c0.3-0.2,0.7-0.3,1.2-0.3
			c0.3,0,0.7,0.1,0.9,0.2c0.3,0.1,0.5,0.3,0.7,0.6c0.2,0.3,0.4,0.6,0.5,1c0.1,0.4,0.2,0.8,0.2,1.3c0,0.4-0.1,0.9-0.2,1.3
			c-0.1,0.4-0.3,0.7-0.5,1s-0.5,0.5-0.8,0.7s-0.7,0.2-1.1,0.2c-0.4,0-0.7-0.1-1-0.2s-0.5-0.3-0.7-0.5v2.7L65.6,353.7L65.6,353.7z
			 M68.3,346.3c-0.3,0-0.7,0.1-0.9,0.2s-0.5,0.4-0.7,0.7v2.9c0.2,0.3,0.4,0.5,0.6,0.6c0.2,0.1,0.5,0.2,0.8,0.2c0.6,0,1-0.2,1.3-0.6
			c0.3-0.4,0.5-1,0.5-1.7c0-0.4,0-0.7-0.1-1c-0.1-0.3-0.2-0.5-0.3-0.7c-0.1-0.2-0.3-0.3-0.5-0.4C68.8,346.4,68.6,346.3,68.3,346.3z"
			/>
		<path d="M72.3,351.7v-8.8h1.1v3.6c0.3-0.3,0.5-0.5,0.9-0.7c0.3-0.2,0.7-0.2,1.1-0.2c0.3,0,0.6,0.1,0.9,0.2
			c0.3,0.1,0.5,0.3,0.6,0.5s0.3,0.4,0.4,0.7c0.1,0.3,0.1,0.6,0.1,0.9v3.9h-1.1v-3.9c0-0.5-0.1-0.8-0.3-1.1c-0.2-0.3-0.5-0.4-1-0.4
			c-0.3,0-0.6,0.1-0.9,0.2c-0.3,0.2-0.5,0.4-0.8,0.6v4.5H72.3z"/>
		<path d="M80.4,343.7c0,0.1,0,0.2-0.1,0.3s-0.1,0.2-0.2,0.2c-0.1,0.1-0.2,0.1-0.2,0.2s-0.2,0.1-0.3,0.1s-0.2,0-0.3-0.1
			s-0.2-0.1-0.2-0.2s-0.1-0.1-0.2-0.2s-0.1-0.2-0.1-0.3c0-0.1,0-0.2,0.1-0.3s0.1-0.2,0.2-0.2c0.1-0.1,0.2-0.1,0.2-0.2
			s0.2-0.1,0.3-0.1c0.1,0,0.2,0,0.3,0.1s0.2,0.1,0.2,0.2c0.1,0.1,0.1,0.2,0.2,0.2S80.4,343.6,80.4,343.7z M80.1,345.6v6.1h-1.1v-6.1
			H80.1z"/>
		<path d="M86.9,345.6v8.1h-1.1v-3c-0.3,0.3-0.5,0.5-0.9,0.7c-0.3,0.2-0.7,0.3-1.1,0.3c-0.3,0-0.7-0.1-0.9-0.2s-0.5-0.3-0.7-0.6
			s-0.4-0.6-0.5-1c-0.1-0.4-0.2-0.8-0.2-1.3c0-0.4,0.1-0.9,0.2-1.3c0.1-0.4,0.3-0.7,0.5-1c0.2-0.3,0.5-0.5,0.8-0.7s0.7-0.2,1.1-0.2
			c0.4,0,0.7,0.1,1,0.2c0.3,0.1,0.5,0.3,0.7,0.6l0.1-0.5c0-0.1,0.1-0.2,0.3-0.2L86.9,345.6L86.9,345.6z M84.2,350.9
			c0.3,0,0.7-0.1,0.9-0.2c0.3-0.2,0.5-0.4,0.7-0.7V347c-0.2-0.3-0.4-0.4-0.6-0.5c-0.2-0.1-0.5-0.2-0.8-0.2c-0.6,0-1,0.2-1.3,0.6
			c-0.3,0.4-0.5,1-0.5,1.7c0,0.4,0,0.7,0.1,1c0.1,0.3,0.2,0.5,0.3,0.7c0.1,0.2,0.3,0.3,0.5,0.4C83.7,350.8,84,350.9,84.2,350.9z"/>
		<path d="M89.6,345.6v3.9c0,0.5,0.1,0.8,0.3,1.1s0.5,0.4,1,0.4c0.3,0,0.6-0.1,0.9-0.2c0.3-0.1,0.5-0.4,0.8-0.6v-4.5h1.1v6.1H93
			c-0.2,0-0.2-0.1-0.3-0.2l-0.1-0.7c-0.3,0.3-0.6,0.5-0.9,0.7c-0.3,0.2-0.7,0.3-1.1,0.3c-0.3,0-0.6-0.1-0.9-0.2
			c-0.3-0.1-0.5-0.3-0.6-0.5s-0.3-0.4-0.4-0.7s-0.1-0.6-0.1-0.9v-3.9H89.6z"/>
		<path d="M97.8,345.5c0.4,0,0.7,0.1,1,0.2s0.6,0.3,0.8,0.5c0.2,0.2,0.4,0.5,0.5,0.9c0.1,0.3,0.2,0.7,0.2,1.2c0,0.2,0,0.3-0.1,0.3
			c0,0.1-0.1,0.1-0.2,0.1h-4c0,0.4,0.1,0.7,0.2,1c0.1,0.3,0.2,0.5,0.4,0.7c0.2,0.2,0.4,0.3,0.6,0.4c0.2,0.1,0.5,0.1,0.8,0.1
			c0.3,0,0.5,0,0.7-0.1c0.2-0.1,0.4-0.1,0.5-0.2s0.3-0.1,0.4-0.2c0.1-0.1,0.2-0.1,0.2-0.1c0.1,0,0.2,0,0.2,0.1l0.3,0.4
			c-0.1,0.2-0.3,0.3-0.5,0.4c-0.2,0.1-0.4,0.2-0.6,0.3c-0.2,0.1-0.4,0.1-0.7,0.2s-0.4,0.1-0.7,0.1c-0.4,0-0.8-0.1-1.2-0.2
			c-0.4-0.1-0.7-0.4-0.9-0.6c-0.3-0.3-0.5-0.6-0.6-1c-0.1-0.4-0.2-0.9-0.2-1.4c0-0.4,0.1-0.8,0.2-1.2c0.1-0.4,0.3-0.7,0.6-1
			c0.2-0.3,0.5-0.5,0.9-0.6C97,345.6,97.4,345.5,97.8,345.5z M97.8,346.3c-0.5,0-0.9,0.1-1.2,0.4c-0.3,0.3-0.5,0.7-0.6,1.2h3.3
			c0-0.2,0-0.5-0.1-0.7s-0.2-0.4-0.3-0.5c-0.1-0.1-0.3-0.3-0.5-0.3C98.3,346.3,98.1,346.3,97.8,346.3z"/>
	</g>
	<g>
		<path d="M45.9,224.3c0.1,0,0.1,0,0.2,0.1l0.5,0.5c-0.4,0.4-0.8,0.7-1.3,1c-0.5,0.2-1.1,0.3-1.8,0.3c-0.6,0-1.2-0.1-1.7-0.3
			s-0.9-0.5-1.3-0.9c-0.4-0.4-0.6-0.8-0.8-1.4c-0.2-0.5-0.3-1.1-0.3-1.8c0-0.6,0.1-1.2,0.3-1.8s0.5-1,0.9-1.4
			c0.4-0.4,0.8-0.7,1.4-0.9s1.1-0.3,1.8-0.3c0.6,0,1.2,0.1,1.6,0.3c0.5,0.2,0.9,0.5,1.2,0.8l-0.4,0.5c0,0-0.1,0.1-0.1,0.1
			c0,0-0.1,0-0.2,0c-0.1,0-0.1,0-0.2-0.1c-0.1,0-0.1-0.1-0.2-0.1s-0.2-0.1-0.3-0.2s-0.2-0.1-0.4-0.2c-0.1-0.1-0.3-0.1-0.5-0.1
			c-0.2,0-0.4-0.1-0.7-0.1c-0.5,0-0.9,0.1-1.3,0.2c-0.4,0.2-0.7,0.4-1,0.7s-0.5,0.6-0.6,1.1s-0.2,0.9-0.2,1.4c0,0.5,0.1,1,0.2,1.4
			c0.2,0.4,0.4,0.8,0.6,1.1c0.3,0.3,0.6,0.5,0.9,0.7c0.4,0.2,0.8,0.2,1.2,0.2c0.3,0,0.5,0,0.7,0s0.4-0.1,0.6-0.1
			c0.2-0.1,0.3-0.1,0.5-0.2c0.1-0.1,0.3-0.2,0.5-0.4C45.7,224.4,45.8,224.3,45.9,224.3z"/>
		<path d="M47.8,226.1V220h0.6c0.1,0,0.2,0,0.2,0.1c0,0,0.1,0.1,0.1,0.2l0.1,0.9c0.2-0.4,0.5-0.8,0.8-1c0.3-0.2,0.7-0.4,1.1-0.4
			c0.2,0,0.3,0,0.5,0.1c0.1,0,0.3,0.1,0.4,0.2l-0.1,0.8c0,0.1-0.1,0.1-0.2,0.1c-0.1,0-0.1,0-0.3-0.1s-0.3-0.1-0.5-0.1
			c-0.4,0-0.7,0.1-0.9,0.3c-0.2,0.2-0.5,0.5-0.6,0.9v3.9L47.8,226.1L47.8,226.1z"/>
		<path d="M55.1,219.9c0.4,0,0.7,0.1,1,0.2s0.6,0.3,0.8,0.5c0.2,0.2,0.4,0.5,0.5,0.9c0.1,0.3,0.2,0.7,0.2,1.2c0,0.2,0,0.3-0.1,0.3
			c0,0.1-0.1,0.1-0.2,0.1h-4c0,0.4,0.1,0.7,0.2,1c0.1,0.3,0.2,0.5,0.4,0.7c0.2,0.2,0.4,0.3,0.6,0.4c0.2,0.1,0.5,0.1,0.8,0.1
			c0.3,0,0.5,0,0.7-0.1s0.4-0.1,0.5-0.2s0.3-0.1,0.4-0.2c0.1-0.1,0.2-0.1,0.2-0.1c0.1,0,0.2,0,0.2,0.1l0.3,0.4
			c-0.1,0.2-0.3,0.3-0.5,0.4c-0.2,0.1-0.4,0.2-0.6,0.3c-0.2,0.1-0.4,0.1-0.7,0.2s-0.4,0.1-0.7,0.1c-0.4,0-0.8-0.1-1.2-0.2
			s-0.7-0.4-0.9-0.6s-0.5-0.6-0.6-1c-0.1-0.4-0.2-0.9-0.2-1.4c0-0.4,0.1-0.8,0.2-1.2c0.1-0.4,0.3-0.7,0.6-1c0.2-0.3,0.5-0.5,0.9-0.6
			C54.3,220,54.7,219.9,55.1,219.9z M55.1,220.7c-0.5,0-0.9,0.1-1.2,0.4c-0.3,0.3-0.5,0.7-0.6,1.2h3.3c0-0.2,0-0.5-0.1-0.7
			s-0.2-0.4-0.3-0.5c-0.1-0.1-0.3-0.3-0.5-0.3S55.4,220.7,55.1,220.7z M56.9,217.4l-1.4,1.5c-0.1,0.1-0.1,0.1-0.2,0.1
			c-0.1,0-0.1,0-0.2,0h-0.6l0.9-1.5c0.1-0.1,0.1-0.2,0.2-0.2s0.2-0.1,0.3-0.1L56.9,217.4L56.9,217.4z"/>
		<path d="M63.4,226.1H63c-0.1,0-0.2,0-0.3,0c-0.1,0-0.1-0.1-0.1-0.2l-0.1-0.6c-0.2,0.1-0.3,0.3-0.5,0.4c-0.2,0.1-0.3,0.2-0.5,0.3
			c-0.2,0.1-0.3,0.1-0.5,0.2s-0.4,0.1-0.6,0.1c-0.2,0-0.5,0-0.7-0.1c-0.2-0.1-0.4-0.2-0.5-0.3c-0.2-0.1-0.3-0.3-0.4-0.5
			c-0.1-0.2-0.1-0.4-0.1-0.7c0-0.2,0.1-0.5,0.2-0.7s0.3-0.4,0.6-0.6c0.3-0.2,0.7-0.3,1.2-0.4s1.1-0.2,1.7-0.2v-0.5
			c0-0.5-0.1-0.8-0.3-1.1c-0.2-0.2-0.5-0.4-0.9-0.4c-0.3,0-0.5,0-0.7,0.1c-0.2,0.1-0.3,0.1-0.5,0.2c-0.1,0.1-0.2,0.2-0.3,0.2
			c-0.1,0.1-0.2,0.1-0.3,0.1c-0.1,0-0.1,0-0.2-0.1s-0.1-0.1-0.1-0.1l-0.2-0.3c0.3-0.3,0.7-0.6,1.1-0.7c0.4-0.2,0.8-0.2,1.3-0.2
			c0.3,0,0.6,0.1,0.9,0.2c0.3,0.1,0.5,0.3,0.7,0.5s0.3,0.4,0.4,0.7c0.1,0.3,0.1,0.6,0.1,0.9L63.4,226.1L63.4,226.1z M60.7,225.5
			c0.2,0,0.4,0,0.5-0.1s0.3-0.1,0.4-0.2s0.3-0.2,0.4-0.3s0.2-0.2,0.4-0.3v-1.3c-0.5,0-0.9,0-1.3,0.1c-0.3,0.1-0.6,0.1-0.8,0.2
			c-0.2,0.1-0.4,0.2-0.5,0.4s-0.1,0.3-0.1,0.5c0,0.2,0,0.3,0.1,0.4c0.1,0.1,0.1,0.2,0.2,0.3c0.1,0.1,0.2,0.1,0.3,0.2
			C60.4,225.4,60.5,225.5,60.7,225.5z"/>
		<path d="M66.9,226.2c-0.5,0-0.8-0.1-1.1-0.4c-0.3-0.3-0.4-0.7-0.4-1.2v-3.7h-0.7c-0.1,0-0.1,0-0.2-0.1s-0.1-0.1-0.1-0.2v-0.4
			l1-0.1l0.2-1.9c0-0.1,0-0.1,0.1-0.1s0.1-0.1,0.2-0.1h0.5v2.1h1.7v0.8h-1.7v3.6c0,0.3,0.1,0.4,0.2,0.6c0.1,0.1,0.3,0.2,0.5,0.2
			c0.1,0,0.2,0,0.3,0s0.2-0.1,0.2-0.1s0.1-0.1,0.2-0.1c0,0,0.1,0,0.1,0c0.1,0,0.1,0,0.1,0.1l0.3,0.5c-0.2,0.2-0.4,0.3-0.7,0.4
			C67.4,226.2,67.2,226.2,66.9,226.2z"/>
		<path d="M71,218.1c0,0.1,0,0.2-0.1,0.3s-0.1,0.2-0.2,0.2c-0.1,0.1-0.2,0.1-0.2,0.2s-0.2,0.1-0.3,0.1s-0.2,0-0.3-0.1
			s-0.2-0.1-0.2-0.2s-0.1-0.1-0.2-0.2s-0.1-0.2-0.1-0.3s0-0.2,0.1-0.3s0.1-0.2,0.2-0.2c0.1-0.1,0.2-0.1,0.2-0.2s0.2-0.1,0.3-0.1
			c0.1,0,0.2,0,0.3,0.1s0.2,0.1,0.2,0.2c0.1,0.1,0.1,0.2,0.2,0.2S71,218,71,218.1z M70.7,220v6.1h-1.1V220H70.7z"/>
		<path d="M75.1,219.9c0.4,0,0.8,0.1,1.2,0.2c0.4,0.1,0.7,0.4,0.9,0.6s0.4,0.6,0.6,1c0.1,0.4,0.2,0.8,0.2,1.3c0,0.5-0.1,0.9-0.2,1.3
			c-0.1,0.4-0.3,0.7-0.6,1c-0.2,0.3-0.6,0.5-0.9,0.6c-0.4,0.1-0.8,0.2-1.2,0.2s-0.8-0.1-1.2-0.2c-0.4-0.1-0.7-0.4-0.9-0.6
			s-0.4-0.6-0.6-1s-0.2-0.8-0.2-1.3c0-0.5,0.1-0.9,0.2-1.3s0.3-0.7,0.6-1c0.3-0.3,0.6-0.5,0.9-0.6C74.2,220,74.6,219.9,75.1,219.9z
			 M75.1,225.4c0.6,0,1-0.2,1.3-0.6c0.3-0.4,0.4-1,0.4-1.7c0-0.7-0.1-1.3-0.4-1.7c-0.3-0.4-0.7-0.6-1.3-0.6c-0.3,0-0.6,0.1-0.8,0.2
			s-0.4,0.3-0.6,0.4c-0.2,0.2-0.3,0.4-0.3,0.7c-0.1,0.3-0.1,0.6-0.1,1s0,0.7,0.1,1c0.1,0.3,0.2,0.5,0.3,0.7c0.1,0.2,0.3,0.3,0.6,0.4
			C74.5,225.3,74.8,225.4,75.1,225.4z"/>
		<path d="M79.3,226.1V220h0.6c0.2,0,0.2,0.1,0.3,0.2l0.1,0.7c0.3-0.3,0.6-0.5,0.9-0.7c0.3-0.2,0.7-0.3,1.1-0.3
			c0.3,0,0.6,0.1,0.9,0.2c0.3,0.1,0.5,0.3,0.6,0.5s0.3,0.4,0.4,0.7c0.1,0.3,0.1,0.6,0.1,0.9v3.9h-1.1v-3.9c0-0.5-0.1-0.8-0.3-1.1
			c-0.2-0.3-0.5-0.4-1-0.4c-0.3,0-0.6,0.1-0.9,0.2c-0.3,0.2-0.5,0.4-0.8,0.6v4.5H79.3z"/>
		<path d="M92.5,226.1c-0.2,0-0.2-0.1-0.3-0.2l-0.1-0.7c-0.3,0.3-0.6,0.6-0.9,0.8s-0.7,0.3-1.1,0.3c-0.3,0-0.7-0.1-0.9-0.2
			s-0.5-0.3-0.7-0.6s-0.4-0.6-0.5-1c-0.1-0.4-0.2-0.8-0.2-1.3c0-0.4,0.1-0.9,0.2-1.3c0.1-0.4,0.3-0.7,0.5-1c0.2-0.3,0.5-0.5,0.8-0.7
			s0.7-0.2,1.1-0.2c0.4,0,0.7,0.1,1,0.2c0.3,0.1,0.5,0.3,0.7,0.5v-3.4h1.1v8.8L92.5,226.1L92.5,226.1z M90.5,225.3
			c0.3,0,0.7-0.1,0.9-0.2c0.3-0.2,0.5-0.4,0.7-0.7v-2.9c-0.2-0.3-0.4-0.4-0.6-0.6c-0.2-0.1-0.5-0.2-0.8-0.2c-0.6,0-1,0.2-1.3,0.6
			c-0.3,0.4-0.5,1-0.5,1.7c0,0.4,0,0.7,0.1,1c0.1,0.3,0.2,0.5,0.3,0.7c0.1,0.2,0.3,0.3,0.5,0.4C90,225.3,90.2,225.3,90.5,225.3z"/>
		<path d="M95.7,217.1c0.1,0.2,0.2,0.4,0.3,0.6c0.1,0.2,0.1,0.4,0.1,0.6c0,0.4-0.1,0.7-0.3,1c-0.2,0.3-0.4,0.6-0.7,0.9l-0.3-0.2
			c0,0-0.1,0-0.1-0.1c0,0,0,0,0-0.1c0-0.1,0-0.1,0.1-0.1c0.1-0.1,0.1-0.2,0.2-0.2c0.1-0.1,0.1-0.2,0.2-0.3s0.1-0.2,0.1-0.3
			c0-0.1,0-0.2,0-0.3c0-0.1,0-0.3-0.1-0.4s-0.1-0.3-0.2-0.4c0,0,0-0.1,0-0.1c0-0.1,0.1-0.2,0.2-0.2L95.7,217.1z"/>
		<path d="M98.4,220v3.9c0,0.5,0.1,0.8,0.3,1.1s0.5,0.4,1,0.4c0.3,0,0.6-0.1,0.9-0.2c0.3-0.1,0.5-0.4,0.8-0.6V220h1.1v6.1h-0.6
			c-0.2,0-0.2-0.1-0.3-0.2l-0.1-0.7c-0.3,0.3-0.6,0.5-0.9,0.7c-0.3,0.2-0.7,0.3-1.1,0.3c-0.3,0-0.6-0.1-0.9-0.2
			c-0.3-0.1-0.5-0.3-0.6-0.5s-0.3-0.4-0.4-0.7s-0.1-0.6-0.1-0.9V220L98.4,220L98.4,220z"/>
		<path d="M104.2,226.1V220h0.6c0.2,0,0.2,0.1,0.3,0.2l0.1,0.7c0.3-0.3,0.6-0.5,0.9-0.7c0.3-0.2,0.7-0.3,1.1-0.3
			c0.3,0,0.6,0.1,0.9,0.2c0.3,0.1,0.5,0.3,0.6,0.5s0.3,0.4,0.4,0.7c0.1,0.3,0.1,0.6,0.1,0.9v3.9h-1.1v-3.9c0-0.5-0.1-0.8-0.3-1.1
			c-0.2-0.3-0.5-0.4-1-0.4c-0.3,0-0.6,0.1-0.9,0.2c-0.3,0.2-0.5,0.4-0.8,0.6v4.5H104.2z"/>
		<path d="M47,234.9c0,0.1,0,0.1,0,0.2c0,0.1-0.1,0.1-0.1,0.2l-3.3,4.4h3.3v0.8h-4.6v-0.4c0-0.1,0-0.1,0-0.2s0.1-0.1,0.1-0.2
			l3.3-4.4h-3.3v-0.8H47C47,234.4,47,234.9,47,234.9z"/>
		<path d="M50.8,234.3c0.4,0,0.8,0.1,1.2,0.2s0.7,0.4,0.9,0.6s0.4,0.6,0.6,1c0.1,0.4,0.2,0.8,0.2,1.3c0,0.5-0.1,0.9-0.2,1.3
			c-0.1,0.4-0.3,0.7-0.6,1c-0.2,0.3-0.6,0.5-0.9,0.6c-0.4,0.1-0.8,0.2-1.2,0.2s-0.8-0.1-1.2-0.2s-0.7-0.4-0.9-0.6
			c-0.3-0.3-0.4-0.6-0.6-1c-0.1-0.4-0.2-0.8-0.2-1.3c0-0.5,0.1-0.9,0.2-1.3c0.1-0.4,0.3-0.7,0.6-1c0.3-0.3,0.6-0.5,0.9-0.6
			C49.9,234.4,50.3,234.3,50.8,234.3z M50.8,239.8c0.6,0,1-0.2,1.3-0.6c0.3-0.4,0.4-1,0.4-1.7c0-0.7-0.1-1.3-0.4-1.7
			c-0.3-0.4-0.7-0.6-1.3-0.6c-0.3,0-0.6,0.1-0.8,0.2s-0.4,0.3-0.6,0.4c-0.1,0.2-0.3,0.4-0.3,0.7s-0.1,0.6-0.1,1s0,0.7,0.1,1
			c0.1,0.3,0.2,0.5,0.3,0.7c0.2,0.2,0.3,0.3,0.6,0.4C50.2,239.7,50.5,239.8,50.8,239.8z"/>
		<path d="M55,240.5v-6.1h0.6c0.2,0,0.2,0.1,0.3,0.2l0.1,0.7c0.3-0.3,0.6-0.5,0.9-0.7c0.3-0.2,0.7-0.3,1.1-0.3
			c0.3,0,0.6,0.1,0.9,0.2c0.3,0.1,0.5,0.3,0.6,0.5s0.3,0.4,0.4,0.7c0.1,0.3,0.1,0.6,0.1,0.9v3.9H59v-3.9c0-0.5-0.1-0.8-0.3-1.1
			c-0.2-0.3-0.5-0.4-1-0.4c-0.3,0-0.6,0.1-0.9,0.2c-0.3,0.2-0.5,0.4-0.8,0.6v4.5H55z"/>
		<path d="M63.1,232.5c0,0.1,0,0.2-0.1,0.3s-0.1,0.2-0.2,0.2c-0.1,0.1-0.2,0.1-0.2,0.2s-0.2,0.1-0.3,0.1s-0.2,0-0.3-0.1
			c-0.1,0-0.2-0.1-0.2-0.2s-0.1-0.1-0.2-0.2s-0.1-0.2-0.1-0.3s0-0.2,0.1-0.3s0.1-0.2,0.2-0.2c0.1-0.1,0.1-0.1,0.2-0.2
			c0.1,0,0.2-0.1,0.3-0.1s0.2,0,0.3,0.1s0.2,0.1,0.2,0.2c0.1,0.1,0.1,0.2,0.2,0.2S63.1,232.4,63.1,232.5z M62.8,234.4v6.1h-1.1v-6.1
			H62.8z"/>
		<path d="M64.7,240.5v-6.1h0.6c0.2,0,0.2,0.1,0.3,0.2l0.1,0.7c0.3-0.3,0.6-0.5,0.9-0.7c0.3-0.2,0.7-0.3,1.1-0.3
			c0.3,0,0.6,0.1,0.9,0.2c0.3,0.1,0.5,0.3,0.6,0.5s0.3,0.4,0.4,0.7c0.1,0.3,0.1,0.6,0.1,0.9v3.9h-1.1v-3.9c0-0.5-0.1-0.8-0.3-1.1
			c-0.2-0.3-0.5-0.4-1-0.4c-0.3,0-0.6,0.1-0.9,0.2c-0.3,0.2-0.5,0.4-0.8,0.6v4.5H64.7z"/>
		<path d="M73.4,234.3c0.3,0,0.5,0,0.7,0.1c0.2,0.1,0.4,0.1,0.6,0.3h1.7v0.4c0,0.1-0.1,0.2-0.3,0.3l-0.7,0.1
			c0.1,0.3,0.2,0.6,0.2,0.9c0,0.3-0.1,0.6-0.2,0.8c-0.1,0.2-0.3,0.4-0.5,0.6s-0.4,0.3-0.7,0.4c-0.3,0.1-0.6,0.1-0.9,0.1
			c-0.3,0-0.6,0-0.8-0.1c-0.1,0.1-0.2,0.2-0.3,0.3c-0.1,0.1-0.1,0.2-0.1,0.3c0,0.1,0.1,0.3,0.2,0.3c0.1,0.1,0.3,0.1,0.5,0.2
			c0.2,0,0.4,0.1,0.7,0.1c0.2,0,0.5,0,0.7,0s0.5,0,0.7,0.1s0.5,0.1,0.7,0.2s0.3,0.2,0.5,0.4c0.1,0.2,0.2,0.4,0.2,0.7
			c0,0.3-0.1,0.5-0.2,0.8c-0.1,0.2-0.3,0.5-0.6,0.7s-0.5,0.3-0.9,0.5c-0.4,0.1-0.8,0.2-1.2,0.2s-0.8,0-1.2-0.1s-0.6-0.2-0.8-0.4
			c-0.2-0.1-0.4-0.3-0.5-0.5s-0.2-0.4-0.2-0.6c0-0.3,0.1-0.6,0.3-0.8s0.5-0.4,0.8-0.5c-0.2-0.1-0.3-0.2-0.4-0.3s-0.2-0.3-0.2-0.5
			c0-0.1,0-0.2,0-0.3c0-0.1,0.1-0.2,0.1-0.3s0.1-0.2,0.2-0.3s0.2-0.2,0.3-0.2c-0.3-0.2-0.5-0.4-0.7-0.7s-0.3-0.6-0.3-1
			c0-0.3,0.1-0.6,0.2-0.8s0.3-0.4,0.5-0.6c0.2-0.2,0.4-0.3,0.7-0.4S73.1,234.3,73.4,234.3z M75.3,240.8c0-0.2,0-0.3-0.1-0.4
			s-0.2-0.2-0.3-0.2c-0.1-0.1-0.3-0.1-0.5-0.1s-0.4,0-0.6,0s-0.4,0-0.6,0s-0.4,0-0.6-0.1c-0.2,0.1-0.4,0.2-0.6,0.4
			c-0.1,0.2-0.2,0.3-0.2,0.6c0,0.1,0,0.3,0.1,0.4s0.2,0.2,0.3,0.3c0.1,0.1,0.3,0.2,0.5,0.2s0.5,0.1,0.8,0.1c0.3,0,0.5,0,0.8-0.1
			c0.2-0.1,0.4-0.1,0.6-0.2c0.2-0.1,0.3-0.2,0.4-0.4S75.3,241,75.3,240.8z M73.4,237.5c0.2,0,0.4,0,0.6-0.1c0.2-0.1,0.3-0.1,0.4-0.3
			c0.1-0.1,0.2-0.2,0.3-0.4c0.1-0.1,0.1-0.3,0.1-0.5c0-0.4-0.1-0.7-0.3-0.9c-0.2-0.2-0.6-0.3-1-0.3c-0.4,0-0.8,0.1-1,0.3
			c-0.2,0.2-0.3,0.5-0.3,0.9c0,0.2,0,0.3,0.1,0.5c0.1,0.1,0.1,0.3,0.3,0.4c0.1,0.1,0.2,0.2,0.4,0.3C73,237.5,73.2,237.5,73.4,237.5z
			"/>
		<path d="M82.2,234.3c0.4,0,0.7,0.1,1,0.2s0.6,0.3,0.8,0.5c0.2,0.2,0.4,0.5,0.5,0.9c0.1,0.3,0.2,0.7,0.2,1.2c0,0.2,0,0.3-0.1,0.3
			c0,0.1-0.1,0.1-0.2,0.1h-4c0,0.4,0.1,0.7,0.2,1s0.2,0.5,0.4,0.7c0.2,0.2,0.4,0.3,0.6,0.4c0.2,0.1,0.5,0.1,0.8,0.1
			c0.3,0,0.5,0,0.7-0.1s0.4-0.1,0.5-0.2s0.3-0.1,0.4-0.2c0.1-0.1,0.2-0.1,0.2-0.1c0.1,0,0.2,0,0.2,0.1l0.3,0.4
			c-0.1,0.2-0.3,0.3-0.5,0.4c-0.2,0.1-0.4,0.2-0.6,0.3c-0.2,0.1-0.4,0.1-0.7,0.2c-0.2,0-0.4,0.1-0.7,0.1c-0.4,0-0.8-0.1-1.2-0.2
			c-0.4-0.1-0.7-0.4-0.9-0.6c-0.3-0.3-0.5-0.6-0.6-1c-0.1-0.4-0.2-0.9-0.2-1.4c0-0.4,0.1-0.8,0.2-1.2s0.3-0.7,0.6-1
			c0.2-0.3,0.5-0.5,0.9-0.6C81.4,234.4,81.8,234.3,82.2,234.3z M82.3,235.1c-0.5,0-0.9,0.1-1.2,0.4c-0.3,0.3-0.5,0.7-0.6,1.2h3.3
			c0-0.2,0-0.5-0.1-0.7s-0.2-0.4-0.3-0.5c-0.1-0.1-0.3-0.3-0.5-0.3C82.7,235.2,82.5,235.1,82.3,235.1z"/>
		<path d="M88,240.6c-0.5,0-0.8-0.1-1.1-0.4c-0.3-0.3-0.4-0.7-0.4-1.2v-3.7h-0.7c-0.1,0-0.1,0-0.2-0.1s-0.1-0.1-0.1-0.2v-0.4l1-0.1
			l0.2-1.9c0-0.1,0-0.1,0.1-0.1s0.1-0.1,0.2-0.1h0.5v2.1h1.7v0.8h-1.7v3.6c0,0.3,0.1,0.4,0.2,0.6s0.3,0.2,0.5,0.2c0.1,0,0.2,0,0.3,0
			s0.2-0.1,0.2-0.1c0.1,0,0.1-0.1,0.2-0.1c0,0,0.1,0,0.1,0c0.1,0,0.1,0,0.2,0.1l0.3,0.5c-0.2,0.2-0.4,0.3-0.7,0.4
			C88.5,240.6,88.2,240.6,88,240.6z"/>
		<path d="M90.7,240.6c-0.1,0.1-0.1,0.2-0.2,0.3c-0.1,0.1-0.2,0.1-0.3,0.1h-0.4l3.6-9c0.1-0.1,0.1-0.2,0.2-0.3
			c0.1-0.1,0.2-0.1,0.3-0.1h0.4L90.7,240.6z"/>
		<path d="M96.8,234.3c0.4,0,0.8,0.1,1.2,0.2c0.4,0.1,0.7,0.4,0.9,0.6s0.4,0.6,0.6,1c0.1,0.4,0.2,0.8,0.2,1.3c0,0.5-0.1,0.9-0.2,1.3
			c-0.1,0.4-0.3,0.7-0.6,1c-0.2,0.3-0.6,0.5-0.9,0.6c-0.4,0.1-0.8,0.2-1.2,0.2s-0.8-0.1-1.2-0.2c-0.4-0.1-0.7-0.4-0.9-0.6
			s-0.4-0.6-0.6-1s-0.2-0.8-0.2-1.3c0-0.5,0.1-0.9,0.2-1.3s0.3-0.7,0.6-1c0.3-0.3,0.6-0.5,0.9-0.6C96,234.4,96.4,234.3,96.8,234.3z
			 M96.8,239.8c0.6,0,1-0.2,1.3-0.6c0.3-0.4,0.4-1,0.4-1.7c0-0.7-0.1-1.3-0.4-1.7c-0.3-0.4-0.7-0.6-1.3-0.6c-0.3,0-0.6,0.1-0.8,0.2
			s-0.4,0.3-0.6,0.4c-0.2,0.2-0.3,0.4-0.3,0.7c-0.1,0.3-0.1,0.6-0.1,1s0,0.7,0.1,1c0.1,0.3,0.2,0.5,0.3,0.7c0.1,0.2,0.3,0.3,0.6,0.4
			C96.3,239.7,96.5,239.8,96.8,239.8z"/>
		<path d="M102,234.4v3.9c0,0.5,0.1,0.8,0.3,1.1s0.5,0.4,1,0.4c0.3,0,0.6-0.1,0.9-0.2c0.3-0.1,0.5-0.4,0.8-0.6v-4.5h1.1v6.1h-0.6
			c-0.2,0-0.2-0.1-0.3-0.2l-0.1-0.7c-0.3,0.3-0.6,0.5-0.9,0.7c-0.3,0.2-0.7,0.3-1.1,0.3c-0.3,0-0.6-0.1-0.9-0.2
			c-0.3-0.1-0.5-0.3-0.6-0.5s-0.3-0.4-0.4-0.7s-0.1-0.6-0.1-0.9v-3.9L102,234.4L102,234.4z"/>
		<path d="M54.4,254.9v-6.1H55c0.2,0,0.2,0.1,0.3,0.2l0.1,0.6c0.2-0.3,0.5-0.5,0.8-0.7c0.3-0.2,0.6-0.3,1-0.3c0.4,0,0.7,0.1,1,0.3
			c0.3,0.2,0.4,0.5,0.5,0.9c0.1-0.2,0.2-0.4,0.3-0.6c0.1-0.2,0.3-0.3,0.5-0.4c0.2-0.1,0.4-0.2,0.5-0.2c0.2,0,0.4-0.1,0.6-0.1
			c0.3,0,0.6,0.1,0.9,0.2c0.2,0.1,0.5,0.3,0.6,0.4c0.2,0.2,0.3,0.4,0.4,0.7c0.1,0.3,0.1,0.6,0.1,1v3.9h-1.1V251
			c0-0.5-0.1-0.8-0.3-1.1s-0.5-0.4-0.9-0.4c-0.2,0-0.3,0-0.5,0.1c-0.2,0.1-0.3,0.2-0.4,0.3c-0.1,0.1-0.2,0.3-0.3,0.5
			c-0.1,0.2-0.1,0.4-0.1,0.6v3.9H58V251c0-0.5-0.1-0.9-0.3-1.1c-0.2-0.2-0.5-0.4-0.9-0.4c-0.3,0-0.5,0.1-0.7,0.2
			c-0.2,0.1-0.4,0.3-0.6,0.6v4.5L54.4,254.9L54.4,254.9z"/>
		<path d="M66.7,248.7c0.4,0,0.8,0.1,1.2,0.2c0.4,0.1,0.7,0.4,0.9,0.6s0.4,0.6,0.6,1c0.1,0.4,0.2,0.8,0.2,1.3c0,0.5-0.1,0.9-0.2,1.3
			c-0.1,0.4-0.3,0.7-0.6,1c-0.2,0.3-0.6,0.5-0.9,0.6c-0.4,0.1-0.8,0.2-1.2,0.2s-0.8-0.1-1.2-0.2s-0.7-0.4-0.9-0.6
			c-0.3-0.3-0.4-0.6-0.6-1c-0.1-0.4-0.2-0.8-0.2-1.3c0-0.5,0.1-0.9,0.2-1.3c0.1-0.4,0.3-0.7,0.6-1c0.3-0.3,0.6-0.5,0.9-0.6
			C65.9,248.8,66.3,248.7,66.7,248.7z M66.7,254.2c0.6,0,1-0.2,1.3-0.6c0.3-0.4,0.4-1,0.4-1.7c0-0.7-0.1-1.3-0.4-1.7
			c-0.3-0.4-0.7-0.6-1.3-0.6c-0.3,0-0.6,0.1-0.8,0.2s-0.4,0.3-0.6,0.4c-0.1,0.2-0.3,0.4-0.3,0.7s-0.1,0.6-0.1,1s0,0.7,0.1,1
			c0.1,0.3,0.2,0.5,0.3,0.7c0.2,0.2,0.3,0.3,0.6,0.4C66.1,254.1,66.4,254.2,66.7,254.2z"/>
		<path d="M75.1,249.9c0,0-0.1,0.1-0.1,0.1c0,0-0.1,0-0.1,0c-0.1,0-0.1,0-0.2-0.1c-0.1-0.1-0.2-0.1-0.3-0.2
			c-0.1-0.1-0.2-0.1-0.4-0.2c-0.2-0.1-0.3-0.1-0.6-0.1c-0.3,0-0.6,0.1-0.8,0.2c-0.2,0.1-0.4,0.3-0.6,0.5s-0.3,0.4-0.3,0.7
			s-0.1,0.6-0.1,1c0,0.4,0,0.7,0.1,1c0.1,0.3,0.2,0.5,0.4,0.7c0.2,0.2,0.3,0.3,0.6,0.4c0.2,0.1,0.5,0.2,0.7,0.2c0.3,0,0.5,0,0.6-0.1
			s0.3-0.1,0.4-0.2s0.2-0.1,0.3-0.2c0.1-0.1,0.1-0.1,0.2-0.1c0.1,0,0.2,0,0.2,0.1l0.3,0.4c-0.3,0.3-0.6,0.6-1,0.7
			c-0.4,0.1-0.8,0.2-1.3,0.2c-0.4,0-0.7-0.1-1.1-0.2s-0.6-0.3-0.8-0.6c-0.2-0.3-0.4-0.6-0.6-1c-0.1-0.4-0.2-0.8-0.2-1.3
			c0-0.5,0.1-0.9,0.2-1.3s0.3-0.7,0.6-1c0.2-0.3,0.5-0.5,0.9-0.7c0.4-0.2,0.8-0.2,1.2-0.2c0.4,0,0.8,0.1,1.1,0.2
			c0.3,0.1,0.6,0.3,0.9,0.6L75.1,249.9z"/>
		<path d="M77.6,246.1v5.2h0.3c0.1,0,0.1,0,0.2,0s0.1-0.1,0.2-0.1l1.9-2.1c0.1-0.1,0.1-0.1,0.2-0.2c0.1,0,0.1-0.1,0.2-0.1h1
			l-2.2,2.4c-0.1,0.1-0.1,0.1-0.2,0.2c-0.1,0.1-0.1,0.1-0.2,0.1c0.1,0,0.1,0.1,0.2,0.2c0.1,0.1,0.1,0.1,0.2,0.2l2.4,3h-1
			c-0.1,0-0.2,0-0.2-0.1s-0.1-0.1-0.2-0.2l-2-2.5c-0.1-0.1-0.1-0.1-0.2-0.2c-0.1,0-0.1,0-0.3,0h-0.3v2.9h-1.1v-8.8H77.6z"/>
		<path d="M83.7,248.8v3.9c0,0.5,0.1,0.8,0.3,1.1s0.5,0.4,1,0.4c0.3,0,0.6-0.1,0.9-0.2c0.3-0.1,0.5-0.4,0.8-0.6v-4.5h1.1v6.1h-0.6
			c-0.2,0-0.2-0.1-0.3-0.2l-0.1-0.7c-0.3,0.3-0.6,0.5-0.9,0.7c-0.3,0.2-0.7,0.3-1.1,0.3c-0.3,0-0.6-0.1-0.9-0.2
			c-0.3-0.1-0.5-0.3-0.6-0.5s-0.3-0.4-0.4-0.7s-0.1-0.6-0.1-0.9v-3.9L83.7,248.8L83.7,248.8z"/>
		<path d="M89.5,257v-8.1h0.6c0.2,0,0.2,0.1,0.3,0.2l0.1,0.7c0.3-0.3,0.6-0.6,0.9-0.8c0.3-0.2,0.7-0.3,1.2-0.3
			c0.3,0,0.7,0.1,0.9,0.2c0.3,0.1,0.5,0.3,0.7,0.6c0.2,0.3,0.4,0.6,0.5,1c0.1,0.4,0.2,0.8,0.2,1.3c0,0.4-0.1,0.9-0.2,1.3
			s-0.3,0.7-0.5,1c-0.2,0.3-0.5,0.5-0.8,0.7s-0.7,0.2-1.1,0.2c-0.4,0-0.7-0.1-1-0.2c-0.3-0.1-0.5-0.3-0.7-0.5v2.7L89.5,257L89.5,257
			z M92.2,249.6c-0.3,0-0.7,0.1-0.9,0.2s-0.5,0.4-0.7,0.7v2.9c0.2,0.3,0.4,0.4,0.6,0.6c0.2,0.1,0.5,0.2,0.8,0.2c0.6,0,1-0.2,1.3-0.6
			c0.3-0.4,0.5-1,0.5-1.7c0-0.4,0-0.7-0.1-1c-0.1-0.3-0.2-0.5-0.3-0.7s-0.3-0.3-0.5-0.4C92.6,249.6,92.4,249.6,92.2,249.6z"/>
	</g>
	<g>
		<path d="M61.7,121.8h-0.9c-0.1,0-0.2,0-0.3-0.1s-0.1-0.1-0.1-0.2l-0.8-2.1h-3.9l-0.8,2.1c0,0.1-0.1,0.1-0.1,0.2s-0.2,0.1-0.3,0.1
			h-0.9l3.4-8.6h1.2L61.7,121.8z M56.1,118.7h3.2l-1.3-3.5c-0.1-0.2-0.2-0.5-0.3-0.8c0,0.2-0.1,0.3-0.1,0.5s-0.1,0.3-0.1,0.4
			L56.1,118.7z"/>
		<path d="M62.6,121.8v-6.1h0.6c0.2,0,0.2,0.1,0.3,0.2l0.1,0.7c0.3-0.3,0.6-0.5,0.9-0.7c0.3-0.2,0.7-0.3,1.1-0.3
			c0.3,0,0.6,0.1,0.9,0.2c0.3,0.1,0.5,0.3,0.6,0.5s0.3,0.4,0.4,0.7c0.1,0.3,0.1,0.6,0.1,0.9v3.9h-1.1V118c0-0.5-0.1-0.8-0.3-1.1
			c-0.2-0.3-0.5-0.4-1-0.4c-0.3,0-0.6,0.1-0.9,0.2c-0.3,0.2-0.5,0.4-0.8,0.6v4.5H62.6z"/>
		<path d="M73.8,121.8h-0.5c-0.1,0-0.2,0-0.3,0c-0.1,0-0.1-0.1-0.1-0.2l-0.1-0.6c-0.2,0.1-0.3,0.3-0.5,0.4c-0.2,0.1-0.3,0.2-0.5,0.3
			c-0.2,0.1-0.3,0.1-0.5,0.2c-0.2,0-0.4,0.1-0.6,0.1c-0.2,0-0.5,0-0.7-0.1s-0.4-0.2-0.5-0.3c-0.2-0.1-0.3-0.3-0.4-0.5
			c-0.1-0.2-0.1-0.4-0.1-0.7c0-0.2,0.1-0.5,0.2-0.7s0.3-0.4,0.6-0.6c0.3-0.2,0.7-0.3,1.2-0.4s1.1-0.2,1.7-0.2V118
			c0-0.5-0.1-0.8-0.3-1.1c-0.2-0.2-0.5-0.4-0.9-0.4c-0.3,0-0.5,0-0.7,0.1c-0.2,0.1-0.3,0.1-0.5,0.2s-0.2,0.2-0.3,0.2
			s-0.2,0.1-0.3,0.1c-0.1,0-0.1,0-0.2-0.1s-0.1-0.1-0.1-0.1l-0.2-0.3c0.3-0.3,0.7-0.6,1.1-0.7c0.4-0.2,0.8-0.2,1.3-0.2
			c0.3,0,0.6,0.1,0.9,0.2c0.3,0.1,0.5,0.3,0.7,0.5s0.3,0.4,0.4,0.7s0.1,0.6,0.1,0.9L73.8,121.8L73.8,121.8z M71,121.2
			c0.2,0,0.4,0,0.5-0.1s0.3-0.1,0.4-0.2s0.3-0.2,0.4-0.3s0.2-0.2,0.4-0.3v-1.3c-0.5,0-0.9,0-1.3,0.1c-0.3,0.1-0.6,0.1-0.8,0.2
			s-0.4,0.2-0.5,0.4c-0.1,0.1-0.1,0.3-0.1,0.5c0,0.2,0,0.3,0.1,0.4c0.1,0.1,0.1,0.2,0.2,0.3s0.2,0.1,0.3,0.2S70.9,121.2,71,121.2z"
			/>
		<path d="M76.6,113v8.8h-1.1V113H76.6z"/>
		<path d="M80.2,123.6c0,0.1-0.1,0.1-0.1,0.2c-0.1,0-0.1,0.1-0.2,0.1h-0.8l1.1-2.4l-2.5-5.7h0.9c0.1,0,0.2,0,0.2,0.1
			c0.1,0,0.1,0.1,0.1,0.2l1.6,3.8c0,0.1,0.1,0.2,0.1,0.3s0,0.2,0.1,0.3c0-0.1,0.1-0.2,0.1-0.3s0.1-0.2,0.1-0.3l1.6-3.8
			c0-0.1,0.1-0.1,0.1-0.2s0.1-0.1,0.2-0.1h0.9L80.2,123.6z"/>
		<path d="M88.1,116.8c0,0.1-0.1,0.1-0.2,0.1c-0.1,0-0.1,0-0.2-0.1s-0.2-0.1-0.3-0.1c-0.1-0.1-0.2-0.1-0.4-0.1s-0.3-0.1-0.5-0.1
			c-0.2,0-0.3,0-0.5,0.1c-0.1,0-0.3,0.1-0.4,0.2c-0.1,0.1-0.2,0.2-0.2,0.3c-0.1,0.1-0.1,0.2-0.1,0.3c0,0.2,0,0.3,0.1,0.4
			c0.1,0.1,0.2,0.2,0.4,0.3c0.1,0.1,0.3,0.1,0.5,0.2c0.2,0.1,0.4,0.1,0.6,0.2c0.2,0.1,0.4,0.1,0.6,0.2s0.4,0.2,0.5,0.3
			c0.1,0.1,0.3,0.3,0.4,0.4c0.1,0.2,0.1,0.4,0.1,0.6c0,0.3-0.1,0.5-0.2,0.8s-0.2,0.4-0.4,0.6c-0.2,0.2-0.4,0.3-0.7,0.4
			c-0.3,0.1-0.6,0.1-1,0.1c-0.4,0-0.8-0.1-1.2-0.2c-0.3-0.1-0.6-0.3-0.9-0.5l0.3-0.4c0-0.1,0.1-0.1,0.1-0.1s0.1,0,0.2,0
			s0.1,0,0.2,0.1s0.2,0.1,0.3,0.2c0.1,0.1,0.3,0.1,0.4,0.2s0.4,0.1,0.6,0.1c0.2,0,0.4,0,0.5-0.1s0.3-0.1,0.4-0.2
			c0.1-0.1,0.2-0.2,0.2-0.3s0.1-0.2,0.1-0.4c0-0.2,0-0.3-0.1-0.4c-0.1-0.1-0.2-0.2-0.4-0.3c-0.1-0.1-0.3-0.1-0.5-0.2
			s-0.4-0.1-0.6-0.2c-0.2-0.1-0.4-0.1-0.6-0.2c-0.2-0.1-0.4-0.2-0.5-0.3s-0.3-0.3-0.4-0.5c-0.1-0.2-0.1-0.4-0.1-0.7
			c0-0.2,0-0.5,0.1-0.7c0.1-0.2,0.2-0.4,0.4-0.6c0.2-0.2,0.4-0.3,0.7-0.4c0.3-0.1,0.6-0.1,0.9-0.1c0.4,0,0.8,0.1,1.1,0.2
			c0.3,0.1,0.6,0.3,0.8,0.5L88.1,116.8z"/>
		<path d="M92.2,115.7c0.4,0,0.7,0.1,1,0.2s0.6,0.3,0.8,0.5c0.2,0.2,0.4,0.5,0.5,0.9c0.1,0.3,0.2,0.7,0.2,1.2c0,0.2,0,0.3-0.1,0.3
			c0,0.1-0.1,0.1-0.2,0.1h-4c0,0.4,0.1,0.7,0.2,1s0.2,0.5,0.4,0.7c0.2,0.2,0.4,0.3,0.6,0.4c0.2,0.1,0.5,0.1,0.8,0.1
			c0.3,0,0.5,0,0.7-0.1c0.2-0.1,0.4-0.1,0.5-0.2s0.3-0.1,0.4-0.2c0.1-0.1,0.2-0.1,0.2-0.1c0.1,0,0.2,0,0.2,0.1l0.3,0.4
			c-0.1,0.2-0.3,0.3-0.5,0.4c-0.2,0.1-0.4,0.2-0.6,0.3c-0.2,0.1-0.4,0.1-0.7,0.2c-0.2,0-0.4,0.1-0.7,0.1c-0.4,0-0.8-0.1-1.2-0.2
			c-0.4-0.1-0.7-0.3-0.9-0.6c-0.3-0.3-0.5-0.6-0.6-1c-0.1-0.4-0.2-0.9-0.2-1.4c0-0.4,0.1-0.8,0.2-1.2c0.1-0.4,0.3-0.7,0.6-1
			c0.2-0.3,0.5-0.5,0.9-0.6C91.4,115.8,91.8,115.7,92.2,115.7z M92.2,116.5c-0.5,0-0.9,0.1-1.2,0.4c-0.3,0.3-0.5,0.7-0.6,1.2h3.3
			c0-0.2,0-0.5-0.1-0.7s-0.2-0.4-0.3-0.5c-0.1-0.2-0.3-0.3-0.5-0.3C92.7,116.5,92.5,116.5,92.2,116.5z"/>
		<path d="M74.2,127.6c0.3,0,0.6,0.1,0.9,0.2c0.3,0.1,0.5,0.2,0.7,0.4c0.2,0.2,0.3,0.4,0.4,0.6c0.1,0.2,0.2,0.5,0.2,0.7l-0.7,0.1
			c0,0,0,0-0.1,0c-0.1,0-0.1,0-0.1,0c0,0-0.1-0.1-0.1-0.1c0-0.1-0.1-0.2-0.1-0.3c-0.1-0.1-0.1-0.2-0.2-0.3s-0.2-0.2-0.4-0.2
			c-0.1-0.1-0.3-0.1-0.5-0.1c-0.2,0-0.4,0-0.5,0.1c-0.2,0.1-0.3,0.2-0.4,0.3s-0.2,0.2-0.3,0.4c-0.1,0.2-0.1,0.3-0.1,0.5
			c0,0.1,0,0.3,0.1,0.4c0,0.1,0.1,0.3,0.2,0.4c0.1,0.1,0.2,0.3,0.3,0.4c0.1,0.1,0.2,0.3,0.4,0.4l2.5,2.5c0.2-0.3,0.3-0.5,0.4-0.8
			s0.2-0.6,0.2-0.9c0-0.1,0-0.1,0.1-0.2s0.1-0.1,0.2-0.1h0.7c0,0.5-0.1,0.9-0.2,1.4c-0.1,0.4-0.3,0.9-0.6,1.2l1.8,1.8h-1
			c-0.1,0-0.2,0-0.3,0s-0.2-0.1-0.2-0.2l-0.9-0.9c-0.4,0.4-0.8,0.7-1.3,0.9c-0.5,0.2-1,0.3-1.6,0.3c-0.3,0-0.6-0.1-0.9-0.2
			c-0.3-0.1-0.6-0.3-0.8-0.5s-0.4-0.5-0.6-0.8c-0.1-0.3-0.2-0.6-0.2-1c0-0.3,0-0.5,0.1-0.8s0.2-0.5,0.4-0.7c0.2-0.2,0.4-0.4,0.6-0.6
			c0.2-0.2,0.5-0.3,0.8-0.4c-0.2-0.3-0.4-0.6-0.5-0.9s-0.2-0.6-0.2-0.9c0-0.3,0.1-0.6,0.2-0.8c0.1-0.3,0.3-0.5,0.5-0.7
			c0.2-0.2,0.4-0.3,0.7-0.4C73.5,127.6,73.8,127.6,74.2,127.6z M71.8,133.9c0,0.3,0,0.5,0.1,0.7c0.1,0.2,0.2,0.4,0.4,0.5
			c0.2,0.1,0.3,0.2,0.5,0.3s0.4,0.1,0.6,0.1c0.4,0,0.8-0.1,1.2-0.2c0.4-0.2,0.7-0.4,0.9-0.7l-2.5-2.6c-0.4,0.2-0.7,0.5-1,0.8
			C71.9,133.1,71.8,133.5,71.8,133.9z"/>
		<path d="M50.3,145.6c0,0-0.1,0.1-0.1,0.1c0,0-0.1,0-0.1,0s-0.1,0-0.2-0.1c-0.1-0.1-0.2-0.1-0.3-0.2c-0.1-0.1-0.2-0.1-0.4-0.2
			c-0.2-0.1-0.3-0.1-0.6-0.1c-0.3,0-0.6,0.1-0.8,0.2c-0.2,0.1-0.4,0.3-0.6,0.5c-0.2,0.2-0.3,0.4-0.3,0.7c-0.1,0.3-0.1,0.6-0.1,1
			c0,0.4,0,0.7,0.1,1c0.1,0.3,0.2,0.5,0.4,0.7c0.2,0.2,0.3,0.3,0.6,0.4c0.2,0.1,0.5,0.2,0.7,0.2c0.3,0,0.5,0,0.6-0.1
			s0.3-0.1,0.4-0.2s0.2-0.1,0.3-0.2c0.1-0.1,0.1-0.1,0.2-0.1c0.1,0,0.2,0,0.2,0.1l0.3,0.4c-0.3,0.3-0.6,0.6-1,0.7
			c-0.4,0.1-0.8,0.2-1.3,0.2c-0.4,0-0.7-0.1-1.1-0.2s-0.6-0.3-0.8-0.6c-0.2-0.3-0.4-0.6-0.6-1c-0.1-0.4-0.2-0.8-0.2-1.3
			c0-0.5,0.1-0.9,0.2-1.3s0.3-0.7,0.6-1c0.2-0.3,0.5-0.5,0.9-0.7c0.4-0.2,0.8-0.2,1.2-0.2c0.4,0,0.8,0.1,1.1,0.2
			c0.3,0.1,0.6,0.3,0.9,0.6L50.3,145.6z"/>
		<path d="M54.2,144.5c0.4,0,0.8,0.1,1.2,0.2c0.4,0.1,0.7,0.4,0.9,0.6s0.4,0.6,0.6,1c0.1,0.4,0.2,0.8,0.2,1.3c0,0.5-0.1,0.9-0.2,1.3
			c-0.1,0.4-0.3,0.7-0.6,1c-0.2,0.3-0.6,0.5-0.9,0.6c-0.4,0.1-0.8,0.2-1.2,0.2c-0.4,0-0.8-0.1-1.2-0.2c-0.4-0.1-0.7-0.4-0.9-0.6
			c-0.3-0.3-0.4-0.6-0.6-1c-0.1-0.4-0.2-0.8-0.2-1.3c0-0.5,0.1-0.9,0.2-1.3c0.1-0.4,0.3-0.7,0.6-1c0.3-0.3,0.6-0.5,0.9-0.6
			C53.3,144.5,53.7,144.5,54.2,144.5z M54.2,149.9c0.6,0,1-0.2,1.3-0.6s0.4-1,0.4-1.7c0-0.7-0.1-1.3-0.4-1.7
			c-0.3-0.4-0.7-0.6-1.3-0.6c-0.3,0-0.6,0.1-0.8,0.2c-0.2,0.1-0.4,0.3-0.6,0.4c-0.1,0.2-0.3,0.4-0.3,0.7s-0.1,0.6-0.1,1s0,0.7,0.1,1
			c0.1,0.3,0.2,0.5,0.3,0.7c0.1,0.2,0.3,0.3,0.6,0.4C53.6,149.8,53.9,149.9,54.2,149.9z"/>
		<path d="M58.4,150.6v-6.1H59c0.2,0,0.2,0.1,0.3,0.2l0.1,0.7c0.3-0.3,0.6-0.5,0.9-0.7c0.3-0.2,0.7-0.3,1.1-0.3
			c0.3,0,0.6,0.1,0.9,0.2c0.3,0.1,0.5,0.3,0.6,0.5s0.3,0.4,0.4,0.7c0.1,0.3,0.1,0.6,0.1,0.9v3.9h-1.1v-3.9c0-0.5-0.1-0.8-0.3-1.1
			c-0.2-0.3-0.5-0.4-1-0.4c-0.3,0-0.6,0.1-0.9,0.2c-0.3,0.2-0.5,0.4-0.8,0.6v4.5H58.4z"/>
		<path d="M69.2,145.6c0,0-0.1,0.1-0.1,0.1c0,0-0.1,0-0.1,0c-0.1,0-0.1,0-0.2-0.1c-0.1-0.1-0.2-0.1-0.3-0.2
			c-0.1-0.1-0.2-0.1-0.4-0.2c-0.2-0.1-0.3-0.1-0.6-0.1c-0.3,0-0.6,0.1-0.8,0.2c-0.2,0.1-0.4,0.3-0.6,0.5s-0.3,0.4-0.3,0.7
			c-0.1,0.3-0.1,0.6-0.1,1c0,0.4,0,0.7,0.1,1c0.1,0.3,0.2,0.5,0.4,0.7s0.3,0.3,0.6,0.4c0.2,0.1,0.5,0.2,0.7,0.2c0.3,0,0.5,0,0.6-0.1
			s0.3-0.1,0.4-0.2c0.1-0.1,0.2-0.1,0.3-0.2s0.1-0.1,0.2-0.1c0.1,0,0.2,0,0.2,0.1l0.3,0.4c-0.3,0.3-0.6,0.6-1,0.7
			c-0.4,0.1-0.8,0.2-1.3,0.2c-0.4,0-0.7-0.1-1.1-0.2s-0.6-0.3-0.8-0.6c-0.2-0.3-0.4-0.6-0.6-1s-0.2-0.8-0.2-1.3
			c0-0.5,0.1-0.9,0.2-1.3c0.1-0.4,0.3-0.7,0.6-1s0.5-0.5,0.9-0.7c0.4-0.2,0.8-0.2,1.2-0.2c0.4,0,0.8,0.1,1.1,0.2
			c0.3,0.1,0.6,0.3,0.9,0.6L69.2,145.6z"/>
		<path d="M73.1,144.5c0.4,0,0.7,0.1,1,0.2s0.6,0.3,0.8,0.5c0.2,0.2,0.4,0.5,0.5,0.9c0.1,0.3,0.2,0.7,0.2,1.2c0,0.2,0,0.3-0.1,0.3
			c0,0.1-0.1,0.1-0.2,0.1h-4c0,0.4,0.1,0.7,0.2,1s0.2,0.5,0.4,0.7c0.2,0.2,0.4,0.3,0.6,0.4c0.2,0.1,0.5,0.1,0.8,0.1
			c0.3,0,0.5,0,0.7-0.1s0.4-0.1,0.5-0.2s0.3-0.1,0.4-0.2c0.1-0.1,0.2-0.1,0.2-0.1c0.1,0,0.2,0,0.2,0.1l0.3,0.4
			c-0.1,0.2-0.3,0.3-0.5,0.4c-0.2,0.1-0.4,0.2-0.6,0.3c-0.2,0.1-0.4,0.1-0.7,0.2c-0.2,0-0.4,0.1-0.7,0.1c-0.4,0-0.8-0.1-1.2-0.2
			c-0.4-0.1-0.7-0.4-0.9-0.6c-0.3-0.3-0.5-0.6-0.6-1c-0.1-0.4-0.2-0.9-0.2-1.4c0-0.4,0.1-0.8,0.2-1.2s0.3-0.7,0.6-1
			c0.2-0.3,0.5-0.5,0.9-0.6C72.2,144.5,72.6,144.5,73.1,144.5z M73.1,145.3c-0.5,0-0.9,0.1-1.2,0.4c-0.3,0.3-0.5,0.7-0.6,1.2h3.3
			c0-0.2,0-0.5-0.1-0.7s-0.2-0.4-0.3-0.5c-0.1-0.1-0.3-0.3-0.5-0.3C73.6,145.3,73.3,145.3,73.1,145.3z"/>
		<path d="M77,152.7v-8.1h0.6c0.2,0,0.2,0.1,0.3,0.2l0.1,0.7c0.3-0.3,0.6-0.6,0.9-0.8c0.3-0.2,0.7-0.3,1.2-0.3
			c0.3,0,0.7,0.1,0.9,0.2c0.3,0.1,0.5,0.3,0.7,0.6c0.2,0.3,0.4,0.6,0.5,1c0.1,0.4,0.2,0.8,0.2,1.3c0,0.4-0.1,0.9-0.2,1.3
			s-0.3,0.7-0.5,1c-0.2,0.3-0.5,0.5-0.8,0.7s-0.7,0.2-1.1,0.2c-0.4,0-0.7-0.1-1-0.2c-0.3-0.1-0.5-0.3-0.7-0.5v2.7L77,152.7L77,152.7
			z M79.7,145.3c-0.3,0-0.7,0.1-0.9,0.2s-0.5,0.4-0.7,0.7v2.9c0.2,0.3,0.4,0.4,0.6,0.6c0.2,0.1,0.5,0.2,0.8,0.2c0.6,0,1-0.2,1.3-0.6
			c0.3-0.4,0.5-1,0.5-1.7c0-0.4,0-0.7-0.1-1c-0.1-0.3-0.2-0.5-0.3-0.7s-0.3-0.3-0.5-0.4C80.1,145.4,79.9,145.3,79.7,145.3z"/>
		<path d="M85.4,150.7c-0.5,0-0.8-0.1-1.1-0.4c-0.3-0.3-0.4-0.7-0.4-1.2v-3.7h-0.7c-0.1,0-0.1,0-0.2-0.1s-0.1-0.1-0.1-0.2v-0.4
			l1-0.1l0.2-1.9c0-0.1,0-0.1,0.1-0.1s0.1-0.1,0.2-0.1H85v2.1h1.7v0.8H85v3.6c0,0.3,0.1,0.4,0.2,0.6s0.3,0.2,0.5,0.2
			c0.1,0,0.2,0,0.3,0s0.2-0.1,0.2-0.1c0.1,0,0.1-0.1,0.2-0.1c0,0,0.1,0,0.1,0c0.1,0,0.1,0,0.2,0.1l0.3,0.5c-0.2,0.2-0.4,0.3-0.7,0.4
			C86,150.7,85.7,150.7,85.4,150.7z"/>
		<path d="M89.5,142.7c0,0.1,0,0.2-0.1,0.3s-0.1,0.2-0.2,0.2c-0.1,0.1-0.2,0.1-0.2,0.2s-0.2,0.1-0.3,0.1s-0.2,0-0.3-0.1
			s-0.2-0.1-0.2-0.2S88.1,143,88,143s-0.1-0.2-0.1-0.3s0-0.2,0.1-0.3s0.1-0.2,0.2-0.2c0.1-0.1,0.2-0.1,0.2-0.2s0.2-0.1,0.3-0.1
			c0.1,0,0.2,0,0.3,0.1s0.2,0.1,0.2,0.2c0.1,0.1,0.1,0.2,0.2,0.2S89.5,142.6,89.5,142.7z M89.2,144.6v6.1h-1.1v-6.1H89.2z"/>
		<path d="M93.6,144.5c0.4,0,0.8,0.1,1.2,0.2c0.4,0.1,0.7,0.4,0.9,0.6s0.4,0.6,0.6,1c0.1,0.4,0.2,0.8,0.2,1.3c0,0.5-0.1,0.9-0.2,1.3
			c-0.1,0.4-0.3,0.7-0.6,1c-0.2,0.3-0.6,0.5-0.9,0.6c-0.4,0.1-0.8,0.2-1.2,0.2s-0.8-0.1-1.2-0.2c-0.4-0.1-0.7-0.4-0.9-0.6
			s-0.4-0.6-0.6-1s-0.2-0.8-0.2-1.3c0-0.5,0.1-0.9,0.2-1.3s0.3-0.7,0.6-1c0.3-0.3,0.6-0.5,0.9-0.6C92.7,144.5,93.1,144.5,93.6,144.5
			z M93.6,149.9c0.6,0,1-0.2,1.3-0.6c0.3-0.4,0.4-1,0.4-1.7c0-0.7-0.1-1.3-0.4-1.7c-0.3-0.4-0.7-0.6-1.3-0.6c-0.3,0-0.6,0.1-0.8,0.2
			s-0.4,0.3-0.6,0.4c-0.2,0.2-0.3,0.4-0.3,0.7c-0.1,0.3-0.1,0.6-0.1,1s0,0.7,0.1,1c0.1,0.3,0.2,0.5,0.3,0.7c0.1,0.2,0.3,0.3,0.6,0.4
			C93,149.8,93.3,149.9,93.6,149.9z"/>
		<path d="M97.8,150.6v-6.1h0.6c0.2,0,0.2,0.1,0.3,0.2l0.1,0.7c0.3-0.3,0.6-0.5,0.9-0.7c0.3-0.2,0.7-0.3,1.1-0.3
			c0.3,0,0.6,0.1,0.9,0.2c0.3,0.1,0.5,0.3,0.6,0.5s0.3,0.4,0.4,0.7c0.1,0.3,0.1,0.6,0.1,0.9v3.9h-1.1v-3.9c0-0.5-0.1-0.8-0.3-1.1
			c-0.2-0.3-0.5-0.4-1-0.4c-0.3,0-0.6,0.1-0.9,0.2c-0.3,0.2-0.5,0.4-0.8,0.6v4.5H97.8z"/>
	</g>
	<g>
		<path d="M51.4,14.3c0,0.6-0.1,1.2-0.3,1.8s-0.5,1-0.9,1.4c-0.4,0.4-0.8,0.7-1.3,0.9s-1.1,0.3-1.7,0.3H44V10h3.2
			c0.6,0,1.2,0.1,1.7,0.3s1,0.5,1.3,0.9c0.4,0.4,0.7,0.8,0.9,1.4C51.3,13.1,51.4,13.7,51.4,14.3z M50.2,14.3c0-0.5-0.1-1-0.2-1.4
			c-0.1-0.4-0.3-0.8-0.6-1.1c-0.3-0.3-0.6-0.5-1-0.7c-0.4-0.2-0.8-0.2-1.3-0.2h-2v6.7h2c0.5,0,0.9-0.1,1.3-0.2s0.7-0.4,1-0.7
			s0.5-0.6,0.6-1.1C50.1,15.3,50.2,14.8,50.2,14.3z"/>
		<path d="M55.2,12.4c0.4,0,0.7,0.1,1,0.2s0.6,0.3,0.8,0.5c0.2,0.2,0.4,0.5,0.5,0.9c0.1,0.3,0.2,0.7,0.2,1.2c0,0.2,0,0.3-0.1,0.3
			c0,0.1-0.1,0.1-0.2,0.1h-4c0,0.4,0.1,0.7,0.2,1c0.1,0.3,0.2,0.5,0.4,0.7c0.2,0.2,0.4,0.3,0.6,0.4c0.2,0.1,0.5,0.1,0.8,0.1
			c0.3,0,0.5,0,0.7-0.1s0.4-0.1,0.5-0.2s0.3-0.1,0.4-0.2c0.1-0.1,0.2-0.1,0.2-0.1c0.1,0,0.2,0,0.2,0.1l0.3,0.4
			c-0.1,0.2-0.3,0.3-0.5,0.4c-0.2,0.1-0.4,0.2-0.6,0.3c-0.2,0.1-0.4,0.1-0.7,0.2s-0.4,0.1-0.7,0.1c-0.4,0-0.8-0.1-1.2-0.2
			s-0.7-0.4-0.9-0.6s-0.5-0.6-0.6-1s-0.2-0.9-0.2-1.4c0-0.4,0.1-0.8,0.2-1.2c0.1-0.4,0.3-0.7,0.6-1c0.2-0.3,0.5-0.5,0.9-0.6
			C54.4,12.5,54.8,12.4,55.2,12.4z M55.3,13.2c-0.5,0-0.9,0.1-1.2,0.4c-0.3,0.3-0.5,0.7-0.6,1.2h3.3c0-0.2,0-0.5-0.1-0.7
			c-0.1-0.2-0.2-0.4-0.3-0.5c-0.1-0.1-0.3-0.3-0.5-0.3S55.5,13.2,55.3,13.2z M57,9.9l-1.4,1.5c-0.1,0.1-0.1,0.1-0.2,0.1
			c-0.1,0-0.1,0-0.2,0h-0.6l0.9-1.5c0.1-0.1,0.1-0.2,0.2-0.2s0.2-0.1,0.3-0.1L57,9.9L57,9.9z"/>
		<path d="M63.3,13.6c0,0-0.1,0.1-0.1,0.1c0,0-0.1,0-0.1,0s-0.1,0-0.2-0.1c-0.1-0.1-0.2-0.1-0.3-0.2c-0.1-0.1-0.2-0.1-0.4-0.2
			c-0.2-0.1-0.3-0.1-0.6-0.1c-0.3,0-0.6,0.1-0.8,0.2c-0.2,0.1-0.4,0.3-0.6,0.5c-0.2,0.2-0.3,0.4-0.3,0.7c-0.1,0.3-0.1,0.6-0.1,1
			c0,0.4,0,0.7,0.1,1c0.1,0.3,0.2,0.5,0.4,0.7c0.2,0.2,0.3,0.3,0.6,0.4c0.2,0.1,0.5,0.2,0.7,0.2c0.3,0,0.5,0,0.6-0.1
			s0.3-0.1,0.4-0.2s0.2-0.1,0.3-0.2c0.1-0.1,0.1-0.1,0.2-0.1c0.1,0,0.2,0,0.2,0.1l0.3,0.4c-0.3,0.3-0.6,0.6-1,0.7
			c-0.4,0.1-0.8,0.2-1.3,0.2c-0.4,0-0.7-0.1-1.1-0.2s-0.6-0.3-0.8-0.6c-0.2-0.3-0.4-0.6-0.6-1c-0.1-0.4-0.2-0.8-0.2-1.3
			c0-0.5,0.1-0.9,0.2-1.3s0.3-0.7,0.6-1c0.2-0.3,0.5-0.5,0.9-0.7c0.4-0.2,0.8-0.2,1.2-0.2c0.4,0,0.8,0.1,1.1,0.2
			c0.3,0.1,0.6,0.3,0.9,0.6L63.3,13.6z"/>
		<path d="M67.2,12.4c0.4,0,0.8,0.1,1.2,0.2s0.7,0.4,0.9,0.6s0.4,0.6,0.6,1s0.2,0.8,0.2,1.3c0,0.5-0.1,0.9-0.2,1.3s-0.3,0.7-0.6,1
			c-0.2,0.3-0.6,0.5-0.9,0.6c-0.4,0.1-0.8,0.2-1.2,0.2c-0.4,0-0.8-0.1-1.2-0.2c-0.4-0.1-0.7-0.4-0.9-0.6c-0.3-0.3-0.4-0.6-0.6-1
			c-0.1-0.4-0.2-0.8-0.2-1.3c0-0.5,0.1-0.9,0.2-1.3c0.1-0.4,0.3-0.7,0.6-1c0.3-0.3,0.6-0.5,0.9-0.6C66.3,12.5,66.7,12.4,67.2,12.4z
			 M67.2,17.8c0.6,0,1-0.2,1.3-0.6c0.3-0.4,0.4-1,0.4-1.7c0-0.7-0.1-1.3-0.4-1.7c-0.3-0.4-0.7-0.6-1.3-0.6c-0.3,0-0.6,0.1-0.8,0.2
			c-0.2,0.1-0.4,0.3-0.6,0.4c-0.1,0.2-0.3,0.4-0.3,0.7s-0.1,0.6-0.1,1s0,0.7,0.1,1c0.1,0.3,0.2,0.5,0.3,0.7c0.1,0.2,0.3,0.3,0.6,0.4
			C66.6,17.8,66.9,17.8,67.2,17.8z"/>
		<path d="M72.3,12.5v3.9c0,0.5,0.1,0.8,0.3,1.1s0.5,0.4,1,0.4c0.3,0,0.6-0.1,0.9-0.2c0.3-0.1,0.5-0.4,0.8-0.6v-4.5h1.1v6.1h-0.6
			c-0.2,0-0.2-0.1-0.3-0.2l-0.1-0.7c-0.3,0.3-0.6,0.5-0.9,0.7c-0.3,0.2-0.7,0.3-1.1,0.3c-0.3,0-0.6-0.1-0.9-0.2
			c-0.3-0.1-0.5-0.3-0.6-0.5s-0.3-0.4-0.4-0.7s-0.1-0.6-0.1-0.9v-3.9C71.2,12.5,72.3,12.5,72.3,12.5z"/>
		<path d="M77.3,12.5h0.9c0.1,0,0.2,0,0.2,0.1c0.1,0,0.1,0.1,0.1,0.2l1.5,3.9c0.1,0.1,0.1,0.3,0.1,0.4c0,0.1,0.1,0.3,0.1,0.4
			c0-0.1,0.1-0.3,0.1-0.4c0-0.1,0.1-0.3,0.1-0.4l1.6-3.9c0-0.1,0.1-0.1,0.1-0.2s0.1-0.1,0.2-0.1h0.8l-2.5,6.1h-1L77.3,12.5z"/>
		<path d="M86.5,12.4c0.4,0,0.7,0.1,1,0.2s0.6,0.3,0.8,0.5c0.2,0.2,0.4,0.5,0.5,0.9c0.1,0.3,0.2,0.7,0.2,1.2c0,0.2,0,0.3-0.1,0.3
			c0,0.1-0.1,0.1-0.2,0.1h-4c0,0.4,0.1,0.7,0.2,1s0.2,0.5,0.4,0.7c0.2,0.2,0.4,0.3,0.6,0.4c0.2,0.1,0.5,0.1,0.8,0.1
			c0.3,0,0.5,0,0.7-0.1s0.4-0.1,0.5-0.2s0.3-0.1,0.4-0.2c0.1-0.1,0.2-0.1,0.2-0.1c0.1,0,0.2,0,0.2,0.1l0.3,0.4
			c-0.1,0.2-0.3,0.3-0.5,0.4c-0.2,0.1-0.4,0.2-0.6,0.3c-0.2,0.1-0.4,0.1-0.7,0.2s-0.4,0.1-0.7,0.1c-0.4,0-0.8-0.1-1.2-0.2
			c-0.4-0.1-0.7-0.4-0.9-0.6c-0.3-0.3-0.5-0.6-0.6-1c-0.1-0.4-0.2-0.9-0.2-1.4c0-0.4,0.1-0.8,0.2-1.2s0.3-0.7,0.6-1
			c0.2-0.3,0.5-0.5,0.9-0.6C85.6,12.5,86,12.4,86.5,12.4z M86.5,13.2c-0.5,0-0.9,0.1-1.2,0.4c-0.3,0.3-0.5,0.7-0.6,1.2H88
			c0-0.2,0-0.5-0.1-0.7c-0.1-0.2-0.2-0.4-0.3-0.5c-0.1-0.1-0.3-0.3-0.5-0.3C86.9,13.2,86.7,13.2,86.5,13.2z"/>
		<path d="M90.3,18.6v-6.1H91c0.1,0,0.2,0,0.2,0.1s0.1,0.1,0.1,0.2l0.1,0.9c0.2-0.4,0.5-0.8,0.8-1s0.7-0.4,1.1-0.4
			c0.2,0,0.3,0,0.5,0.1c0.1,0,0.3,0.1,0.4,0.2l-0.1,0.8c0,0.1-0.1,0.1-0.2,0.1c-0.1,0-0.1,0-0.3-0.1s-0.3-0.1-0.5-0.1
			c-0.4,0-0.7,0.1-0.9,0.3c-0.2,0.2-0.5,0.5-0.6,0.9v3.9L90.3,18.6L90.3,18.6z"/>
		<path d="M97,18.7c-0.5,0-0.8-0.1-1.1-0.4c-0.3-0.3-0.4-0.7-0.4-1.2v-3.7h-0.7c-0.1,0-0.1,0-0.2-0.1s-0.1-0.1-0.1-0.2v-0.4l1-0.1
			l0.2-1.9c0-0.1,0-0.1,0.1-0.1s0.1-0.1,0.2-0.1h0.5v2.1h1.7v0.8h-1.7v3.6c0,0.3,0.1,0.4,0.2,0.6s0.3,0.2,0.5,0.2c0.1,0,0.2,0,0.3,0
			s0.2-0.1,0.2-0.1c0.1,0,0.1-0.1,0.2-0.1c0,0,0.1,0,0.1,0c0.1,0,0.1,0,0.2,0.1l0.3,0.5c-0.2,0.2-0.4,0.3-0.7,0.4
			C97.6,18.6,97.3,18.7,97,18.7z"/>
		<path d="M102.1,12.4c0.4,0,0.7,0.1,1,0.2s0.6,0.3,0.8,0.5c0.2,0.2,0.4,0.5,0.5,0.9c0.1,0.3,0.2,0.7,0.2,1.2c0,0.2,0,0.3-0.1,0.3
			c0,0.1-0.1,0.1-0.2,0.1h-4c0,0.4,0.1,0.7,0.2,1s0.2,0.5,0.4,0.7c0.2,0.2,0.4,0.3,0.6,0.4c0.2,0.1,0.5,0.1,0.8,0.1
			c0.3,0,0.5,0,0.7-0.1s0.4-0.1,0.5-0.2s0.3-0.1,0.4-0.2c0.1-0.1,0.2-0.1,0.2-0.1c0.1,0,0.2,0,0.2,0.1l0.3,0.4
			c-0.1,0.2-0.3,0.3-0.5,0.4c-0.2,0.1-0.4,0.2-0.6,0.3c-0.2,0.1-0.4,0.1-0.7,0.2s-0.4,0.1-0.7,0.1c-0.4,0-0.8-0.1-1.2-0.2
			c-0.4-0.1-0.7-0.4-0.9-0.6c-0.3-0.3-0.5-0.6-0.6-1c-0.1-0.4-0.2-0.9-0.2-1.4c0-0.4,0.1-0.8,0.2-1.2s0.3-0.7,0.6-1
			c0.2-0.3,0.5-0.5,0.9-0.6C101.2,12.5,101.6,12.4,102.1,12.4z M102.1,13.2c-0.5,0-0.9,0.1-1.2,0.4c-0.3,0.3-0.5,0.7-0.6,1.2h3.3
			c0-0.2,0-0.5-0.1-0.7c-0.1-0.2-0.2-0.4-0.3-0.5c-0.1-0.1-0.3-0.3-0.5-0.3C102.5,13.2,102.3,13.2,102.1,13.2z"/>
		<path d="M62.6,33c-0.2,0-0.2-0.1-0.3-0.2L62.2,32c-0.3,0.3-0.6,0.6-0.9,0.8s-0.7,0.3-1.1,0.3c-0.3,0-0.7-0.1-0.9-0.2
			s-0.5-0.3-0.7-0.6c-0.2-0.3-0.4-0.6-0.5-1c-0.1-0.4-0.2-0.8-0.2-1.3c0-0.4,0.1-0.9,0.2-1.3c0.1-0.4,0.3-0.7,0.5-1
			c0.2-0.3,0.5-0.5,0.8-0.7c0.3-0.2,0.7-0.2,1.1-0.2c0.4,0,0.7,0.1,1,0.2s0.5,0.3,0.7,0.5v-3.4h1.1V33L62.6,33L62.6,33z M60.5,32.2
			c0.3,0,0.7-0.1,0.9-0.2c0.3-0.2,0.5-0.4,0.7-0.7v-2.9c-0.2-0.3-0.4-0.4-0.6-0.6c-0.2-0.1-0.5-0.2-0.8-0.2c-0.6,0-1,0.2-1.3,0.6
			c-0.3,0.4-0.5,1-0.5,1.7c0,0.4,0,0.7,0.1,1c0.1,0.3,0.2,0.5,0.3,0.7c0.1,0.2,0.3,0.3,0.5,0.4C60,32.2,60.2,32.2,60.5,32.2z"/>
		<path d="M67.4,26.8c0.4,0,0.7,0.1,1,0.2s0.6,0.3,0.8,0.5c0.2,0.2,0.4,0.5,0.5,0.9c0.1,0.3,0.2,0.7,0.2,1.2c0,0.2,0,0.3-0.1,0.3
			c0,0.1-0.1,0.1-0.2,0.1h-4c0,0.4,0.1,0.7,0.2,1c0.1,0.3,0.2,0.5,0.4,0.7c0.2,0.2,0.4,0.3,0.6,0.4c0.2,0.1,0.5,0.1,0.8,0.1
			c0.3,0,0.5,0,0.7-0.1s0.4-0.1,0.5-0.2s0.3-0.1,0.4-0.2c0.1-0.1,0.2-0.1,0.2-0.1c0.1,0,0.2,0,0.2,0.1l0.3,0.4
			c-0.1,0.2-0.3,0.3-0.5,0.4c-0.2,0.1-0.4,0.2-0.6,0.3c-0.2,0.1-0.4,0.1-0.7,0.2c-0.2,0-0.4,0.1-0.7,0.1c-0.4,0-0.8-0.1-1.2-0.2
			c-0.4-0.1-0.7-0.3-0.9-0.6s-0.5-0.6-0.6-1s-0.2-0.9-0.2-1.4c0-0.4,0.1-0.8,0.2-1.2c0.1-0.4,0.3-0.7,0.6-1c0.2-0.3,0.5-0.5,0.9-0.6
			C66.6,26.9,67,26.8,67.4,26.8z M67.4,27.6c-0.5,0-0.9,0.1-1.2,0.4c-0.3,0.3-0.5,0.7-0.6,1.2H69c0-0.2,0-0.5-0.1-0.7
			s-0.2-0.4-0.3-0.5c-0.1-0.1-0.3-0.3-0.5-0.3C67.9,27.6,67.7,27.6,67.4,27.6z"/>
		<path d="M72.8,26.9h0.9c0.1,0,0.2,0,0.2,0.1c0.1,0,0.1,0.1,0.1,0.2l1.5,3.9c0.1,0.1,0.1,0.3,0.1,0.4c0,0.1,0.1,0.3,0.1,0.4
			c0-0.1,0.1-0.3,0.1-0.4c0-0.1,0.1-0.3,0.1-0.4l1.6-3.9c0-0.1,0.1-0.1,0.1-0.2s0.1-0.1,0.2-0.1h0.8L76.3,33h-1L72.8,26.9z"/>
		<path d="M82,26.8c0.4,0,0.8,0.1,1.2,0.2c0.4,0.1,0.7,0.4,0.9,0.6s0.4,0.6,0.6,1c0.1,0.4,0.2,0.8,0.2,1.3c0,0.5-0.1,0.9-0.2,1.3
			c-0.1,0.4-0.3,0.7-0.6,1c-0.2,0.3-0.6,0.5-0.9,0.6c-0.4,0.1-0.8,0.2-1.2,0.2s-0.8-0.1-1.2-0.2c-0.4-0.1-0.7-0.4-0.9-0.6
			s-0.4-0.6-0.6-1s-0.2-0.8-0.2-1.3c0-0.5,0.1-0.9,0.2-1.3s0.3-0.7,0.6-1c0.3-0.3,0.6-0.5,0.9-0.6C81.2,26.9,81.6,26.8,82,26.8z
			 M82,32.2c0.6,0,1-0.2,1.3-0.6c0.3-0.4,0.4-1,0.4-1.7c0-0.7-0.1-1.3-0.4-1.7c-0.3-0.4-0.7-0.6-1.3-0.6c-0.3,0-0.6,0.1-0.8,0.2
			s-0.4,0.3-0.6,0.5c-0.2,0.2-0.3,0.4-0.3,0.7c-0.1,0.3-0.1,0.6-0.1,1s0,0.7,0.1,1c0.1,0.3,0.2,0.5,0.3,0.7c0.1,0.2,0.3,0.3,0.6,0.4
			C81.5,32.2,81.7,32.2,82,32.2z"/>
		<path d="M89.7,27.9c0,0.1-0.1,0.1-0.2,0.1c-0.1,0-0.1,0-0.2-0.1s-0.2-0.1-0.3-0.1c-0.1-0.1-0.2-0.1-0.4-0.1s-0.3-0.1-0.5-0.1
			c-0.2,0-0.3,0-0.5,0.1c-0.1,0-0.3,0.1-0.4,0.2C87.1,28,87.1,28,87,28.2c-0.1,0.1-0.1,0.2-0.1,0.3c0,0.2,0,0.3,0.1,0.4
			c0.1,0.1,0.2,0.2,0.4,0.3c0.1,0.1,0.3,0.1,0.5,0.2c0.2,0.1,0.4,0.1,0.6,0.2c0.2,0.1,0.4,0.1,0.6,0.2s0.4,0.2,0.5,0.3
			c0.1,0.1,0.3,0.3,0.4,0.4c0.1,0.2,0.1,0.4,0.1,0.6c0,0.3-0.1,0.5-0.2,0.8s-0.2,0.4-0.4,0.6c-0.2,0.2-0.4,0.3-0.7,0.4
			c-0.3,0.1-0.6,0.1-1,0.1c-0.4,0-0.8-0.1-1.2-0.2c-0.3-0.1-0.6-0.3-0.9-0.5l0.3-0.4c0-0.1,0.1-0.1,0.1-0.1s0.1,0,0.2,0
			s0.1,0,0.2,0.1s0.2,0.1,0.3,0.2c0.1,0.1,0.3,0.1,0.4,0.2s0.4,0.1,0.6,0.1c0.2,0,0.4,0,0.5-0.1s0.3-0.1,0.4-0.2
			c0.1-0.1,0.2-0.2,0.2-0.3s0.1-0.2,0.1-0.4c0-0.2,0-0.3-0.1-0.4c-0.1-0.1-0.2-0.2-0.4-0.3c-0.1-0.1-0.3-0.1-0.5-0.2
			s-0.4-0.1-0.6-0.2c-0.2-0.1-0.4-0.1-0.6-0.2c-0.2-0.1-0.4-0.2-0.5-0.3c-0.1-0.1-0.3-0.3-0.4-0.5c-0.1-0.2-0.1-0.4-0.1-0.7
			c0-0.2,0-0.5,0.1-0.7c0.1-0.2,0.2-0.4,0.4-0.6c0.2-0.2,0.4-0.3,0.7-0.4c0.3-0.1,0.6-0.1,0.9-0.1c0.4,0,0.8,0.1,1.1,0.2
			c0.3,0.1,0.6,0.3,0.8,0.5L89.7,27.9z"/>
		<path d="M55,47.4v-8.8h1.1v3.6c0.3-0.3,0.5-0.5,0.9-0.7c0.3-0.2,0.7-0.3,1.1-0.3c0.4,0,0.7,0.1,1,0.2c0.3,0.1,0.5,0.3,0.7,0.6
			s0.4,0.6,0.5,1s0.2,0.8,0.2,1.3c0,0.4-0.1,0.9-0.2,1.3s-0.3,0.7-0.5,1c-0.2,0.3-0.5,0.5-0.8,0.7s-0.7,0.2-1.1,0.2
			c-0.4,0-0.7-0.1-1-0.2c-0.3-0.2-0.5-0.4-0.7-0.6L56,47.2c0,0.2-0.1,0.2-0.3,0.2H55z M57.7,42.1c-0.3,0-0.7,0.1-0.9,0.2
			s-0.5,0.4-0.7,0.7v2.9c0.2,0.3,0.4,0.5,0.6,0.6c0.2,0.1,0.5,0.2,0.8,0.2c0.6,0,1-0.2,1.3-0.6c0.3-0.4,0.5-1,0.5-1.7
			c0-0.4,0-0.7-0.1-1s-0.2-0.5-0.3-0.7s-0.3-0.3-0.5-0.4S57.9,42.1,57.7,42.1z"/>
		<path d="M64.1,41.2c0.4,0,0.7,0.1,1,0.2c0.3,0.1,0.6,0.3,0.8,0.5c0.2,0.2,0.4,0.5,0.5,0.9c0.1,0.3,0.2,0.7,0.2,1.2
			c0,0.2,0,0.3-0.1,0.3c0,0.1-0.1,0.1-0.2,0.1h-4c0,0.4,0.1,0.7,0.2,1c0.1,0.3,0.2,0.5,0.4,0.7c0.2,0.2,0.4,0.3,0.6,0.4
			c0.2,0.1,0.5,0.1,0.8,0.1c0.3,0,0.5,0,0.7-0.1c0.2-0.1,0.4-0.1,0.5-0.2c0.1-0.1,0.3-0.1,0.4-0.2c0.1-0.1,0.2-0.1,0.2-0.1
			c0.1,0,0.2,0,0.2,0.1l0.3,0.4c-0.1,0.2-0.3,0.3-0.5,0.4c-0.2,0.1-0.4,0.2-0.6,0.3c-0.2,0.1-0.4,0.1-0.7,0.2
			c-0.2,0-0.4,0.1-0.7,0.1c-0.4,0-0.8-0.1-1.2-0.2s-0.7-0.3-0.9-0.6c-0.3-0.3-0.5-0.6-0.6-1c-0.1-0.4-0.2-0.9-0.2-1.4
			c0-0.4,0.1-0.8,0.2-1.2c0.1-0.4,0.3-0.7,0.6-1c0.2-0.3,0.5-0.5,0.9-0.6C63.2,41.3,63.6,41.2,64.1,41.2z M64.1,42
			c-0.5,0-0.9,0.1-1.2,0.4c-0.3,0.3-0.5,0.7-0.6,1.2h3.3c0-0.2,0-0.5-0.1-0.7s-0.2-0.4-0.3-0.5s-0.3-0.3-0.5-0.3
			C64.6,42,64.3,42,64.1,42z"/>
		<path d="M71.4,42.3c0,0.1-0.1,0.1-0.2,0.1c-0.1,0-0.1,0-0.2-0.1s-0.2-0.1-0.3-0.1c-0.1-0.1-0.2-0.1-0.4-0.1S70,42,69.8,42
			c-0.2,0-0.3,0-0.5,0.1c-0.1,0-0.3,0.1-0.4,0.2c-0.1,0.1-0.2,0.2-0.2,0.3c-0.1,0.1-0.1,0.2-0.1,0.3c0,0.2,0,0.3,0.1,0.4
			c0.1,0.1,0.2,0.2,0.4,0.3c0.1,0.1,0.3,0.1,0.5,0.2c0.2,0.1,0.4,0.1,0.6,0.2c0.2,0.1,0.4,0.1,0.6,0.2s0.4,0.2,0.5,0.3
			c0.1,0.1,0.3,0.3,0.4,0.4c0.1,0.2,0.1,0.4,0.1,0.6c0,0.3-0.1,0.5-0.2,0.8s-0.2,0.4-0.4,0.6c-0.2,0.2-0.4,0.3-0.7,0.4
			c-0.3,0.1-0.6,0.1-1,0.1c-0.4,0-0.8-0.1-1.2-0.2c-0.3-0.1-0.6-0.3-0.9-0.5l0.3-0.4c0-0.1,0.1-0.1,0.1-0.1s0.1,0,0.2,0
			s0.1,0,0.2,0.1s0.2,0.1,0.3,0.2c0.1,0.1,0.3,0.1,0.4,0.2s0.4,0.1,0.6,0.1c0.2,0,0.4,0,0.5-0.1s0.3-0.1,0.4-0.2
			c0.1-0.1,0.2-0.2,0.2-0.3s0.1-0.2,0.1-0.4c0-0.2,0-0.3-0.1-0.4c-0.1-0.1-0.2-0.2-0.4-0.3c-0.1-0.1-0.3-0.1-0.5-0.2
			s-0.4-0.1-0.6-0.2s-0.4-0.1-0.6-0.2c-0.2-0.1-0.4-0.2-0.5-0.3s-0.3-0.3-0.4-0.5c-0.1-0.2-0.1-0.4-0.1-0.7c0-0.2,0-0.5,0.1-0.7
			c0.1-0.2,0.2-0.4,0.4-0.6c0.2-0.2,0.4-0.3,0.7-0.4c0.3-0.1,0.6-0.1,0.9-0.1c0.4,0,0.8,0.1,1.1,0.2c0.3,0.1,0.6,0.3,0.8,0.5
			L71.4,42.3z"/>
		<path d="M75.6,41.2c0.4,0,0.8,0.1,1.2,0.2c0.4,0.1,0.7,0.4,0.9,0.6s0.4,0.6,0.6,1c0.1,0.4,0.2,0.8,0.2,1.3c0,0.5-0.1,0.9-0.2,1.3
			c-0.1,0.4-0.3,0.7-0.6,1c-0.2,0.3-0.6,0.5-0.9,0.6c-0.4,0.1-0.8,0.2-1.2,0.2s-0.8-0.1-1.2-0.2c-0.4-0.1-0.7-0.4-0.9-0.6
			s-0.4-0.6-0.6-1s-0.2-0.8-0.2-1.3c0-0.5,0.1-0.9,0.2-1.3s0.3-0.7,0.6-1c0.3-0.3,0.6-0.5,0.9-0.6C74.8,41.3,75.2,41.2,75.6,41.2z
			 M75.6,46.6c0.6,0,1-0.2,1.3-0.6c0.3-0.4,0.4-1,0.4-1.7c0-0.7-0.1-1.3-0.4-1.7c-0.3-0.4-0.7-0.6-1.3-0.6c-0.3,0-0.6,0.1-0.8,0.2
			s-0.4,0.3-0.6,0.5c-0.2,0.2-0.3,0.4-0.3,0.7c-0.1,0.3-0.1,0.6-0.1,1s0,0.7,0.1,1c0.1,0.3,0.2,0.5,0.3,0.7c0.1,0.2,0.3,0.3,0.6,0.4
			C75,46.6,75.3,46.6,75.6,46.6z"/>
		<path d="M81.3,39.4c0,0.1,0,0.2-0.1,0.3s-0.1,0.2-0.2,0.2c-0.1,0.1-0.2,0.1-0.2,0.2s-0.2,0.1-0.3,0.1s-0.2,0-0.3-0.1
			S80,40,80,39.9s-0.1-0.2-0.2-0.2s-0.1-0.2-0.1-0.3s0-0.2,0.1-0.3s0.1-0.2,0.2-0.2c0.1-0.1,0.2-0.1,0.2-0.2s0.2-0.1,0.3-0.1
			c0.1,0,0.2,0,0.3,0.1s0.2,0.1,0.2,0.2c0.1,0.1,0.1,0.2,0.2,0.2S81.3,39.3,81.3,39.4z M81,41.3v6.1h-1.1v-6.1H81z"/>
		<path d="M82.9,47.4v-6.1h0.6c0.2,0,0.2,0.1,0.3,0.2l0.1,0.7c0.3-0.3,0.6-0.5,0.9-0.7c0.3-0.2,0.7-0.3,1.1-0.3
			c0.3,0,0.6,0.1,0.9,0.2c0.3,0.1,0.5,0.3,0.6,0.5s0.3,0.4,0.4,0.7c0.1,0.3,0.1,0.6,0.1,0.9v3.9h-1.1v-3.9c0-0.5-0.1-0.8-0.3-1.1
			c-0.2-0.3-0.5-0.4-1-0.4c-0.3,0-0.6,0.1-0.9,0.2c-0.3,0.2-0.5,0.4-0.8,0.6v4.5C84,47.4,82.9,47.4,82.9,47.4z"/>
		<path d="M93.1,42.3c0,0.1-0.1,0.1-0.2,0.1c-0.1,0-0.1,0-0.2-0.1s-0.2-0.1-0.3-0.1c-0.1-0.1-0.2-0.1-0.4-0.1S91.6,42,91.4,42
			c-0.2,0-0.3,0-0.5,0.1c-0.1,0-0.3,0.1-0.4,0.2c-0.1,0.1-0.2,0.2-0.2,0.3c-0.1,0.1-0.1,0.2-0.1,0.3c0,0.2,0,0.3,0.1,0.4
			c0.1,0.1,0.2,0.2,0.4,0.3c0.1,0.1,0.3,0.1,0.5,0.2c0.2,0.1,0.4,0.1,0.6,0.2c0.2,0.1,0.4,0.1,0.6,0.2s0.4,0.2,0.5,0.3
			c0.1,0.1,0.3,0.3,0.4,0.4c0.1,0.2,0.1,0.4,0.1,0.6c0,0.3-0.1,0.5-0.2,0.8s-0.2,0.4-0.4,0.6c-0.2,0.2-0.4,0.3-0.7,0.4
			c-0.3,0.1-0.6,0.1-1,0.1c-0.4,0-0.8-0.1-1.2-0.2c-0.3-0.1-0.6-0.3-0.9-0.5l0.3-0.4c0-0.1,0.1-0.1,0.1-0.1s0.1,0,0.2,0
			s0.1,0,0.2,0.1s0.2,0.1,0.3,0.2c0.1,0.1,0.3,0.1,0.4,0.2s0.4,0.1,0.6,0.1c0.2,0,0.4,0,0.5-0.1s0.3-0.1,0.4-0.2
			c0.1-0.1,0.2-0.2,0.2-0.3s0.1-0.2,0.1-0.4c0-0.2,0-0.3-0.1-0.4c-0.1-0.1-0.2-0.2-0.4-0.3c-0.1-0.1-0.3-0.1-0.5-0.2
			s-0.4-0.1-0.6-0.2s-0.4-0.1-0.6-0.2c-0.2-0.1-0.4-0.2-0.5-0.3s-0.3-0.3-0.4-0.5c-0.1-0.2-0.1-0.4-0.1-0.7c0-0.2,0-0.5,0.1-0.7
			c0.1-0.2,0.2-0.4,0.4-0.6c0.2-0.2,0.4-0.3,0.7-0.4c0.3-0.1,0.6-0.1,0.9-0.1c0.4,0,0.8,0.1,1.1,0.2c0.3,0.1,0.6,0.3,0.8,0.5
			L93.1,42.3z"/>
	</g>
</g>
</svg>
