<?xml version="1.0" encoding="utf-8"?>
<!-- Generator: Adobe Illustrator 22.0.1, SVG Export Plug-In . SVG Version: 6.00 Build 0)  -->
<svg version="1.1" id="Calque_1" xmlns="http://www.w3.org/2000/svg" xmlns:xlink="http://www.w3.org/1999/xlink" x="0px" y="0px"
	 viewBox="0 0 509.7 257" style="enable-background:new 0 0 509.7 257;" xml:space="preserve">
<style type="text/css">
	.st0{fill:#FFFFFF;stroke:#FFFFFF;stroke-miterlimit:10;}
	.st1{fill:#FCB239;stroke:#000000;stroke-width:3;stroke-miterlimit:10;}
	.st2{fill:#E9EAE5;stroke:#000000;stroke-width:1.5;stroke-miterlimit:10;}
	.st3{fill:#826CAD;stroke:#000000;stroke-width:2;stroke-miterlimit:10;}
	.st4{fill:#FFFFFF;}
	.st5{fill:#F44E7E;stroke:#000000;stroke-width:3;stroke-miterlimit:10;}
	.st6{fill:#FFFFFF;stroke:#000000;stroke-width:2;stroke-miterlimit:10;}
	.st7{fill:none;stroke:#000000;stroke-width:2;stroke-miterlimit:10;}
	.st8{fill:none;stroke:#000000;stroke-width:2;stroke-linecap:round;stroke-miterlimit:10;}
	.st9{fill:none;stroke:#000000;stroke-linecap:round;stroke-miterlimit:10;}
	.st10{fill:#32BDCF;stroke:#000000;stroke-width:3;stroke-miterlimit:10;}
	.st11{fill:#EF8A11;stroke:#000000;stroke-width:2;stroke-miterlimit:10;}
	.st12{fill:none;stroke:#000000;stroke-miterlimit:10;}
	.st13{fill:#2D367C;}
	.st14{opacity:4.000000e-02;}
	.st15{fill:#E2CB44;}
	.st16{fill:none;stroke:#EFC43C;stroke-linecap:round;stroke-linejoin:round;stroke-miterlimit:10;}
	.st17{fill:#EFD241;}
	.st18{fill:#3D3D3D;}
	.st19{fill:#9B8FCA;stroke:#000000;stroke-width:3;stroke-miterlimit:10;}
	.st20{fill:#FFFFFF;stroke:#000000;stroke-miterlimit:10;}
	.st21{fill:#E6E6E6;}
</style>
<g id="Calque_2_1_">
	<rect x="8.2" y="9.5" class="st0" width="134.5" height="191.3"/>
	<rect x="1" y="1.9" class="st1" width="134.5" height="191.3"/>
	<circle class="st2" cx="68.2" cy="80.6" r="44.2"/>
	<path class="st3" d="M1,192c0-37.1,30.1-67.2,67.2-67.2s67.2,30.1,67.2,67.2"/>
	<path class="st4" d="M86.5,96c0,10.1-8.2,18.3-18.3,18.3S49.9,106.1,49.9,96"/>
	<circle cx="49.8" cy="66.2" r="3.7"/>
	<circle cx="86.6" cy="66.2" r="3.7"/>
	<rect x="132.8" y="63.8" class="st0" width="134.5" height="191.3"/>
	<rect x="125.6" y="56.2" class="st5" width="134.5" height="191.3"/>
	<circle class="st2" cx="192.8" cy="133.3" r="44.2"/>
	<path class="st6" d="M125.6,246.3c0-37.1,30.1-67.2,67.2-67.2s67.2,30.1,67.2,67.2"/>
	<path class="st4" d="M211.1,152.2c0,5.6-8.2,10.2-18.3,10.2s-18.3-4.6-18.3-10.2"/>
	<circle cx="179.1" cy="120.5" r="2.8"/>
	<circle cx="206.6" cy="120.5" r="2.8"/>
	<circle cx="219.2" cy="214.6" r="5.9"/>
	<path class="st7" d="M220.8,210.3c4.3-8.1,2.3-17.3-3.1-27"/>
	<path class="st8" d="M168.8,203.5c-4.3-6.3-2.3-13.5,3.1-21.1"/>
	<path class="st9" d="M175.4,225.5c3.8,0.2,7.5-1.8,7.3-5.3c-9.5-21.2-17.4-21.2-23.7,0c0.9,5,3.8,6.2,8.3,4.7"/>
	<rect x="262.8" y="13.3" class="st0" width="134.5" height="191.3"/>
	<rect x="255.6" y="5.7" class="st10" width="134.5" height="191.3"/>
	<circle class="st2" cx="322.8" cy="84.3" r="44.2"/>
	<path class="st11" d="M268.1,195.8c0-37.1,24.5-67.2,54.7-67.2s54.7,30.1,54.7,67.2"/>
	<path class="st12" d="M341.1,99.8c0,10.1-8.2,18.3-18.3,18.3s-18.3-8.2-18.3-18.3"/>
	<circle class="st13" cx="308.2" cy="70" r="3.7"/>
	<circle class="st13" cx="337.4" cy="70" r="3.7"/>
	<g>
		<g class="st14">
			<path d="M288.1,39.8c6.3-12.9,19.5-21.7,34.8-21.7c20.6,0,37.5,16.1,38.6,36.5c4.4,7.5-14.6,14-38.7,14
				c-24.3,0-43.5-6.6-38.5-14.2C284.6,49.2,285.9,44.2,288.1,39.8z"/>
		</g>
		<g>
			<path class="st15" d="M288.1,37c6.3-12.9,19.5-21.7,34.8-21.7c20.6,0,37.5,16.1,38.6,36.5c4.4,7.5-14.6,14-38.7,14
				c-24.3,0-43.5-6.6-38.5-14.2C284.6,46.3,285.9,41.4,288.1,37z"/>
		</g>
	</g>
	<path class="st16" d="M315.8,40.5l-3.9-23.3c7.3-2.1,14.5-2.1,21.7,0L330,40.5"/>
	<path class="st17" d="M361.5,53.9c0,6.2-17.3,11.2-38.6,11.2s-38.6-5-38.6-11.2"/>
	<path d="M68.2,192l-9.9,0c-0.3,0-0.6-0.3-0.5-0.6l5-31.3l4.6-28.9c0.1-0.6,0.9-0.6,1,0l4.9,28.8l5.3,31.3c0.1,0.3-0.2,0.6-0.5,0.6
		L68.2,192z"/>
	<path d="M67.1,127.1c0.7,0.1,1.5,0.1,2.2,0l4.9-0.8c2,0,3.2,1.8,2.2,3.2l-3,4.3l-4.2,6c-0.5,0.7-1.6,0.7-2.1,0l-4.2-6l-3-4.3
		c-1-1.4,0.2-3.2,2.2-3.2L67.1,127.1z"/>
	<path class="st18" d="M71,166.4h-9.2c-0.2,0-0.4-0.2-0.4-0.4v-0.4c0-0.2,0.2-0.4,0.4-0.4H71c0.2,0,0.4,0.2,0.4,0.4v0.4
		C71.4,166.2,71.3,166.4,71,166.4z"/>
</g>
<g id="Calque_3">
	<rect x="372.8" y="65.4" class="st0" width="134.5" height="191.3"/>
	<rect x="365.6" y="57.8" class="st19" width="134.5" height="191.3"/>
	<circle class="st2" cx="432.8" cy="155.4" r="40.7"/>
	<path class="st6" d="M379.4,247.5c0-27.9,23.9-50.5,53.4-50.5s53.4,22.6,53.4,50.5"/>
	<path class="st4" d="M451.1,165.5c0,8.5-8.2,15.4-18.3,15.4s-18.3-6.9-18.3-15.4"/>
	<circle cx="420.1" cy="139" r="2.8"/>
	<circle cx="445.6" cy="139" r="2.8"/>
	<path class="st20" d="M471.2,94.8c0-6.7-5-12.1-11.1-12.1c-0.8,0-1.7,0.1-2.4,0.3c-2.3-3.5-6.1-5.8-10.3-5.8
		c-5.3,0-9.9,3.6-11.8,8.7c-2-4.6-6.2-7.8-11.2-7.8c-5.3,0-9.8,3.7-11.6,8.8c-2-2.6-5-4.2-8.4-4.2c-6.1,0-11.1,5.4-11.1,12.1
		s5,12.1,11.1,12.1v19.4H461v-19.4C466.7,106.4,471.2,101.2,471.2,94.8z"/>
	<g>
		<path class="st21" d="M412.5,108.3c0.4,1.3,0.6,2.6,0.8,3.9c0.1,1.3,0.2,2.6,0.2,3.9c0,1.3-0.1,2.6-0.2,3.9
			c-0.1,1.3-0.4,2.6-0.8,3.9c-0.4-1.3-0.6-2.6-0.8-3.9c-0.1-1.3-0.2-2.6-0.2-3.9c0-1.3,0.1-2.6,0.2-3.9
			C411.8,110.9,412.1,109.6,412.5,108.3z"/>
	</g>
	<g>
		<path class="st21" d="M401,87.8c-0.7,1.3-1.4,2.5-1.9,3.8c-0.5,1.2-0.8,2.5-0.8,3.7c0,1.2,0.3,2.5,0.8,3.7
			c0.5,1.2,1.2,2.4,1.9,3.8c-1.3-0.7-2.4-1.8-3.3-3c-0.9-1.3-1.4-2.8-1.4-4.4c0-1.6,0.6-3.2,1.4-4.4C398.6,89.5,399.7,88.5,401,87.8
			z"/>
	</g>
	<g>
		<path class="st21" d="M462.6,86.2c1.4,0.8,2.7,1.9,3.7,3.3c1,1.4,1.7,3.1,1.7,5c0,1.8-0.7,3.6-1.7,5c-1,1.4-2.3,2.5-3.7,3.3
			c0.9-1.4,1.7-2.7,2.4-4.1c0.6-1.4,1-2.8,1-4.2c0-1.4-0.4-2.8-1-4.2C464.3,88.9,463.4,87.6,462.6,86.2z"/>
	</g>
	<g>
		<path class="st21" d="M417.3,84.6c1.1-1,2.4-1.7,3.9-2.1c1.5-0.4,3.1-0.5,4.7,0.1c1.5,0.5,2.8,1.6,3.8,2.8
			c0.9,1.2,1.6,2.6,1.8,4.1c-1-1.1-2-2.1-3-3c-1-0.9-2.1-1.5-3.3-1.9c-1.2-0.4-2.4-0.5-3.8-0.4C420.1,84,418.7,84.3,417.3,84.6z"/>
	</g>
	<g>
		<path class="st21" d="M438.7,84.9c0.8-1.3,2-2.5,3.4-3.3c1.4-0.9,3-1.4,4.7-1.4c1.7,0,3.4,0.5,4.8,1.3c1.4,0.8,2.6,1.9,3.5,3.3
			c-1.4-0.7-2.8-1.4-4.1-1.8c-1.4-0.5-2.7-0.7-4.1-0.7c-1.4,0-2.7,0.3-4.1,0.8C441.4,83.5,440.1,84.2,438.7,84.9z"/>
	</g>
	<g>
		<path class="st21" d="M451.1,108.3c0.4,1.3,0.6,2.6,0.8,3.9c0.1,1.3,0.2,2.6,0.2,3.9c0,1.3-0.1,2.6-0.2,3.9
			c-0.1,1.3-0.4,2.6-0.8,3.9c-0.4-1.3-0.6-2.6-0.8-3.9c-0.1-1.3-0.2-2.6-0.2-3.9c0-1.3,0.1-2.6,0.2-3.9
			C450.5,110.9,450.7,109.6,451.1,108.3z"/>
	</g>
</g>
</svg>
