<?xml version="1.0" encoding="utf-8"?>
<!-- Generator: Adobe Illustrator 22.0.1, SVG Export Plug-In . SVG Version: 6.00 Build 0)  -->
<svg version="1.1" id="Calque_1" xmlns="http://www.w3.org/2000/svg" xmlns:xlink="http://www.w3.org/1999/xlink" x="0px" y="0px"
	 viewBox="0 0 509.7 257" style="enable-background:new 0 0 509.7 257;" xml:space="preserve">
<style type="text/css">
	.st0{fill:#F4F4F4;stroke:#8C8C8C;stroke-width:3;stroke-miterlimit:10;}
	.st1{fill:#FFFFFF;stroke:#FFFFFF;stroke-miterlimit:10;}
	.st2{fill:#75BCBA;}
	.st3{fill:#75BCBA;stroke:#000000;stroke-width:3;stroke-miterlimit:10;}
	.st4{fill:#E9EAE5;stroke:#000000;stroke-width:1.5;stroke-miterlimit:10;}
	.st5{fill:#FCB239;stroke:#000000;stroke-width:2;stroke-miterlimit:10;}
	.st6{fill:#FFFFFF;}
	.st7{fill:#FCB239;}
	.st8{fill:#2A2A2A;}
</style>
<g id="Calque_3">
	<rect x="1.5" y="2.1" class="st0" width="508.2" height="253.4"/>
</g>
<g id="Calque_2_1_">
	<rect x="25.8" y="81.7" class="st1" width="93.3" height="132.7"/>
	<rect x="250.6" y="76.8" class="st2" width="253.4" height="10"/>
	<rect x="284.8" y="107.2" class="st2" width="219.2" height="10"/>
	<rect x="250.6" y="137.6" class="st2" width="253.4" height="10"/>
	<rect x="251.9" y="168" class="st2" width="252.1" height="10"/>
	<rect x="286.2" y="198.4" class="st2" width="217.8" height="10"/>
	<rect x="20.8" y="76.4" class="st3" width="93.3" height="132.7"/>
	<circle class="st4" cx="67.4" cy="131" r="30.7"/>
	<path class="st5" d="M20.8,208.3c0-25.8,20.9-46.6,46.6-46.6s46.6,20.9,46.6,46.6"/>
	<path class="st6" d="M80.1,141.7c0,7-5.7,12.7-12.7,12.7s-12.7-5.7-12.7-12.7"/>
	<circle cx="54.6" cy="121" r="2.6"/>
	<circle cx="80.1" cy="121" r="2.6"/>
	<g>
		<path class="st7" d="M32.4,59.3c0.2,0,0.3,0.1,0.4,0.2l1.2,1.2c-0.6,0.8-1.4,1.4-2.4,1.8c-0.9,0.4-2,0.6-3.3,0.6
			c-1.2,0-2.2-0.2-3.1-0.6s-1.7-1-2.4-1.7c-0.7-0.7-1.2-1.6-1.5-2.5s-0.5-2.1-0.5-3.2c0-1.2,0.2-2.3,0.6-3.2c0.4-1,0.9-1.8,1.6-2.5
			c0.7-0.7,1.6-1.3,2.5-1.7c1-0.4,2.1-0.6,3.3-0.6c1.2,0,2.2,0.2,3.1,0.6c0.9,0.4,1.6,0.9,2.2,1.5l-1,1.4c-0.1,0.1-0.1,0.2-0.2,0.2
			c-0.1,0.1-0.2,0.1-0.4,0.1c-0.2,0-0.3-0.1-0.5-0.2s-0.4-0.3-0.7-0.4c-0.3-0.2-0.6-0.3-1-0.4c-0.4-0.1-0.9-0.2-1.6-0.2
			c-0.7,0-1.4,0.1-2,0.4c-0.6,0.3-1.2,0.6-1.6,1.1c-0.4,0.5-0.8,1.1-1,1.7c-0.2,0.7-0.4,1.5-0.4,2.3c0,0.9,0.1,1.7,0.4,2.4
			c0.2,0.7,0.6,1.3,1,1.7c0.4,0.5,0.9,0.8,1.5,1.1c0.6,0.2,1.2,0.4,1.9,0.4c0.4,0,0.8,0,1.1-0.1c0.3,0,0.6-0.1,0.9-0.2
			c0.3-0.1,0.5-0.2,0.8-0.4c0.2-0.1,0.5-0.3,0.7-0.5c0.1-0.1,0.1-0.1,0.2-0.2C32.2,59.3,32.3,59.3,32.4,59.3z"/>
		<path class="st7" d="M38.9,46.9V63h-2.7V46.9H38.9z"/>
		<path class="st7" d="M45.2,48.6c0,0.2,0,0.4-0.1,0.7s-0.2,0.4-0.4,0.5c-0.2,0.2-0.3,0.3-0.5,0.4c-0.2,0.1-0.4,0.1-0.7,0.1
			c-0.2,0-0.5,0-0.7-0.1c-0.2-0.1-0.4-0.2-0.5-0.4c-0.2-0.2-0.3-0.3-0.4-0.5c-0.1-0.2-0.1-0.4-0.1-0.7c0-0.2,0-0.5,0.1-0.7
			c0.1-0.2,0.2-0.4,0.4-0.5c0.2-0.2,0.3-0.3,0.5-0.4c0.2-0.1,0.4-0.1,0.7-0.1c0.2,0,0.5,0,0.7,0.1c0.2,0.1,0.4,0.2,0.5,0.4
			c0.2,0.2,0.3,0.3,0.4,0.5S45.2,48.4,45.2,48.6z M44.8,51.9V63h-2.7V51.9H44.8z"/>
		<path class="st7" d="M52.4,51.7c0.7,0,1.3,0.1,1.9,0.3c0.6,0.2,1.1,0.6,1.5,1c0.4,0.4,0.8,1,1,1.6c0.2,0.6,0.4,1.3,0.4,2.1
			c0,0.2,0,0.4,0,0.5c0,0.1-0.1,0.2-0.1,0.3s-0.1,0.1-0.2,0.2c-0.1,0-0.2,0-0.3,0h-6.9c0.1,1.1,0.4,2,0.9,2.5s1.2,0.8,2.1,0.8
			c0.4,0,0.8-0.1,1.1-0.2s0.6-0.2,0.8-0.3s0.4-0.2,0.6-0.3c0.2-0.1,0.3-0.2,0.5-0.2c0.1,0,0.2,0,0.3,0.1c0.1,0,0.1,0.1,0.2,0.2
			l0.8,1c-0.3,0.3-0.6,0.6-1,0.9c-0.4,0.2-0.8,0.4-1.2,0.6c-0.4,0.1-0.8,0.2-1.2,0.3s-0.8,0.1-1.2,0.1c-0.8,0-1.5-0.1-2.2-0.4
			s-1.2-0.6-1.7-1.1s-0.9-1.1-1.2-1.9c-0.3-0.7-0.4-1.6-0.4-2.6c0-0.8,0.1-1.5,0.4-2.1c0.2-0.7,0.6-1.3,1.1-1.7s1-0.9,1.7-1.2
			C50.8,51.8,51.6,51.7,52.4,51.7z M52.5,53.6c-0.8,0-1.4,0.2-1.8,0.7c-0.4,0.4-0.7,1.1-0.8,1.9h5c0-0.3,0-0.7-0.1-1
			c-0.1-0.3-0.2-0.6-0.4-0.8c-0.2-0.2-0.4-0.4-0.7-0.5C53.2,53.7,52.9,53.6,52.5,53.6z"/>
		<path class="st7" d="M59.4,63V51.9h1.6c0.3,0,0.6,0.2,0.7,0.5l0.2,0.9c0.2-0.2,0.5-0.4,0.7-0.6s0.5-0.4,0.8-0.5
			c0.3-0.1,0.6-0.2,0.9-0.3c0.3-0.1,0.7-0.1,1-0.1c0.6,0,1.1,0.1,1.6,0.3c0.5,0.2,0.9,0.5,1.2,0.9c0.3,0.4,0.6,0.8,0.7,1.3
			c0.2,0.5,0.2,1.1,0.2,1.7V63h-2.7v-7.1c0-0.7-0.2-1.2-0.5-1.6s-0.8-0.6-1.4-0.6c-0.5,0-0.9,0.1-1.3,0.3c-0.4,0.2-0.8,0.5-1.2,0.9
			V63L59.4,63L59.4,63z"/>
		<path class="st7" d="M75.4,63.2c-1,0-1.7-0.3-2.2-0.8c-0.5-0.5-0.8-1.3-0.8-2.3v-6.2h-1.1c-0.1,0-0.3,0-0.4-0.1
			c-0.1-0.1-0.2-0.2-0.2-0.4v-1.1l1.8-0.3l0.6-3c0-0.1,0.1-0.3,0.2-0.3c0.1-0.1,0.2-0.1,0.4-0.1h1.4V52H78v1.9h-2.9v6
			c0,0.3,0.1,0.6,0.3,0.8c0.2,0.2,0.4,0.3,0.7,0.3c0.2,0,0.3,0,0.4-0.1c0.1,0,0.2-0.1,0.3-0.1s0.2-0.1,0.2-0.1
			c0.1,0,0.1-0.1,0.2-0.1c0.1,0,0.1,0,0.2,0.1c0.1,0,0.1,0.1,0.2,0.2l0.8,1.3c-0.4,0.3-0.8,0.6-1.3,0.7C76.5,63.1,76,63.2,75.4,63.2
			z"/>
		<path class="st7" d="M79.5,61.5c0-0.2,0-0.4,0.1-0.6c0.1-0.2,0.2-0.4,0.3-0.5s0.3-0.3,0.5-0.3c0.2-0.1,0.4-0.1,0.7-0.1
			c0.2,0,0.4,0,0.6,0.1c0.2,0.1,0.4,0.2,0.5,0.3c0.1,0.1,0.3,0.3,0.3,0.5c0.1,0.2,0.1,0.4,0.1,0.6c0,0.2,0,0.4-0.1,0.6
			s-0.2,0.4-0.3,0.5S82,62.9,81.8,63c-0.2,0.1-0.4,0.1-0.6,0.1c-0.2,0-0.4,0-0.7-0.1s-0.4-0.2-0.5-0.3s-0.3-0.3-0.3-0.5
			C79.6,62,79.5,61.8,79.5,61.5z"/>
		<path class="st7" d="M89.7,51.7c0.7,0,1.3,0.1,1.9,0.3c0.6,0.2,1.1,0.6,1.5,1c0.4,0.4,0.8,1,1,1.6s0.4,1.3,0.4,2.1
			c0,0.2,0,0.4,0,0.5c0,0.1-0.1,0.2-0.1,0.3s-0.1,0.1-0.2,0.2c-0.1,0-0.2,0-0.3,0H87c0.1,1.1,0.4,2,0.9,2.5c0.5,0.5,1.2,0.8,2.1,0.8
			c0.4,0,0.8-0.1,1.1-0.2s0.6-0.2,0.8-0.3s0.4-0.2,0.6-0.3c0.2-0.1,0.3-0.2,0.5-0.2c0.1,0,0.2,0,0.3,0.1s0.1,0.1,0.2,0.2l0.8,1
			c-0.3,0.3-0.6,0.6-1,0.9c-0.4,0.2-0.8,0.4-1.2,0.6c-0.4,0.1-0.8,0.2-1.2,0.3c-0.4,0.1-0.8,0.1-1.2,0.1c-0.8,0-1.5-0.1-2.2-0.4
			s-1.2-0.6-1.7-1.1s-0.9-1.1-1.2-1.9c-0.3-0.7-0.4-1.6-0.4-2.6c0-0.8,0.1-1.5,0.4-2.1c0.2-0.7,0.6-1.3,1.1-1.7
			c0.5-0.5,1-0.9,1.7-1.2C88.1,51.8,88.8,51.7,89.7,51.7z M89.7,53.6c-0.8,0-1.4,0.2-1.8,0.7c-0.4,0.4-0.7,1.1-0.8,1.9h5
			c0-0.3,0-0.7-0.1-1s-0.2-0.6-0.4-0.8c-0.2-0.2-0.4-0.4-0.7-0.5C90.5,53.7,90.1,53.6,89.7,53.6z"/>
		<path class="st7" d="M104.8,54.9l-5-7.6h2.9c0.2,0,0.3,0,0.4,0.1c0.1,0.1,0.2,0.1,0.2,0.3l3.6,5.8c0-0.1,0.1-0.2,0.1-0.3
			c0-0.1,0.1-0.2,0.2-0.3l3.3-5.2c0.2-0.3,0.4-0.4,0.6-0.4h2.8l-5.1,7.5L114,63h-2.9c-0.2,0-0.4,0-0.5-0.2c-0.1-0.1-0.2-0.2-0.3-0.3
			l-3.6-6c0,0.1-0.1,0.2-0.1,0.2c0,0.1-0.1,0.1-0.1,0.2l-3.5,5.6c-0.1,0.1-0.2,0.2-0.3,0.3c-0.1,0.1-0.3,0.2-0.4,0.2h-2.7
			L104.8,54.9z"/>
	</g>
	<g>
		<path class="st8" d="M141.9,78.3c0,0.1-0.1,0.1-0.2,0.2s-0.1,0.1-0.2,0.1c-0.1,0-0.2,0-0.3-0.1s-0.3-0.2-0.5-0.3
			c-0.2-0.1-0.4-0.2-0.7-0.3c-0.3-0.1-0.6-0.1-0.9-0.1c-0.3,0-0.7,0-0.9,0.1s-0.5,0.2-0.7,0.4c-0.2,0.2-0.3,0.3-0.4,0.6
			s-0.1,0.4-0.1,0.7c0,0.3,0.1,0.6,0.2,0.8s0.4,0.4,0.6,0.5c0.3,0.1,0.6,0.3,0.9,0.4s0.7,0.2,1,0.3s0.7,0.2,1,0.4
			c0.3,0.1,0.6,0.3,0.9,0.6c0.3,0.2,0.5,0.5,0.6,0.8c0.2,0.3,0.2,0.7,0.2,1.2c0,0.5-0.1,1-0.3,1.4c-0.2,0.4-0.4,0.8-0.7,1.1
			s-0.7,0.6-1.2,0.8c-0.5,0.2-1,0.3-1.6,0.3c-0.7,0-1.4-0.1-2-0.4c-0.6-0.3-1.1-0.6-1.6-1.1l0.4-0.7c0-0.1,0.1-0.1,0.2-0.1
			c0.1,0,0.1-0.1,0.2-0.1c0.1,0,0.2,0.1,0.4,0.2s0.3,0.3,0.5,0.4c0.2,0.1,0.5,0.3,0.8,0.4c0.3,0.1,0.7,0.2,1.1,0.2
			c0.4,0,0.7-0.1,1-0.2c0.3-0.1,0.5-0.2,0.7-0.4s0.4-0.4,0.5-0.7c0.1-0.3,0.2-0.5,0.2-0.9c0-0.3-0.1-0.6-0.2-0.9
			c-0.2-0.2-0.4-0.4-0.6-0.6s-0.5-0.3-0.9-0.4s-0.7-0.2-1-0.3c-0.3-0.1-0.7-0.2-1-0.4s-0.6-0.3-0.9-0.6c-0.3-0.2-0.5-0.5-0.6-0.9
			s-0.2-0.8-0.2-1.3c0-0.4,0.1-0.8,0.2-1.2c0.2-0.4,0.4-0.7,0.7-1s0.7-0.5,1.1-0.7s0.9-0.3,1.5-0.3c0.6,0,1.2,0.1,1.8,0.3
			s1,0.5,1.4,0.9L141.9,78.3z"/>
		<path class="st8" d="M147.6,79.8c0.6,0,1.1,0.1,1.6,0.3s0.9,0.5,1.2,0.8c0.3,0.4,0.6,0.8,0.8,1.3s0.3,1.1,0.3,1.7
			c0,0.6-0.1,1.2-0.3,1.7c-0.2,0.5-0.4,0.9-0.8,1.3c-0.3,0.4-0.7,0.6-1.2,0.8c-0.5,0.2-1,0.3-1.6,0.3c-0.6,0-1.1-0.1-1.6-0.3
			c-0.5-0.2-0.9-0.5-1.2-0.8c-0.3-0.4-0.6-0.8-0.8-1.3c-0.2-0.5-0.3-1.1-0.3-1.7c0-0.6,0.1-1.2,0.3-1.7c0.2-0.5,0.4-1,0.8-1.3
			s0.7-0.6,1.2-0.8S147,79.8,147.6,79.8z M147.6,87c0.8,0,1.4-0.3,1.8-0.8s0.6-1.3,0.6-2.2c0-1-0.2-1.7-0.6-2.3
			c-0.4-0.5-1-0.8-1.8-0.8c-0.4,0-0.8,0.1-1.1,0.2c-0.3,0.1-0.5,0.3-0.7,0.6s-0.4,0.6-0.4,1s-0.1,0.8-0.1,1.3s0,0.9,0.1,1.3
			c0.1,0.4,0.2,0.7,0.4,1s0.4,0.5,0.7,0.6C146.8,86.9,147.2,87,147.6,87z"/>
		<path class="st8" d="M153.2,88v-8.1h0.8c0.2,0,0.3,0.1,0.4,0.3l0.1,0.9c0.4-0.4,0.7-0.7,1.2-0.9s0.9-0.4,1.5-0.4
			c0.4,0,0.8,0.1,1.2,0.2c0.3,0.1,0.6,0.4,0.8,0.6c0.2,0.3,0.4,0.6,0.5,1c0.1,0.4,0.2,0.8,0.2,1.3V88h-1.4v-5.2
			c0-0.6-0.1-1.1-0.4-1.4c-0.3-0.3-0.7-0.5-1.3-0.5c-0.4,0-0.8,0.1-1.2,0.3s-0.7,0.5-1,0.8v6L153.2,88L153.2,88z"/>
		<path class="st8" d="M165.2,88V76.2h1.4V81c0.3-0.4,0.7-0.7,1.2-0.9c0.4-0.2,0.9-0.3,1.5-0.3c0.4,0,0.8,0.1,1.2,0.2
			c0.3,0.1,0.6,0.4,0.8,0.6c0.2,0.3,0.4,0.6,0.5,1c0.1,0.4,0.2,0.8,0.2,1.3V88h-1.4v-5.2c0-0.6-0.1-1.1-0.4-1.4
			c-0.3-0.3-0.7-0.5-1.3-0.5c-0.4,0-0.8,0.1-1.2,0.3s-0.7,0.5-1,0.8v6C166.6,88,165.2,88,165.2,88z"/>
		<path class="st8" d="M176,77.3c0,0.1,0,0.3-0.1,0.4s-0.1,0.2-0.2,0.3s-0.2,0.2-0.3,0.2c-0.1,0.1-0.3,0.1-0.4,0.1s-0.3,0-0.4-0.1
			c-0.1-0.1-0.2-0.1-0.3-0.2s-0.2-0.2-0.2-0.3c-0.1-0.1-0.1-0.2-0.1-0.4s0-0.3,0.1-0.4c0.1-0.1,0.1-0.2,0.2-0.3s0.2-0.2,0.3-0.2
			c0.1-0.1,0.2-0.1,0.4-0.1s0.3,0,0.4,0.1s0.2,0.1,0.3,0.2c0.1,0.1,0.2,0.2,0.2,0.3S176,77.2,176,77.3z M175.6,79.9V88h-1.4v-8.1
			C174.2,79.9,175.6,79.9,175.6,79.9z"/>
		<path class="st8" d="M182.8,81.2c-0.1,0.1-0.2,0.2-0.3,0.2c-0.1,0-0.2,0-0.3-0.1c-0.1-0.1-0.2-0.1-0.4-0.2
			c-0.1-0.1-0.3-0.1-0.5-0.2c-0.2-0.1-0.4-0.1-0.7-0.1c-0.2,0-0.5,0-0.6,0.1c-0.2,0.1-0.4,0.1-0.5,0.3c-0.1,0.1-0.2,0.2-0.3,0.4
			c-0.1,0.1-0.1,0.3-0.1,0.5c0,0.2,0.1,0.4,0.2,0.5s0.3,0.3,0.5,0.4c0.2,0.1,0.4,0.2,0.7,0.3c0.2,0.1,0.5,0.2,0.8,0.2
			s0.5,0.2,0.8,0.3c0.2,0.1,0.5,0.2,0.7,0.4c0.2,0.2,0.4,0.4,0.5,0.6s0.2,0.5,0.2,0.8c0,0.4-0.1,0.7-0.2,1s-0.3,0.6-0.6,0.8
			c-0.3,0.2-0.6,0.4-1,0.5c-0.4,0.1-0.8,0.2-1.3,0.2c-0.6,0-1.1-0.1-1.5-0.3c-0.5-0.2-0.8-0.4-1.2-0.7l0.3-0.5
			c0-0.1,0.1-0.1,0.2-0.2c0.1,0,0.1-0.1,0.2-0.1s0.2,0,0.3,0.1c0.1,0.1,0.2,0.2,0.4,0.2c0.2,0.1,0.3,0.2,0.6,0.2s0.5,0.1,0.8,0.1
			c0.3,0,0.5,0,0.7-0.1s0.4-0.2,0.5-0.3s0.2-0.3,0.3-0.4c0.1-0.2,0.1-0.3,0.1-0.5c0-0.2-0.1-0.4-0.2-0.6c-0.1-0.1-0.3-0.3-0.5-0.4
			s-0.4-0.2-0.7-0.3c-0.3-0.1-0.5-0.2-0.8-0.2c-0.3-0.1-0.5-0.2-0.8-0.3c-0.3-0.1-0.5-0.2-0.7-0.4c-0.2-0.2-0.4-0.4-0.5-0.6
			s-0.2-0.5-0.2-0.9c0-0.3,0.1-0.6,0.2-0.9c0.1-0.3,0.3-0.5,0.6-0.8c0.2-0.2,0.5-0.4,0.9-0.5c0.4-0.1,0.8-0.2,1.2-0.2
			c0.5,0,1,0.1,1.4,0.3c0.4,0.2,0.8,0.4,1.1,0.7L182.8,81.2z"/>
		<path class="st8" d="M187.6,88.1c-0.6,0-1.1-0.2-1.5-0.5s-0.5-0.9-0.5-1.5v-5h-1c-0.1,0-0.2,0-0.2-0.1s-0.1-0.1-0.1-0.2v-0.6
			l1.3-0.2l0.3-2.5c0-0.1,0-0.1,0.1-0.2c0.1-0.1,0.1-0.1,0.2-0.1h0.7V80h2.3v1H187v4.9c0,0.3,0.1,0.6,0.2,0.8
			c0.2,0.2,0.4,0.2,0.6,0.2c0.1,0,0.3,0,0.4-0.1s0.2-0.1,0.3-0.1c0.1,0,0.1-0.1,0.2-0.1s0.1-0.1,0.1-0.1c0.1,0,0.1,0,0.2,0.1
			l0.4,0.7c-0.2,0.2-0.5,0.4-0.9,0.5C188.3,88.1,187.9,88.1,187.6,88.1z"/>
		<path class="st8" d="M194.4,79.8c0.6,0,1.1,0.1,1.6,0.3s0.9,0.5,1.2,0.8c0.3,0.4,0.6,0.8,0.8,1.3s0.3,1.1,0.3,1.7
			c0,0.6-0.1,1.2-0.3,1.7c-0.2,0.5-0.4,0.9-0.8,1.3c-0.3,0.4-0.7,0.6-1.2,0.8c-0.5,0.2-1,0.3-1.6,0.3c-0.6,0-1.1-0.1-1.6-0.3
			c-0.5-0.2-0.9-0.5-1.2-0.8c-0.3-0.4-0.6-0.8-0.8-1.3c-0.2-0.5-0.3-1.1-0.3-1.7c0-0.6,0.1-1.2,0.3-1.7c0.2-0.5,0.4-1,0.8-1.3
			s0.7-0.6,1.2-0.8S193.8,79.8,194.4,79.8z M194.4,87c0.8,0,1.4-0.3,1.8-0.8s0.6-1.3,0.6-2.2c0-1-0.2-1.7-0.6-2.3
			c-0.4-0.5-1-0.8-1.8-0.8c-0.4,0-0.8,0.1-1.1,0.2c-0.3,0.1-0.5,0.3-0.7,0.6s-0.4,0.6-0.4,1s-0.1,0.8-0.1,1.3s0,0.9,0.1,1.3
			c0.1,0.4,0.2,0.7,0.4,1s0.4,0.5,0.7,0.6C193.6,86.9,193.9,87,194.4,87z"/>
		<path class="st8" d="M201.9,77.3c0,0.1,0,0.3-0.1,0.4s-0.1,0.2-0.2,0.3s-0.2,0.2-0.3,0.2c-0.1,0.1-0.3,0.1-0.4,0.1s-0.3,0-0.4-0.1
			c-0.1-0.1-0.2-0.1-0.3-0.2s-0.2-0.2-0.2-0.3c-0.1-0.1-0.1-0.2-0.1-0.4s0-0.3,0.1-0.4c0.1-0.1,0.1-0.2,0.2-0.3s0.2-0.2,0.3-0.2
			c0.1-0.1,0.2-0.1,0.4-0.1s0.3,0,0.4,0.1s0.2,0.1,0.3,0.2c0.1,0.1,0.2,0.2,0.2,0.3C201.8,77.1,201.9,77.2,201.9,77.3z M201.6,79.9
			V88h-1.4v-8.1C200.1,79.9,201.6,79.9,201.6,79.9z"/>
		<path class="st8" d="M204.1,88v-8.1h0.8c0.2,0,0.3,0,0.3,0.1s0.1,0.2,0.1,0.3l0.1,1.3c0.3-0.6,0.6-1,1-1.3
			c0.4-0.3,0.9-0.5,1.4-0.5c0.2,0,0.4,0,0.6,0.1c0.2,0.1,0.4,0.1,0.5,0.2l-0.2,1.1c0,0.1-0.1,0.2-0.2,0.2c-0.1,0-0.2,0-0.3-0.1
			s-0.4-0.1-0.6-0.1c-0.5,0-0.9,0.1-1.2,0.4c-0.3,0.3-0.6,0.7-0.8,1.3V88H204.1z"/>
		<path class="st8" d="M213.7,79.8c0.5,0,0.9,0.1,1.3,0.2c0.4,0.2,0.8,0.4,1.1,0.7c0.3,0.3,0.5,0.7,0.7,1.1s0.3,1,0.3,1.5
			c0,0.2,0,0.4-0.1,0.4s-0.1,0.1-0.3,0.1h-5.4c0,0.5,0.1,1,0.2,1.3s0.3,0.7,0.5,0.9s0.5,0.4,0.8,0.6s0.7,0.2,1,0.2
			c0.4,0,0.7,0,0.9-0.1c0.3-0.1,0.5-0.2,0.7-0.3s0.3-0.2,0.5-0.3c0.1-0.1,0.2-0.1,0.3-0.1c0.1,0,0.2,0,0.3,0.1l0.4,0.5
			c-0.2,0.2-0.4,0.4-0.6,0.6c-0.2,0.2-0.5,0.3-0.8,0.4S215,88,214.7,88c-0.3,0.1-0.6,0.1-0.9,0.1c-0.6,0-1.1-0.1-1.5-0.3
			c-0.5-0.2-0.9-0.5-1.2-0.8s-0.6-0.8-0.8-1.4s-0.3-1.2-0.3-1.9c0-0.6,0.1-1.1,0.3-1.6s0.4-0.9,0.7-1.3c0.3-0.4,0.7-0.6,1.2-0.8
			C212.6,79.9,213.1,79.8,213.7,79.8z M213.8,80.8c-0.7,0-1.2,0.2-1.6,0.6c-0.4,0.4-0.6,0.9-0.7,1.7h4.4c0-0.3,0-0.6-0.1-0.9
			c-0.1-0.3-0.2-0.5-0.4-0.7s-0.4-0.4-0.6-0.5S214.1,80.8,213.8,80.8z"/>
		<path class="st8" d="M221.8,81.1c0-0.1,0-0.3,0.1-0.4c0.1-0.1,0.1-0.2,0.2-0.3s0.2-0.2,0.3-0.2s0.3-0.1,0.4-0.1s0.3,0,0.4,0.1
			c0.1,0.1,0.2,0.1,0.3,0.2c0.1,0.1,0.2,0.2,0.2,0.3s0.1,0.3,0.1,0.4c0,0.1,0,0.3-0.1,0.4s-0.1,0.2-0.2,0.3s-0.2,0.2-0.3,0.2
			c-0.1,0.1-0.3,0.1-0.4,0.1s-0.3,0-0.4-0.1s-0.2-0.1-0.3-0.2s-0.2-0.2-0.2-0.3C221.9,81.4,221.8,81.3,221.8,81.1z M221.8,87.1
			c0-0.1,0-0.3,0.1-0.4c0.1-0.1,0.1-0.2,0.2-0.3s0.2-0.2,0.3-0.2s0.3-0.1,0.4-0.1s0.3,0,0.4,0.1c0.1,0.1,0.2,0.1,0.3,0.2
			c0.1,0.1,0.2,0.2,0.2,0.3s0.1,0.3,0.1,0.4c0,0.1,0,0.3-0.1,0.4s-0.1,0.2-0.2,0.3s-0.2,0.2-0.3,0.2c-0.1,0.1-0.3,0.1-0.4,0.1
			s-0.3,0-0.4-0.1s-0.2-0.1-0.3-0.2s-0.2-0.2-0.2-0.3C221.9,87.4,221.8,87.3,221.8,87.1z"/>
		<path class="st8" d="M141.9,108.3c0,0.1-0.1,0.1-0.2,0.2s-0.1,0.1-0.2,0.1c-0.1,0-0.2,0-0.3-0.1s-0.3-0.2-0.5-0.3
			c-0.2-0.1-0.4-0.2-0.7-0.3c-0.3-0.1-0.6-0.1-0.9-0.1c-0.3,0-0.7,0-0.9,0.1s-0.5,0.2-0.7,0.4c-0.2,0.2-0.3,0.3-0.4,0.6
			s-0.1,0.4-0.1,0.7c0,0.3,0.1,0.6,0.2,0.8s0.4,0.4,0.6,0.5c0.3,0.1,0.6,0.3,0.9,0.4s0.7,0.2,1,0.3s0.7,0.2,1,0.4
			c0.3,0.1,0.6,0.3,0.9,0.6c0.3,0.2,0.5,0.5,0.6,0.8c0.2,0.3,0.2,0.7,0.2,1.2c0,0.5-0.1,1-0.3,1.4c-0.2,0.4-0.4,0.8-0.7,1.1
			s-0.7,0.6-1.2,0.8c-0.5,0.2-1,0.3-1.6,0.3c-0.7,0-1.4-0.1-2-0.4c-0.6-0.3-1.1-0.6-1.6-1.1l0.4-0.7c0-0.1,0.1-0.1,0.2-0.1
			c0.1,0,0.1-0.1,0.2-0.1c0.1,0,0.2,0.1,0.4,0.2s0.3,0.3,0.5,0.4c0.2,0.1,0.5,0.3,0.8,0.4c0.3,0.1,0.7,0.2,1.1,0.2
			c0.4,0,0.7-0.1,1-0.2c0.3-0.1,0.5-0.2,0.7-0.4s0.4-0.4,0.5-0.7c0.1-0.3,0.2-0.5,0.2-0.9c0-0.3-0.1-0.6-0.2-0.9
			c-0.2-0.2-0.4-0.4-0.6-0.6s-0.5-0.3-0.9-0.4s-0.7-0.2-1-0.3c-0.3-0.1-0.7-0.2-1-0.4s-0.6-0.3-0.9-0.6c-0.3-0.2-0.5-0.5-0.6-0.9
			s-0.2-0.8-0.2-1.3c0-0.4,0.1-0.8,0.2-1.2c0.2-0.4,0.4-0.7,0.7-1s0.7-0.5,1.1-0.7s0.9-0.3,1.5-0.3c0.6,0,1.2,0.1,1.8,0.3
			s1,0.5,1.4,0.9L141.9,108.3z"/>
		<path class="st8" d="M147.6,109.8c0.6,0,1.1,0.1,1.6,0.3s0.9,0.5,1.2,0.8c0.3,0.4,0.6,0.8,0.8,1.3s0.3,1.1,0.3,1.7
			c0,0.6-0.1,1.2-0.3,1.7c-0.2,0.5-0.4,0.9-0.8,1.3c-0.3,0.4-0.7,0.6-1.2,0.8c-0.5,0.2-1,0.3-1.6,0.3c-0.6,0-1.1-0.1-1.6-0.3
			c-0.5-0.2-0.9-0.5-1.2-0.8c-0.3-0.4-0.6-0.8-0.8-1.3c-0.2-0.5-0.3-1.1-0.3-1.7c0-0.6,0.1-1.2,0.3-1.7c0.2-0.5,0.4-1,0.8-1.3
			s0.7-0.6,1.2-0.8S147,109.8,147.6,109.8z M147.6,117c0.8,0,1.4-0.3,1.8-0.8s0.6-1.3,0.6-2.2c0-1-0.2-1.7-0.6-2.3
			c-0.4-0.5-1-0.8-1.8-0.8c-0.4,0-0.8,0.1-1.1,0.2c-0.3,0.1-0.5,0.3-0.7,0.6s-0.4,0.6-0.4,1s-0.1,0.8-0.1,1.3s0,0.9,0.1,1.3
			c0.1,0.4,0.2,0.7,0.4,1s0.4,0.5,0.7,0.6C146.8,116.9,147.2,117,147.6,117z"/>
		<path class="st8" d="M153.2,118v-8.1h0.8c0.2,0,0.3,0.1,0.4,0.3l0.1,0.9c0.4-0.4,0.7-0.7,1.2-0.9s0.9-0.4,1.5-0.4
			c0.4,0,0.8,0.1,1.2,0.2c0.3,0.1,0.6,0.4,0.8,0.6c0.2,0.3,0.4,0.6,0.5,1c0.1,0.4,0.2,0.8,0.2,1.3v5.2h-1.4v-5.2
			c0-0.6-0.1-1.1-0.4-1.4c-0.3-0.3-0.7-0.5-1.3-0.5c-0.4,0-0.8,0.1-1.2,0.3s-0.7,0.5-1,0.8v6L153.2,118L153.2,118z"/>
		<path class="st8" d="M168.4,109.8c0.5,0,0.9,0.1,1.3,0.2c0.4,0.2,0.8,0.4,1.1,0.7c0.3,0.3,0.5,0.7,0.7,1.1s0.3,1,0.3,1.5
			c0,0.2,0,0.4-0.1,0.4s-0.1,0.1-0.3,0.1H166c0,0.5,0.1,1,0.2,1.3s0.3,0.7,0.5,0.9s0.5,0.4,0.8,0.6s0.7,0.2,1,0.2
			c0.4,0,0.7,0,0.9-0.1c0.3-0.1,0.5-0.2,0.7-0.3s0.3-0.2,0.5-0.3c0.1-0.1,0.2-0.1,0.3-0.1c0.1,0,0.2,0,0.3,0.1l0.4,0.5
			c-0.2,0.2-0.4,0.4-0.6,0.6c-0.2,0.2-0.5,0.3-0.8,0.4s-0.6,0.2-0.9,0.2c-0.3,0.1-0.6,0.1-0.9,0.1c-0.6,0-1.1-0.1-1.5-0.3
			c-0.5-0.2-0.9-0.5-1.2-0.8s-0.6-0.8-0.8-1.4s-0.3-1.2-0.3-1.9c0-0.6,0.1-1.1,0.3-1.6s0.4-0.9,0.7-1.3c0.3-0.4,0.7-0.6,1.2-0.8
			C167.3,109.9,167.8,109.8,168.4,109.8z M168.4,110.8c-0.7,0-1.2,0.2-1.6,0.6c-0.4,0.4-0.6,0.9-0.7,1.7h4.4c0-0.3,0-0.6-0.1-0.9
			c-0.1-0.3-0.2-0.5-0.4-0.7s-0.4-0.4-0.6-0.5S168.7,110.8,168.4,110.8z"/>
		<path class="st8" d="M173.6,118v-8.1h0.8c0.2,0,0.3,0.1,0.4,0.3l0.1,0.9c0.4-0.4,0.7-0.7,1.2-0.9s0.9-0.4,1.5-0.4
			c0.4,0,0.8,0.1,1.2,0.2c0.3,0.1,0.6,0.4,0.8,0.6c0.2,0.3,0.4,0.6,0.5,1c0.1,0.4,0.2,0.8,0.2,1.3v5.2h-1.4v-5.2
			c0-0.6-0.1-1.1-0.4-1.4c-0.3-0.3-0.7-0.5-1.3-0.5c-0.4,0-0.8,0.1-1.2,0.3s-0.7,0.5-1,0.8v6L173.6,118L173.6,118z"/>
		<path class="st8" d="M181.2,109.9h1.2c0.1,0,0.2,0,0.3,0.1s0.1,0.1,0.2,0.2l2.1,5.2c0.1,0.2,0.1,0.4,0.2,0.6
			c0,0.2,0.1,0.4,0.1,0.6c0-0.2,0.1-0.4,0.1-0.6s0.1-0.4,0.2-0.6l2.1-5.2c0-0.1,0.1-0.2,0.2-0.2s0.2-0.1,0.3-0.1h1.1l-3.3,8.1h-1.3
			L181.2,109.9z"/>
		<path class="st8" d="M192.3,107.3c0,0.1,0,0.3-0.1,0.4s-0.1,0.2-0.2,0.3s-0.2,0.2-0.3,0.2c-0.1,0.1-0.3,0.1-0.4,0.1
			s-0.3,0-0.4-0.1c-0.1-0.1-0.2-0.1-0.3-0.2s-0.2-0.2-0.2-0.3c-0.1-0.1-0.1-0.2-0.1-0.4s0-0.3,0.1-0.4c0.1-0.1,0.1-0.2,0.2-0.3
			s0.2-0.2,0.3-0.2c0.1-0.1,0.2-0.1,0.4-0.1s0.3,0,0.4,0.1s0.2,0.1,0.3,0.2c0.1,0.1,0.2,0.2,0.2,0.3
			C192.3,107.1,192.3,107.2,192.3,107.3z M192,109.9v8.1h-1.4v-8.1C190.5,109.9,192,109.9,192,109.9z"/>
		<path class="st8" d="M194.5,118v-8.1h0.8c0.2,0,0.3,0,0.3,0.1s0.1,0.2,0.1,0.3l0.1,1.3c0.3-0.6,0.6-1,1-1.3
			c0.4-0.3,0.9-0.5,1.4-0.5c0.2,0,0.4,0,0.6,0.1c0.2,0.1,0.4,0.1,0.5,0.2l-0.2,1.1c0,0.1-0.1,0.2-0.2,0.2c-0.1,0-0.2,0-0.3-0.1
			s-0.4-0.1-0.6-0.1c-0.5,0-0.9,0.1-1.2,0.4c-0.3,0.3-0.6,0.7-0.8,1.3v5.2H194.5z"/>
		<path class="st8" d="M204.2,109.8c0.6,0,1.1,0.1,1.6,0.3s0.9,0.5,1.2,0.8c0.3,0.4,0.6,0.8,0.8,1.3s0.3,1.1,0.3,1.7
			c0,0.6-0.1,1.2-0.3,1.7c-0.2,0.5-0.4,0.9-0.8,1.3c-0.3,0.4-0.7,0.6-1.2,0.8c-0.5,0.2-1,0.3-1.6,0.3c-0.6,0-1.1-0.1-1.6-0.3
			c-0.5-0.2-0.9-0.5-1.2-0.8c-0.3-0.4-0.6-0.8-0.8-1.3c-0.2-0.5-0.3-1.1-0.3-1.7c0-0.6,0.1-1.2,0.3-1.7c0.2-0.5,0.4-1,0.8-1.3
			s0.7-0.6,1.2-0.8S203.6,109.8,204.2,109.8z M204.2,117c0.8,0,1.4-0.3,1.8-0.8s0.6-1.3,0.6-2.2c0-1-0.2-1.7-0.6-2.3
			c-0.4-0.5-1-0.8-1.8-0.8c-0.4,0-0.8,0.1-1.1,0.2c-0.3,0.1-0.5,0.3-0.7,0.6s-0.4,0.6-0.4,1s-0.1,0.8-0.1,1.3s0,0.9,0.1,1.3
			c0.1,0.4,0.2,0.7,0.4,1s0.4,0.5,0.7,0.6C203.4,116.9,203.8,117,204.2,117z"/>
		<path class="st8" d="M209.8,118v-8.1h0.8c0.2,0,0.3,0.1,0.4,0.3l0.1,0.9c0.4-0.4,0.7-0.7,1.2-0.9s0.9-0.4,1.5-0.4
			c0.4,0,0.8,0.1,1.2,0.2c0.3,0.1,0.6,0.4,0.8,0.6c0.2,0.3,0.4,0.6,0.5,1c0.1,0.4,0.2,0.8,0.2,1.3v5.2h-1.4v-5.2
			c0-0.6-0.1-1.1-0.4-1.4c-0.3-0.3-0.7-0.5-1.3-0.5c-0.4,0-0.8,0.1-1.2,0.3s-0.7,0.5-1,0.8v6L209.8,118L209.8,118z"/>
		<path class="st8" d="M218.7,118v-8.1h0.8c0.2,0,0.3,0.1,0.4,0.3l0.1,0.9c0.4-0.4,0.7-0.7,1.2-0.9s0.9-0.4,1.5-0.4
			c0.4,0,0.8,0.1,1.2,0.2c0.3,0.1,0.6,0.4,0.8,0.6c0.2,0.3,0.4,0.6,0.5,1c0.1,0.4,0.2,0.8,0.2,1.3v5.2H224v-5.2
			c0-0.6-0.1-1.1-0.4-1.4c-0.3-0.3-0.7-0.5-1.3-0.5c-0.4,0-0.8,0.1-1.2,0.3s-0.7,0.5-1,0.8v6L218.7,118L218.7,118z"/>
		<path class="st8" d="M230.8,109.8c0.5,0,0.9,0.1,1.3,0.2c0.4,0.2,0.8,0.4,1.1,0.7c0.3,0.3,0.5,0.7,0.7,1.1s0.3,1,0.3,1.5
			c0,0.2,0,0.4-0.1,0.4s-0.1,0.1-0.3,0.1h-5.4c0,0.5,0.1,1,0.2,1.3s0.3,0.7,0.5,0.9s0.5,0.4,0.8,0.6s0.7,0.2,1,0.2
			c0.4,0,0.7,0,0.9-0.1c0.3-0.1,0.5-0.2,0.7-0.3s0.3-0.2,0.5-0.3c0.1-0.1,0.2-0.1,0.3-0.1c0.1,0,0.2,0,0.3,0.1l0.4,0.5
			c-0.2,0.2-0.4,0.4-0.6,0.6c-0.2,0.2-0.5,0.3-0.8,0.4s-0.6,0.2-0.9,0.2c-0.3,0.1-0.6,0.1-0.9,0.1c-0.6,0-1.1-0.1-1.5-0.3
			c-0.5-0.2-0.9-0.5-1.2-0.8s-0.6-0.8-0.8-1.4s-0.3-1.2-0.3-1.9c0-0.6,0.1-1.1,0.3-1.6s0.4-0.9,0.7-1.3c0.3-0.4,0.7-0.6,1.2-0.8
			C229.7,109.9,230.2,109.8,230.8,109.8z M230.9,110.8c-0.7,0-1.2,0.2-1.6,0.6c-0.4,0.4-0.6,0.9-0.7,1.7h4.4c0-0.3,0-0.6-0.1-0.9
			c-0.1-0.3-0.2-0.5-0.4-0.7s-0.4-0.4-0.6-0.5S231.2,110.8,230.9,110.8z"/>
		<path class="st8" d="M236,118v-8.1h0.8c0.2,0,0.3,0.1,0.4,0.3l0.1,0.8c0.3-0.4,0.6-0.7,1-0.9c0.4-0.2,0.8-0.4,1.3-0.4
			c0.5,0,1,0.2,1.3,0.5c0.3,0.3,0.6,0.7,0.7,1.2c0.1-0.3,0.3-0.5,0.4-0.8c0.2-0.2,0.4-0.4,0.6-0.5c0.2-0.1,0.5-0.2,0.7-0.3
			c0.3-0.1,0.5-0.1,0.8-0.1c0.4,0,0.8,0.1,1.1,0.2c0.3,0.1,0.6,0.3,0.8,0.6c0.2,0.3,0.4,0.6,0.5,1s0.2,0.8,0.2,1.3v5.2h-1.4v-5.2
			c0-0.6-0.1-1.1-0.4-1.4s-0.7-0.5-1.2-0.5c-0.2,0-0.5,0-0.7,0.1c-0.2,0.1-0.4,0.2-0.6,0.4c-0.2,0.2-0.3,0.4-0.4,0.6
			s-0.1,0.5-0.1,0.8v5.2h-1.4v-5.2c0-0.7-0.1-1.1-0.4-1.5c-0.3-0.3-0.6-0.5-1.1-0.5c-0.4,0-0.7,0.1-1,0.3c-0.3,0.2-0.6,0.4-0.8,0.8
			v6C237.4,118,236,118,236,118z"/>
		<path class="st8" d="M252.3,109.8c0.5,0,0.9,0.1,1.3,0.2c0.4,0.2,0.8,0.4,1.1,0.7c0.3,0.3,0.5,0.7,0.7,1.1s0.3,1,0.3,1.5
			c0,0.2,0,0.4-0.1,0.4s-0.1,0.1-0.3,0.1H250c0,0.5,0.1,1,0.2,1.3s0.3,0.7,0.5,0.9s0.5,0.4,0.8,0.6s0.7,0.2,1,0.2
			c0.4,0,0.7,0,0.9-0.1c0.3-0.1,0.5-0.2,0.7-0.3s0.3-0.2,0.5-0.3c0.1-0.1,0.2-0.1,0.3-0.1c0.1,0,0.2,0,0.3,0.1l0.4,0.5
			c-0.2,0.2-0.4,0.4-0.6,0.6s-0.5,0.3-0.8,0.4s-0.6,0.2-0.9,0.2c-0.3,0.1-0.6,0.1-0.9,0.1c-0.6,0-1.1-0.1-1.5-0.3
			c-0.5-0.2-0.9-0.5-1.2-0.8c-0.3-0.4-0.6-0.8-0.8-1.4c-0.2-0.5-0.3-1.2-0.3-1.9c0-0.6,0.1-1.1,0.3-1.6c0.2-0.5,0.4-0.9,0.7-1.3
			s0.7-0.6,1.2-0.8C251.2,109.9,251.8,109.8,252.3,109.8z M252.4,110.8c-0.7,0-1.2,0.2-1.6,0.6s-0.6,0.9-0.7,1.7h4.4
			c0-0.3,0-0.6-0.1-0.9c-0.1-0.3-0.2-0.5-0.4-0.7c-0.2-0.2-0.4-0.4-0.6-0.5C253,110.9,252.7,110.8,252.4,110.8z"/>
		<path class="st8" d="M257.5,118v-8.1h0.8c0.2,0,0.3,0.1,0.4,0.3l0.1,0.9c0.4-0.4,0.7-0.7,1.2-0.9c0.4-0.2,0.9-0.4,1.5-0.4
			c0.4,0,0.8,0.1,1.2,0.2s0.6,0.4,0.8,0.6c0.2,0.3,0.4,0.6,0.5,1c0.1,0.4,0.2,0.8,0.2,1.3v5.2h-1.4v-5.2c0-0.6-0.1-1.1-0.4-1.4
			c-0.3-0.3-0.7-0.5-1.3-0.5c-0.4,0-0.8,0.1-1.2,0.3c-0.4,0.2-0.7,0.5-1,0.8v6L257.5,118L257.5,118z"/>
		<path class="st8" d="M268.9,118.1c-0.6,0-1.1-0.2-1.5-0.5c-0.3-0.4-0.5-0.9-0.5-1.5v-5h-1c-0.1,0-0.2,0-0.2-0.1
			c-0.1-0.1-0.1-0.1-0.1-0.2v-0.6l1.3-0.2l0.3-2.5c0-0.1,0-0.1,0.1-0.2c0.1-0.1,0.1-0.1,0.2-0.1h0.7v2.8h2.3v1h-2.3v4.9
			c0,0.3,0.1,0.6,0.2,0.8c0.2,0.2,0.4,0.2,0.6,0.2c0.1,0,0.3,0,0.4-0.1s0.2-0.1,0.3-0.1s0.1-0.1,0.2-0.1c0.1,0,0.1-0.1,0.1-0.1
			c0.1,0,0.1,0,0.2,0.1l0.4,0.7c-0.2,0.2-0.5,0.4-0.9,0.5C269.6,118.1,269.2,118.1,268.9,118.1z"/>
		<path class="st8" d="M275.3,111.1c0-0.1,0-0.3,0.1-0.4s0.1-0.2,0.2-0.3c0.1-0.1,0.2-0.2,0.3-0.2c0.1-0.1,0.3-0.1,0.4-0.1
			s0.3,0,0.4,0.1c0.1,0.1,0.2,0.1,0.3,0.2c0.1,0.1,0.2,0.2,0.2,0.3c0,0.1,0.1,0.3,0.1,0.4c0,0.1,0,0.3-0.1,0.4
			c-0.1,0.1-0.1,0.2-0.2,0.3c-0.1,0.1-0.2,0.2-0.3,0.2c-0.1,0.1-0.3,0.1-0.4,0.1s-0.3,0-0.4-0.1s-0.2-0.1-0.3-0.2
			c-0.1-0.1-0.2-0.2-0.2-0.3S275.3,111.3,275.3,111.1z M275.3,117.1c0-0.1,0-0.3,0.1-0.4s0.1-0.2,0.2-0.3c0.1-0.1,0.2-0.2,0.3-0.2
			c0.1-0.1,0.3-0.1,0.4-0.1s0.3,0,0.4,0.1c0.1,0.1,0.2,0.1,0.3,0.2c0.1,0.1,0.2,0.2,0.2,0.3c0,0.1,0.1,0.3,0.1,0.4
			c0,0.1,0,0.3-0.1,0.4c-0.1,0.1-0.1,0.2-0.2,0.3c-0.1,0.1-0.2,0.2-0.3,0.2c-0.1,0.1-0.3,0.1-0.4,0.1s-0.3,0-0.4-0.1
			s-0.2-0.1-0.3-0.2c-0.1-0.1-0.2-0.2-0.2-0.3S275.3,117.3,275.3,117.1z"/>
		<path class="st8" d="M141.9,138.3c0,0.1-0.1,0.1-0.2,0.2s-0.1,0.1-0.2,0.1c-0.1,0-0.2,0-0.3-0.1s-0.3-0.2-0.5-0.3
			c-0.2-0.1-0.4-0.2-0.7-0.3c-0.3-0.1-0.6-0.1-0.9-0.1c-0.3,0-0.7,0-0.9,0.1s-0.5,0.2-0.7,0.4s-0.3,0.3-0.4,0.6
			c-0.1,0.2-0.1,0.4-0.1,0.7c0,0.3,0.1,0.6,0.2,0.8s0.4,0.4,0.6,0.5c0.3,0.1,0.6,0.3,0.9,0.4s0.7,0.2,1,0.3c0.3,0.1,0.7,0.2,1,0.4
			c0.3,0.1,0.6,0.3,0.9,0.6c0.3,0.2,0.5,0.5,0.6,0.8c0.2,0.3,0.2,0.7,0.2,1.2c0,0.5-0.1,1-0.3,1.4c-0.2,0.4-0.4,0.8-0.7,1.1
			s-0.7,0.6-1.2,0.8c-0.5,0.2-1,0.3-1.6,0.3c-0.7,0-1.4-0.1-2-0.4c-0.6-0.3-1.1-0.6-1.6-1.1l0.4-0.7c0-0.1,0.1-0.1,0.2-0.1
			c0.1,0,0.1-0.1,0.2-0.1c0.1,0,0.2,0.1,0.4,0.2s0.3,0.3,0.5,0.4c0.2,0.1,0.5,0.3,0.8,0.4s0.7,0.2,1.1,0.2c0.4,0,0.7-0.1,1-0.2
			c0.3-0.1,0.5-0.2,0.7-0.4c0.2-0.2,0.4-0.4,0.5-0.7c0.1-0.3,0.2-0.5,0.2-0.9c0-0.3-0.1-0.6-0.2-0.9c-0.2-0.2-0.4-0.4-0.6-0.6
			s-0.5-0.3-0.9-0.4s-0.7-0.2-1-0.3c-0.3-0.1-0.7-0.2-1-0.4c-0.3-0.1-0.6-0.3-0.9-0.6c-0.3-0.2-0.5-0.5-0.6-0.9s-0.2-0.8-0.2-1.3
			c0-0.4,0.1-0.8,0.2-1.2c0.2-0.4,0.4-0.7,0.7-1s0.7-0.5,1.1-0.7s0.9-0.3,1.5-0.3c0.6,0,1.2,0.1,1.8,0.3s1,0.5,1.4,0.9L141.9,138.3z
			"/>
		<path class="st8" d="M147.5,139.8c0.5,0,0.9,0.1,1.3,0.2c0.4,0.2,0.8,0.4,1.1,0.7c0.3,0.3,0.5,0.7,0.7,1.1s0.3,1,0.3,1.5
			c0,0.2,0,0.4-0.1,0.4s-0.1,0.1-0.3,0.1h-5.4c0,0.5,0.1,1,0.2,1.3s0.3,0.7,0.5,0.9c0.2,0.3,0.5,0.4,0.8,0.6c0.3,0.1,0.7,0.2,1,0.2
			c0.4,0,0.7,0,0.9-0.1s0.5-0.2,0.7-0.3c0.2-0.1,0.3-0.2,0.5-0.3c0.1-0.1,0.2-0.1,0.3-0.1c0.1,0,0.2,0,0.3,0.1l0.4,0.5
			c-0.2,0.2-0.4,0.4-0.6,0.6c-0.2,0.2-0.5,0.3-0.8,0.4c-0.3,0.1-0.6,0.2-0.9,0.2c-0.3,0.1-0.6,0.1-0.9,0.1c-0.6,0-1.1-0.1-1.5-0.3
			s-0.9-0.5-1.2-0.8s-0.6-0.8-0.8-1.4c-0.2-0.5-0.3-1.2-0.3-1.9c0-0.6,0.1-1.1,0.3-1.6c0.2-0.5,0.4-0.9,0.7-1.3
			c0.3-0.4,0.7-0.6,1.2-0.8C146.4,139.9,146.9,139.8,147.5,139.8z M147.5,140.8c-0.7,0-1.2,0.2-1.6,0.6c-0.4,0.4-0.6,0.9-0.7,1.7
			h4.4c0-0.3,0-0.6-0.1-0.9c-0.1-0.3-0.2-0.5-0.4-0.7s-0.4-0.4-0.6-0.5S147.9,140.8,147.5,140.8z"/>
		<path class="st8" d="M157.3,141.2c-0.1,0.1-0.2,0.2-0.3,0.2c-0.1,0-0.2,0-0.3-0.1c-0.1-0.1-0.2-0.1-0.4-0.2
			c-0.1-0.1-0.3-0.1-0.5-0.2c-0.2-0.1-0.4-0.1-0.7-0.1c-0.2,0-0.5,0-0.6,0.1c-0.2,0.1-0.4,0.1-0.5,0.3c-0.1,0.1-0.2,0.2-0.3,0.4
			c-0.1,0.1-0.1,0.3-0.1,0.5c0,0.2,0.1,0.4,0.2,0.5c0.1,0.1,0.3,0.3,0.5,0.4c0.2,0.1,0.4,0.2,0.7,0.3c0.2,0.1,0.5,0.2,0.8,0.2
			c0.3,0.1,0.5,0.2,0.8,0.3c0.2,0.1,0.5,0.2,0.7,0.4s0.4,0.4,0.5,0.6s0.2,0.5,0.2,0.8c0,0.4-0.1,0.7-0.2,1s-0.3,0.6-0.6,0.8
			c-0.3,0.2-0.6,0.4-1,0.5c-0.4,0.1-0.8,0.2-1.3,0.2c-0.6,0-1.1-0.1-1.5-0.3c-0.5-0.2-0.8-0.4-1.2-0.7l0.3-0.5
			c0-0.1,0.1-0.1,0.2-0.2c0.1,0,0.1-0.1,0.2-0.1s0.2,0,0.3,0.1c0.1,0.1,0.2,0.2,0.4,0.2c0.2,0.1,0.3,0.2,0.6,0.2
			c0.2,0.1,0.5,0.1,0.8,0.1c0.3,0,0.5,0,0.7-0.1s0.4-0.2,0.5-0.3s0.2-0.3,0.3-0.4c0.1-0.2,0.1-0.3,0.1-0.5c0-0.2-0.1-0.4-0.2-0.6
			s-0.3-0.3-0.5-0.4c-0.2-0.1-0.4-0.2-0.7-0.3c-0.3-0.1-0.5-0.2-0.8-0.2c-0.3-0.1-0.5-0.2-0.8-0.3s-0.5-0.2-0.7-0.4
			c-0.2-0.2-0.4-0.4-0.5-0.6c-0.1-0.2-0.2-0.5-0.2-0.9c0-0.3,0.1-0.6,0.2-0.9s0.3-0.5,0.6-0.8c0.2-0.2,0.5-0.4,0.9-0.5
			c0.4-0.1,0.8-0.2,1.2-0.2c0.5,0,1,0.1,1.4,0.3c0.4,0.2,0.8,0.4,1.1,0.7L157.3,141.2z"/>
		<path class="st8" d="M162.8,148v-11.8h1.4v4.8c0.3-0.4,0.7-0.7,1.2-0.9c0.4-0.2,0.9-0.4,1.5-0.4c0.5,0,0.9,0.1,1.3,0.3
			c0.4,0.2,0.7,0.4,1,0.8c0.3,0.4,0.5,0.8,0.6,1.3s0.2,1.1,0.2,1.8c0,0.6-0.1,1.2-0.2,1.7s-0.4,1-0.7,1.3s-0.7,0.7-1.1,0.9
			s-0.9,0.3-1.5,0.3c-0.5,0-1-0.1-1.3-0.3c-0.4-0.2-0.7-0.5-1-0.8l-0.1,0.7c0,0.2-0.2,0.3-0.4,0.3L162.8,148L162.8,148z
			 M166.4,140.9c-0.5,0-0.9,0.1-1.2,0.3c-0.3,0.2-0.7,0.5-1,0.9v3.9c0.3,0.4,0.5,0.6,0.9,0.7s0.7,0.2,1,0.2c0.8,0,1.3-0.3,1.7-0.8
			c0.4-0.5,0.6-1.3,0.6-2.3c0-0.5,0-1-0.1-1.4c-0.1-0.4-0.2-0.7-0.4-0.9c-0.2-0.2-0.4-0.4-0.6-0.5C167,141,166.7,140.9,166.4,140.9z
			"/>
		<path class="st8" d="M174.9,139.8c0.5,0,0.9,0.1,1.3,0.2c0.4,0.2,0.8,0.4,1.1,0.7c0.3,0.3,0.5,0.7,0.7,1.1s0.3,1,0.3,1.5
			c0,0.2,0,0.4-0.1,0.4s-0.1,0.1-0.3,0.1h-5.4c0,0.5,0.1,1,0.2,1.3s0.3,0.7,0.5,0.9c0.2,0.3,0.5,0.4,0.8,0.6c0.3,0.1,0.7,0.2,1,0.2
			c0.4,0,0.7,0,0.9-0.1s0.5-0.2,0.7-0.3c0.2-0.1,0.3-0.2,0.5-0.3c0.1-0.1,0.2-0.1,0.3-0.1c0.1,0,0.2,0,0.3,0.1l0.4,0.5
			c-0.2,0.2-0.4,0.4-0.6,0.6c-0.2,0.2-0.5,0.3-0.8,0.4c-0.3,0.1-0.6,0.2-0.9,0.2c-0.3,0.1-0.6,0.1-0.9,0.1c-0.6,0-1.1-0.1-1.5-0.3
			s-0.9-0.5-1.2-0.8s-0.6-0.8-0.8-1.4c-0.2-0.5-0.3-1.2-0.3-1.9c0-0.6,0.1-1.1,0.3-1.6c0.2-0.5,0.4-0.9,0.7-1.3
			c0.3-0.4,0.7-0.6,1.2-0.8C173.7,139.9,174.3,139.8,174.9,139.8z M174.9,140.8c-0.7,0-1.2,0.2-1.6,0.6c-0.4,0.4-0.6,0.9-0.7,1.7
			h4.4c0-0.3,0-0.6-0.1-0.9c-0.1-0.3-0.2-0.5-0.4-0.7s-0.4-0.4-0.6-0.5S175.2,140.8,174.9,140.8z"/>
		<path class="st8" d="M184.7,141.2c-0.1,0.1-0.2,0.2-0.3,0.2c-0.1,0-0.2,0-0.3-0.1c-0.1-0.1-0.2-0.1-0.4-0.2
			c-0.1-0.1-0.3-0.1-0.5-0.2c-0.2-0.1-0.4-0.1-0.7-0.1c-0.2,0-0.5,0-0.6,0.1c-0.2,0.1-0.4,0.1-0.5,0.3c-0.1,0.1-0.2,0.2-0.3,0.4
			c-0.1,0.1-0.1,0.3-0.1,0.5c0,0.2,0.1,0.4,0.2,0.5c0.1,0.1,0.3,0.3,0.5,0.4c0.2,0.1,0.4,0.2,0.7,0.3c0.2,0.1,0.5,0.2,0.8,0.2
			c0.3,0.1,0.5,0.2,0.8,0.3c0.2,0.1,0.5,0.2,0.7,0.4s0.4,0.4,0.5,0.6s0.2,0.5,0.2,0.8c0,0.4-0.1,0.7-0.2,1s-0.3,0.6-0.6,0.8
			c-0.3,0.2-0.6,0.4-1,0.5c-0.4,0.1-0.8,0.2-1.3,0.2c-0.6,0-1.1-0.1-1.5-0.3c-0.5-0.2-0.8-0.4-1.2-0.7l0.3-0.5
			c0-0.1,0.1-0.1,0.2-0.2c0.1,0,0.1-0.1,0.2-0.1s0.2,0,0.3,0.1c0.1,0.1,0.2,0.2,0.4,0.2c0.2,0.1,0.3,0.2,0.6,0.2
			c0.2,0.1,0.5,0.1,0.8,0.1c0.3,0,0.5,0,0.7-0.1s0.4-0.2,0.5-0.3s0.2-0.3,0.3-0.4c0.1-0.2,0.1-0.3,0.1-0.5c0-0.2-0.1-0.4-0.2-0.6
			s-0.3-0.3-0.5-0.4c-0.2-0.1-0.4-0.2-0.7-0.3c-0.3-0.1-0.5-0.2-0.8-0.2c-0.3-0.1-0.5-0.2-0.8-0.3s-0.5-0.2-0.7-0.4
			c-0.2-0.2-0.4-0.4-0.5-0.6c-0.1-0.2-0.2-0.5-0.2-0.9c0-0.3,0.1-0.6,0.2-0.9s0.3-0.5,0.6-0.8c0.2-0.2,0.5-0.4,0.9-0.5
			c0.4-0.1,0.8-0.2,1.2-0.2c0.5,0,1,0.1,1.4,0.3c0.4,0.2,0.8,0.4,1.1,0.7L184.7,141.2z"/>
		<path class="st8" d="M190.3,139.8c0.6,0,1.1,0.1,1.6,0.3s0.9,0.5,1.2,0.8c0.3,0.4,0.6,0.8,0.8,1.3c0.2,0.5,0.3,1.1,0.3,1.7
			c0,0.6-0.1,1.2-0.3,1.7s-0.4,0.9-0.8,1.3c-0.3,0.4-0.7,0.6-1.2,0.8c-0.5,0.2-1,0.3-1.6,0.3c-0.6,0-1.1-0.1-1.6-0.3
			c-0.5-0.2-0.9-0.5-1.2-0.8c-0.3-0.4-0.6-0.8-0.8-1.3c-0.2-0.5-0.3-1.1-0.3-1.7c0-0.6,0.1-1.2,0.3-1.7c0.2-0.5,0.4-1,0.8-1.3
			c0.3-0.4,0.7-0.6,1.2-0.8C189.1,139.9,189.7,139.8,190.3,139.8z M190.3,147c0.8,0,1.4-0.3,1.8-0.8s0.6-1.3,0.6-2.2
			c0-1-0.2-1.7-0.6-2.3c-0.4-0.5-1-0.8-1.8-0.8c-0.4,0-0.8,0.1-1.1,0.2c-0.3,0.1-0.5,0.3-0.7,0.6c-0.2,0.3-0.4,0.6-0.4,1
			c-0.1,0.4-0.1,0.8-0.1,1.3c0,0.5,0,0.9,0.1,1.3s0.2,0.7,0.4,1s0.4,0.5,0.7,0.6C189.5,146.9,189.8,147,190.3,147z"/>
		<path class="st8" d="M197.8,137.3c0,0.1,0,0.3-0.1,0.4s-0.1,0.2-0.2,0.3s-0.2,0.2-0.3,0.2c-0.1,0.1-0.3,0.1-0.4,0.1
			s-0.3,0-0.4-0.1c-0.1-0.1-0.2-0.1-0.3-0.2s-0.2-0.2-0.2-0.3c-0.1-0.1-0.1-0.2-0.1-0.4s0-0.3,0.1-0.4c0.1-0.1,0.1-0.2,0.2-0.3
			s0.2-0.2,0.3-0.2c0.1-0.1,0.2-0.1,0.4-0.1s0.3,0,0.4,0.1s0.2,0.1,0.3,0.2c0.1,0.1,0.2,0.2,0.2,0.3
			C197.7,137.1,197.8,137.2,197.8,137.3z M197.5,139.9v8.1H196v-8.1H197.5z"/>
		<path class="st8" d="M200,148v-8.1h0.8c0.2,0,0.3,0.1,0.4,0.3l0.1,0.9c0.4-0.4,0.7-0.7,1.2-0.9s0.9-0.4,1.5-0.4
			c0.4,0,0.8,0.1,1.2,0.2c0.3,0.1,0.6,0.4,0.8,0.6c0.2,0.3,0.4,0.6,0.5,1c0.1,0.4,0.2,0.8,0.2,1.3v5.2h-1.4v-5.2
			c0-0.6-0.1-1.1-0.4-1.4c-0.3-0.3-0.7-0.5-1.3-0.5c-0.4,0-0.8,0.1-1.2,0.3s-0.7,0.5-1,0.8v6L200,148L200,148z"/>
		<path class="st8" d="M213.5,141.2c-0.1,0.1-0.2,0.2-0.3,0.2c-0.1,0-0.2,0-0.3-0.1c-0.1-0.1-0.2-0.1-0.4-0.2
			c-0.1-0.1-0.3-0.1-0.5-0.2c-0.2-0.1-0.4-0.1-0.7-0.1c-0.2,0-0.5,0-0.6,0.1c-0.2,0.1-0.4,0.1-0.5,0.3c-0.1,0.1-0.2,0.2-0.3,0.4
			c-0.1,0.1-0.1,0.3-0.1,0.5c0,0.2,0.1,0.4,0.2,0.5c0.1,0.1,0.3,0.3,0.5,0.4c0.2,0.1,0.4,0.2,0.7,0.3c0.2,0.1,0.5,0.2,0.8,0.2
			c0.3,0.1,0.5,0.2,0.8,0.3c0.2,0.1,0.5,0.2,0.7,0.4s0.4,0.4,0.5,0.6s0.2,0.5,0.2,0.8c0,0.4-0.1,0.7-0.2,1s-0.3,0.6-0.6,0.8
			c-0.3,0.2-0.6,0.4-1,0.5c-0.4,0.1-0.8,0.2-1.3,0.2c-0.6,0-1.1-0.1-1.5-0.3c-0.5-0.2-0.8-0.4-1.2-0.7l0.3-0.5
			c0-0.1,0.1-0.1,0.2-0.2c0.1,0,0.1-0.1,0.2-0.1s0.2,0,0.3,0.1c0.1,0.1,0.2,0.2,0.4,0.2c0.2,0.1,0.3,0.2,0.6,0.2
			c0.2,0.1,0.5,0.1,0.8,0.1c0.3,0,0.5,0,0.7-0.1s0.4-0.2,0.5-0.3s0.2-0.3,0.3-0.4c0.1-0.2,0.1-0.3,0.1-0.5c0-0.2-0.1-0.4-0.2-0.6
			s-0.3-0.3-0.5-0.4c-0.2-0.1-0.4-0.2-0.7-0.3c-0.3-0.1-0.5-0.2-0.8-0.2c-0.3-0.1-0.5-0.2-0.8-0.3s-0.5-0.2-0.7-0.4
			c-0.2-0.2-0.4-0.4-0.5-0.6c-0.1-0.2-0.2-0.5-0.2-0.9c0-0.3,0.1-0.6,0.2-0.9s0.3-0.5,0.6-0.8c0.2-0.2,0.5-0.4,0.9-0.5
			c0.4-0.1,0.8-0.2,1.2-0.2c0.5,0,1,0.1,1.4,0.3c0.4,0.2,0.8,0.4,1.1,0.7L213.5,141.2z"/>
		<path class="st8" d="M218.7,141.1c0-0.1,0-0.3,0.1-0.4c0.1-0.1,0.1-0.2,0.2-0.3s0.2-0.2,0.3-0.2c0.1-0.1,0.3-0.1,0.4-0.1
			s0.3,0,0.4,0.1c0.1,0.1,0.2,0.1,0.3,0.2c0.1,0.1,0.2,0.2,0.2,0.3s0.1,0.3,0.1,0.4c0,0.1,0,0.3-0.1,0.4s-0.1,0.2-0.2,0.3
			s-0.2,0.2-0.3,0.2c-0.1,0.1-0.3,0.1-0.4,0.1s-0.3,0-0.4-0.1s-0.2-0.1-0.3-0.2s-0.2-0.2-0.2-0.3
			C218.8,141.4,218.7,141.3,218.7,141.1z M218.7,147.1c0-0.1,0-0.3,0.1-0.4c0.1-0.1,0.1-0.2,0.2-0.3s0.2-0.2,0.3-0.2
			c0.1-0.1,0.3-0.1,0.4-0.1s0.3,0,0.4,0.1c0.1,0.1,0.2,0.1,0.3,0.2s0.2,0.2,0.2,0.3c0.1,0.1,0.1,0.3,0.1,0.4c0,0.1,0,0.3-0.1,0.4
			c-0.1,0.1-0.1,0.2-0.2,0.3s-0.2,0.2-0.3,0.2c-0.1,0.1-0.3,0.1-0.4,0.1s-0.3,0-0.4-0.1s-0.2-0.1-0.3-0.2s-0.2-0.2-0.2-0.3
			C218.8,147.4,218.7,147.3,218.7,147.1z"/>
		<path class="st8" d="M141.9,168.3c0,0.1-0.1,0.1-0.2,0.2s-0.1,0.1-0.2,0.1c-0.1,0-0.2,0-0.3-0.1c-0.1-0.1-0.3-0.2-0.5-0.3
			c-0.2-0.1-0.4-0.2-0.7-0.3c-0.3-0.1-0.6-0.1-0.9-0.1c-0.3,0-0.7,0-0.9,0.1c-0.3,0.1-0.5,0.2-0.7,0.4s-0.3,0.3-0.4,0.6
			c-0.1,0.2-0.1,0.4-0.1,0.7c0,0.3,0.1,0.6,0.2,0.8c0.2,0.2,0.4,0.4,0.6,0.5c0.3,0.1,0.6,0.3,0.9,0.4c0.3,0.1,0.7,0.2,1,0.3
			c0.3,0.1,0.7,0.2,1,0.4c0.3,0.1,0.6,0.3,0.9,0.6c0.3,0.2,0.5,0.5,0.6,0.8c0.2,0.3,0.2,0.7,0.2,1.2c0,0.5-0.1,1-0.3,1.4
			c-0.2,0.4-0.4,0.8-0.7,1.1s-0.7,0.6-1.2,0.8c-0.5,0.2-1,0.3-1.6,0.3c-0.7,0-1.4-0.1-2-0.4c-0.6-0.3-1.1-0.6-1.6-1.1l0.4-0.7
			c0-0.1,0.1-0.1,0.2-0.1c0.1,0,0.1-0.1,0.2-0.1c0.1,0,0.2,0.1,0.4,0.2s0.3,0.3,0.5,0.4c0.2,0.1,0.5,0.3,0.8,0.4s0.7,0.2,1.1,0.2
			c0.4,0,0.7-0.1,1-0.2c0.3-0.1,0.5-0.2,0.7-0.4c0.2-0.2,0.4-0.4,0.5-0.7c0.1-0.3,0.2-0.5,0.2-0.9c0-0.3-0.1-0.6-0.2-0.9
			c-0.2-0.2-0.4-0.4-0.6-0.6s-0.5-0.3-0.9-0.4s-0.7-0.2-1-0.3c-0.3-0.1-0.7-0.2-1-0.4c-0.3-0.1-0.6-0.3-0.9-0.6s-0.5-0.5-0.6-0.9
			s-0.2-0.8-0.2-1.3c0-0.4,0.1-0.8,0.2-1.2c0.2-0.4,0.4-0.7,0.7-1s0.7-0.5,1.1-0.7s0.9-0.3,1.5-0.3c0.6,0,1.2,0.1,1.8,0.3
			c0.5,0.2,1,0.5,1.4,0.9L141.9,168.3z"/>
		<path class="st8" d="M147.5,169.8c0.5,0,0.9,0.1,1.3,0.2c0.4,0.2,0.8,0.4,1.1,0.7c0.3,0.3,0.5,0.7,0.7,1.1c0.2,0.5,0.3,1,0.3,1.5
			c0,0.2,0,0.4-0.1,0.4c0,0.1-0.1,0.1-0.3,0.1h-5.4c0,0.5,0.1,1,0.2,1.3s0.3,0.7,0.5,0.9c0.2,0.3,0.5,0.4,0.8,0.6
			c0.3,0.1,0.7,0.2,1,0.2c0.4,0,0.7,0,0.9-0.1s0.5-0.2,0.7-0.3c0.2-0.1,0.3-0.2,0.5-0.3c0.1-0.1,0.2-0.1,0.3-0.1
			c0.1,0,0.2,0,0.3,0.1l0.4,0.5c-0.2,0.2-0.4,0.4-0.6,0.6c-0.2,0.2-0.5,0.3-0.8,0.4c-0.3,0.1-0.6,0.2-0.9,0.2
			c-0.3,0.1-0.6,0.1-0.9,0.1c-0.6,0-1.1-0.1-1.5-0.3s-0.9-0.5-1.2-0.8s-0.6-0.8-0.8-1.4c-0.2-0.5-0.3-1.2-0.3-1.9
			c0-0.6,0.1-1.1,0.3-1.6c0.2-0.5,0.4-0.9,0.7-1.3c0.3-0.4,0.7-0.6,1.2-0.8S146.9,169.8,147.5,169.8z M147.5,170.8
			c-0.7,0-1.2,0.2-1.6,0.6c-0.4,0.4-0.6,0.9-0.7,1.7h4.4c0-0.3,0-0.6-0.1-0.9c-0.1-0.3-0.2-0.5-0.4-0.7c-0.2-0.2-0.4-0.4-0.6-0.5
			S147.9,170.8,147.5,170.8z"/>
		<path class="st8" d="M157.3,171.2c-0.1,0.1-0.2,0.2-0.3,0.2c-0.1,0-0.2,0-0.3-0.1c-0.1-0.1-0.2-0.1-0.4-0.2
			c-0.1-0.1-0.3-0.1-0.5-0.2c-0.2-0.1-0.4-0.1-0.7-0.1c-0.2,0-0.5,0-0.6,0.1s-0.4,0.1-0.5,0.3c-0.1,0.1-0.2,0.2-0.3,0.4
			c-0.1,0.1-0.1,0.3-0.1,0.5c0,0.2,0.1,0.4,0.2,0.5c0.1,0.1,0.3,0.3,0.5,0.4c0.2,0.1,0.4,0.2,0.7,0.3c0.2,0.1,0.5,0.2,0.8,0.2
			s0.5,0.2,0.8,0.3c0.2,0.1,0.5,0.2,0.7,0.4s0.4,0.4,0.5,0.6s0.2,0.5,0.2,0.8c0,0.4-0.1,0.7-0.2,1s-0.3,0.6-0.6,0.8
			c-0.3,0.2-0.6,0.4-1,0.5c-0.4,0.1-0.8,0.2-1.3,0.2c-0.6,0-1.1-0.1-1.5-0.3c-0.5-0.2-0.8-0.4-1.2-0.7l0.3-0.5
			c0-0.1,0.1-0.1,0.2-0.2c0.1,0,0.1-0.1,0.2-0.1s0.2,0,0.3,0.1c0.1,0.1,0.2,0.2,0.4,0.2c0.2,0.1,0.3,0.2,0.6,0.2
			c0.2,0.1,0.5,0.1,0.8,0.1c0.3,0,0.5,0,0.7-0.1s0.4-0.2,0.5-0.3s0.2-0.3,0.3-0.4c0.1-0.2,0.1-0.3,0.1-0.5c0-0.2-0.1-0.4-0.2-0.6
			s-0.3-0.3-0.5-0.4c-0.2-0.1-0.4-0.2-0.7-0.3c-0.3-0.1-0.5-0.2-0.8-0.2c-0.3-0.1-0.5-0.2-0.8-0.3s-0.5-0.2-0.7-0.4
			c-0.2-0.2-0.4-0.4-0.5-0.6c-0.1-0.2-0.2-0.5-0.2-0.9c0-0.3,0.1-0.6,0.2-0.9c0.1-0.3,0.3-0.5,0.6-0.8c0.2-0.2,0.5-0.4,0.9-0.5
			c0.4-0.1,0.8-0.2,1.2-0.2c0.5,0,1,0.1,1.4,0.3c0.4,0.2,0.8,0.4,1.1,0.7L157.3,171.2z"/>
		<path class="st8" d="M166,169.8c0.6,0,1.1,0.1,1.6,0.3c0.5,0.2,0.9,0.5,1.2,0.8c0.3,0.4,0.6,0.8,0.8,1.3s0.3,1.1,0.3,1.7
			c0,0.6-0.1,1.2-0.3,1.7s-0.4,0.9-0.8,1.3c-0.3,0.4-0.7,0.6-1.2,0.8c-0.5,0.2-1,0.3-1.6,0.3c-0.6,0-1.1-0.1-1.6-0.3
			c-0.5-0.2-0.9-0.5-1.2-0.8c-0.3-0.4-0.6-0.8-0.8-1.3c-0.2-0.5-0.3-1.1-0.3-1.7c0-0.6,0.1-1.2,0.3-1.7c0.2-0.5,0.4-1,0.8-1.3
			c0.3-0.4,0.7-0.6,1.2-0.8C164.9,169.9,165.4,169.8,166,169.8z M166,177c0.8,0,1.4-0.3,1.8-0.8s0.6-1.3,0.6-2.2
			c0-1-0.2-1.7-0.6-2.3c-0.4-0.5-1-0.8-1.8-0.8c-0.4,0-0.8,0.1-1.1,0.2c-0.3,0.1-0.5,0.3-0.7,0.6c-0.2,0.3-0.4,0.6-0.4,1
			c-0.1,0.4-0.1,0.8-0.1,1.3c0,0.5,0,0.9,0.1,1.3s0.2,0.7,0.4,1s0.4,0.5,0.7,0.6C165.2,176.9,165.6,177,166,177z"/>
		<path class="st8" d="M171.6,178v-11.8h1.4v4.8c0.3-0.4,0.7-0.7,1.2-0.9c0.4-0.2,0.9-0.4,1.5-0.4c0.5,0,0.9,0.1,1.3,0.3
			c0.4,0.2,0.7,0.4,1,0.8c0.3,0.3,0.5,0.8,0.6,1.3s0.2,1.1,0.2,1.8c0,0.6-0.1,1.2-0.2,1.7s-0.4,1-0.7,1.3s-0.7,0.7-1.1,0.9
			s-0.9,0.3-1.5,0.3c-0.5,0-1-0.1-1.3-0.3c-0.4-0.2-0.7-0.5-1-0.8l-0.1,0.7c0,0.2-0.2,0.3-0.4,0.3L171.6,178L171.6,178z
			 M175.3,170.9c-0.5,0-0.9,0.1-1.2,0.3c-0.3,0.2-0.7,0.5-1,0.9v3.9c0.3,0.4,0.5,0.6,0.9,0.7s0.7,0.2,1,0.2c0.8,0,1.3-0.3,1.7-0.8
			c0.4-0.5,0.6-1.3,0.6-2.3c0-0.5,0-1-0.1-1.4s-0.2-0.7-0.4-0.9c-0.2-0.2-0.4-0.4-0.6-0.5C175.9,171,175.6,170.9,175.3,170.9z"/>
		<path class="st8" d="M182.1,169.9v8.7c0,0.3,0,0.6-0.1,0.9s-0.2,0.5-0.4,0.7s-0.4,0.4-0.7,0.5c-0.3,0.1-0.6,0.2-1,0.2
			c-0.2,0-0.3,0-0.5,0s-0.3-0.1-0.4-0.1l0.1-0.8c0-0.1,0-0.1,0.1-0.1c0,0,0.1,0,0.2,0c0,0,0.1,0,0.1,0s0.1,0,0.2,0
			c0.4,0,0.7-0.1,0.9-0.3s0.3-0.5,0.3-0.9v-8.7H182.1z M182.4,167.3c0,0.1,0,0.3-0.1,0.4c-0.1,0.1-0.1,0.2-0.2,0.3
			c-0.1,0.1-0.2,0.2-0.3,0.2c-0.1,0.1-0.3,0.1-0.4,0.1s-0.3,0-0.4-0.1c-0.1-0.1-0.2-0.1-0.3-0.2c-0.1-0.1-0.2-0.2-0.2-0.3
			c-0.1-0.1-0.1-0.2-0.1-0.4c0-0.1,0-0.3,0.1-0.4c0.1-0.1,0.1-0.2,0.2-0.3c0.1-0.1,0.2-0.2,0.3-0.2c0.1-0.1,0.2-0.1,0.4-0.1
			s0.3,0,0.4,0.1c0.1,0.1,0.2,0.1,0.3,0.2c0.1,0.1,0.2,0.2,0.2,0.3S182.4,167.2,182.4,167.3z"/>
		<path class="st8" d="M187.8,169.8c0.5,0,0.9,0.1,1.3,0.2c0.4,0.2,0.8,0.4,1.1,0.7c0.3,0.3,0.5,0.7,0.7,1.1c0.2,0.5,0.3,1,0.3,1.5
			c0,0.2,0,0.4-0.1,0.4c0,0.1-0.1,0.1-0.3,0.1h-5.4c0,0.5,0.1,1,0.2,1.3s0.3,0.7,0.5,0.9c0.2,0.3,0.5,0.4,0.8,0.6
			c0.3,0.1,0.7,0.2,1,0.2c0.4,0,0.7,0,0.9-0.1s0.5-0.2,0.7-0.3c0.2-0.1,0.3-0.2,0.5-0.3c0.1-0.1,0.2-0.1,0.3-0.1
			c0.1,0,0.2,0,0.3,0.1l0.4,0.5c-0.2,0.2-0.4,0.4-0.6,0.6c-0.2,0.2-0.5,0.3-0.8,0.4c-0.3,0.1-0.6,0.2-0.9,0.2
			c-0.3,0.1-0.6,0.1-0.9,0.1c-0.6,0-1.1-0.1-1.5-0.3s-0.9-0.5-1.2-0.8s-0.6-0.8-0.8-1.4c-0.2-0.5-0.3-1.2-0.3-1.9
			c0-0.6,0.1-1.1,0.3-1.6c0.2-0.5,0.4-0.9,0.7-1.3c0.3-0.4,0.7-0.6,1.2-0.8S187.2,169.8,187.8,169.8z M187.8,170.8
			c-0.7,0-1.2,0.2-1.6,0.6c-0.4,0.4-0.6,0.9-0.7,1.7h4.4c0-0.3,0-0.6-0.1-0.9c-0.1-0.3-0.2-0.5-0.4-0.7c-0.2-0.2-0.4-0.4-0.6-0.5
			S188.2,170.8,187.8,170.8z"/>
		<path class="st8" d="M198.5,171.3c0,0.1-0.1,0.1-0.1,0.1c0,0-0.1,0-0.2,0s-0.2,0-0.3-0.1s-0.2-0.1-0.4-0.2s-0.3-0.2-0.5-0.2
			c-0.2-0.1-0.5-0.1-0.8-0.1c-0.4,0-0.7,0.1-1,0.2c-0.3,0.1-0.6,0.3-0.8,0.6c-0.2,0.3-0.4,0.6-0.5,1s-0.2,0.8-0.2,1.3
			c0,0.5,0.1,0.9,0.2,1.3c0.1,0.4,0.3,0.7,0.5,1s0.4,0.5,0.7,0.6c0.3,0.1,0.6,0.2,1,0.2c0.3,0,0.6,0,0.9-0.1
			c0.2-0.1,0.4-0.2,0.6-0.3c0.1-0.1,0.3-0.2,0.4-0.3c0.1-0.1,0.2-0.1,0.3-0.1c0.1,0,0.2,0,0.3,0.1l0.4,0.5c-0.4,0.4-0.8,0.7-1.3,0.9
			c-0.5,0.2-1.1,0.3-1.7,0.3c-0.5,0-1-0.1-1.4-0.3s-0.8-0.5-1.1-0.8c-0.3-0.4-0.6-0.8-0.8-1.3c-0.2-0.5-0.3-1.1-0.3-1.8
			c0-0.6,0.1-1.2,0.3-1.7c0.2-0.5,0.4-1,0.7-1.3c0.3-0.4,0.7-0.7,1.2-0.9s1-0.3,1.6-0.3c0.6,0,1.1,0.1,1.5,0.3
			c0.4,0.2,0.8,0.4,1.2,0.8L198.5,171.3z"/>
		<path class="st8" d="M202.9,178.1c-0.6,0-1.1-0.2-1.5-0.5s-0.5-0.9-0.5-1.5v-5h-1c-0.1,0-0.2,0-0.2-0.1s-0.1-0.1-0.1-0.2v-0.6
			l1.3-0.2l0.3-2.5c0-0.1,0-0.1,0.1-0.2s0.1-0.1,0.2-0.1h0.7v2.8h2.3v1h-2.3v4.9c0,0.3,0.1,0.6,0.2,0.8c0.2,0.2,0.4,0.2,0.6,0.2
			c0.1,0,0.3,0,0.4-0.1s0.2-0.1,0.3-0.1c0.1,0,0.1-0.1,0.2-0.1c0.1,0,0.1-0.1,0.1-0.1c0.1,0,0.1,0,0.2,0.1l0.4,0.7
			c-0.2,0.2-0.5,0.4-0.9,0.5C203.6,178.1,203.3,178.1,202.9,178.1z"/>
		<path class="st8" d="M208.3,167.3c0,0.1,0,0.3-0.1,0.4c-0.1,0.1-0.1,0.2-0.2,0.3c-0.1,0.1-0.2,0.2-0.3,0.2
			c-0.1,0.1-0.3,0.1-0.4,0.1s-0.3,0-0.4-0.1c-0.1-0.1-0.2-0.1-0.3-0.2c-0.1-0.1-0.2-0.2-0.2-0.3c-0.1-0.1-0.1-0.2-0.1-0.4
			c0-0.1,0-0.3,0.1-0.4c0.1-0.1,0.1-0.2,0.2-0.3c0.1-0.1,0.2-0.2,0.3-0.2c0.1-0.1,0.2-0.1,0.4-0.1s0.3,0,0.4,0.1
			c0.1,0.1,0.2,0.1,0.3,0.2c0.1,0.1,0.2,0.2,0.2,0.3S208.3,167.2,208.3,167.3z M208,169.9v8.1h-1.4v-8.1H208z"/>
		<path class="st8" d="M210.8,178v-6.9l-0.9-0.1c-0.1,0-0.2-0.1-0.3-0.1c-0.1-0.1-0.1-0.1-0.1-0.2V170h1.3v-0.8
			c0-0.5,0.1-0.9,0.2-1.2c0.1-0.4,0.3-0.7,0.6-0.9s0.5-0.4,0.9-0.6c0.3-0.1,0.7-0.2,1.2-0.2c0.4,0,0.7,0.1,1,0.2l0,0.7
			c0,0.1-0.1,0.2-0.1,0.2c-0.1,0-0.2,0-0.4,0h-0.2c-0.2,0-0.5,0-0.7,0.1s-0.4,0.2-0.5,0.3c-0.1,0.1-0.3,0.3-0.3,0.6
			c-0.1,0.2-0.1,0.5-0.1,0.9v0.7h2.3v1h-2.3v6.9H210.8z"/>
		<path class="st8" d="M220.6,171.2c-0.1,0.1-0.2,0.2-0.3,0.2c-0.1,0-0.2,0-0.3-0.1c-0.1-0.1-0.2-0.1-0.4-0.2
			c-0.1-0.1-0.3-0.1-0.5-0.2c-0.2-0.1-0.4-0.1-0.7-0.1c-0.2,0-0.5,0-0.6,0.1s-0.4,0.1-0.5,0.3c-0.1,0.1-0.2,0.2-0.3,0.4
			c-0.1,0.1-0.1,0.3-0.1,0.5c0,0.2,0.1,0.4,0.2,0.5c0.1,0.1,0.3,0.3,0.5,0.4c0.2,0.1,0.4,0.2,0.7,0.3c0.2,0.1,0.5,0.2,0.8,0.2
			s0.5,0.2,0.8,0.3c0.2,0.1,0.5,0.2,0.7,0.4s0.4,0.4,0.5,0.6s0.2,0.5,0.2,0.8c0,0.4-0.1,0.7-0.2,1s-0.3,0.6-0.6,0.8
			c-0.3,0.2-0.6,0.4-1,0.5c-0.4,0.1-0.8,0.2-1.3,0.2c-0.6,0-1.1-0.1-1.5-0.3c-0.5-0.2-0.8-0.4-1.2-0.7l0.3-0.5
			c0-0.1,0.1-0.1,0.2-0.2c0.1,0,0.1-0.1,0.2-0.1s0.2,0,0.3,0.1c0.1,0.1,0.2,0.2,0.4,0.2c0.2,0.1,0.3,0.2,0.6,0.2
			c0.2,0.1,0.5,0.1,0.8,0.1c0.3,0,0.5,0,0.7-0.1s0.4-0.2,0.5-0.3s0.2-0.3,0.3-0.4c0.1-0.2,0.1-0.3,0.1-0.5c0-0.2-0.1-0.4-0.2-0.6
			s-0.3-0.3-0.5-0.4c-0.2-0.1-0.4-0.2-0.7-0.3c-0.3-0.1-0.5-0.2-0.8-0.2c-0.3-0.1-0.5-0.2-0.8-0.3s-0.5-0.2-0.7-0.4
			c-0.2-0.2-0.4-0.4-0.5-0.6c-0.1-0.2-0.2-0.5-0.2-0.9c0-0.3,0.1-0.6,0.2-0.9c0.1-0.3,0.3-0.5,0.6-0.8c0.2-0.2,0.5-0.4,0.9-0.5
			c0.4-0.1,0.8-0.2,1.2-0.2c0.5,0,1,0.1,1.4,0.3c0.4,0.2,0.8,0.4,1.1,0.7L220.6,171.2z"/>
		<path class="st8" d="M225.8,171.1c0-0.1,0-0.3,0.1-0.4c0.1-0.1,0.1-0.2,0.2-0.3s0.2-0.2,0.3-0.2c0.1-0.1,0.3-0.1,0.4-0.1
			s0.3,0,0.4,0.1c0.1,0.1,0.2,0.1,0.3,0.2s0.2,0.2,0.2,0.3c0.1,0.1,0.1,0.3,0.1,0.4c0,0.1,0,0.3-0.1,0.4c-0.1,0.1-0.1,0.2-0.2,0.3
			s-0.2,0.2-0.3,0.2c-0.1,0.1-0.3,0.1-0.4,0.1s-0.3,0-0.4-0.1s-0.2-0.1-0.3-0.2s-0.2-0.2-0.2-0.3
			C225.8,171.4,225.8,171.3,225.8,171.1z M225.8,177.1c0-0.1,0-0.3,0.1-0.4c0.1-0.1,0.1-0.2,0.2-0.3s0.2-0.2,0.3-0.2
			c0.1-0.1,0.3-0.1,0.4-0.1s0.3,0,0.4,0.1c0.1,0.1,0.2,0.1,0.3,0.2s0.2,0.2,0.2,0.3c0.1,0.1,0.1,0.3,0.1,0.4c0,0.1,0,0.3-0.1,0.4
			c-0.1,0.1-0.1,0.2-0.2,0.3s-0.2,0.2-0.3,0.2c-0.1,0.1-0.3,0.1-0.4,0.1s-0.3,0-0.4-0.1s-0.2-0.1-0.3-0.2s-0.2-0.2-0.2-0.3
			C225.8,177.4,225.8,177.3,225.8,177.1z"/>
		<path class="st8" d="M141.9,198.3c0,0.1-0.1,0.1-0.2,0.2s-0.1,0.1-0.2,0.1c-0.1,0-0.2,0-0.3-0.1c-0.1-0.1-0.3-0.2-0.5-0.3
			c-0.2-0.1-0.4-0.2-0.7-0.3c-0.3-0.1-0.6-0.1-0.9-0.1c-0.3,0-0.7,0-0.9,0.1c-0.3,0.1-0.5,0.2-0.7,0.4s-0.3,0.3-0.4,0.6
			c-0.1,0.2-0.1,0.4-0.1,0.7c0,0.3,0.1,0.6,0.2,0.8c0.2,0.2,0.4,0.4,0.6,0.5c0.3,0.1,0.6,0.3,0.9,0.4c0.3,0.1,0.7,0.2,1,0.3
			c0.3,0.1,0.7,0.2,1,0.4c0.3,0.1,0.6,0.3,0.9,0.6c0.3,0.2,0.5,0.5,0.6,0.8c0.2,0.3,0.2,0.7,0.2,1.2c0,0.5-0.1,1-0.3,1.4
			c-0.2,0.4-0.4,0.8-0.7,1.1s-0.7,0.6-1.2,0.8c-0.5,0.2-1,0.3-1.6,0.3c-0.7,0-1.4-0.1-2-0.4c-0.6-0.3-1.1-0.6-1.6-1.1l0.4-0.7
			c0-0.1,0.1-0.1,0.2-0.1c0.1,0,0.1-0.1,0.2-0.1c0.1,0,0.2,0.1,0.4,0.2s0.3,0.3,0.5,0.4c0.2,0.1,0.5,0.3,0.8,0.4s0.7,0.2,1.1,0.2
			c0.4,0,0.7-0.1,1-0.2c0.3-0.1,0.5-0.2,0.7-0.4c0.2-0.2,0.4-0.4,0.5-0.7c0.1-0.3,0.2-0.5,0.2-0.9c0-0.3-0.1-0.6-0.2-0.9
			c-0.2-0.2-0.4-0.4-0.6-0.6s-0.5-0.3-0.9-0.4s-0.7-0.2-1-0.3c-0.3-0.1-0.7-0.2-1-0.4c-0.3-0.1-0.6-0.3-0.9-0.6s-0.5-0.5-0.6-0.9
			s-0.2-0.8-0.2-1.3c0-0.4,0.1-0.8,0.2-1.2c0.2-0.4,0.4-0.7,0.7-1s0.7-0.5,1.1-0.7s0.9-0.3,1.5-0.3c0.6,0,1.2,0.1,1.8,0.3
			c0.5,0.2,1,0.5,1.4,0.9L141.9,198.3z"/>
		<path class="st8" d="M147.5,199.8c0.5,0,0.9,0.1,1.3,0.2c0.4,0.2,0.8,0.4,1.1,0.7c0.3,0.3,0.5,0.7,0.7,1.1c0.2,0.5,0.3,1,0.3,1.5
			c0,0.2,0,0.4-0.1,0.4c0,0.1-0.1,0.1-0.3,0.1h-5.4c0,0.5,0.1,1,0.2,1.3s0.3,0.7,0.5,0.9c0.2,0.3,0.5,0.4,0.8,0.6
			c0.3,0.1,0.7,0.2,1,0.2c0.4,0,0.7,0,0.9-0.1s0.5-0.2,0.7-0.3c0.2-0.1,0.3-0.2,0.5-0.3c0.1-0.1,0.2-0.1,0.3-0.1
			c0.1,0,0.2,0,0.3,0.1l0.4,0.5c-0.2,0.2-0.4,0.4-0.6,0.6c-0.2,0.2-0.5,0.3-0.8,0.4c-0.3,0.1-0.6,0.2-0.9,0.2
			c-0.3,0.1-0.6,0.1-0.9,0.1c-0.6,0-1.1-0.1-1.5-0.3s-0.9-0.5-1.2-0.8s-0.6-0.8-0.8-1.4c-0.2-0.5-0.3-1.2-0.3-1.9
			c0-0.6,0.1-1.1,0.3-1.6c0.2-0.5,0.4-0.9,0.7-1.3c0.3-0.4,0.7-0.6,1.2-0.8S146.9,199.8,147.5,199.8z M147.5,200.8
			c-0.7,0-1.2,0.2-1.6,0.6c-0.4,0.4-0.6,0.9-0.7,1.7h4.4c0-0.3,0-0.6-0.1-0.9c-0.1-0.3-0.2-0.5-0.4-0.7c-0.2-0.2-0.4-0.4-0.6-0.5
			S147.9,200.8,147.5,200.8z"/>
		<path class="st8" d="M157.3,201.2c-0.1,0.1-0.2,0.2-0.3,0.2c-0.1,0-0.2,0-0.3-0.1c-0.1-0.1-0.2-0.1-0.4-0.2
			c-0.1-0.1-0.3-0.1-0.5-0.2c-0.2-0.1-0.4-0.1-0.7-0.1c-0.2,0-0.5,0-0.6,0.1s-0.4,0.1-0.5,0.3c-0.1,0.1-0.2,0.2-0.3,0.4
			c-0.1,0.1-0.1,0.3-0.1,0.5c0,0.2,0.1,0.4,0.2,0.5c0.1,0.1,0.3,0.3,0.5,0.4c0.2,0.1,0.4,0.2,0.7,0.3c0.2,0.1,0.5,0.2,0.8,0.2
			s0.5,0.2,0.8,0.3c0.2,0.1,0.5,0.2,0.7,0.4s0.4,0.4,0.5,0.6s0.2,0.5,0.2,0.8c0,0.4-0.1,0.7-0.2,1s-0.3,0.6-0.6,0.8
			c-0.3,0.2-0.6,0.4-1,0.5c-0.4,0.1-0.8,0.2-1.3,0.2c-0.6,0-1.1-0.1-1.5-0.3c-0.5-0.2-0.8-0.4-1.2-0.7l0.3-0.5
			c0-0.1,0.1-0.1,0.2-0.2c0.1,0,0.1-0.1,0.2-0.1s0.2,0,0.3,0.1c0.1,0.1,0.2,0.2,0.4,0.2c0.2,0.1,0.3,0.2,0.6,0.2
			c0.2,0.1,0.5,0.1,0.8,0.1c0.3,0,0.5,0,0.7-0.1s0.4-0.2,0.5-0.3s0.2-0.3,0.3-0.4c0.1-0.2,0.1-0.3,0.1-0.5c0-0.2-0.1-0.4-0.2-0.6
			s-0.3-0.3-0.5-0.4c-0.2-0.1-0.4-0.2-0.7-0.3c-0.3-0.1-0.5-0.2-0.8-0.2c-0.3-0.1-0.5-0.2-0.8-0.3s-0.5-0.2-0.7-0.4
			c-0.2-0.2-0.4-0.4-0.5-0.6c-0.1-0.2-0.2-0.5-0.2-0.9c0-0.3,0.1-0.6,0.2-0.9c0.1-0.3,0.3-0.5,0.6-0.8c0.2-0.2,0.5-0.4,0.9-0.5
			c0.4-0.1,0.8-0.2,1.2-0.2c0.5,0,1,0.1,1.4,0.3c0.4,0.2,0.8,0.4,1.1,0.7L157.3,201.2z"/>
		<path class="st8" d="M162.7,210.7v-10.8h0.8c0.2,0,0.3,0.1,0.4,0.3l0.1,1c0.3-0.4,0.7-0.8,1.2-1s1-0.4,1.5-0.4
			c0.5,0,0.9,0.1,1.3,0.3c0.4,0.2,0.7,0.4,1,0.8c0.3,0.4,0.5,0.8,0.6,1.3c0.1,0.5,0.2,1.1,0.2,1.8c0,0.6-0.1,1.2-0.2,1.7
			s-0.4,1-0.7,1.3c-0.3,0.4-0.7,0.7-1.1,0.9c-0.4,0.2-0.9,0.3-1.5,0.3c-0.5,0-0.9-0.1-1.3-0.2c-0.4-0.2-0.7-0.4-0.9-0.7v3.6
			L162.7,210.7L162.7,210.7z M166.3,200.9c-0.5,0-0.9,0.1-1.2,0.3c-0.4,0.2-0.7,0.5-1,0.9v3.9c0.3,0.4,0.5,0.6,0.9,0.7
			s0.7,0.2,1,0.2c0.8,0,1.3-0.3,1.7-0.8c0.4-0.5,0.6-1.3,0.6-2.3c0-0.5,0-1-0.1-1.4s-0.2-0.7-0.4-0.9c-0.2-0.2-0.4-0.4-0.6-0.5
			C166.9,201,166.6,200.9,166.3,200.9z"/>
		<path class="st8" d="M177.5,208h-0.6c-0.1,0-0.2,0-0.3-0.1c-0.1,0-0.1-0.1-0.2-0.3l-0.2-0.8c-0.2,0.2-0.4,0.4-0.6,0.5
			c-0.2,0.2-0.4,0.3-0.6,0.4s-0.5,0.2-0.7,0.2c-0.3,0.1-0.5,0.1-0.8,0.1c-0.3,0-0.6,0-0.9-0.1c-0.3-0.1-0.5-0.2-0.7-0.4
			c-0.2-0.2-0.4-0.4-0.5-0.7s-0.2-0.6-0.2-1c0-0.3,0.1-0.6,0.3-0.9c0.2-0.3,0.5-0.6,0.9-0.8c0.4-0.2,0.9-0.4,1.5-0.6
			c0.6-0.1,1.4-0.2,2.3-0.2v-0.6c0-0.6-0.1-1.1-0.4-1.4c-0.3-0.3-0.7-0.5-1.2-0.5c-0.3,0-0.6,0-0.9,0.1s-0.4,0.2-0.6,0.3
			s-0.3,0.2-0.4,0.3c-0.1,0.1-0.2,0.1-0.4,0.1c-0.1,0-0.2,0-0.3-0.1c-0.1-0.1-0.1-0.1-0.2-0.2l-0.3-0.5c0.4-0.4,0.9-0.8,1.4-1
			c0.5-0.2,1.1-0.3,1.7-0.3c0.5,0,0.9,0.1,1.2,0.2c0.4,0.1,0.6,0.4,0.9,0.6c0.2,0.3,0.4,0.6,0.5,1c0.1,0.4,0.2,0.8,0.2,1.2
			L177.5,208L177.5,208z M173.8,207.1c0.3,0,0.5,0,0.7-0.1s0.4-0.1,0.6-0.2c0.2-0.1,0.4-0.2,0.5-0.3c0.2-0.1,0.3-0.3,0.5-0.5v-1.7
			c-0.7,0-1.2,0-1.7,0.1c-0.5,0.1-0.8,0.2-1.1,0.3c-0.3,0.1-0.5,0.3-0.6,0.5c-0.1,0.2-0.2,0.4-0.2,0.6c0,0.2,0,0.4,0.1,0.6
			c0.1,0.2,0.2,0.3,0.3,0.4c0.1,0.1,0.3,0.2,0.4,0.2C173.4,207.1,173.6,207.1,173.8,207.1z"/>
		<path class="st8" d="M179.6,208v-8.1h0.8c0.2,0,0.3,0,0.3,0.1c0.1,0.1,0.1,0.2,0.1,0.3l0.1,1.3c0.3-0.6,0.6-1,1-1.3
			c0.4-0.3,0.9-0.5,1.4-0.5c0.2,0,0.4,0,0.6,0.1c0.2,0.1,0.4,0.1,0.5,0.2l-0.2,1.1c0,0.1-0.1,0.2-0.2,0.2c-0.1,0-0.2,0-0.3-0.1
			c-0.2-0.1-0.4-0.1-0.6-0.1c-0.5,0-0.9,0.1-1.2,0.4c-0.3,0.3-0.6,0.7-0.8,1.3v5.2L179.6,208L179.6,208z"/>
		<path class="st8" d="M188.6,208.1c-0.6,0-1.1-0.2-1.5-0.5s-0.5-0.9-0.5-1.5v-5h-1c-0.1,0-0.2,0-0.2-0.1s-0.1-0.1-0.1-0.2v-0.6
			l1.3-0.2l0.3-2.5c0-0.1,0-0.1,0.1-0.2s0.1-0.1,0.2-0.1h0.7v2.8h2.3v1H188v4.9c0,0.3,0.1,0.6,0.2,0.8c0.2,0.2,0.4,0.2,0.6,0.2
			c0.1,0,0.3,0,0.4-0.1s0.2-0.1,0.3-0.1c0.1,0,0.1-0.1,0.2-0.1c0.1,0,0.1-0.1,0.1-0.1c0.1,0,0.1,0,0.2,0.1l0.4,0.7
			c-0.2,0.2-0.5,0.4-0.9,0.5C189.3,208.1,188.9,208.1,188.6,208.1z"/>
		<path class="st8" d="M194,197.3c0,0.1,0,0.3-0.1,0.4c-0.1,0.1-0.1,0.2-0.2,0.3c-0.1,0.1-0.2,0.2-0.3,0.2c-0.1,0.1-0.3,0.1-0.4,0.1
			s-0.3,0-0.4-0.1c-0.1-0.1-0.2-0.1-0.3-0.2c-0.1-0.1-0.2-0.2-0.2-0.3c-0.1-0.1-0.1-0.2-0.1-0.4c0-0.1,0-0.3,0.1-0.4
			c0.1-0.1,0.1-0.2,0.2-0.3c0.1-0.1,0.2-0.2,0.3-0.2c0.1-0.1,0.2-0.1,0.4-0.1s0.3,0,0.4,0.1c0.1,0.1,0.2,0.1,0.3,0.2
			c0.1,0.1,0.2,0.2,0.2,0.3S194,197.2,194,197.3z M193.6,199.9v8.1h-1.4v-8.1H193.6z"/>
		<path class="st8" d="M201.7,201.3c0,0.1-0.1,0.1-0.1,0.1c0,0-0.1,0-0.2,0s-0.2,0-0.3-0.1s-0.2-0.1-0.4-0.2s-0.3-0.2-0.5-0.2
			c-0.2-0.1-0.5-0.1-0.8-0.1c-0.4,0-0.7,0.1-1,0.2c-0.3,0.1-0.6,0.3-0.8,0.6c-0.2,0.3-0.4,0.6-0.5,1s-0.2,0.8-0.2,1.3
			c0,0.5,0.1,0.9,0.2,1.3c0.1,0.4,0.3,0.7,0.5,1s0.4,0.5,0.7,0.6c0.3,0.1,0.6,0.2,1,0.2c0.3,0,0.6,0,0.9-0.1
			c0.2-0.1,0.4-0.2,0.6-0.3c0.1-0.1,0.3-0.2,0.4-0.3c0.1-0.1,0.2-0.1,0.3-0.1c0.1,0,0.2,0,0.3,0.1l0.4,0.5c-0.4,0.4-0.8,0.7-1.3,0.9
			c-0.5,0.2-1.1,0.3-1.7,0.3c-0.5,0-1-0.1-1.4-0.3s-0.8-0.5-1.1-0.8c-0.3-0.4-0.6-0.8-0.8-1.3c-0.2-0.5-0.3-1.1-0.3-1.8
			c0-0.6,0.1-1.2,0.3-1.7c0.2-0.5,0.4-1,0.7-1.3c0.3-0.4,0.7-0.7,1.2-0.9s1-0.3,1.6-0.3c0.6,0,1.1,0.1,1.5,0.3
			c0.4,0.2,0.8,0.4,1.2,0.8L201.7,201.3z"/>
		<path class="st8" d="M204.9,199.9v5.2c0,0.6,0.1,1.1,0.4,1.4c0.3,0.3,0.7,0.5,1.3,0.5c0.4,0,0.8-0.1,1.2-0.3s0.7-0.5,1-0.8v-6h1.4
			v8.1h-0.8c-0.2,0-0.3-0.1-0.4-0.3l-0.1-0.9c-0.4,0.4-0.7,0.7-1.2,0.9c-0.4,0.2-0.9,0.4-1.5,0.4c-0.4,0-0.8-0.1-1.2-0.2
			c-0.3-0.1-0.6-0.4-0.9-0.6c-0.2-0.3-0.4-0.6-0.5-1s-0.2-0.8-0.2-1.3v-5.2L204.9,199.9L204.9,199.9z"/>
		<path class="st8" d="M214.1,196.2V208h-1.4v-11.8H214.1z"/>
		<path class="st8" d="M222.6,208h-0.6c-0.1,0-0.2,0-0.3-0.1c-0.1,0-0.1-0.1-0.2-0.3l-0.2-0.8c-0.2,0.2-0.4,0.4-0.6,0.5
			c-0.2,0.2-0.4,0.3-0.6,0.4s-0.5,0.2-0.7,0.2c-0.3,0.1-0.5,0.1-0.8,0.1c-0.3,0-0.6,0-0.9-0.1c-0.3-0.1-0.5-0.2-0.7-0.4
			c-0.2-0.2-0.4-0.4-0.5-0.7s-0.2-0.6-0.2-1c0-0.3,0.1-0.6,0.3-0.9c0.2-0.3,0.5-0.6,0.9-0.8c0.4-0.2,0.9-0.4,1.5-0.6
			c0.6-0.1,1.4-0.2,2.3-0.2v-0.6c0-0.6-0.1-1.1-0.4-1.4c-0.3-0.3-0.7-0.5-1.2-0.5c-0.3,0-0.6,0-0.9,0.1s-0.4,0.2-0.6,0.3
			s-0.3,0.2-0.4,0.3c-0.1,0.1-0.2,0.1-0.4,0.1c-0.1,0-0.2,0-0.3-0.1c-0.1-0.1-0.1-0.1-0.2-0.2l-0.3-0.5c0.4-0.4,0.9-0.8,1.4-1
			c0.5-0.2,1.1-0.3,1.7-0.3c0.5,0,0.9,0.1,1.2,0.2c0.4,0.1,0.6,0.4,0.9,0.6c0.2,0.3,0.4,0.6,0.5,1c0.1,0.4,0.2,0.8,0.2,1.2
			L222.6,208L222.6,208z M218.9,207.1c0.3,0,0.5,0,0.7-0.1s0.4-0.1,0.6-0.2c0.2-0.1,0.4-0.2,0.5-0.3c0.2-0.1,0.3-0.3,0.5-0.5v-1.7
			c-0.7,0-1.2,0-1.7,0.1c-0.5,0.1-0.8,0.2-1.1,0.3c-0.3,0.1-0.5,0.3-0.6,0.5c-0.1,0.2-0.2,0.4-0.2,0.6c0,0.2,0,0.4,0.1,0.6
			c0.1,0.2,0.2,0.3,0.3,0.4c0.1,0.1,0.3,0.2,0.4,0.2C218.5,207.1,218.7,207.1,218.9,207.1z"/>
		<path class="st8" d="M224.7,208v-8.1h0.8c0.2,0,0.3,0,0.3,0.1c0.1,0.1,0.1,0.2,0.1,0.3l0.1,1.3c0.3-0.6,0.6-1,1-1.3
			c0.4-0.3,0.9-0.5,1.4-0.5c0.2,0,0.4,0,0.6,0.1c0.2,0.1,0.4,0.1,0.5,0.2l-0.2,1.1c0,0.1-0.1,0.2-0.2,0.2c-0.1,0-0.2,0-0.3-0.1
			c-0.2-0.1-0.4-0.1-0.6-0.1c-0.5,0-0.9,0.1-1.2,0.4c-0.3,0.3-0.6,0.7-0.8,1.3v5.2L224.7,208L224.7,208z"/>
		<path class="st8" d="M233.1,197.3c0,0.1,0,0.3-0.1,0.4c-0.1,0.1-0.1,0.2-0.2,0.3c-0.1,0.1-0.2,0.2-0.3,0.2
			c-0.1,0.1-0.3,0.1-0.4,0.1s-0.3,0-0.4-0.1c-0.1-0.1-0.2-0.1-0.3-0.2c-0.1-0.1-0.2-0.2-0.2-0.3c-0.1-0.1-0.1-0.2-0.1-0.4
			c0-0.1,0-0.3,0.1-0.4c0.1-0.1,0.1-0.2,0.2-0.3c0.1-0.1,0.2-0.2,0.3-0.2c0.1-0.1,0.2-0.1,0.4-0.1s0.3,0,0.4,0.1
			c0.1,0.1,0.2,0.1,0.3,0.2c0.1,0.1,0.2,0.2,0.2,0.3S233.1,197.2,233.1,197.3z M232.8,199.9v8.1h-1.4v-8.1H232.8z"/>
		<path class="st8" d="M237.7,208.1c-0.6,0-1.1-0.2-1.5-0.5s-0.5-0.9-0.5-1.5v-5h-1c-0.1,0-0.2,0-0.2-0.1s-0.1-0.1-0.1-0.2v-0.6
			l1.3-0.2l0.3-2.5c0-0.1,0-0.1,0.1-0.2s0.1-0.1,0.2-0.1h0.7v2.8h2.3v1h-2.3v4.9c0,0.3,0.1,0.6,0.2,0.8c0.2,0.2,0.4,0.2,0.6,0.2
			c0.1,0,0.3,0,0.4-0.1s0.2-0.1,0.3-0.1c0.1,0,0.1-0.1,0.2-0.1c0.1,0,0.1-0.1,0.1-0.1c0.1,0,0.1,0,0.2,0.1l0.4,0.7
			c-0.2,0.2-0.5,0.4-0.9,0.5C238.5,208.1,238.1,208.1,237.7,208.1z"/>
		<path class="st8" d="M244.5,199.8c0.5,0,0.9,0.1,1.3,0.2c0.4,0.2,0.8,0.4,1.1,0.7s0.5,0.7,0.7,1.1c0.2,0.5,0.3,1,0.3,1.5
			c0,0.2,0,0.4-0.1,0.4c0,0.1-0.1,0.1-0.3,0.1h-5.4c0,0.5,0.1,1,0.2,1.3s0.3,0.7,0.5,0.9c0.2,0.3,0.5,0.4,0.8,0.6
			c0.3,0.1,0.7,0.2,1,0.2c0.4,0,0.7,0,0.9-0.1s0.5-0.2,0.7-0.3c0.2-0.1,0.3-0.2,0.5-0.3c0.1-0.1,0.2-0.1,0.3-0.1
			c0.1,0,0.2,0,0.3,0.1l0.4,0.5c-0.2,0.2-0.4,0.4-0.6,0.6s-0.5,0.3-0.8,0.4c-0.3,0.1-0.6,0.2-0.9,0.2s-0.6,0.1-0.9,0.1
			c-0.6,0-1.1-0.1-1.5-0.3c-0.5-0.2-0.9-0.5-1.2-0.8c-0.3-0.4-0.6-0.8-0.8-1.4c-0.2-0.5-0.3-1.2-0.3-1.9c0-0.6,0.1-1.1,0.3-1.6
			c0.2-0.5,0.4-0.9,0.7-1.3c0.3-0.4,0.7-0.6,1.2-0.8S243.9,199.8,244.5,199.8z M244.5,200.8c-0.7,0-1.2,0.2-1.6,0.6
			s-0.6,0.9-0.7,1.7h4.4c0-0.3,0-0.6-0.1-0.9c-0.1-0.3-0.2-0.5-0.4-0.7c-0.2-0.2-0.4-0.4-0.6-0.5
			C245.1,200.9,244.8,200.8,244.5,200.8z M246.8,196.4l-1.9,2.1c-0.1,0.1-0.1,0.1-0.2,0.2c-0.1,0-0.2,0.1-0.3,0.1h-0.8l1.2-1.9
			c0.1-0.1,0.2-0.2,0.2-0.3c0.1-0.1,0.2-0.1,0.4-0.1L246.8,196.4L246.8,196.4z"/>
		<path class="st8" d="M254.3,201.2c-0.1,0.1-0.2,0.2-0.3,0.2c-0.1,0-0.2,0-0.3-0.1c-0.1-0.1-0.2-0.1-0.4-0.2s-0.3-0.1-0.5-0.2
			c-0.2-0.1-0.4-0.1-0.7-0.1c-0.2,0-0.5,0-0.6,0.1c-0.2,0.1-0.4,0.1-0.5,0.3c-0.1,0.1-0.2,0.2-0.3,0.4c-0.1,0.1-0.1,0.3-0.1,0.5
			c0,0.2,0.1,0.4,0.2,0.5s0.3,0.3,0.5,0.4c0.2,0.1,0.4,0.2,0.7,0.3c0.3,0.1,0.5,0.2,0.8,0.2s0.5,0.2,0.8,0.3
			c0.3,0.1,0.5,0.2,0.7,0.4c0.2,0.2,0.4,0.4,0.5,0.6c0.1,0.2,0.2,0.5,0.2,0.8c0,0.4-0.1,0.7-0.2,1c-0.1,0.3-0.3,0.6-0.6,0.8
			c-0.3,0.2-0.6,0.4-1,0.5c-0.4,0.1-0.8,0.2-1.3,0.2c-0.6,0-1.1-0.1-1.5-0.3s-0.8-0.4-1.2-0.7l0.3-0.5c0-0.1,0.1-0.1,0.2-0.2
			c0.1,0,0.1-0.1,0.2-0.1s0.2,0,0.3,0.1c0.1,0.1,0.2,0.2,0.4,0.2c0.2,0.1,0.3,0.2,0.6,0.2c0.2,0.1,0.5,0.1,0.8,0.1
			c0.3,0,0.5,0,0.7-0.1s0.4-0.2,0.5-0.3s0.2-0.3,0.3-0.4s0.1-0.3,0.1-0.5c0-0.2-0.1-0.4-0.2-0.6s-0.3-0.3-0.5-0.4
			c-0.2-0.1-0.4-0.2-0.7-0.3c-0.3-0.1-0.5-0.2-0.8-0.2c-0.3-0.1-0.5-0.2-0.8-0.3s-0.5-0.2-0.7-0.4s-0.4-0.4-0.5-0.6
			c-0.1-0.2-0.2-0.5-0.2-0.9c0-0.3,0.1-0.6,0.2-0.9c0.1-0.3,0.3-0.5,0.6-0.8c0.2-0.2,0.5-0.4,0.9-0.5s0.8-0.2,1.2-0.2
			c0.5,0,1,0.1,1.4,0.3c0.4,0.2,0.8,0.4,1.1,0.7L254.3,201.2z"/>
		<path class="st8" d="M259.5,201.1c0-0.1,0-0.3,0.1-0.4c0.1-0.1,0.1-0.2,0.2-0.3c0.1-0.1,0.2-0.2,0.3-0.2c0.1-0.1,0.3-0.1,0.4-0.1
			s0.3,0,0.4,0.1c0.1,0.1,0.2,0.1,0.3,0.2c0.1,0.1,0.2,0.2,0.2,0.3c0,0.1,0.1,0.3,0.1,0.4c0,0.1,0,0.3-0.1,0.4
			c-0.1,0.1-0.1,0.2-0.2,0.3c-0.1,0.1-0.2,0.2-0.3,0.2c-0.1,0.1-0.3,0.1-0.4,0.1s-0.3,0-0.4-0.1s-0.2-0.1-0.3-0.2s-0.2-0.2-0.2-0.3
			C259.5,201.4,259.5,201.3,259.5,201.1z M259.5,207.1c0-0.1,0-0.3,0.1-0.4c0.1-0.1,0.1-0.2,0.2-0.3c0.1-0.1,0.2-0.2,0.3-0.2
			c0.1-0.1,0.3-0.1,0.4-0.1s0.3,0,0.4,0.1c0.1,0.1,0.2,0.1,0.3,0.2c0.1,0.1,0.2,0.2,0.2,0.3c0,0.1,0.1,0.3,0.1,0.4
			c0,0.1,0,0.3-0.1,0.4c-0.1,0.1-0.1,0.2-0.2,0.3c-0.1,0.1-0.2,0.2-0.3,0.2c-0.1,0.1-0.3,0.1-0.4,0.1s-0.3,0-0.4-0.1
			s-0.2-0.1-0.3-0.2s-0.2-0.2-0.2-0.3C259.5,207.4,259.5,207.3,259.5,207.1z"/>
	</g>
</g>
</svg>
