<?xml version="1.0" encoding="utf-8"?>
<!-- Generator: Adobe Illustrator 22.0.1, SVG Export Plug-In . SVG Version: 6.00 Build 0)  -->
<svg version="1.1" id="Calque_1" xmlns="http://www.w3.org/2000/svg" xmlns:xlink="http://www.w3.org/1999/xlink" x="0px" y="0px"
	 viewBox="0 0 509.7 257" style="enable-background:new 0 0 509.7 257;" xml:space="preserve">
<style type="text/css">
	.st0{fill:#E8E7E8;}
	.st1{fill:#FFFFFF;}
	.st2{fill:#4C4846;}
	.st3{fill:#5F5C5A;}
	.st4{fill:#FFFFFF;stroke:#000000;stroke-width:3;stroke-miterlimit:10;}
	.st5{fill:#EFEFEF;}
	.st6{fill:#49C1CE;}
	.st7{fill:#8548A8;}
	.st8{fill:none;stroke:#CCCECE;stroke-miterlimit:10;}
	.st9{fill:#FFFFFF;stroke:#121414;stroke-miterlimit:10;}
	.st10{fill:none;stroke:#22AA29;stroke-miterlimit:10;}
	.st11{fill:none;stroke:#E51010;stroke-miterlimit:10;}
	.st12{fill:none;stroke:#F7E53E;stroke-miterlimit:10;}
	.st13{fill:#FCB239;}
	.st14{fill:#5A9E3B;}
	.st15{fill:#C61443;}
	.st16{fill:#2849A5;}
	.st17{fill:none;}
	.st18{enable-background:new    ;}
	.st19{fill:#FFFFFF;stroke:#3C3C3C;stroke-miterlimit:10;}
	.st20{fill:none;stroke:#FFFFFF;stroke-width:0.5;stroke-miterlimit:10;}
	.st21{fill:none;stroke:#3C3C3C;stroke-miterlimit:10;}
	.st22{fill:none;stroke:#FCB239;stroke-miterlimit:10;}
</style>
<g id="Calque_3">
	<g id="Ordinateur_portable_1_">
		<g>
			<rect x="212.4" y="247.8" class="st0" width="85.1" height="4.8"/>
		</g>
		<g>
			<polygon class="st0" points="216.5,240.1 212.4,247.8 297.4,247.8 293.3,240.1 			"/>
			<path class="st1" d="M297.4,249h-85.1c-0.4,0-0.8-0.2-1-0.6c-0.2-0.4-0.2-0.8,0-1.2l4.1-7.7c0.2-0.4,0.6-0.6,1.1-0.6h76.8
				c0.4,0,0.9,0.2,1.1,0.6l4.1,7.7c0.2,0.4,0.2,0.8,0,1.2C298.2,248.8,297.9,249,297.4,249z M214.4,246.6h81l-2.8-5.2h-75.3
				L214.4,246.6z"/>
		</g>
		<g>
			<rect x="216.5" y="186.7" class="st2" width="76.8" height="53.4"/>
		</g>
		<g>
			<path class="st2" d="M293.3,241.3h-76.8c-0.7,0-1.2-0.5-1.2-1.2v-53.4c0-0.7,0.5-1.2,1.2-1.2h76.8c0.7,0,1.2,0.5,1.2,1.2v53.4
				C294.5,240.8,293.9,241.3,293.3,241.3z M217.7,238.9h74.4v-51h-74.4V238.9z"/>
		</g>
		<g>
			<path class="st2" d="M297.4,249h-85.1c-0.4,0-0.8-0.2-1-0.6c-0.2-0.4-0.2-0.8,0-1.2l4.1-7.7c0.2-0.4,0.6-0.6,1.1-0.6h76.8
				c0.4,0,0.9,0.2,1.1,0.6l4.1,7.7c0.2,0.4,0.2,0.8,0,1.2C298.2,248.8,297.9,249,297.4,249z M214.4,246.6h81l-2.8-5.2h-75.3
				L214.4,246.6z"/>
		</g>
		<g>
			<path class="st2" d="M297.4,253.8h-85.1c-0.7,0-1.2-0.5-1.2-1.2v-4.8c0-0.7,0.5-1.2,1.2-1.2h85.1c0.7,0,1.2,0.5,1.2,1.2v4.8
				C298.6,253.3,298.1,253.8,297.4,253.8z M213.6,251.4h82.7V249h-82.7V251.4z"/>
		</g>
		<g>
			<rect x="220.4" y="190.6" class="st3" width="69.1" height="45.7"/>
		</g>
	</g>
	<path class="st4" d="M504.1,242.3H398.5c-1,0-1.8-0.8-1.8-1.8v-72.7c0-1,0.8-1.8,1.8-1.8h105.5c1,0,1.8,0.8,1.8,1.8v72.7
		C505.9,241.5,505.1,242.3,504.1,242.3z"/>
	<rect x="439.6" y="243.1" width="22.8" height="6.2"/>
	<rect x="415.7" y="249.3" width="71.3" height="3.3"/>
	<rect x="403.3" y="170.9" class="st5" width="93.2" height="67.9"/>
	<rect x="406.5" y="200.4" class="st1" width="27.9" height="15.1"/>
	<rect x="466.1" y="200.4" class="st1" width="27.9" height="15.1"/>
	<rect x="436.3" y="200.4" class="st1" width="27.9" height="15.1"/>
	<rect x="436.3" y="222.4" class="st6" width="57.7" height="13.4"/>
	<rect x="406.5" y="173.7" class="st7" width="87.5" height="18.5"/>
	<line class="st8" x1="406.5" y1="223.1" x2="434.4" y2="223.1"/>
	<line class="st8" x1="406.5" y1="226.2" x2="434.4" y2="226.2"/>
	<line class="st8" x1="406.5" y1="229.3" x2="434.4" y2="229.3"/>
	<line class="st8" x1="406.5" y1="232.6" x2="428.4" y2="232.6"/>
	<path class="st4" d="M307.6,79.6H202.1c-1,0-1.8-0.8-1.8-1.8V5.1c0-1,0.8-1.8,1.8-1.8h105.5c1,0,1.8,0.8,1.8,1.8v72.7
		C309.4,78.8,308.6,79.6,307.6,79.6z"/>
	<rect x="243.2" y="80.4" width="22.8" height="6.2"/>
	<rect x="219.2" y="86.6" width="71.3" height="3.3"/>
	<rect x="202.1" y="4.9" class="st9" width="105.6" height="73.4"/>
	<line class="st10" x1="208.9" y1="26.8" x2="298.6" y2="26.8"/>
	<line class="st11" x1="208.9" y1="30" x2="298.6" y2="30"/>
	<line class="st11" x1="208.9" y1="33.1" x2="298.6" y2="33.1"/>
	<line class="st11" x1="208.9" y1="36.3" x2="279.5" y2="36.3"/>
	<line class="st12" x1="208.9" y1="42.2" x2="250.2" y2="42.2"/>
	<line class="st12" x1="208.9" y1="45.4" x2="250.2" y2="45.4"/>
	<line class="st12" x1="208.9" y1="49" x2="250.2" y2="49"/>
	<line class="st12" x1="208.9" y1="52.2" x2="250.2" y2="52.2"/>
	<line class="st12" x1="208.9" y1="55.2" x2="250.2" y2="55.2"/>
	<rect x="220.4" y="190.6" class="st5" width="70.2" height="46.1"/>
	<rect x="222.7" y="211.5" class="st1" width="21" height="10.7"/>
	<rect x="267.7" y="211.5" class="st1" width="21" height="10.7"/>
	<rect x="245.2" y="211.5" class="st1" width="21" height="10.7"/>
	<rect x="245.2" y="226" class="st6" width="43.5" height="9.7"/>
	<rect x="222.7" y="192.6" class="st7" width="65.9" height="13.2"/>
	<line class="st8" x1="222.7" y1="227.2" x2="243.8" y2="227.2"/>
	<line class="st8" x1="222.7" y1="230" x2="243.8" y2="230"/>
	<line class="st8" x1="222.7" y1="232.8" x2="243.8" y2="232.8"/>
	<line class="st8" x1="222.7" y1="235.7" x2="239.3" y2="235.7"/>
	<path class="st2" d="M32.5,250.4H19.4c-2.6,0-4.7-2.1-4.7-4.7V213c0-2.6,2.1-4.7,4.7-4.7h13.1c2.6,0,4.7,2.1,4.7,4.7v32.8
		C37.2,248.3,35.1,250.4,32.5,250.4z"/>
	<rect x="17.1" y="210.7" class="st1" width="17.7" height="36.7"/>
	<rect x="17.1" y="210.7" class="st5" width="17.7" height="36.7"/>
	<rect x="17.3" y="211.5" class="st7" width="17.3" height="9.1"/>
	<rect x="17.3" y="221.7" class="st1" width="17.3" height="8.8"/>
	<line class="st8" x1="17.3" y1="233.1" x2="34.6" y2="233.1"/>
	<line class="st8" x1="17.3" y1="235.4" x2="34.6" y2="235.4"/>
	<line class="st8" x1="17.3" y1="237.7" x2="34.6" y2="237.7"/>
	<line class="st8" x1="17.3" y1="240.1" x2="30.9" y2="240.1"/>
	<rect x="17.3" y="242.5" class="st6" width="17.3" height="5"/>
	<rect x="280.5" y="41.5" class="st7" width="15.1" height="15.1"/>
	<rect x="259.1" y="41.5" class="st13" width="15.1" height="15.1"/>
	<rect x="211.7" y="9" class="st14" width="26" height="15.1"/>
	<rect x="240.6" y="9" class="st15" width="26" height="15.1"/>
	<path class="st16" d="M277.1,9h10.9c4.2,0,7.5,3.4,7.5,7.5l0,0c0,4.2-3.4,7.5-7.5,7.5h-10.9c-4.2,0-7.5-3.4-7.5-7.5l0,0
		C269.6,12.3,273,9,277.1,9z"/>
	<rect x="218.3" y="16.6" class="st17" width="12.8" height="6"/>
	<g class="st18">
		<path class="st1" d="M218.8,21.6v-5h1.9c0.3,0,0.6,0,0.8,0c0.2,0,0.5,0.1,0.6,0.2s0.3,0.3,0.4,0.5c0.1,0.2,0.2,0.4,0.2,0.7
			c0,0.4-0.1,0.8-0.4,1.1s-0.8,0.4-1.5,0.4h-1.3v2H218.8z M219.5,18.9h1.3c0.4,0,0.7-0.1,0.9-0.2c0.2-0.2,0.3-0.4,0.3-0.7
			c0-0.2-0.1-0.4-0.2-0.5c-0.1-0.1-0.2-0.2-0.4-0.3c-0.1,0-0.3,0-0.6,0h-1.3V18.9z"/>
		<path class="st1" d="M226.8,16.5h0.7v2.9c0,0.5-0.1,0.9-0.2,1.2s-0.3,0.5-0.6,0.7c-0.3,0.2-0.7,0.3-1.2,0.3
			c-0.5,0-0.9-0.1-1.2-0.2s-0.5-0.4-0.6-0.7s-0.2-0.7-0.2-1.3v-2.9h0.7v2.9c0,0.4,0,0.8,0.1,1c0.1,0.2,0.2,0.4,0.4,0.5
			c0.2,0.1,0.4,0.2,0.7,0.2c0.5,0,0.8-0.1,1-0.3c0.2-0.2,0.3-0.6,0.3-1.3V16.5z"/>
		<path class="st1" d="M228.5,21.6v-5h1.9c0.4,0,0.7,0.1,0.9,0.2c0.2,0.1,0.4,0.3,0.5,0.5c0.1,0.2,0.2,0.4,0.2,0.7
			c0,0.2-0.1,0.4-0.2,0.6s-0.3,0.3-0.5,0.5c0.3,0.1,0.5,0.2,0.7,0.5c0.2,0.2,0.2,0.5,0.2,0.8c0,0.2,0,0.5-0.1,0.7
			c-0.1,0.2-0.2,0.4-0.4,0.5s-0.3,0.2-0.5,0.2c-0.2,0.1-0.5,0.1-0.8,0.1H228.5z M229.2,18.7h1.1c0.3,0,0.5,0,0.6-0.1
			c0.2-0.1,0.3-0.1,0.4-0.2c0.1-0.1,0.1-0.3,0.1-0.4c0-0.2,0-0.3-0.1-0.4c-0.1-0.1-0.2-0.2-0.3-0.3s-0.4-0.1-0.8-0.1h-1V18.7z
			 M229.2,21h1.2c0.2,0,0.4,0,0.5,0c0.2,0,0.3-0.1,0.4-0.1s0.2-0.2,0.3-0.3s0.1-0.3,0.1-0.4c0-0.2,0-0.3-0.1-0.5s-0.2-0.2-0.4-0.3
			c-0.2-0.1-0.4-0.1-0.7-0.1h-1.2V21z"/>
	</g>
	<rect x="247.3" y="11.6" class="st17" width="12.8" height="6"/>
	<g class="st18">
		<path class="st1" d="M247.8,16.6v-5h1.9c0.3,0,0.6,0,0.8,0c0.2,0,0.5,0.1,0.6,0.2s0.3,0.3,0.4,0.5c0.1,0.2,0.2,0.4,0.2,0.7
			c0,0.4-0.1,0.8-0.4,1.1s-0.8,0.4-1.5,0.4h-1.3v2H247.8z M248.5,13.9h1.3c0.4,0,0.7-0.1,0.9-0.2c0.2-0.2,0.3-0.4,0.3-0.7
			c0-0.2-0.1-0.4-0.2-0.5c-0.1-0.1-0.2-0.2-0.4-0.3c-0.1,0-0.3,0-0.6,0h-1.3V13.9z"/>
		<path class="st1" d="M255.8,11.5h0.7v2.9c0,0.5-0.1,0.9-0.2,1.2c-0.1,0.3-0.3,0.5-0.6,0.7c-0.3,0.2-0.7,0.3-1.2,0.3
			c-0.5,0-0.9-0.1-1.2-0.2s-0.5-0.4-0.6-0.7s-0.2-0.7-0.2-1.3v-2.9h0.7v2.9c0,0.4,0,0.8,0.1,1c0.1,0.2,0.2,0.4,0.4,0.5
			c0.2,0.1,0.4,0.2,0.7,0.2c0.5,0,0.8-0.1,1-0.3c0.2-0.2,0.3-0.6,0.3-1.3V11.5z"/>
		<path class="st1" d="M257.5,16.6v-5h1.9c0.4,0,0.7,0.1,0.9,0.2c0.2,0.1,0.4,0.3,0.5,0.5s0.2,0.4,0.2,0.7c0,0.2-0.1,0.4-0.2,0.6
			s-0.3,0.3-0.5,0.5c0.3,0.1,0.5,0.2,0.7,0.5c0.2,0.2,0.2,0.5,0.2,0.8c0,0.2,0,0.5-0.1,0.7c-0.1,0.2-0.2,0.4-0.4,0.5
			c-0.1,0.1-0.3,0.2-0.5,0.2c-0.2,0.1-0.5,0.1-0.8,0.1H257.5z M258.2,13.7h1.1c0.3,0,0.5,0,0.6-0.1c0.2-0.1,0.3-0.1,0.4-0.2
			c0.1-0.1,0.1-0.3,0.1-0.4c0-0.2,0-0.3-0.1-0.4c-0.1-0.1-0.2-0.2-0.3-0.3c-0.1,0-0.4-0.1-0.8-0.1h-1V13.7z M258.2,16h1.2
			c0.2,0,0.4,0,0.5,0c0.2,0,0.3-0.1,0.4-0.1s0.2-0.2,0.3-0.3c0.1-0.1,0.1-0.3,0.1-0.4c0-0.2,0-0.3-0.1-0.5s-0.2-0.2-0.4-0.3
			c-0.2-0.1-0.4-0.1-0.7-0.1h-1.2V16z"/>
	</g>
	<rect x="259.1" y="59.7" class="st6" width="36.4" height="15.1"/>
	<rect x="270.9" y="65.2" class="st17" width="12.8" height="6"/>
	<g class="st18">
		<path class="st1" d="M271.5,70.1v-5h1.9c0.3,0,0.6,0,0.8,0c0.2,0,0.5,0.1,0.6,0.2s0.3,0.3,0.4,0.5c0.1,0.2,0.2,0.4,0.2,0.7
			c0,0.4-0.1,0.8-0.4,1.1c-0.3,0.3-0.8,0.4-1.5,0.4h-1.3v2H271.5z M272.1,67.5h1.3c0.4,0,0.7-0.1,0.9-0.2c0.2-0.2,0.3-0.4,0.3-0.7
			c0-0.2-0.1-0.4-0.2-0.5s-0.2-0.2-0.4-0.3c-0.1,0-0.3,0-0.6,0h-1.3V67.5z"/>
		<path class="st1" d="M279.4,65.1h0.7V68c0,0.5-0.1,0.9-0.2,1.2c-0.1,0.3-0.3,0.5-0.6,0.7c-0.3,0.2-0.7,0.3-1.2,0.3
			c-0.5,0-0.9-0.1-1.2-0.2c-0.3-0.2-0.5-0.4-0.6-0.7s-0.2-0.7-0.2-1.3v-2.9h0.7V68c0,0.4,0,0.8,0.1,1c0.1,0.2,0.2,0.4,0.4,0.5
			c0.2,0.1,0.4,0.2,0.7,0.2c0.5,0,0.8-0.1,1-0.3c0.2-0.2,0.3-0.6,0.3-1.3V65.1z"/>
		<path class="st1" d="M281.2,70.1v-5h1.9c0.4,0,0.7,0.1,0.9,0.2c0.2,0.1,0.4,0.3,0.5,0.5c0.1,0.2,0.2,0.4,0.2,0.7
			c0,0.2-0.1,0.4-0.2,0.6c-0.1,0.2-0.3,0.3-0.5,0.5c0.3,0.1,0.5,0.2,0.7,0.5c0.2,0.2,0.2,0.5,0.2,0.8c0,0.2,0,0.5-0.1,0.7
			c-0.1,0.2-0.2,0.4-0.4,0.5s-0.3,0.2-0.5,0.2c-0.2,0.1-0.5,0.1-0.8,0.1H281.2z M281.8,67.2h1.1c0.3,0,0.5,0,0.6-0.1
			c0.2-0.1,0.3-0.1,0.4-0.2c0.1-0.1,0.1-0.3,0.1-0.4c0-0.2,0-0.3-0.1-0.4c-0.1-0.1-0.2-0.2-0.3-0.3s-0.4-0.1-0.8-0.1h-1V67.2z
			 M281.8,69.6h1.2c0.2,0,0.4,0,0.5,0c0.2,0,0.3-0.1,0.4-0.1c0.1-0.1,0.2-0.2,0.3-0.3c0.1-0.1,0.1-0.3,0.1-0.4c0-0.2,0-0.3-0.1-0.5
			s-0.2-0.2-0.4-0.3s-0.4-0.1-0.7-0.1h-1.2V69.6z"/>
	</g>
	<rect x="276.2" y="16.6" class="st17" width="12.8" height="6"/>
	<g class="st18">
		<path class="st1" d="M276.8,21.6v-5h1.9c0.3,0,0.6,0,0.8,0c0.2,0,0.5,0.1,0.6,0.2c0.2,0.1,0.3,0.3,0.4,0.5s0.2,0.4,0.2,0.7
			c0,0.4-0.1,0.8-0.4,1.1c-0.3,0.3-0.8,0.4-1.5,0.4h-1.3v2H276.8z M277.4,18.9h1.3c0.4,0,0.7-0.1,0.9-0.2c0.2-0.2,0.3-0.4,0.3-0.7
			c0-0.2-0.1-0.4-0.2-0.5c-0.1-0.1-0.2-0.2-0.4-0.3c-0.1,0-0.3,0-0.6,0h-1.3V18.9z"/>
		<path class="st1" d="M284.7,16.5h0.7v2.9c0,0.5-0.1,0.9-0.2,1.2c-0.1,0.3-0.3,0.5-0.6,0.7c-0.3,0.2-0.7,0.3-1.2,0.3
			c-0.5,0-0.9-0.1-1.2-0.2c-0.3-0.2-0.5-0.4-0.6-0.7c-0.1-0.3-0.2-0.7-0.2-1.3v-2.9h0.7v2.9c0,0.4,0,0.8,0.1,1s0.2,0.4,0.4,0.5
			c0.2,0.1,0.4,0.2,0.7,0.2c0.5,0,0.8-0.1,1-0.3c0.2-0.2,0.3-0.6,0.3-1.3V16.5z"/>
		<path class="st1" d="M286.5,21.6v-5h1.9c0.4,0,0.7,0.1,0.9,0.2s0.4,0.3,0.5,0.5c0.1,0.2,0.2,0.4,0.2,0.7c0,0.2-0.1,0.4-0.2,0.6
			s-0.3,0.3-0.5,0.5c0.3,0.1,0.5,0.2,0.7,0.5c0.2,0.2,0.2,0.5,0.2,0.8c0,0.2,0,0.5-0.1,0.7c-0.1,0.2-0.2,0.4-0.4,0.5
			c-0.1,0.1-0.3,0.2-0.5,0.2s-0.5,0.1-0.8,0.1H286.5z M287.1,18.7h1.1c0.3,0,0.5,0,0.6-0.1c0.2-0.1,0.3-0.1,0.4-0.2
			c0.1-0.1,0.1-0.3,0.1-0.4c0-0.2,0-0.3-0.1-0.4c-0.1-0.1-0.2-0.2-0.3-0.3c-0.1,0-0.4-0.1-0.8-0.1h-1V18.7z M287.1,21h1.2
			c0.2,0,0.4,0,0.5,0c0.2,0,0.3-0.1,0.4-0.1s0.2-0.2,0.3-0.3c0.1-0.1,0.1-0.3,0.1-0.4c0-0.2,0-0.3-0.1-0.5s-0.2-0.2-0.4-0.3
			s-0.4-0.1-0.7-0.1h-1.2V21z"/>
	</g>
	<circle class="st19" cx="215.4" cy="66.7" r="6"/>
	<line class="st20" x1="253.8" y1="59.2" x2="253.8" y2="77.2"/>
	<rect x="226.1" y="60.7" class="st21" width="24.1" height="12"/>
</g>
<g id="Calque_2_1_">
	<line class="st22" x1="14.7" y1="128.5" x2="494" y2="128.5"/>
	<polygon class="st13" points="25.8,129 36.8,129 31.3,138.5 25.8,148.1 20.3,138.5 14.7,129 	"/>
	<polygon class="st13" points="253.6,129 264.6,129 259.1,138.5 253.6,148.1 248.1,138.5 242.6,129 	"/>
	<polygon class="st13" points="483,129 494,129 488.5,138.5 483,148.1 477.5,138.5 472,129 	"/>
</g>
</svg>
