<?xml version="1.0" encoding="utf-8"?>
<!-- Generator: Adobe Illustrator 22.0.1, SVG Export Plug-In . SVG Version: 6.00 Build 0)  -->
<svg version="1.1" id="Calque_2" xmlns="http://www.w3.org/2000/svg" xmlns:xlink="http://www.w3.org/1999/xlink" x="0px" y="0px"
	 viewBox="0 0 509.7 257" style="enable-background:new 0 0 509.7 257;" xml:space="preserve">
<style type="text/css">
	.st0{fill:#F4F4F4;stroke:#000000;stroke-miterlimit:10;}
	.st1{fill:#FFFFFF;stroke:#000000;stroke-width:0.5;stroke-miterlimit:10;}
	.st2{fill:#B2CCCE;stroke:#000000;stroke-width:0.5;stroke-miterlimit:10;}
	.st3{fill:#B2B2B2;stroke:#000000;stroke-width:0.75;stroke-miterlimit:10;}
	.st4{fill:#514F4D;stroke:#514F4D;stroke-miterlimit:10;}
	.st5{fill:none;stroke:#EAEAEA;stroke-width:14;stroke-miterlimit:10;}
	.st6{fill:#CC9999;}
	.st7{fill:#FFFFFF;}
	.st8{fill:#FFFFFF;stroke:#000000;stroke-width:0.25;stroke-miterlimit:10;}
	.st9{fill:none;stroke:#FFFFFF;stroke-width:0.25;stroke-miterlimit:10;}
	.st10{opacity:0.37;fill:#FFFFFF;}
	.st11{fill:#D1D3D3;stroke:#000000;stroke-width:0.75;stroke-miterlimit:10;}
	.st12{opacity:0.51;fill:#3CC6BF;stroke:#FFFFFF;stroke-width:0.5;stroke-miterlimit:10;}
	.st13{fill:#4C4846;}
	.st14{fill:#6D828C;}
	.st15{fill:#46A8B2;}
	.st16{opacity:0.27;fill:#BAEDF4;}
	.st17{opacity:0.14;fill:#BAEDF4;}
</style>
<rect x="8.8" y="6.5" class="st0" width="492.2" height="237.1"/>
<rect x="28.9" y="49.5" class="st1" width="335.8" height="151.1"/>
<rect x="34.9" y="55.9" class="st2" width="322.7" height="138.4"/>
<rect x="0.4" y="243.6" class="st3" width="509" height="13"/>
<rect x="0.4" class="st4" width="509" height="6.5"/>
<rect x="397.4" y="55.9" class="st2" width="76.4" height="159.3"/>
<rect x="390.4" y="48.5" class="st5" width="90.4" height="174.3"/>
<path class="st6" d="M275.5,43.5h-175c-1.2,0-2.3-1-2.3-2.3V11.8c0-1.2,1-2.3,2.3-2.3h175c1.2,0,2.3,1,2.3,2.3v29.5
	C277.7,42.5,276.7,43.5,275.5,43.5z"/>
<g>
	<path class="st7" d="M111.5,33.1c-0.1,0-0.1-0.1-0.1-0.2c0-0.3,0.6-1.1,1.7-2.5c0.2-0.2,0.8-1,1.9-2.4c1.1-1.4,1.9-2.3,2.4-2.9
		c1.6-2.1,2.7-3.7,3.3-4.8c0.5-1.1,0.8-2,0.8-2.7c0-1.6-1.4-2.4-4.1-2.4c-2.9,0-6.6,0.8-11.1,2.3c-3.2,1.1-4.8,2.1-4.8,3
		c0,0.3,0.2,0.7,0.7,1c0.1,0.1,0.1,0.1,0,0.1c-0.2,0-0.3,0-0.4-0.1c-0.6-0.4-0.9-0.9-0.9-1.5c0-0.6,0.2-1.3,0.6-1.9
		c0.4-0.6,1-1.2,1.8-1.6c1.9-1.1,4.2-2,6.9-2.6c2.9-0.7,5.5-1.1,8-1.1c2.6,0,4.3,0.5,5.1,1.5c0.5,0.6,0.7,1.2,0.7,1.8
		s-0.1,1.2-0.4,1.8c-0.4,1.2-1.1,2.4-2.1,3.6c-0.2,0.3-0.9,1.1-2,2.4c-1.1,1.3-2,2.4-2.7,3.2c7.2-7.5,12.2-11.3,15.1-11.3
		c0.8,0,1.4,0.4,1.8,1.1c0.2,0.4,0.3,0.7,0.3,1c0,0.3,0,0.6-0.1,1c-0.1,1-0.9,2.8-2.5,5.6c2.4-2.5,4.6-4.5,6.5-5.9
		c2.3-1.7,4.3-2.6,5.9-2.6c0.9,0,1.4,0.4,1.4,1.2c0,0.8-0.5,1.9-1.5,3.4c-5.9,8.6-8.8,14.3-8.8,17.2c0,0.9,0.3,1.4,0.8,1.5
		c0.3,0.1,0.7,0,1-0.3c0.1-0.1,0.3-0.1,0.4,0c0.1,0.1,0.1,0.3-0.1,0.4c-0.2,0.2-0.4,0.3-0.6,0.3s-0.5,0-0.8-0.1
		c-0.3,0-0.7-0.2-1.3-0.4s-0.9-0.6-1.3-1c-0.3-0.5-0.5-1-0.5-1.6c0-0.9,0.1-1.6,0.3-2.3c0.5-1.6,3-5.5,7.5-11.7c1.4-1.9,2-3.2,2-4.1
		c0-0.6-0.3-0.9-1-0.9c-0.9,0-1.9,0.4-3,1.3c-2.5,1.9-5.2,4.5-8.3,7.8c-0.8,1.4-1.9,2.9-3.1,4.7c-0.2,0.3-0.4,0.4-0.6,0.4
		c-0.8,0-1.2-0.2-1.2-0.5c0-0.1,0-0.2,0.1-0.2c3.3-5.7,5.1-9.4,5.5-11c0.1-0.6,0.2-1,0.2-1.3s0-0.6,0-0.7c-0.1-0.6-0.5-0.9-1.1-0.9
		c-0.6,0-1.4,0.3-2.4,1c-1.7,1.1-3.8,2.9-6.3,5.3c-2.5,2.4-4.9,4.9-7.3,7.5c-0.1,0.1-0.1,0.1-0.2,0.1
		C112.5,32.4,111.8,33.1,111.5,33.1z"/>
	<path class="st7" d="M145.7,32c-1.3,0.7-2.5,1-3.5,1c-0.8,0-1.4-0.3-1.7-0.8c-0.2-0.3-0.2-0.6-0.2-1c0-0.8,0.2-1.6,0.6-2.4
		c-0.3,0.3-0.5,0.5-0.7,0.6c-0.2,0.2-0.3,0.2-0.3-0.1c0-0.1,0.2-0.4,0.5-0.7c0.3-0.3,0.9-0.8,1.6-1.5c0.7-0.7,1.3-1.2,1.7-1.6
		c1.2-1,2.5-1.5,3.8-1.5c0.5,0,1,0.1,1.5,0.4c0.8,0.4,1.1,1,1.1,2c0,1.2-0.6,2.3-1.7,3.5c-0.5,0.5-1.1,1-1.9,1.5
		c1.6-0.3,3.4-1.2,5.2-2.9c0.1-0.1,0.2-0.1,0.3-0.1s0.1,0.1,0.1,0.1s0,0.2-0.1,0.2c-2.2,2.1-4.2,3.1-6.1,3.1
		C145.7,32,145.7,32,145.7,32z M148.5,28.9c0.5-0.8,0.7-1.4,0.7-1.9c0-0.5-0.2-0.9-0.7-1.2c-0.3-0.2-0.6-0.3-0.9-0.3
		c-1.2,0-2.3,0.5-3.4,1.4c-1,1-1.7,2-2,3c-0.1,0.4-0.2,0.8-0.2,1.2s0.2,0.7,0.5,0.9c0.3,0.2,0.6,0.3,1,0.3s0.9-0.2,1.6-0.6
		c0,0-0.1,0-0.2-0.1c-0.2-0.1-0.4-0.3-0.4-0.5c0-0.7,0.4-1.4,1.2-2.1c0.6-0.5,1.1-0.7,1.7-0.7C148.1,28.3,148.5,28.5,148.5,28.9z"/>
	<path class="st7" d="M159.5,25.9c0.3-0.3,0.4-0.6,0.4-0.7c0-0.2-0.2-0.3-0.6-0.3c-0.4,0-0.9,0.3-1.7,1c-0.7,0.6-1.6,1.7-2.7,3.2
		c-1,1.5-1.8,2.5-2.3,3c-0.5,0.5-0.9,0.8-1.2,0.8c0,0-0.1,0-0.1,0c-0.5,0-1-0.2-1.5-0.6c0.1-0.2,0.4-0.6,0.9-1.2
		c1-1.2,1.9-2.4,2.7-3.6c-0.9,0.9-1.6,1.5-2.2,2c-0.2,0.2-0.3,0.2-0.3,0c0-0.1,0-0.3,0.1-0.4c0.1-0.1,0.3-0.3,0.6-0.5
		c0.3-0.2,0.5-0.4,0.6-0.5c0.1-0.1,0.3-0.2,0.5-0.5c0.2-0.2,0.4-0.4,0.6-0.6c0.6-0.7,1-1.2,1.2-1.7c0.1-0.2,0.1-0.5,0.1-0.7
		c0-0.2-0.1-0.4-0.1-0.4c-0.1-0.1-0.1-0.2-0.1-0.3c0-0.2,0.1-0.2,0.2-0.2c0.1,0,0.2,0,0.3,0.1c0.6,0.3,0.9,0.8,0.9,1.7
		c0,0.8-0.2,1.7-0.5,2.6c0.8-1,1.4-1.7,1.8-2.2c1-1.2,2-1.7,3-1.7c1,0,1.5,0.4,1.7,1.3c0,0.1,0,0.3,0,0.6c0,0.2-0.1,0.6-0.3,1
		s-0.6,1.1-1.3,2.1c-0.7,1-1.1,1.6-1.2,1.8c-0.1,0.2-0.1,0.4-0.1,0.6c0,0.1,0.1,0.2,0.3,0.2c0.2,0,0.6-0.1,1.2-0.5
		c0.8-0.6,1.9-1.5,3.2-2.6c0.2-0.2,0.3-0.2,0.3,0.1c0,0.1,0,0.2-0.1,0.3c-1.9,1.8-3.4,2.9-4.3,3.3c-1.1,0.6-1.9,0.6-2.6,0.3
		c-0.4-0.2-0.6-0.6-0.6-1c0-0.4,0.1-0.9,0.2-1.3C156.8,29.2,157.8,27.8,159.5,25.9z"/>
	<path class="st7" d="M178.2,27.9c1.1-0.6,1.6-1.2,1.6-1.8s-0.4-0.9-1.1-0.9c-0.3,0-0.7,0.1-1.1,0.3c-0.8,0.4-1.6,1-2.4,2
		c-1,1.2-1.4,2.2-1.4,3.2c0,0.4,0.1,0.7,0.3,1.1c0.2,0.3,0.6,0.5,1.1,0.5c0.9,0,2.1-0.5,3.5-1.5c1.4-1,2.7-2,3.7-3
		c0.2-0.2,0.4-0.2,0.4,0c0,0.1-0.1,0.3-0.2,0.4c-0.7,0.7-1.2,1.1-1.5,1.4c-0.2,0.2-0.7,0.6-1.5,1.2c-0.7,0.6-1.3,1-1.8,1.2
		c-1.4,0.7-2.6,1.1-3.6,1.1c-1,0-1.8-0.2-2.3-0.7c-0.6-0.4-0.8-1.1-0.8-1.9c0-1.7,0.8-3.1,2.3-4.4c1.5-1.2,3.1-1.8,4.7-1.8
		c1.1,0,1.9,0.2,2.2,0.7c0.2,0.2,0.2,0.5,0.2,0.8c0,0.3-0.1,0.6-0.3,0.9c-0.4,0.6-1,1.2-2,1.6c-1,0.5-1.9,0.7-2.8,0.7
		c-0.3,0-0.5,0-0.6-0.1c0-0.1,0-0.1,0.1-0.1c0.1,0,0.2,0,0.3,0C176.1,28.7,177.1,28.5,178.2,27.9z"/>
	<path class="st7" d="M189.4,25.9c0.3-0.3,0.4-0.6,0.4-0.7c0-0.2-0.2-0.3-0.6-0.3c-0.4,0-0.9,0.3-1.7,1c-0.7,0.6-1.6,1.7-2.7,3.2
		c-1,1.5-1.8,2.5-2.3,3c-0.5,0.5-0.9,0.8-1.2,0.8c0,0-0.1,0-0.1,0c-0.5,0-1-0.2-1.5-0.6c0.1-0.2,0.4-0.6,0.9-1.2
		c1-1.2,1.9-2.4,2.7-3.6c-0.9,0.9-1.6,1.5-2.2,2c-0.2,0.2-0.3,0.2-0.3,0c0-0.1,0-0.3,0.1-0.4c0.1-0.1,0.3-0.3,0.6-0.5
		c0.3-0.2,0.5-0.4,0.6-0.5c0.1-0.1,0.3-0.2,0.5-0.5c0.2-0.2,0.4-0.4,0.6-0.6c0.6-0.7,1-1.2,1.2-1.7c0.1-0.2,0.1-0.5,0.1-0.7
		c0-0.2-0.1-0.4-0.1-0.4c-0.1-0.1-0.1-0.2-0.1-0.3c0-0.2,0.1-0.2,0.2-0.2c0.1,0,0.2,0,0.3,0.1c0.6,0.3,0.9,0.8,0.9,1.7
		c0,0.8-0.2,1.7-0.5,2.6c0.8-1,1.4-1.7,1.8-2.2c1-1.2,2-1.7,3-1.7c1,0,1.5,0.4,1.7,1.3c0,0.1,0,0.3,0,0.6c0,0.2-0.1,0.6-0.3,1
		c-0.2,0.4-0.6,1.1-1.3,2.1c-0.7,1-1.1,1.6-1.2,1.8c-0.1,0.2-0.1,0.4-0.1,0.6c0,0.1,0.1,0.2,0.3,0.2c0.2,0,0.6-0.1,1.2-0.5
		c0.8-0.6,1.9-1.5,3.2-2.6c0.2-0.2,0.3-0.2,0.3,0.1c0,0.1,0,0.2-0.1,0.3c-1.9,1.8-3.4,2.9-4.3,3.3c-1.1,0.6-1.9,0.6-2.6,0.3
		c-0.4-0.2-0.6-0.6-0.6-1c0-0.4,0.1-0.9,0.2-1.3C186.6,29.2,187.7,27.8,189.4,25.9z"/>
	<path class="st7" d="M198.5,22.3c0.4-0.7,0.8-1.2,1.1-1.6s0.5-0.7,0.6-0.8c0.2-0.2,0.5-0.3,1.1-0.5c0.6-0.1,1.1-0.2,1.6-0.2
		s0.8,0.1,0.8,0.2c0,0.1-0.4,0.6-1.3,1.4c-0.9,0.8-1.8,1.9-3,3.2c1.4,0.2,2.2,0.6,2.7,1.3c0.2,0.3,0.2,0.5,0.1,0.5
		c-0.1,0.1-0.2,0.1-0.4-0.1c-0.4-0.4-1.1-0.6-2-0.6c-0.4,0-0.8,0-1.3,0.1c-1.6,2.1-2.6,3.8-3,5.1c-0.1,0.4-0.2,0.7-0.2,1
		c0,0.7,0.3,1,0.9,1c0.6,0,1.5-0.4,2.6-1.3c1.4-1.1,2.7-2.2,3.8-3.2c0.2-0.2,0.3-0.3,0.4-0.1c0.1,0.1,0,0.2-0.1,0.4
		c-1.7,1.8-3.1,3.1-4.3,3.9c-1.2,0.8-2.2,1.3-3.2,1.3c-1.3,0-2-0.7-2-2.1c0-0.7,0.2-1.5,0.6-2.4l-0.5,0.5c-0.2,0.2-0.3,0.2-0.3,0.1
		c-0.1-0.1-0.1-0.1-0.1-0.2c0-0.1,0.1-0.2,0.2-0.3c1.4-1.3,2.4-2.2,3-2.9c-0.4,0.1-0.6,0.1-0.8,0c-0.1-0.1-0.2-0.3-0.3-0.5
		c0-0.2,0-0.4,0.3-0.7c0.2-0.3,0.6-0.5,1.1-0.6c0.5-0.1,0.8-0.2,1.1-0.2C197.7,23.5,198,23,198.5,22.3z"/>
	<path class="st7" d="M209.6,26.6c-0.9,1-1.6,1.9-2.1,2.8c-0.5,0.8-0.8,1.4-0.8,1.8c0,0.3,0.2,0.5,0.6,0.5s1.2-0.4,2.5-1.2
		c1.3-0.8,2.4-1.7,3.5-2.7c0.1-0.1,0.2-0.1,0.3-0.1c0.1,0,0.1,0.1,0.1,0.2c0,0.1,0,0.2-0.1,0.3c-2.6,2.3-4.5,3.8-5.9,4.4
		c-0.6,0.2-1,0.4-1.3,0.4c-1,0-1.6-0.2-1.9-0.5c-0.3-0.3-0.5-0.7-0.5-1c0-0.8,0.2-1.3,0.4-1.7c1-1.4,1.7-2.5,2.3-3.5
		c0.2-0.3,0.1-0.5-0.1-0.6c-0.2-0.1-0.6-0.2-0.9-0.2c-0.4,0-0.6,0-0.6,0c-1.3,1.8-2.7,3.2-4,4.2c-0.2,0.1-0.2,0.1-0.3,0
		c0-0.2,0.1-0.3,0.3-0.6c1.4-1.2,2.5-2.5,3.4-3.8c-0.2-0.1-0.3-0.3-0.3-0.5c0-0.2,0-0.5,0-0.8c0-0.3,0.2-0.7,0.5-1.2
		c0.5-0.8,1-1.3,1.5-1.3c0.4,0,0.7,0.2,0.7,0.7c0,0.7-0.3,1.4-0.9,2.1c-0.3,0.4-0.6,0.6-0.8,0.8c0.7-0.2,1.8-0.4,3.2-0.4
		c0.7,0,1.2,0.3,1.5,0.8c0,0.1,0.1,0.2,0.1,0.4C210,26,209.8,26.3,209.6,26.6z"/>
	<path class="st7" d="M219.1,27.9c1.1-0.6,1.6-1.2,1.6-1.8s-0.4-0.9-1.1-0.9c-0.3,0-0.7,0.1-1.1,0.3c-0.8,0.4-1.6,1-2.4,2
		c-1,1.2-1.4,2.2-1.4,3.2c0,0.4,0.1,0.7,0.3,1.1c0.2,0.3,0.6,0.5,1.1,0.5c0.9,0,2.1-0.5,3.5-1.5c1.4-1,2.7-2,3.7-3
		c0.2-0.2,0.4-0.2,0.4,0c0,0.1-0.1,0.3-0.2,0.4c-0.7,0.7-1.2,1.1-1.5,1.4c-0.2,0.2-0.7,0.6-1.5,1.2c-0.7,0.6-1.3,1-1.8,1.2
		c-1.4,0.7-2.6,1.1-3.6,1.1c-1,0-1.8-0.2-2.3-0.7c-0.6-0.4-0.8-1.1-0.8-1.9c0-1.7,0.8-3.1,2.3-4.4c1.5-1.2,3.1-1.8,4.7-1.8
		c1.1,0,1.9,0.2,2.2,0.7c0.2,0.2,0.2,0.5,0.2,0.8c0,0.3-0.1,0.6-0.3,0.9c-0.4,0.6-1,1.2-2,1.6c-1,0.5-1.9,0.7-2.8,0.7
		c-0.3,0-0.5,0-0.6-0.1c0-0.1,0-0.1,0.1-0.1c0.1,0,0.2,0,0.3,0C217.1,28.7,218,28.5,219.1,27.9z"/>
	<path class="st7" d="M233.7,25.7c0,1.4-0.7,2.9-2,4.4c-1,1.2-2.1,2.1-3.3,2.6c-0.7,0.3-1.2,0.5-1.6,0.5c-0.4,0-0.8-0.1-1.1-0.3
		c-0.5-0.3-0.7-0.8-0.7-1.4c0-0.6,0.2-1.3,0.5-2.1c-4.4,6.3-6.6,10-6.6,11.3c0,0.1,0,0.2,0.1,0.3c0.1,0.1,0,0.1,0,0.2l-0.1,0
		c-0.6-0.6-1-1.2-1-2c0-1.7,1.8-5.3,5.3-10.6c-1,1-1.4,1.3-1.4,1c0-0.2,0.1-0.3,0.3-0.5c1-0.8,2-2,3.2-3.4c1.1-1.4,1.9-2.3,2.2-2.7
		c0.3-0.3,0.7-0.5,1.2-0.5c0.5,0,1,0.2,1.4,0.7c-0.4,0.5-1.1,1.5-2.2,3c1-0.9,1.9-1.5,2.9-1.9c0.5-0.2,0.9-0.3,1.3-0.3
		c0.4,0,0.8,0.1,1.1,0.4C233.5,24.6,233.7,25,233.7,25.7z M225.4,31.2c0,0.9,0.3,1.3,1,1.3c0.4,0,1-0.2,1.8-0.6c0.8-0.4,1.6-1,2.4-2
		c0.8-0.9,1.3-1.7,1.6-2.4c0.3-0.7,0.5-1.3,0.5-1.8c0-0.8-0.3-1.2-1-1.2c-0.4,0-1.1,0.2-1.9,0.6c-0.9,0.4-1.7,1.1-2.4,2
		C226,28.7,225.4,30,225.4,31.2z"/>
	<path class="st7" d="M241.6,26.6c-0.9,1-1.6,1.9-2.1,2.8c-0.5,0.8-0.8,1.4-0.8,1.8c0,0.3,0.2,0.5,0.6,0.5c0.4,0,1.2-0.4,2.5-1.2
		c1.3-0.8,2.4-1.7,3.5-2.7c0.1-0.1,0.2-0.1,0.3-0.1c0.1,0,0.1,0.1,0.1,0.2c0,0.1,0,0.2-0.1,0.3c-2.6,2.3-4.5,3.8-5.9,4.4
		c-0.6,0.2-1,0.4-1.3,0.4c-1,0-1.6-0.2-1.9-0.5c-0.3-0.3-0.5-0.7-0.5-1c0-0.8,0.2-1.3,0.4-1.7c1-1.4,1.7-2.5,2.3-3.5
		c0.2-0.3,0.1-0.5-0.1-0.6c-0.2-0.1-0.6-0.2-0.9-0.2c-0.4,0-0.6,0-0.6,0c-1.3,1.8-2.7,3.2-4,4.2c-0.2,0.1-0.2,0.1-0.3,0
		c0-0.2,0.1-0.3,0.3-0.6c1.4-1.2,2.5-2.5,3.4-3.8c-0.2-0.1-0.3-0.3-0.3-0.5c0-0.2,0-0.5,0-0.8c0-0.3,0.2-0.7,0.5-1.2
		c0.5-0.8,1-1.3,1.5-1.3c0.4,0,0.7,0.2,0.7,0.7c0,0.7-0.3,1.4-0.9,2.1c-0.3,0.4-0.6,0.6-0.8,0.8c0.7-0.2,1.8-0.4,3.2-0.4
		c0.7,0,1.2,0.3,1.5,0.8c0,0.1,0.1,0.2,0.1,0.4C242,26,241.9,26.3,241.6,26.6z"/>
	<path class="st7" d="M249.8,25c-0.8,0.8-1.5,1.9-2,3.2c-0.5,1.3-0.8,2.2-0.8,2.7s0.2,0.8,0.6,0.8c0.4,0,1.1-0.3,2-0.9
		c0.9-0.6,2-1.4,3.2-2.5c0.3-0.2,0.4-0.2,0.4,0.1c0,0,0,0.1-0.1,0.1c-1,0.8-1.8,1.5-2.4,2.1c-0.7,0.5-1.4,1-2.3,1.5
		c-0.9,0.5-1.6,0.7-2.2,0.7c-0.7,0-1.2-0.2-1.6-0.5c-0.3-0.3-0.5-0.7-0.5-1c0-0.7,0.1-1.3,0.4-1.7c0.3-0.4,0.7-1,1.3-1.7
		c-0.2,0.2-0.6,0.5-1,0.9c-0.5,0.4-0.8,0.7-1,0.8c-0.2,0.1-0.3,0.1-0.3-0.1c0-0.1,0.2-0.3,0.5-0.6c0.3-0.3,1-0.9,2.1-2
		c1.1-1.1,1.8-1.7,2.2-1.9c0.4-0.2,0.7-0.3,1-0.3c0.2,0,0.4,0,0.6,0.1C249.9,24.9,249.9,25,249.8,25z M250.2,23.5
		c-0.2-0.2-0.3-0.4-0.3-0.8c0-0.3,0.2-0.7,0.5-1.1c0.3-0.4,0.7-0.6,1.3-0.6c0.2,0,0.3,0.1,0.5,0.2c0.2,0.1,0.2,0.4,0.2,0.7
		c0,0.3-0.2,0.7-0.5,1c-0.3,0.3-0.6,0.5-0.9,0.6C250.7,23.7,250.4,23.6,250.2,23.5z"/>
	<path class="st7" d="M250.6,30.9C250.6,30.9,250.5,30.9,250.6,30.9c0-0.1,0-0.1,0.1-0.1c0.1,0,0.1,0,0.1,0.1
		c0.4,0.8,0.9,1.2,1.8,1.2c1,0,1.9-0.5,2.6-1.5c0.6-0.7,1-1.5,1.5-2.3c0.4-0.8,0.8-1.4,1.1-1.9c0.3-0.5,0.7-1,1.3-1.6
		c0.6-0.6,1.2-1,1.7-1.1c-0.1-0.1-0.3-0.1-0.6-0.1c-0.3,0-0.8,0.2-1.6,0.6c-0.8,0.4-1.5,0.9-2.3,1.5c-0.8,0.6-1.6,1.3-2.4,2.1
		c-0.9,0.8-1.4,1.3-1.6,1.4c-0.2,0.1-0.3,0.1-0.3,0c0-0.1,0-0.3,0.1-0.4c0.5-0.4,1.3-1.1,2.2-2c1-0.9,1.7-1.6,2.2-2
		c0.5-0.4,1.1-0.8,1.7-1.1c0.6-0.3,1.1-0.5,1.4-0.5c0.8,0,1.3,0.1,1.5,0.4c-0.5,0.2-0.9,0.8-1.3,1.7c-0.3,0.9-0.7,2-1.1,3.2
		s-0.9,2.2-1.5,2.9c0.5-0.2,1.3-0.7,2.4-1.4c1.1-0.7,2-1.5,2.9-2.4c0.2-0.2,0.3-0.2,0.4-0.1c0,0,0,0.1,0,0.1c0,0.1-0.2,0.3-0.6,0.6
		c-0.4,0.4-0.8,0.8-1.4,1.3c-0.5,0.5-1.2,1-2,1.6c-1.7,1.2-3.4,1.8-5.1,1.8C252.1,33.1,251,32.4,250.6,30.9z"/>
	<path class="st7" d="M268.4,27.9c1.1-0.6,1.6-1.2,1.6-1.8s-0.4-0.9-1.1-0.9c-0.3,0-0.7,0.1-1.1,0.3c-0.8,0.4-1.6,1-2.4,2
		c-1,1.2-1.4,2.2-1.4,3.2c0,0.4,0.1,0.7,0.3,1.1c0.2,0.3,0.6,0.5,1.1,0.5c0.9,0,2.1-0.5,3.5-1.5c1.4-1,2.7-2,3.7-3
		c0.2-0.2,0.4-0.2,0.4,0c0,0.1-0.1,0.3-0.2,0.4c-0.7,0.7-1.2,1.1-1.5,1.4c-0.2,0.2-0.7,0.6-1.5,1.2c-0.7,0.6-1.3,1-1.8,1.2
		c-1.4,0.7-2.6,1.1-3.6,1.1c-1,0-1.8-0.2-2.3-0.7c-0.6-0.4-0.8-1.1-0.8-1.9c0-1.7,0.8-3.1,2.3-4.4c1.5-1.2,3.1-1.8,4.7-1.8
		c1.1,0,1.9,0.2,2.2,0.7c0.2,0.2,0.2,0.5,0.2,0.8c0,0.3-0.1,0.6-0.3,0.9c-0.4,0.6-1,1.2-2,1.6c-1,0.5-1.9,0.7-2.8,0.7
		c-0.3,0-0.5,0-0.6-0.1c0-0.1,0-0.1,0.1-0.1c0.1,0,0.2,0,0.3,0C266.4,28.7,267.3,28.5,268.4,27.9z"/>
</g>
<rect x="407.6" y="80" class="st8" width="56.3" height="19"/>
<g>
	<path d="M422.4,90.3c0,0.8-0.1,1.5-0.4,2.2c-0.3,0.7-0.6,1.2-1.1,1.6c-0.5,0.5-1,0.8-1.5,1c-0.5,0.2-1.1,0.3-1.7,0.3
		c-0.6,0-1.2-0.1-1.7-0.3c-0.5-0.2-1-0.5-1.4-0.9c-0.5-0.4-0.8-1-1.1-1.7c-0.3-0.7-0.4-1.4-0.4-2.3c0-0.7,0.1-1.4,0.3-2
		c0.2-0.6,0.6-1.2,1-1.7c0.4-0.5,0.9-0.8,1.5-1.1c0.6-0.2,1.2-0.4,1.8-0.4c0.7,0,1.3,0.1,1.8,0.4s1,0.6,1.4,1
		c0.5,0.5,0.8,1.1,1.1,1.7C422.3,88.9,422.4,89.6,422.4,90.3z M421.2,90.4c0-0.6-0.1-1.2-0.3-1.9c-0.2-0.6-0.5-1.1-1-1.5
		c-0.3-0.3-0.6-0.5-1-0.7c-0.4-0.2-0.8-0.2-1.2-0.2c-0.4,0-0.8,0.1-1.2,0.2c-0.4,0.2-0.7,0.4-1,0.7c-0.4,0.4-0.7,0.9-0.9,1.4
		c-0.2,0.6-0.3,1.2-0.3,1.8c0,0.7,0.1,1.3,0.3,1.9c0.2,0.6,0.5,1,0.9,1.4c0.3,0.3,0.6,0.5,1,0.6c0.4,0.2,0.8,0.2,1.2,0.2
		c0.4,0,0.8-0.1,1.2-0.2c0.4-0.2,0.7-0.4,1-0.7c0.4-0.3,0.7-0.8,0.9-1.3C421.1,91.7,421.2,91.1,421.2,90.4z"/>
	<path d="M430.7,95.2h-1.1v-0.8l0,0c-0.3,0.2-0.8,0.5-1.3,0.7c-0.5,0.2-1,0.4-1.5,0.4c-0.7,0-1.2-0.2-1.6-0.6
		c-0.4-0.4-0.6-1-0.6-1.7c0-0.4,0-0.8,0-1.4c0-0.5,0-0.9,0-1.2c0-0.4,0-1,0-1.6c0-0.6,0-1,0-1.1h1.1c0,0.1,0,0.4,0,1
		c0,0.6,0,1.1,0,1.5c0,0.3,0,0.8,0,1.3s0,0.9,0,1.1c0,0.6,0.1,1,0.3,1.3c0.2,0.3,0.5,0.4,0.9,0.4c0.4,0,0.9-0.1,1.4-0.3
		c0.5-0.2,0.9-0.4,1.1-0.6c0-0.1,0-0.3,0-0.8c0-0.5,0-1.1,0-1.8c0-0.5,0-1.1,0-1.8c0-0.7,0-1.1,0-1.2h1.1c0,0.1,0,0.4,0,0.8
		c0,0.5,0,1.3,0,2.4c0,0.6,0,1.2,0,1.6C430.7,93.1,430.7,94,430.7,95.2z"/>
	<path d="M439.6,88.1c-0.6,1.4-1.3,3-2,4.6c-0.7,1.6-1.1,2.4-1.1,2.5h-0.9c0-0.1-0.4-0.8-1.1-2.4c-0.7-1.5-1.4-3.1-2.1-4.6l1.1-0.5
		l2.6,6.1h0l2.5-6L439.6,88.1z"/>
	<path d="M447,91.2h-5.3c0,0.5,0.1,1,0.3,1.4c0.2,0.4,0.5,0.8,1,1.1c0.3,0.2,0.6,0.3,1,0.4c0.4,0.1,0.8,0.1,1.3,0.1
		c0.3,0,0.5,0,0.8,0c0.2,0,0.4,0,0.4,0l-0.1,1c0,0-0.2,0-0.4,0c-0.2,0-0.5,0-0.8,0c-0.8,0-1.4-0.1-2-0.3c-0.6-0.2-1-0.5-1.4-0.8
		c-0.3-0.3-0.6-0.7-0.8-1.1c-0.2-0.5-0.3-1-0.3-1.5c0-0.6,0.1-1.1,0.2-1.5s0.4-0.9,0.7-1.2c0.3-0.3,0.6-0.6,1.1-0.8
		c0.4-0.2,0.9-0.3,1.3-0.3c0.5,0,0.9,0.1,1.2,0.2c0.3,0.1,0.7,0.3,0.9,0.6c0.3,0.3,0.5,0.7,0.7,1.1C446.9,90,447,90.6,447,91.2z
		 M445.8,90.4c-0.1-0.6-0.3-1.1-0.6-1.4c-0.3-0.3-0.8-0.5-1.3-0.5s-1,0.2-1.4,0.5c-0.4,0.3-0.6,0.8-0.8,1.4H445.8z"/>
	<path d="M453.1,88.7c-0.3,0.1-0.7,0.2-1.2,0.4s-1.2,0.5-1.9,0.8c0,0.1,0,0.3,0,0.7c0,0.4,0,0.8,0,1.2c0,0.6,0,1.3,0,2
		c0,0.8,0,1.2,0,1.3h-1.1c0-0.1,0-0.4,0-0.8c0-0.5,0-1.2,0-2.4c0-0.5,0-1.1,0-1.9c0-0.8,0-1.6,0-2.3h1.1v1.1l0,0
		c0.5-0.3,1.1-0.6,1.6-0.8s1-0.4,1.3-0.5L453.1,88.7z"/>
	<path d="M458.6,94.3l-0.1,0.9c0,0-0.1,0-0.2,0c-0.1,0-0.2,0-0.3,0c-1,0-1.7-0.2-2.3-0.6c-0.5-0.4-0.8-1.1-0.8-1.9
		c0-0.5,0-1.1,0-1.7c0-0.6,0-1.4,0-2.3h-1.2v-0.9h1.3v-1.7h1.1v1.7h2.6v0.9H456c0,0.1,0,0.4,0,0.9c0,0.5,0,0.9,0,1.1
		c0,0.2,0,0.5,0,0.7c0,0.3,0,0.6,0,1.1c0,0.6,0.2,1.1,0.5,1.4c0.3,0.3,0.9,0.4,1.6,0.4c0.1,0,0.2,0,0.3,0S458.6,94.3,458.6,94.3z"/>
</g>
<line class="st9" x1="407.6" y1="80" x2="435.8" y2="55.9"/>
<line class="st9" x1="463.8" y1="80" x2="435.6" y2="55.9"/>
<rect x="34.9" y="55.9" class="st10" width="322.7" height="13.8"/>
<g>
	<path class="st7" d="M42.5,68.6h-1.1c0-0.1,0-0.8,0-2.1c0-1.4,0-2.5,0-3.4c0-0.6,0-1.3,0-2.2c0-0.9,0-1.9,0-3h1.1
		c0,0.7,0,1.6,0,2.6c0,1,0,1.8,0,2.5c0,1.5,0,2.8,0,3.9S42.5,68.5,42.5,68.6z"/>
	<path class="st7" d="M51.7,64.9c0,0.6-0.1,1.1-0.3,1.6c-0.2,0.5-0.5,1-0.9,1.3c-0.3,0.3-0.7,0.5-1.1,0.7c-0.4,0.2-0.8,0.2-1.3,0.2
		c-0.5,0-0.9-0.1-1.3-0.2c-0.4-0.2-0.8-0.4-1.1-0.7c-0.4-0.4-0.7-0.8-0.9-1.3c-0.2-0.5-0.3-1.1-0.3-1.6c0-0.6,0.1-1.1,0.3-1.5
		c0.2-0.5,0.4-0.9,0.8-1.3c0.3-0.3,0.7-0.6,1.1-0.8c0.4-0.2,0.9-0.3,1.4-0.3c0.5,0,1,0.1,1.4,0.3c0.4,0.2,0.8,0.4,1.1,0.8
		c0.4,0.4,0.6,0.8,0.8,1.3C51.7,63.8,51.7,64.3,51.7,64.9z M50.6,65c0-0.5-0.1-0.9-0.2-1.3c-0.1-0.4-0.4-0.8-0.7-1.1
		c-0.2-0.2-0.4-0.3-0.7-0.4C48.7,62,48.5,62,48.2,62c-0.3,0-0.6,0.1-0.9,0.2c-0.2,0.1-0.5,0.3-0.7,0.5c-0.3,0.3-0.5,0.6-0.6,1
		c-0.1,0.4-0.2,0.8-0.2,1.3c0,0.5,0.1,1,0.2,1.4c0.2,0.4,0.4,0.8,0.7,1.1c0.2,0.2,0.4,0.3,0.7,0.4c0.2,0.1,0.5,0.1,0.8,0.1
		c0.3,0,0.6-0.1,0.9-0.2c0.3-0.1,0.5-0.3,0.7-0.5c0.3-0.3,0.5-0.6,0.6-1C50.5,65.8,50.6,65.4,50.6,65z"/>
	<path class="st7" d="M59.3,61.2c0,0.1,0,0.6,0,1.4c0,0.9,0,1.7,0,2.4c0,0.5,0,1.1,0,1.6c0,0.5,0,1,0,1.5c0,0.8-0.1,1.5-0.4,1.9
		c-0.3,0.5-0.7,0.8-1.2,1.1c-0.4,0.2-0.9,0.4-1.5,0.5c-0.6,0.1-1.3,0.2-2.2,0.2L53.9,71c0.6,0,1.1,0,1.5-0.1c0.5,0,0.9-0.1,1.2-0.3
		c0.6-0.2,1-0.5,1.2-0.8c0.2-0.4,0.3-0.8,0.3-1.3c-0.1,0-0.1,0-0.2,0c-0.1,0-0.1,0-0.2,0c-0.6,0-1.2-0.1-1.8-0.2
		c-0.6-0.1-1.1-0.4-1.6-0.7c-0.4-0.3-0.8-0.7-1-1.1c-0.3-0.5-0.4-1-0.4-1.7c0-0.7,0.2-1.3,0.6-1.8c0.4-0.5,0.9-0.9,1.5-1.2
		c0.4-0.2,0.9-0.4,1.5-0.5c0.5-0.1,1.2-0.1,1.9-0.1c0.1,0,0.3,0,0.4,0C59,61.2,59.2,61.2,59.3,61.2z M58.2,65c0-0.3,0-0.8,0-1.3
		c0-0.5,0-1.1,0-1.6c0,0-0.1,0-0.1,0c0,0-0.1,0-0.1,0c-0.5,0-0.8,0-1.2,0.1c-0.3,0.1-0.7,0.2-1.1,0.3c-0.5,0.2-0.9,0.5-1.1,0.9
		s-0.4,0.9-0.4,1.4c0,0.5,0.1,1,0.4,1.4c0.3,0.4,0.6,0.7,1,0.9c0.3,0.1,0.6,0.3,1,0.3c0.4,0.1,0.8,0.1,1.2,0.1c0.1,0,0.1,0,0.1,0
		c0,0,0.1,0,0.1,0c0-0.1,0-0.3,0-0.8C58.2,66.3,58.2,65.7,58.2,65z"/>
	<path class="st7" d="M68.4,64.9c0,0.6-0.1,1.1-0.3,1.6c-0.2,0.5-0.5,1-0.9,1.3c-0.3,0.3-0.7,0.5-1.1,0.7c-0.4,0.2-0.8,0.2-1.3,0.2
		c-0.5,0-0.9-0.1-1.3-0.2c-0.4-0.2-0.8-0.4-1.1-0.7c-0.4-0.4-0.7-0.8-0.9-1.3c-0.2-0.5-0.3-1.1-0.3-1.6c0-0.6,0.1-1.1,0.3-1.5
		c0.2-0.5,0.4-0.9,0.8-1.3c0.3-0.3,0.7-0.6,1.1-0.8c0.4-0.2,0.9-0.3,1.4-0.3c0.5,0,1,0.1,1.4,0.3c0.4,0.2,0.8,0.4,1.1,0.8
		c0.4,0.4,0.6,0.8,0.8,1.3C68.3,63.8,68.4,64.3,68.4,64.9z M67.3,65c0-0.5-0.1-0.9-0.2-1.3c-0.1-0.4-0.4-0.8-0.7-1.1
		c-0.2-0.2-0.4-0.3-0.7-0.4C65.4,62,65.2,62,64.9,62c-0.3,0-0.6,0.1-0.9,0.2c-0.2,0.1-0.5,0.3-0.7,0.5c-0.3,0.3-0.5,0.6-0.6,1
		c-0.1,0.4-0.2,0.8-0.2,1.3c0,0.5,0.1,1,0.2,1.4c0.2,0.4,0.4,0.8,0.7,1.1c0.2,0.2,0.4,0.3,0.7,0.4c0.2,0.1,0.5,0.1,0.8,0.1
		c0.3,0,0.6-0.1,0.9-0.2c0.3-0.1,0.5-0.3,0.7-0.5c0.3-0.3,0.5-0.6,0.6-1C67.2,65.8,67.3,65.4,67.3,65z"/>
</g>
<g>
	<path class="st7" d="M322.3,68.6h-1.1c0-0.1,0-0.4,0-1c0-0.6,0-1.2,0-1.8c0-0.2,0-0.6,0-1.1c0-0.5,0-0.9,0-1.1c0-0.6-0.1-1-0.3-1.2
		s-0.5-0.3-1-0.3c-0.3,0-0.6,0.1-0.9,0.2c-0.4,0.1-0.8,0.3-1.2,0.6c0,0,0,0.1,0,0.1c0,0.1,0,0.2,0,0.3c0,0.4,0,0.8,0,1.2
		s0,0.8,0,1.2c0,0.8,0,1.5,0,2c0,0.5,0,0.8,0,0.9h-1.1c0-0.1,0-0.3,0-0.9c0-0.5,0-1.2,0-1.9c0-0.2,0-0.6,0-1.1c0-0.5,0-0.9,0-1.1
		c0-0.2,0-0.4-0.1-0.6c0-0.2-0.1-0.4-0.2-0.5c-0.1-0.1-0.2-0.3-0.4-0.3s-0.4-0.1-0.7-0.1c-0.3,0-0.6,0.1-1,0.2
		c-0.4,0.2-0.8,0.4-1.3,0.7c0,0.1,0,0.4,0,0.9c0,0.5,0,1,0,1.3c0,0.6,0,1.3,0,2.1c0,0.8,0,1.2,0,1.3h-1.1c0,0,0-0.3,0-0.8
		c0-0.5,0-1.4,0-2.6c0-0.4,0-0.9,0-1.6c0-0.7,0-1.4,0-2.3h1.1l0,0.8l0,0c0.3-0.2,0.7-0.5,1.2-0.7s0.9-0.3,1.3-0.3
		c0.5,0,0.9,0.1,1.2,0.3c0.3,0.2,0.5,0.5,0.7,0.8h0c0.6-0.3,1.1-0.6,1.5-0.8c0.5-0.2,0.9-0.3,1.2-0.3c0.7,0,1.2,0.2,1.6,0.6
		c0.4,0.4,0.6,0.9,0.6,1.6c0,0.5,0,0.9,0,1.3c0,0.4,0,0.7,0,1.1c0,0.8,0,1.5,0,2.1C322.3,68.3,322.3,68.6,322.3,68.6z"/>
	<path class="st7" d="M330.6,64.6h-5.3c0,0.5,0.1,1,0.3,1.4c0.2,0.4,0.5,0.8,1,1.1c0.3,0.2,0.6,0.3,1,0.4s0.8,0.1,1.3,0.1
		c0.3,0,0.5,0,0.8,0s0.4,0,0.4,0l-0.1,1c0,0-0.2,0-0.4,0c-0.2,0-0.5,0-0.8,0c-0.8,0-1.5-0.1-2-0.3c-0.6-0.2-1-0.5-1.4-0.8
		c-0.3-0.3-0.6-0.7-0.8-1.1c-0.2-0.5-0.3-1-0.3-1.5c0-0.6,0.1-1.1,0.2-1.5s0.4-0.9,0.7-1.2c0.3-0.3,0.6-0.6,1.1-0.8
		c0.4-0.2,0.9-0.3,1.3-0.3c0.5,0,0.9,0.1,1.2,0.2c0.3,0.1,0.7,0.3,0.9,0.6c0.3,0.3,0.5,0.7,0.7,1.1C330.6,63.5,330.6,64,330.6,64.6z
		 M329.5,63.8c-0.1-0.6-0.3-1.1-0.6-1.4c-0.3-0.3-0.8-0.5-1.3-0.5s-1,0.2-1.4,0.5c-0.4,0.3-0.6,0.8-0.8,1.4H329.5z"/>
	<path class="st7" d="M338.6,68.6h-1.1c0-0.1,0-0.6,0-1.3c0-0.8,0-1.2,0-1.4c0-0.3,0-0.6,0-1.1c0-0.5,0-0.9,0-1.1
		c0-0.6-0.1-1-0.3-1.2c-0.2-0.2-0.5-0.4-1-0.4c-0.3,0-0.7,0.1-1.1,0.3c-0.4,0.2-0.9,0.4-1.3,0.7c0,0.1,0,0.3,0,0.9c0,0.5,0,1,0,1.4
		c0,0.6,0,1.2,0,2c0,0.8,0,1.2,0,1.3h-1.1c0,0,0-0.3,0-0.9s0-1.4,0-2.5c0-0.5,0-1.1,0-1.8c0-0.7,0-1.4,0-2.2h1.1l0,0.8l0,0
		c0.7-0.4,1.2-0.7,1.7-0.8c0.5-0.2,0.8-0.2,1.1-0.2c0.6,0,1.1,0.2,1.5,0.6c0.4,0.4,0.6,0.9,0.6,1.6c0,0.6,0,1.1,0,1.6
		c0,0.4,0,0.8,0,1.1c0,0.4,0,1,0,1.7C338.6,68.2,338.6,68.6,338.6,68.6z"/>
	<path class="st7" d="M347.2,68.6h-1.1v-0.8l0,0c-0.3,0.2-0.8,0.5-1.3,0.7c-0.5,0.2-1,0.4-1.5,0.4c-0.7,0-1.2-0.2-1.6-0.6
		s-0.6-1-0.6-1.7c0-0.4,0-0.8,0-1.4c0-0.5,0-0.9,0-1.2c0-0.4,0-1,0-1.6c0-0.6,0-1,0-1.1h1.1c0,0.1,0,0.4,0,1s0,1.1,0,1.5
		c0,0.3,0,0.8,0,1.3c0,0.5,0,0.9,0,1.1c0,0.6,0.1,1,0.3,1.3c0.2,0.3,0.5,0.4,0.9,0.4c0.4,0,0.9-0.1,1.4-0.3s0.9-0.4,1.1-0.6
		c0-0.1,0-0.3,0-0.8s0-1.1,0-1.8c0-0.5,0-1.1,0-1.8c0-0.7,0-1.1,0-1.2h1.1c0,0.1,0,0.4,0,0.8s0,1.3,0,2.4c0,0.6,0,1.2,0,1.6
		S347.2,67.4,347.2,68.6z"/>
</g>
<rect x="375.5" y="230.3" class="st11" width="117.6" height="13.3"/>
<rect x="40.7" y="131.3" class="st12" width="85.3" height="54.7"/>
<rect x="153.6" y="131.3" class="st12" width="85.3" height="54.7"/>
<rect x="266.5" y="131.7" class="st12" width="85.3" height="54.7"/>
<g>
	<path class="st7" d="M50.8,104.9c0,0.7,0,1.5,0,2.5s0,1.6,0,2c0,1.3,0,2.3,0,3.1s0,1.2,0,1.2l-0.9,0.4c-1.4-1.9-2.7-3.5-3.9-5
		s-1.9-2.4-2.1-2.6l0,0c0,1.2,0,2.7,0,4.5s0,2.8,0,3.1h-1.1c0-0.1,0-0.5,0-1.2s0-1.7,0-2.9c0-0.5,0-1.2,0-2s0-1.7,0-2.6l1-0.5
		c0.1,0.1,0.8,1,2.1,2.7c1.3,1.7,2.6,3.2,3.7,4.6l0,0c0-0.7,0-1.9,0-3.5s0-2.9,0-3.7H50.8z"/>
	<path class="st7" d="M59.7,110.6c0,0.5-0.1,1-0.3,1.5s-0.5,0.9-0.8,1.2c-0.3,0.3-0.6,0.5-1,0.7s-0.8,0.2-1.2,0.2
		c-0.4,0-0.8-0.1-1.2-0.2s-0.7-0.4-1-0.7c-0.3-0.3-0.6-0.7-0.8-1.2s-0.3-1-0.3-1.5c0-0.5,0.1-1,0.2-1.4s0.4-0.8,0.8-1.2
		c0.3-0.3,0.7-0.6,1.1-0.7s0.8-0.3,1.3-0.3c0.5,0,0.9,0.1,1.3,0.2s0.7,0.4,1,0.7c0.3,0.4,0.6,0.8,0.8,1.2S59.7,110,59.7,110.6z
		 M58.6,110.6c0-0.4-0.1-0.8-0.2-1.3s-0.4-0.7-0.6-1c-0.2-0.2-0.4-0.3-0.6-0.4s-0.5-0.1-0.8-0.1c-0.3,0-0.6,0.1-0.8,0.2
		s-0.5,0.3-0.7,0.5c-0.2,0.2-0.4,0.6-0.6,0.9s-0.2,0.8-0.2,1.2c0,0.5,0.1,0.9,0.2,1.3s0.4,0.7,0.7,1c0.2,0.2,0.4,0.3,0.6,0.4
		s0.5,0.1,0.7,0.1c0.3,0,0.6-0.1,0.8-0.2s0.5-0.2,0.7-0.4c0.3-0.3,0.5-0.6,0.6-1S58.6,111,58.6,110.6z"/>
	<path class="st7" d="M65.3,113.2l-0.1,0.9c0,0-0.1,0-0.2,0s-0.2,0-0.3,0c-0.9,0-1.6-0.2-2.1-0.6s-0.7-1-0.7-1.8c0-0.5,0-1,0-1.6
		s0-1.3,0-2.2h-1.1v-0.8h1.2v-1.6h1v1.6h2.4v0.8h-2.4c0,0.1,0,0.4,0,0.9s0,0.8,0,1.1c0,0.2,0,0.4,0,0.7s0,0.6,0,1
		c0,0.6,0.2,1,0.5,1.3s0.8,0.4,1.5,0.4c0.1,0,0.2,0,0.3,0S65.3,113.2,65.3,113.2z"/>
	<path class="st7" d="M71.1,107.9c-0.3,0.1-0.6,0.2-1.2,0.4s-1.1,0.4-1.8,0.8c0,0.1,0,0.3,0,0.7s0,0.8,0,1.1c0,0.5,0,1.2,0,1.9
		s0,1.1,0,1.2h-1.1c0-0.1,0-0.3,0-0.8s0-1.2,0-2.2c0-0.4,0-1,0-1.8s0-1.5,0-2.2h1.1v1l0,0c0.5-0.3,1-0.5,1.5-0.8s0.9-0.4,1.2-0.4
		L71.1,107.9z"/>
	<path class="st7" d="M77.8,110.3h-4.9c0,0.5,0.1,0.9,0.3,1.3s0.5,0.7,0.9,1c0.3,0.2,0.6,0.3,0.9,0.4s0.7,0.1,1.2,0.1
		c0.3,0,0.5,0,0.7,0s0.3,0,0.4,0l-0.1,0.9c0,0-0.2,0-0.4,0s-0.4,0-0.7,0c-0.7,0-1.4-0.1-1.9-0.3s-1-0.5-1.3-0.8
		c-0.3-0.3-0.5-0.6-0.8-1.1s-0.3-0.9-0.3-1.4c0-0.5,0.1-1,0.2-1.4s0.4-0.8,0.7-1.2c0.3-0.3,0.6-0.5,1-0.7s0.8-0.3,1.2-0.3
		c0.4,0,0.8,0.1,1.1,0.2s0.6,0.3,0.9,0.6c0.3,0.3,0.5,0.7,0.6,1.1S77.8,109.7,77.8,110.3z M76.7,109.6c-0.1-0.6-0.3-1-0.6-1.3
		s-0.7-0.5-1.2-0.5s-0.9,0.2-1.3,0.5s-0.6,0.8-0.7,1.3H76.7z"/>
	<path class="st7" d="M89,110.5c0,0.7-0.2,1.4-0.6,1.9c-0.4,0.5-0.9,0.9-1.5,1.2c-0.4,0.2-0.9,0.3-1.4,0.4s-1.1,0.1-1.9,0.1
		c-0.1,0-0.2,0-0.3,0s-0.2,0-0.3,0c0-0.4,0-1,0-2c0-1,0-2.1,0-3.4c0-0.8,0-1.6,0-2.4c0-0.8,0-1.6,0-2.4h1.1l0,3.2
		c0.9,0,1.7,0.1,2.2,0.2c0.6,0.2,1,0.4,1.4,0.6c0.4,0.3,0.7,0.6,0.9,1S89,110,89,110.5z M87.9,110.5c0-0.6-0.2-1-0.5-1.4
		s-0.7-0.6-1.2-0.8c-0.3-0.1-0.5-0.2-0.8-0.2s-0.6-0.1-0.9-0.1c-0.1,0-0.1,0-0.2,0s-0.1,0-0.2,0c0,0.1,0,0.5,0,1.1s0,1.1,0,1.5
		c0,0.8,0,1.3,0,1.6s0,0.6,0,1c0.5,0,1,0,1.4-0.1c0.4-0.1,0.8-0.2,1.1-0.4c0.4-0.2,0.8-0.5,1-0.9C87.8,111.5,87.9,111.1,87.9,110.5z
		"/>
	<path class="st7" d="M96.9,110.6c0,0.5-0.1,1-0.3,1.5s-0.5,0.9-0.8,1.2c-0.3,0.3-0.6,0.5-1,0.7s-0.8,0.2-1.2,0.2
		c-0.4,0-0.8-0.1-1.2-0.2s-0.7-0.4-1-0.7c-0.3-0.3-0.6-0.7-0.8-1.2s-0.3-1-0.3-1.5c0-0.5,0.1-1,0.2-1.4s0.4-0.8,0.8-1.2
		c0.3-0.3,0.7-0.6,1.1-0.7s0.8-0.3,1.3-0.3c0.5,0,0.9,0.1,1.3,0.2s0.7,0.4,1,0.7c0.3,0.4,0.6,0.8,0.8,1.2S96.9,110,96.9,110.6z
		 M95.8,110.6c0-0.4-0.1-0.8-0.2-1.3s-0.4-0.7-0.6-1c-0.2-0.2-0.4-0.3-0.6-0.4s-0.5-0.1-0.8-0.1c-0.3,0-0.6,0.1-0.8,0.2
		s-0.5,0.3-0.7,0.5c-0.2,0.2-0.4,0.6-0.6,0.9s-0.2,0.8-0.2,1.2c0,0.5,0.1,0.9,0.2,1.3s0.4,0.7,0.7,1c0.2,0.2,0.4,0.3,0.6,0.4
		s0.5,0.1,0.7,0.1c0.3,0,0.6-0.1,0.8-0.2s0.5-0.2,0.7-0.4c0.3-0.3,0.5-0.6,0.6-1S95.8,111,95.8,110.6z"/>
	<path class="st7" d="M104.4,114h-1v-0.8l0,0c-0.3,0.2-0.7,0.4-1.2,0.6s-0.9,0.3-1.4,0.3c-0.6,0-1.1-0.2-1.5-0.6s-0.5-0.9-0.5-1.6
		c0-0.4,0-0.8,0-1.3s0-0.9,0-1.1c0-0.4,0-0.9,0-1.5s0-1,0-1h1.1c0,0.1,0,0.4,0,1s0,1.1,0,1.4c0,0.3,0,0.7,0,1.2s0,0.8,0,1
		c0,0.5,0.1,0.9,0.3,1.2s0.5,0.4,0.9,0.4c0.4,0,0.9-0.1,1.3-0.3s0.8-0.4,1.1-0.6c0-0.1,0-0.3,0-0.8s0-1,0-1.7c0-0.5,0-1.1,0-1.7
		s0-1,0-1.1h1.1c0,0.1,0,0.3,0,0.8s0,1.2,0,2.2c0,0.6,0,1.1,0,1.5S104.4,112.9,104.4,114z"/>
	<path class="st7" d="M110.7,113.2l-0.1,0.9c0,0-0.1,0-0.2,0s-0.2,0-0.3,0c-0.9,0-1.6-0.2-2.1-0.6s-0.7-1-0.7-1.8c0-0.5,0-1,0-1.6
		s0-1.3,0-2.2h-1.1v-0.8h1.2v-1.6h1v1.6h2.4v0.8h-2.4c0,0.1,0,0.4,0,0.9s0,0.8,0,1.1c0,0.2,0,0.4,0,0.7s0,0.6,0,1
		c0,0.6,0.2,1,0.5,1.3s0.8,0.4,1.5,0.4c0.1,0,0.2,0,0.3,0S110.7,113.2,110.7,113.2z"/>
	<path class="st7" d="M113.7,105.8h-1.2v-1.2h1.2V105.8z M113.6,114h-1.1c0-0.1,0-0.5,0-1.3s0-1.5,0-2c0-0.5,0-1,0-1.5s0-1.2,0-2
		h1.1c0,0.7,0,1.3,0,1.8s0,1.1,0,1.5c0,1.1,0,1.9,0,2.6S113.6,114,113.6,114z"/>
	<path class="st7" d="M121.4,117.1h-1.1l0-3.1c-0.6,0-1.2,0-1.6-0.1s-0.9-0.2-1.2-0.3c-0.7-0.3-1.2-0.7-1.5-1.2s-0.5-1.1-0.5-1.9
		c0-0.6,0.2-1.1,0.5-1.6s0.7-0.9,1.3-1.2c0.5-0.3,0.9-0.4,1.5-0.5s1.2-0.1,2-0.1c0.1,0,0.2,0,0.3,0s0.2,0,0.3,0c0,0.9,0,1.8,0,2.8
		s0,1.5,0,1.7c0,1,0,2.1,0,3.4S121.4,117.1,121.4,117.1z M120.4,111.2c0-1.1,0-1.9,0-2.4s0-0.8,0-0.8c-0.5,0-0.9,0-1.3,0.1
		s-0.8,0.2-1.2,0.4c-0.4,0.2-0.7,0.5-0.9,0.9c-0.2,0.4-0.3,0.8-0.3,1.2c0,0.5,0.1,1,0.4,1.3c0.2,0.4,0.6,0.7,1.1,0.9
		c0.3,0.1,0.6,0.2,0.9,0.3c0.3,0.1,0.7,0.1,1.2,0.1c0,0,0.1,0,0.1,0s0.1,0,0.1,0c0-0.3,0-0.5,0-0.9
		C120.4,111.9,120.4,111.5,120.4,111.2z"/>
	<path class="st7" d="M129.5,114h-1v-0.8l0,0c-0.3,0.2-0.7,0.4-1.2,0.6s-0.9,0.3-1.4,0.3c-0.6,0-1.1-0.2-1.5-0.6s-0.5-0.9-0.5-1.6
		c0-0.4,0-0.8,0-1.3s0-0.9,0-1.1c0-0.4,0-0.9,0-1.5s0-1,0-1h1.1c0,0.1,0,0.4,0,1s0,1.1,0,1.4c0,0.3,0,0.7,0,1.2s0,0.8,0,1
		c0,0.5,0.1,0.9,0.3,1.2s0.5,0.4,0.9,0.4c0.4,0,0.9-0.1,1.3-0.3s0.8-0.4,1.1-0.6c0-0.1,0-0.3,0-0.8s0-1,0-1.7c0-0.5,0-1.1,0-1.7
		s0-1,0-1.1h1.1c0,0.1,0,0.3,0,0.8s0,1.2,0,2.2c0,0.6,0,1.1,0,1.5S129.5,112.9,129.5,114z"/>
	<path class="st7" d="M137.4,110.3h-4.9c0,0.5,0.1,0.9,0.3,1.3s0.5,0.7,0.9,1c0.3,0.2,0.6,0.3,0.9,0.4s0.7,0.1,1.2,0.1
		c0.3,0,0.5,0,0.7,0s0.3,0,0.4,0l-0.1,0.9c0,0-0.2,0-0.4,0s-0.4,0-0.7,0c-0.7,0-1.4-0.1-1.9-0.3s-1-0.5-1.3-0.8
		c-0.3-0.3-0.5-0.6-0.8-1.1s-0.3-0.9-0.3-1.4c0-0.5,0.1-1,0.2-1.4s0.4-0.8,0.7-1.2c0.3-0.3,0.6-0.5,1-0.7s0.8-0.3,1.2-0.3
		c0.4,0,0.8,0.1,1.1,0.2s0.6,0.3,0.9,0.6c0.3,0.3,0.5,0.7,0.6,1.1S137.4,109.7,137.4,110.3z M136.3,109.6c-0.1-0.6-0.3-1-0.6-1.3
		s-0.7-0.5-1.2-0.5s-0.9,0.2-1.3,0.5s-0.6,0.8-0.7,1.3H136.3z"/>
	<path class="st7" d="M41.3,116.5v-0.7h96.6v0.7H41.3z"/>
</g>
<g id="Appareil_photo">
	<g>
		<rect x="65.4" y="155.2" class="st7" width="31.1" height="16.1"/>
	</g>
	<g>
		<rect x="65.4" y="159.1" class="st6" width="8" height="8"/>
	</g>
	<g>
		<rect x="88.4" y="159.1" class="st6" width="8" height="8"/>
	</g>
	<g>
		<g>
			<path class="st13" d="M96.5,172.3H65.4c-0.6,0-1-0.4-1-1v-16.1c0-0.6,0.4-1,1-1h31.1c0.6,0,1,0.4,1,1v16.1
				C97.5,171.9,97,172.3,96.5,172.3z M66.4,170.3h29.1v-14.1H66.4V170.3z"/>
		</g>
		<g>
			<path class="st13" d="M96.5,168.4H65.4c-0.6,0-1-0.4-1-1v-8.3c0-0.6,0.4-1,1-1h31.1c0.6,0,1,0.4,1,1v8.3
				C97.5,168,97,168.4,96.5,168.4z M66.4,166.4h29.1v-6.3H66.4V166.4z"/>
		</g>
		<g>
			<circle class="st7" cx="80.9" cy="163.3" r="8"/>
			<path class="st13" d="M80.9,172.3c-5,0-9-4.1-9-9s4.1-9,9-9s9,4.1,9,9S85.9,172.3,80.9,172.3z M80.9,156.2c-3.9,0-7,3.2-7,7
				s3.2,7,7,7c3.9,0,7-3.2,7-7S84.8,156.2,80.9,156.2z"/>
		</g>
		<g>
			<path class="st13" d="M80.9,168.4c-2.8,0-5.1-2.3-5.1-5.1c0-2.8,2.3-5.1,5.1-5.1s5.1,2.3,5.1,5.1
				C86.1,166.1,83.8,168.4,80.9,168.4z M80.9,160.1c-1.7,0-3.1,1.4-3.1,3.1c0,1.7,1.4,3.1,3.1,3.1s3.1-1.4,3.1-3.1
				C84.1,161.5,82.7,160.1,80.9,160.1z"/>
		</g>
		<g>
			<rect x="90" y="152.1" class="st7" width="4.3" height="3.1"/>
			<path class="st13" d="M94.2,156.2H90c-0.6,0-1-0.4-1-1v-3.1c0-0.6,0.4-1,1-1h4.3c0.6,0,1,0.4,1,1v3.1
				C95.2,155.8,94.8,156.2,94.2,156.2z M91,154.2h2.3v-1.1H91V154.2z"/>
		</g>
		<g>
			<polyline class="st7" points="80.9,150.3 77.3,150.3 75.6,155.2 86.2,155.2 84.5,150.3 80.9,150.3 			"/>
			<path class="st13" d="M86.2,156.2H75.6c-0.3,0-0.6-0.2-0.8-0.4c-0.2-0.3-0.2-0.6-0.1-0.9l1.7-5c0.1-0.4,0.5-0.7,0.9-0.7h7.1
				c0.4,0,0.8,0.3,0.9,0.7l1.7,5c0.1,0.3,0.1,0.6-0.1,0.9C86.9,156.1,86.6,156.2,86.2,156.2z M77,154.2h7.8l-1-3h-5.7L77,154.2z"/>
		</g>
	</g>
</g>
<g id="Appareil_photo_1_">
	<g>
		<rect x="181.3" y="154.6" class="st7" width="31.1" height="16.1"/>
	</g>
	<g>
		<rect x="181.3" y="158.5" class="st14" width="8" height="8"/>
	</g>
	<g>
		<rect x="204.3" y="158.5" class="st14" width="8" height="8"/>
	</g>
	<g>
		<g>
			<path class="st13" d="M212.4,171.7h-31.1c-0.6,0-1-0.4-1-1v-16.1c0-0.6,0.4-1,1-1h31.1c0.6,0,1,0.4,1,1v16.1
				C213.4,171.2,212.9,171.7,212.4,171.7z M182.3,169.7h29.1v-14.1h-29.1V169.7z"/>
		</g>
		<g>
			<path class="st13" d="M212.4,167.8h-31.1c-0.6,0-1-0.4-1-1v-8.3c0-0.6,0.4-1,1-1h31.1c0.6,0,1,0.4,1,1v8.3
				C213.4,167.3,212.9,167.8,212.4,167.8z M182.3,165.8h29.1v-6.3h-29.1V165.8z"/>
		</g>
		<g>
			<circle class="st7" cx="196.8" cy="162.6" r="8"/>
			<path class="st13" d="M196.8,171.7c-5,0-9-4.1-9-9s4.1-9,9-9s9,4.1,9,9S201.8,171.7,196.8,171.7z M196.8,155.6c-3.9,0-7,3.2-7,7
				s3.2,7,7,7c3.9,0,7-3.2,7-7S200.7,155.6,196.8,155.6z"/>
		</g>
		<g>
			<path class="st13" d="M196.8,167.8c-2.8,0-5.1-2.3-5.1-5.1c0-2.8,2.3-5.1,5.1-5.1s5.1,2.3,5.1,5.1
				C202,165.5,199.7,167.8,196.8,167.8z M196.8,159.5c-1.7,0-3.1,1.4-3.1,3.1c0,1.7,1.4,3.1,3.1,3.1s3.1-1.4,3.1-3.1
				C200,160.9,198.5,159.5,196.8,159.5z"/>
		</g>
		<g>
			<rect x="205.8" y="151.5" class="st7" width="4.3" height="3.1"/>
			<path class="st13" d="M210.1,155.6h-4.3c-0.6,0-1-0.4-1-1v-3.1c0-0.6,0.4-1,1-1h4.3c0.6,0,1,0.4,1,1v3.1
				C211.1,155.2,210.7,155.6,210.1,155.6z M206.8,153.6h2.3v-1.1h-2.3V153.6z"/>
		</g>
		<g>
			<polyline class="st7" points="196.8,149.6 193.2,149.6 191.5,154.6 202.1,154.6 200.4,149.6 196.8,149.6 			"/>
			<path class="st13" d="M202.1,155.6h-10.6c-0.3,0-0.6-0.2-0.8-0.4c-0.2-0.3-0.2-0.6-0.1-0.9l1.7-5c0.1-0.4,0.5-0.7,0.9-0.7h7.1
				c0.4,0,0.8,0.3,0.9,0.7l1.7,5c0.1,0.3,0.1,0.6-0.1,0.9C202.8,155.4,202.5,155.6,202.1,155.6z M192.9,153.6h7.8l-1-3H194
				L192.9,153.6z"/>
		</g>
	</g>
</g>
<g id="Appareil_photo_2_">
	<g>
		<rect x="293.6" y="154.6" class="st7" width="31.1" height="16.1"/>
	</g>
	<g>
		<rect x="293.6" y="158.5" class="st15" width="8" height="8"/>
	</g>
	<g>
		<rect x="316.7" y="158.5" class="st15" width="8" height="8"/>
	</g>
	<g>
		<g>
			<path class="st13" d="M324.7,171.7h-31.1c-0.6,0-1-0.4-1-1v-16.1c0-0.6,0.4-1,1-1h31.1c0.6,0,1,0.4,1,1v16.1
				C325.7,171.2,325.3,171.7,324.7,171.7z M294.6,169.7h29.1v-14.1h-29.1V169.7z"/>
		</g>
		<g>
			<path class="st13" d="M324.7,167.8h-31.1c-0.6,0-1-0.4-1-1v-8.3c0-0.6,0.4-1,1-1h31.1c0.6,0,1,0.4,1,1v8.3
				C325.7,167.3,325.3,167.8,324.7,167.8z M294.6,165.8h29.1v-6.3h-29.1V165.8z"/>
		</g>
		<g>
			<circle class="st7" cx="309.2" cy="162.6" r="8"/>
			<path class="st13" d="M309.2,171.7c-5,0-9-4.1-9-9s4.1-9,9-9s9,4.1,9,9S314.1,171.7,309.2,171.7z M309.2,155.6c-3.9,0-7,3.2-7,7
				s3.2,7,7,7c3.9,0,7-3.2,7-7S313,155.6,309.2,155.6z"/>
		</g>
		<g>
			<path class="st13" d="M309.2,167.8c-2.8,0-5.1-2.3-5.1-5.1c0-2.8,2.3-5.1,5.1-5.1s5.1,2.3,5.1,5.1
				C314.3,165.5,312,167.8,309.2,167.8z M309.2,159.5c-1.7,0-3.1,1.4-3.1,3.1c0,1.7,1.4,3.1,3.1,3.1s3.1-1.4,3.1-3.1
				C312.3,160.9,310.9,159.5,309.2,159.5z"/>
		</g>
		<g>
			<rect x="318.2" y="151.5" class="st7" width="4.3" height="3.1"/>
			<path class="st13" d="M322.5,155.6h-4.3c-0.6,0-1-0.4-1-1v-3.1c0-0.6,0.4-1,1-1h4.3c0.6,0,1,0.4,1,1v3.1
				C323.5,155.2,323,155.6,322.5,155.6z M319.2,153.6h2.3v-1.1h-2.3V153.6z"/>
		</g>
		<g>
			<polyline class="st7" points="309.2,149.6 305.6,149.6 303.8,154.6 314.5,154.6 312.7,149.6 309.2,149.6 			"/>
			<path class="st13" d="M314.5,155.6h-10.6c-0.3,0-0.6-0.2-0.8-0.4c-0.2-0.3-0.2-0.6-0.1-0.9l1.7-5c0.1-0.4,0.5-0.7,0.9-0.7h7.1
				c0.4,0,0.8,0.3,0.9,0.7l1.7,5c0.1,0.3,0.1,0.6-0.1,0.9C315.1,155.4,314.8,155.6,314.5,155.6z M305.2,153.6h7.8l-1-3h-5.7
				L305.2,153.6z"/>
		</g>
	</g>
</g>
<polygon class="st16" points="169.2,194.3 124.7,194.3 171.1,55.9 213.6,55.9 "/>
<polygon class="st17" points="419.4,159.8 414.8,159.8 442.2,103.6 446.6,103.6 "/>
<polygon class="st17" points="427.2,213.6 421.7,213.6 454.5,136.5 459.8,136.5 "/>
</svg>
