<svg xmlns="http://www.w3.org/2000/svg" viewBox="0 0 283.46 283.46"><defs><style>.cls-1{fill:#fff;stroke-width:4px;}.cls-1,.cls-2{stroke:#000;}.cls-1,.cls-2,.cls-3{stroke-miterlimit:10;}.cls-3{fill:red;stroke:red;stroke-width:3px;}</style></defs><title>Plan de travail 1</title><g id="Calque_1" data-name="Calque 1"><circle class="cls-1" cx="141.73" cy="141.02" r="135.15"/><path class="cls-2" d="M201.47,185h-4.78l-18.24-58.35v-.25a4.77,4.77,0,0,0-1.69-2.27,4.51,4.51,0,0,0-2.71-.88,4.44,4.44,0,0,0-2.83.95,5.11,5.11,0,0,0-1.69,2.32l-2.9,9.31H162L174.05,97Z"/><path class="cls-2" d="M241,185h-4.78l-18.24-58.35v-.25a4.77,4.77,0,0,0-1.69-2.27,4.51,4.51,0,0,0-2.71-.88,4.44,4.44,0,0,0-2.83.95,5.11,5.11,0,0,0-1.69,2.32l-2.9,9.31h-4.65L213.54,97Z"/></g><g id="Calque_2" data-name="Calque 2"><path class="cls-2" d="M96.41,162.37H92a14.09,14.09,0,0,0-1.59-6.83,20.51,20.51,0,0,0-4.14-5.3,33.76,33.76,0,0,0-5.92-4.34Q77,144,73.48,142t-7-4a36.31,36.31,0,0,1-6.28-4.58,17.8,17.8,0,0,1-6.47-13.78,21.09,21.09,0,0,1,1.65-8.3,20.6,20.6,0,0,1,4.57-6.77A22.74,22.74,0,0,1,66.77,100a21,21,0,0,1,16.59,0A21.51,21.51,0,0,1,94.7,111.38a20.45,20.45,0,0,1,1.71,8.3H92A16.67,16.67,0,0,0,90.68,113a16.7,16.7,0,0,0-9-9,17.17,17.17,0,0,0-13.3,0,16.64,16.64,0,0,0-9,9,16.51,16.51,0,0,0-1.35,6.65q0,6,5,10.61a34.13,34.13,0,0,0,5.67,4.09q3.23,1.89,6.77,3.84t7.32,4.09a34.69,34.69,0,0,1,6.59,4.94Q96.41,153.72,96.41,162.37ZM75.06,183.72a21,21,0,0,1-8.29-1.64,21.17,21.17,0,0,1-11.41-11.41,21.09,21.09,0,0,1-1.65-8.3H58.1A16.51,16.51,0,0,0,59.45,169a16.64,16.64,0,0,0,9,9,16.53,16.53,0,0,0,6.65,1.34Z"/><path class="cls-3" d="M137,160.18a2.09,2.09,0,0,1-2.19,2.19,2.13,2.13,0,0,1-1.59-.61,2.11,2.11,0,0,1-.61-1.58,2.15,2.15,0,0,1,.61-1.59,2.36,2.36,0,0,1,3.17,0A2.15,2.15,0,0,1,137,160.18Z"/><path class="cls-2" d="M161.35,183.72h-4.63L139,127.12v-.25a4.71,4.71,0,0,0-1.65-2.19,4.5,4.5,0,0,0-5.37.06,5,5,0,0,0-1.64,2.25l-2.81,9h-4.51l11.71-37.7Z"/></g></svg>